/* XPM */
static char *_ea56119103544bff8aab92903a7e785gB86cxHxT1cKCPj1[] = {
/* columns rows colors chars-per-pixel */
"47 47 4 1 ",
"  c None",
". c #826548",
"X c #DFDCD9",
"o c #FCD1D6",
/* pixels */
"                                               ",
"                           o     o             ",
"                           o     o             ",
"                         o o    oo             ",
"                         o o    oo             ",
"                      o  o o    oo             ",
"                      o  o o    oo             ",
"                      o  o o    oo             ",
"                  o   o  o o    oo             ",
"                  o   o  o o    oo             ",
"                  o   o oo o    oo             ",
"                  o   oooooo    oo             ",
"                  o   oooooo    oo             ",
"                  o   oooooo  o oo             ",
"                  o   oooooo  o oo             ",
"                  o   oooooo  o oo             ",
"             o    o   oooooo  o oo             ",
"             o    o   oooooo  o oo             ",
"             o    o   oooooo  o oo             ",
"             o o oo   oooooo  o oo             ",
"             o o oo   oooooo  o oo             ",
"             oooooo   oooooo  o oo             ",
"             oooooo   oooooo  o oo             ",
"             oooooo   oooooo  o oo             ",
"              ooooo   oooo o  o oo             ",
"              ooooo   ooo  o  o oo             ",
"              ooooo   oo   o  o  o             ",
"              ooooo   oo         o             ",
"               o.oo   o          o             ",
"               o.oo   o          o             ",
"               o.oo   o          o             ",
"               o..o   o          o             ",
"               o..o   o                        ",
"                ..o                            ",
"                ..                             ",
"                ..                             ",
"                ..                             ",
"                ..                             ",
"                ..                             ",
"                ..                             ",
"                .                              ",
"                .                              ",
"                .                              ",
"                .                              ",
"                .                              ",
"                X                              ",
"                                               "
};
