/* XPM */
static char *_65ba54d469346bbbf79061a00a43b62SWI708pySYCsiXPZ[] = {
/* columns rows colors chars-per-pixel */
"47 47 14 1 ",
"  c None",
". c black",
"X c #3E3E3E",
"o c #504032",
"O c #607273",
"+ c #E63C40",
"@ c #B14157",
"# c #826548",
"$ c #E8A21E",
"% c #FFDB63",
"& c #A5B5B6",
"* c #E68C88",
"= c #FCD1D6",
"- c #F7F9F9",
/* pixels */
"                                               ",
"                                               ",
"                                               ",
"                                               ",
"                                               ",
"                                               ",
"               .. ..  ..                       ",
"             . ** ==  =*. .                    ",
"           ..* *. ..  === *..                  ",
"           .** .      === ==*.                 ",
"            ..        .*= ====.                ",
"                   .  ..* =====.               ",
"                  .@  **. =====.               ",
"               .. **  *** @*===*.              ",
"                  **  @** ***===.              ",
"                  ..  **@ ***===*              ",
"                  **  *** =======              ",
"                . **  *** =======              ",
"               .* ..  *== =*=====              ",
"                  *=  @== ==**==* .            ",
"                  =@  @*= ===**** .            ",
"                  =@  *.. =====*= .            ",
"                  .=  *.. .*===@=              ",
"             * == *.  **. .+  @..              ",
"               ** =*  *** ==  *.               ",
"             * == =*  =@* ==  .*.              ",
"           **= == *@  ==@ ..  **.              ",
"             * == @.  === @*  *.. ..           ",
"               %. ..  === =*==.=* ==.          ",
"               .= =. *.== **==.** *=....       ",
"             . == *@ =.** ==*.... ====*        ",
"               .= == .**= =*=.*$. *@**         ",
"               .. == .XX= =*=X... ..           ",
"                  .. &&XX %%$X..               ",
"               && -- &--& %%$&O.               ",
"             & -- -& ---- --&&&&.              ",
"            &- -- -- ---- --&&&&O              ",
"             O -- -- ---& ..O&&&O .            ",
"               OO && &OOO .OOO&&O .            ",
"               &O OO OOO. .OOOOOO .            ",
"               &&     &.. &&&OOO&              ",
"                     ...  .XX&&&.              ",
"               .X XX .    .XX$$$.              ",
"               %% XX    . .$$oooo              ",
"             . ## %%  ..o ooooooo .            ",
"            .# ## #.                           ",
"                                               "
};
