/* XPM */
static char *result[] = {
/* columns rows colors chars-per-pixel */
"47 47 14 1 ",
"  c black",
". c #3E3E3E",
"X c #504032",
"o c #607273",
"O c #B14157",
"+ c #826548",
"@ c #E8A21E",
"# c #FFDB63",
"$ c #A5B5B6",
"% c #E68C88",
"& c #FCD1D6",
"* c #F7F9F9",
"= c white",
"- c None",
/* pixels */
"-----------------------------------------------",
"-----------------------------------------------",
"-----------------------------------------------",
"-----------------------------------------------",
"-----------------------------------------------",
"-----------------------------------------------",
"-----------------------------------------------",
"-----------------------------------------------",
"-----------------------------------------------",
"-----------------------------------------------",
"-----------------------------------------------",
"-------------------------oooo------------------",
"---------------------------$$ooo---------------",
"--------------------------oo$$$$oo-------------",
"-----------------------..o$****$$$oo-----------",
"---------------------OO@.*********$oo----------",
"--------------------O@###***$$******oo---------",
"-------------------O%@@##.$$*****$$***o--------",
"------------------O%&%%&&.$$*******$***o-------",
"-----------------O%&O&&&%..********$$**o-------",
"-----------------O%O%&&&%%.*****$$$$$***o------",
"----------------O%OO&&%&&& **$*$o$$*****o------",
"----------------O%O%&%&&&& *$$oo$$******o------",
"---------------O%OO&&%&&&&% $ooo********o-O----",
"---------------O%O%&%&&&&&%% oo*********o%O----",
"---------------O%O%&%&&&&&&&% $***$****$o%O----",
"---------------O%O%&%%&%%O&&& **$$$****o%&O----",
"----------------OO%OO%%OO%&&& #$$$****$o%&O----",
"----------------O%OO%&%% &&&% #$$*****O%&%O----",
"-----------------OO%%%&& &&& ..#*****oO%&O-----",
"------------------OO%%%X %&& ..#$$**oOO&%O-----",
"-------------------OOO + &&% ..#$$ooOO%&O------",
"--------------------O + %&& .. ooo%%O%&%O------",
"--------------------X+# &&%   &&%%%O&&&O--O----",
"-------------------X++# #&   &&&O%%&&&%O%O-----",
"------------------X+++ ..#  &&&&&&&&&%O%O------",
"------------------X+++ ..  %&&%&&&&&%OOO-------",
"------------------X++O... %&&%&&&&%OO----------",
"------------------X+=O#..#O&O%&&%OO------------",
"-------------------X=O&##&O%%OOOO--------------",
"--------------------X=O%%&OO%%-----------------",
"---------------------X-OOOOOOOOO---------------",
"-----------------------------------------------",
"-----------------------------------------------",
"-----------------------------------------------",
"-----------------------------------------------",
"-----------------------------------------------"
};
