/* XPM */
static char *result[] = {
/* columns rows colors chars-per-pixel */
"47 47 12 1 ",
"  c black",
". c #3E3E3E",
"X c #607273",
"o c #B14157",
"O c #826548",
"+ c #E8A21E",
"@ c #FFDB63",
"# c #A5B5B6",
"$ c #E68C88",
"% c #FCD1D6",
"& c #F7F9F9",
"* c None",
/* pixels */
"***********************************************",
"***********************************************",
"***********************************************",
"***********************************************",
"***********************************************",
"***********************************************",
"********************       ********************",
"*****************      %%%$   *****************",
"***************  &&&&&#  o%%%$  ***************",
"************** &&&&&&&&&#  o$%%$ **************",
"************* &&&&&&&&&&&&   %%%% *************",
"************ X&&&&##&&&&&&&   %%%$ ************",
"************ &&&&##&&&&&&&&& $o%%% ************",
"*********** #&&&&##&&&##&&&& $$$%%$ ***********",
"*********** &&&&&###&&&##&&## $$%%% ***********",
"*********** &&&&&#X#&&&###&## $o%%%$ **********",
"********** #&&&&&&# X&&&##@@@ %%%%%% **********",
"********** &&&&&&&&  X#&@@... %%%$%% **********",
"********** &&#&&&&##      .... %%%$$ **********",
"********** &&#&&&&&## $%%$   .  %%%o **********",
"********** &&&##&&&& $%%%%%%$    %%%$ *********",
"********** #&&##..  $$%%%%%%%%$   $   *********",
"*********** &&...$%%%%%o$%%$%%%%@  @%% ********",
"*********** .@@%$$%%%%%$o    $%@....@$ ********",
"*********** +@@%%%$%%%%$o$% O   ....@$ ********",
"************ @+%%%$%%%%%$$%% O@@  .@% *********",
"************ ++%%%%$%%%$$%%%% OOO    **********",
"************* $%%%%%%%%$o%%%%  OO *************",
"************** $%%%%%%%%o%%% ** O *************",
"***************  $%%%%%%%o$ ****  *************",
"*****************  $%%%%$  ********************",
"*******************      **********************",
"***********************************************",
"***********************************************",
"***********************************************",
"***********************************************",
"***********************************************",
"***********************************************",
"***********************************************",
"***********************************************",
"***********************************************",
"***********************************************",
"***********************************************",
"***********************************************",
"***********************************************",
"***********************************************",
"***********************************************"
};
