/* XPM */
static char *_7509169909e49e8d6f6580fa37ad063WaGjysjpLwdFTBCK[] = {
/* columns rows colors chars-per-pixel */
"47 47 15 1 ",
"  c None",
". c black",
"X c #3E3E3E",
"o c #504032",
"O c #607273",
"+ c #AC2023",
"@ c #E63C40",
"# c #B14157",
"$ c #826548",
"% c #E8A21E",
"& c #FFDB63",
"* c #A5B5B6",
"= c #E68C88",
"- c #FCD1D6",
"; c #F7F9F9",
/* pixels */
"                                               ",
"                                               ",
"                                               ",
"                                               ",
"                                               ",
"                                               ",
"                       .........               ",
"                    ...=------==..             ",
"                  ..=-----=....===..           ",
"                 .=------..    .#==.           ",
"                .------=.       ...            ",
"               .------=.....                   ",
"               .-----#.===##..                 ",
"              .=---=#=========..               ",
"              .---======##===.                 ",
"             .=---===##====..                  ",
"             .-------========.                 ",
"             .--------========.                ",
"             .-----=----===..==.               ",
"            .==--==-----#==-=.                 ",
"            .-====-----=#=-#-.                 ",
"            .--=-----=..==-#-.                 ",
"             .-#---=....===-..                 ",
"              ..#=+@...==...=---==             ",
"               .=-----======--==               ",
"              .=.=----=#-===----==             ",
"              .==....##---=#==----==           ",
"           .....=--=#-----=.#=--==             ",
"          .--#=-.--=-----......&.              ",
"       ....-=#==.--===--.=-.---..              ",
"        =----#....=---==.-=#=---..             ",
"         ==#=-.%=.-=---==.#----..              ",
"           ......X-=---XX.---=..               ",
"               ..X%&&&XX**....                 ",
"               .O*%&&**;;**;;***               ",
"             ..****;;*;;;;;*;;;;**             ",
"             .O****;;*;;;;;;;;;;;;*            ",
"            .OO***O...*;;;;;;;;;OO             ",
"            .OO**OOO..OOO****OOO*              ",
"            .*OOOOOO...OOOOOOOO*               ",
"             .*OOO***O..*     ***              ",
"              .***XX.. ...*                    ",
"              .%%%XX.    .XXXXX.               ",
"             .oooo%%...   .XX&&&.              ",
"            .oooooooooo.. .&&$$$$.             ",
"                           .$$$$$$.            ",
"                                               "
};
