/* XPM */
static char *_d267f3601804253b6a1da4984a6597eR38yXshBEob4TDbt[] = {
/* columns rows colors chars-per-pixel */
"47 47 14 1 ",
"  c None",
". c black",
"X c #3E3E3E",
"o c #504032",
"O c #607273",
"+ c #B14157",
"@ c #826548",
"# c #E8A21E",
"$ c #FFDB63",
"% c #A5B5B6",
"& c #E68C88",
"* c #FCD1D6",
"= c #F7F9F9",
"- c white",
/* pixels */
"                                               ",
"                                               ",
"                                               ",
"                                               ",
"                                               ",
"                                               ",
"                                               ",
"                                               ",
"                                               ",
"                                               ",
"                                               ",
"                  OOOO                         ",
"               OOO%%                           ",
"             OO%%%%OO                          ",
"           OO%%%====%OXX                       ",
"          OO%=========X#++                     ",
"         OO======%%===$$$#+                    ",
"        O===%%=====%%X$$##&+                   ",
"       O===%=======%%X**&&*&+                  ",
"       O==%%========XX&***+*&+                 ",
"      O===%%%%%=====X&&***&+&+                 ",
"      O=====%%O%=%==.***&**++&+                ",
"      O======%%OO%%=.****&*&+&+                ",
"    + O========OOO%.&****&**++&+               ",
"    +&O=========OO.&&*****&*&+&+               ",
"    +&O%====%===%.&*******&*&+&+               ",
"    +*&O====%%%==.***+&&*&&*&+&+               ",
"    +*&O%====%%%$.***&++&&++&++                ",
"    +&*&+=====%%$.&***.&&*&++&+                ",
"     +*&+O=====$XX.***.**&&&++                 ",
"     +&*++O==%%$XX.**&.o&&&++                  ",
"      +*&++OO%%$XX.&**.@.+++                   ",
"      +&*&+&&OOO.XX.**&.@.+                    ",
"    +  +***+&&&**...&**.$@o                    ",
"     +&+&***&&+***...*$.$@@o                   ",
"      +&+&*********..$XX.@@@o                  ",
"       +++&*****&**&..XX.@@@o                  ",
"          ++&****&**&.XXX+@@o                  ",
"            ++&**&+*+$XX$+-@o                  ",
"              ++++&&+*$$*+-o                   ",
"                 &&++*&&+-o                    ",
"               +++++++++ o                     ",
"                                               ",
"                                               ",
"                                               ",
"                                               ",
"                                               "
};
