/* XPM */
static char *_4b1f358d6c04dffe86ef9d67e1b74148Rpv86C5nyIwJFQo[] = {
/* columns rows colors chars-per-pixel */
"47 47 12 1 ",
"  c None",
". c black",
"X c #3E3E3E",
"o c #607273",
"O c #B14157",
"+ c #826548",
"@ c #E8A21E",
"# c #FFDB63",
"$ c #A5B5B6",
"% c #E68C88",
"& c #FCD1D6",
"* c #F7F9F9",
/* pixels */
"                                               ",
"                                               ",
"                                               ",
"                                               ",
"                                               ",
"                                               ",
"                    .......                    ",
"                 ...%&&&......                 ",
"               ..%&&&O..$*****..               ",
"              .%&&%O..$*********.              ",
"             .&&&&...************.             ",
"            .%&&&...*******$$****o.            ",
"            .&&&O%.*********$$****.            ",
"           .%&&%%%.****$$***$$****$.           ",
"           .&&&%%.$$**$$***$$$*****.           ",
"          .%&&&O%.$$*$$$***$o$*****.           ",
"          .&&&&&&.###$$***o.$******$.          ",
"          .&&%&&&.XXX##*$o..********.          ",
"          .%%&&&.XXXX......$$****$**.          ",
"          .O&&&..X...%&&%.$$*****$**.          ",
"         .%&&&....%&&&&&&%.****$$***.          ",
"         ...%...%&&&&&&&&%%..XX$$**$.          ",
"        .&&#..#&&&&%&&%O&&&&&%XXX**.           ",
"        .%#XXXX#&%....O%&&&&&%%&##X.           ",
"        .%#XXXX...+.&%O%&&&&%&&&##@.           ",
"         .&#X..##+.&&%%&&&&&%&&&@#.            ",
"          ....+++.&&&&%%&&&%&&&&@@.            ",
"             .++..&&&&O%&&&&&&&&%.             ",
"             .+.  .&&&O&&&&&&&&%.              ",
"             ..    .%O&&&&&&&%..               ",
"                    ..%&&&&%..                 ",
"                      ......                   ",
"                                               ",
"                                               ",
"                                               ",
"                                               ",
"                                               ",
"                                               ",
"                                               ",
"                                               ",
"                                               ",
"                                               ",
"                                               ",
"                                               ",
"                                               ",
"                                               ",
"                                               "
};
