/* XPM */
static char *_aaaa3153dab47f78a49f22ddb340b2dQxVCqIIY6aNa96uk[] = {
/* columns rows colors chars-per-pixel */
"47 47 15 1 ",
"  c None",
". c black",
"X c #3E3E3E",
"o c #504032",
"O c #607273",
"+ c #AC2023",
"@ c #E63C40",
"# c #B14157",
"$ c #826548",
"% c #E8A21E",
"& c #FFDB63",
"* c #A5B5B6",
"= c #E68C88",
"- c #FCD1D6",
"; c #F7F9F9",
/* pixels */
"                                               ",
"                                               ",
"                                               ",
"                                               ",
"                                               ",
"                 ....                          ",
"               ..=--=#.                        ",
"              .=--=..==.                       ",
"             .---=.  .==.                      ",
"            .=---.   .#=.                      ",
"           .=---..    ..                       ",
"           .---#...                            ",
"          .---=#===..                          ",
"          .---#=====#.                         ",
"         .=---===#===.                         ",
"         .----#=======.                        ",
"         .-----=======.                        ",
"        .--------=====.                        ",
"        .-----=--===...                        ",
"        .=--==---#===-.                        ",
"       .-====---=#==-#.      ...               ",
"       .--=----..#==-#.     .---..             ",
"        .-#--....====-...  .--==--.            ",
"         ..#+@..===...--=...=-==--.            ",
"          .=----===.--=---&.-##--=.            ",
"          ..---=#====-=---&.=--...             ",
"          .=..##=---==.........     ...        ",
"         .==---=----===.           .$$$$$      ",
"         .===--=---====.           .&&$$$$     ",
"      ...X%=..--===----X.         .XXX&$$$$    ",
"     .==%XX%. .=-----=-X.        ..XX......    ",
"    .====%X.   .-=--=-XX*..    ..*;*X.o.       ",
"    .=##==.    .--=-&XX;;**....**O*;..%oo      ",
"     ..#=.     .X-%&&X*;;;**;..***O*;.X%o      ",
"       ...      .X%&;*;;;;;*;;*;***O;..%oo     ",
"                .***;*;;;;;;*;;*;**O*. .oo     ",
"                 O**;**;;;;;;;;;;***.   ..     ",
"                 .****.;;;;;;;;;;**.           ",
"                  .****.*;;;;;;;*..            ",
"                   .**OO..*;;;*..              ",
"                    ..OO**.....                ",
"                      .......                  ",
"                                               ",
"                                               ",
"                                               ",
"                                               ",
"                                               "
};
