/* XPM */
static char *_41bff00faba4725c229c520eb991607akqxt4RM0C7sgIJw[] = {
/* columns rows colors chars-per-pixel */
"47 47 4 1 ",
"  c None",
". c #826548",
"X c #DFDCD9",
"o c #FCD1D6",
/* pixels */
"                                               ",
"             o     o                           ",
"             o     o                           ",
"             oo    o o                         ",
"             oo    o o                         ",
"             oo    o o  o                      ",
"             oo    o o  o                      ",
"             oo    o o  o                      ",
"             oo    o o  o   o                  ",
"             oo    o o  o   o                  ",
"             oo    o oo o   o                  ",
"             oo    oooooo   o                  ",
"             oo    oooooo   o                  ",
"             oo o  oooooo   o                  ",
"             oo o  oooooo   o                  ",
"             oo o  oooooo   o                  ",
"             oo o  oooooo   o    o             ",
"             oo o  oooooo   o    o             ",
"             oo o  oooooo   o    o             ",
"             oo o  oooooo   oo o o             ",
"             oo o  oooooo   oo o o             ",
"             oo o  oooooo   oooooo             ",
"             oo o  oooooo   oooooo             ",
"             oo o  oooooo   oooooo             ",
"             oo o  o oooo   ooooo              ",
"             oo o  o  ooo   ooooo              ",
"             o  o  o   oo   ooooo              ",
"             o         oo   ooooo              ",
"             o          o   oo.o               ",
"             o          o   oo.o               ",
"             o          o   oo.o               ",
"             o          o   o..o               ",
"                        o   o..o               ",
"                            o..                ",
"                             ..                ",
"                             ..                ",
"                             ..                ",
"                             ..                ",
"                             ..                ",
"                             ..                ",
"                              .                ",
"                              .                ",
"                              .                ",
"                              .                ",
"                              .                ",
"                              X                ",
"                                               "
};
