/* XPM */
static char *result[] = {
/* columns rows colors chars-per-pixel */
"47 47 14 1 ",
"  c black",
". c #3E3E3E",
"X c #504032",
"o c #607273",
"O c #B14157",
"+ c #826548",
"@ c #E8A21E",
"# c #FFDB63",
"$ c #A5B5B6",
"% c #E68C88",
"& c #FCD1D6",
"* c #F7F9F9",
"= c white",
"- c None",
/* pixels */
"-----------------------------------------------",
"-----------------------------------------------",
"-----------------------------------------------",
"-----------------------------------------------",
"-----------------------------------------------",
"-----------------------------------------------",
"-----------------------------------------------",
"-----------------------------------------------",
"-----------------------------------------------",
"-----------------------------------------------",
"-----------------------------------------------",
"-----------------------------------------------",
"-----------------------------------------------",
"-----------------------------------------------",
"-----------------------------------------------",
"-----------------------------------------------",
"-----------------------------------------------",
"--------------------OOOO-----------------------",
"------------------OO%%%%OO---------------------",
"-----------------O%OOOOO%%OO-------------------",
"--------XXXX----OOO%%%%OOO%%O------------------",
"-------X++++X--OO%OO&&&&%OO&%O-----------------",
"------X==++++XOO%%%O%%%&&&%O&%O----------------",
"-----X=OOO++++ O%%&%%&&%%&&&%@@O---------------",
"------O&#.  ##+ %&%%&&&&&%&&%@#O---------------",
"-----O%#....   +X&%O%&&&&&&&&##@.--------------",
"-----O%#....#&%    O%&&&&&%%&##..--------------",
"-----O&&#  #&&&&%&&%O&&&&&%...**o--o-----------",
"-----OOOO%   %&&&&&&&&%%  ..$$**$o-o-----------",
"-----OO%&&%    %&&&&&&% ****$$***o$o-----------",
"-----O%%O&&&  .   %&&% $$*****$**$$o-----------",
"-----O%O%%&&& ....    oo$$****$**$o------------",
"-----O-O&&%&&& ...##*$ooo********$o------------",
"-----O-O&&&&&&o###$$***oo$******$$o------------",
"-------O%&&&O%o$$*$$$***$o$*****$o-------------",
"--------O&&&%%o$$**$$***$$$**$**$o-------------",
"--------O%&&%%%o****$$***$$**$*$o--------------",
"---------O&&&O%o**********$$$**oo--------------",
"---------O%&&&OOo*********$$**oo---------------",
"----------O%&&%OOo************o----------------",
"----------OO%&&%OOO$*********o-----------------",
"----------O%OO%&&%%oo$*****oo------------------",
"-----------O%-OO%&&%%oooooo--------------------",
"------------O---OO%&&%%------------------------",
"-------------O----OOOOOO-----------------------",
"-----------------------------------------------",
"-----------------------------------------------"
};
