/* XPM */
static char *d2ec90b570664f459dfcc22eb2237381BotpUGr6AiA6tTeT[] = {
/* columns rows colors chars-per-pixel */
"47 47 30 1 ",
"  c None",
". c black",
"X c #3E3E3E",
"o c #504032",
"O c #607272",
"+ c #607273",
"@ c #607274",
"# c #E63C40",
"$ c #B14157",
"% c #826548",
"& c #836548",
"* c #E7A11E",
"= c #E8A21E",
"- c #FFDB63",
"; c #FFDB64",
": c #A5B5B5",
"> c #A5B5B6",
", c #A5B6B6",
"< c #E58B87",
"1 c #E68C88",
"2 c #E78C88",
"3 c #E68D88",
"4 c #E68C89",
"5 c #FBD1D5",
"6 c #FCD1D5",
"7 c #FCD1D6",
"8 c #FDD1D6",
"9 c #FCD1D7",
"0 c #F7F9F9",
"q c #F8F9F9",
/* pixels */
"                                               ",
"                                               ",
"                                               ",
"                                               ",
"                                               ",
"                                               ",
"                       ..  .. ..               ",
"                    . .17  77 11 .             ",
"                  ..2 777  .. .1 1..           ",
"                 .377 777      . 11.           ",
"                .5777 71.        ..            ",
"               .75777 1..  .                   ",
"               .75577 .11  $.                  ",
"              .17551$ 111  11 ..               ",
"              .7753<1 11$  11                  ",
"              1775<11 $11  ..                  ",
"              7775577 211  11                  ",
"              7775577 111  11 .                ",
"              7775517 771  .. 1.               ",
"            . 177<<77 77$  71                  ",
"            . 111<577 71$  $7                  ",
"            . 7175577 ..1  $7                  ",
"              7$7551. ..1  7.                  ",
"              ..$  #. .11  .1 77 1             ",
"               .1  78 121  17 11               ",
"              .1.  88 1$7  17 77 1             ",
"              .11  .. $77  $1 77 711           ",
"           .. ..1  1$ 777  .$ 77 1             ",
"          .77 17.7737 777  .. .-               ",
"       ....71 11.7531 77.2 .7 7.               ",
"        17777 ....<57 11.7 $1 77 .             ",
"         11$1 .=1.537 711. 77 7.               ",
"           .. ...X517 7XX. 77 ..               ",
"               ..X*-- XX,, ..                  ",
"               .+:*-- ,00, q0 ,,               ",
"              .,:,,00 000q ,0 q0 ,             ",
"              +,:::00 0000 q0 q0 q,            ",
"            . +,,,@.. ,000 q0 q0 +             ",
"            . +,,@@+. +++, ,, ++               ",
"            . +++@@+. .@++ ++ +,               ",
"              ,+++,:: ..,     ,,               ",
"              .,,,XX.  ...                     ",
"              .==*XX.    . XX X.               ",
"              oooo*=. .    XX --               ",
"            . ooooooo o..  ;- && .             ",
"                           .& && &.            ",
"                                               "
};
