/* XPM */
static char *_43bf65aaeab4b2888dc61dd89ee5d55Zn8zFF2VZB5HCoj5[] = {
/* columns rows colors chars-per-pixel */
"47 47 3 1 ",
"  c None",
". c #FCD1D6",
"X c #FCE1E4",
/* pixels */
"                                               ",
"                     ..   .                    ",
"                     ..   .                    ",
"                     ..   .                    ",
"                     ..   ..                   ",
"                     ..   ..                   ",
"                   . ..   ..                   ",
"                   . ..   ..   .               ",
"              .    . ..   ...  .               ",
"              .    .  .   ...  .               ",
"              .  . .  .   ...  .               ",
"              .  . .  .   ...  ..              ",
"              .  . .  .   ...  ..              ",
"              .  . .  .   ...  ..              ",
"              .. . .  .   ...  ..              ",
"              .... .  .   ... ...              ",
"              .... .      ... ...              ",
"              .... .      ... ...              ",
"              .... .      ... ...              ",
"              .... .      ... ...              ",
"              .... .      ... ...              ",
"               ... .      ... ...              ",
"               . .        ... ...              ",
"               . .        ... ...              ",
"               . .        ... ...              ",
"               . .        . . ...              ",
"               . .        . . ...              ",
"                 .        . . ...              ",
"                 .        . . ...              ",
"                          . . ...              ",
"                          .   ...              ",
"                          .   ...              ",
"                          .   ...              ",
"                          .   ...              ",
"                          .   . .              ",
"                          .   . .              ",
"                          .   . .              ",
"                          .   . .              ",
"                          .     .              ",
"                          .     .              ",
"                          .     .              ",
"                          .                    ",
"                          .                    ",
"                          .                    ",
"                          .                    ",
"                          X                    ",
"                                               "
};
