/* XPM */
static char *_c36ba836f2d49f2a8a44fad3579d250MI6rvb8vuNxQ3rOn[] = {
/* columns rows colors chars-per-pixel */
"47 47 15 1 ",
"  c None",
". c black",
"X c #3E3E3E",
"o c #504032",
"O c #607273",
"+ c #AC2023",
"@ c #E63C40",
"# c #B14157",
"$ c #826548",
"% c #E8A21E",
"& c #FFDB63",
"* c #A5B5B6",
"= c #E68C88",
"- c #FCD1D6",
"; c #F7F9F9",
/* pixels */
"                                               ",
"                                               ",
"                                               ",
"                                               ",
"                                               ",
"                                               ",
"               .........                       ",
"             ..==------=...                    ",
"           ..===....=-----=..                  ",
"           .==#.    ..------=.                 ",
"            ...       .=------.                ",
"                   .....=------.               ",
"                 ..##===.#-----.               ",
"               ..=========#=---=.              ",
"                 .===##======---.              ",
"                  ..====##===---=.             ",
"                 .========-------.             ",
"                .========--------.             ",
"               .==..===----=-----.             ",
"                 .=-==#-----==--==.            ",
"                 .-#-=#=-----====-.            ",
"                 .-#-==..=-----=--.            ",
"                 ..-===....=---#-.             ",
"             ==---=...==...@+=#..              ",
"               ==--======-----=.               ",
"             ==----===-#=----=.=.              ",
"           ==----==#=---##....==.              ",
"             ==--=#.=-----#=--=.....           ",
"              .&......-----=--.-=#--.          ",
"              ..---.-=.--===--.==#=-....       ",
"             ..---=#=-.==---=....#----=        ",
"              ..----#.==---=-.=%.-=#==         ",
"               ..=---.XX---=-X......           ",
"                 ....**XX&&&%X..               ",
"               ***;;**;;**&&%*O.               ",
"             **;;;;*;;;;;*;;****..             ",
"            *;;;;;;;;;;;;*;;****O.             ",
"             OO;;;;;;;;;*...O***OO.            ",
"              *OOO****OOO..OOO**OO.            ",
"               *OOOOOOOO...OOOOOO*.            ",
"              ***     *..O***OOO*.             ",
"                    *... ..XX***.              ",
"               .XXXXX.    .XX%%%.              ",
"              .&&&XX.   ...%%oooo.             ",
"             .$$$$&&. ..oooooooooo.            ",
"            .$$$$$$.                           ",
"                                               "
};
