/* XPM */
static char *f52cdbb5910c4968cee2bc591bf384c3F19fZDP2pWD8ahsL[] = {
/* columns rows colors chars-per-pixel */
"47 47 3 1 ",
"  c None",
". c #826548",
"X c #FCD1D6",
/* pixels */
"                                               ",
"                                               ",
"                                               ",
"                              X                ",
"                X      X      X                ",
"                X      X      X                ",
"                 X     X      X                ",
"                 X     X      X                ",
"                 X     X      X                ",
"                 X     X      X                ",
"                 X     X      X                ",
"                 X     X      X                ",
"                 X     X      X                ",
"                 X     X      X                ",
"                 X     X      X                ",
"                 X     X                       ",
"                 X    XX                       ",
"                 X    XX                       ",
"                      XX                       ",
"                                               ",
"                       X   X                   ",
"                       X   X                   ",
"                       XX  X   X               ",
"                        X  X   X               ",
"                        X  X   X               ",
"                        X  X   X               ",
"               X        X  X   X               ",
"               X        X  X                   ",
"               X        X  X                   ",
"               X        X  X                   ",
"               X        X  X                   ",
"               X        X  X                   ",
"                        X  X                   ",
"                        X                      ",
"                        X                      ",
"               .        X                      ",
"                                               ",
"                                               ",
"               .                               ",
"               .     X                         ",
"               .     X                         ",
"               .     X                         ",
"               .                               ",
"                                               ",
"                                               ",
"                                               ",
"                                               "
};
