/* XPM */
static char *_2ee894cfc3048a7bb75be6b7ece28c4L5BmBWQqAt31V7PD[] = {
/* columns rows colors chars-per-pixel */
"47 47 14 1 ",
"  c None",
". c black",
"X c #3E3E3E",
"o c #504032",
"O c #607273",
"+ c #B14157",
"@ c #826548",
"# c #E8A21E",
"$ c #FFDB63",
"% c #A5B5B6",
"& c #E68C88",
"* c #FCD1D6",
"= c #F7F9F9",
"- c white",
/* pixels */
"                                               ",
"                                               ",
"                                               ",
"                                               ",
"                                               ",
"                                               ",
"                                               ",
"                                               ",
"                                               ",
"                                               ",
"                                               ",
"                                               ",
"                                               ",
"                                               ",
"                                               ",
"                                               ",
"                                               ",
"                       ++++                    ",
"                     ++&&&&++                  ",
"                   ++&&+++++&+                 ",
"                  +&&+++&&&&+++    oooo        ",
"                 +&*++&****++&++  o@@@@o       ",
"                +&*+&***&&&+&&&++o@@@@--o      ",
"               +##&***&&**&&*&&+.@@@@+++-o     ",
"               +$#&**&*****&&*&.@$$..X$*+      ",
"              X#$$********&+&*o@...XXXX$&+     ",
"              XX$$*&&*****&+....&*$XXXX$&+     ",
"           O  O==XXX&*****+&**&****$..$**+     ",
"           O O%==%%XX..&&********&...&++++     ",
"           O%O===%%====.&******&....&**&++     ",
"           O%%==%=====%%.&**&...X..***+&&+     ",
"            O%==%====%%OO....XXXX.***&&+&+     ",
"            O%========OOO%=$$XXX.***&**+ +     ",
"            O%%======%OO===%%$$$O******+ +     ",
"             O%=====%O%===%%%=%%O&+***&+       ",
"             O%==%==%%%===%%==%%O&&***+        ",
"              O%=%==%%===%%====O&&&**&+        ",
"              OO==%%%==========O&+***+         ",
"               OO==%%=========O++***&+         ",
"                O============O++&**&+          ",
"                 O=========%+++&**&++          ",
"                  OO=====%OO&&**&++&+          ",
"                    OOOOOO&&**&++ &+           ",
"                        &&**&++   +            ",
"                       ++++++    +             ",
"                                               ",
"                                               "
};
