/* XPM */
static char *_2ff886ba89942c0d1a127c345bc2cbemaOwE6ISHixamV70[] = {
/* columns rows colors chars-per-pixel */
"47 47 16 1 ",
"  c None",
". c black",
"X c #3E3E3E",
"o c #504032",
"O c #607273",
"+ c #AC2023",
"@ c #E63C40",
"# c #B14157",
"$ c #826548",
"% c #E8A21E",
"& c #FFDB63",
"* c #A5B5B6",
"= c #E68C88",
"- c #FCD1D6",
"; c #F7F9F9",
": c white",
/* pixels */
"                                               ",
"                        ....                   ",
"                      ..=--=#.                 ",
"                     .=--=..==.                ",
"                    .---=.  .==.               ",
"                   .=---.   .#=.               ",
"                  .=---..    ..                ",
"                  .---#...                     ",
"                 .---=#===..                   ",
"                 .---#=====#.                  ",
"                .=---===#===.                  ",
"                .----#=======.                 ",
"                .-----=======.                 ",
"               .--------=====.                 ",
"               .-----=--===...                 ",
"               .=--==---#===-.                 ",
"              .-====---=#==-#.                 ",
"              .--=----..#==-#.                 ",
"               .-#--....====-.                 ",
"                ..#+@..===...                  ",
"                 .=----===.                    ",
"                  .---=#==.                    ",
"                 ....##===.....                ",
"                .=--=----===--=.               ",
"                .--==-----=#---.               ",
"                .#====--=##..-#.               ",
"                ..#---=##==..==-.              ",
"               .=.------=..::.--.              ",
"               .%.-=----..:::.&&.              ",
"               .X.X=-=XX..:::.XXX.             ",
"              .X.*%&&&X**.:::.XXX.             ",
"              .X.*%&&*;;*;.:.-&XX.             ",
"             .%.O**;;*;;;;..-#-&&.             ",
"             .=.***;;*;;;;;..#---.             ",
"             .=.****;*;;;;;..--=.              ",
"              ..O***..;;;;;*....               ",
"              .*O**O..*;;;;*O.                 ",
"              .*OOO.O..;;;;OO.                 ",
"              .*OOOO*..*;;*OO;.                ",
"              .O****O. .OOO*;;.                ",
"               .O***.  .;OO*;*.                ",
"                .XX.    .;;;*.                 ",
"                .%X.     ..XX.                 ",
"              ..oo%.      .X&.                 ",
"             .ooooo.      .&$$.                ",
"                           $$$$.               ",
"                                               "
};
