/* XPM */
static char *_86169a5630847cf8af149e19eb9186a4O68JAPE5qAyjUlf[] = {
/* columns rows colors chars-per-pixel */
"47 47 3 1 ",
"  c None",
". c #FCD1D6",
"X c #FCE1E4",
/* pixels */
"                                               ",
"                    .   ..                     ",
"                    .   ..                     ",
"                    .   ..                     ",
"                   ..   ..                     ",
"                   ..   ..                     ",
"                   ..   .. .                   ",
"               .   ..   .. .                   ",
"               .  ...   .. .    .              ",
"               .  ...   .  .    .              ",
"               .  ...   .  . .  .              ",
"              ..  ...   .  . .  .              ",
"              ..  ...   .  . .  .              ",
"              ..  ...   .  . .  .              ",
"              ..  ...   .  . . ..              ",
"              ... ...   .  . ....              ",
"              ... ...      . ....              ",
"              ... ...      . ....              ",
"              ... ...      . ....              ",
"              ... ...      . ....              ",
"              ... ...      . ....              ",
"              ... ...      . ...               ",
"              ... ...        . .               ",
"              ... ...        . .               ",
"              ... ...        . .               ",
"              ... . .        . .               ",
"              ... . .        . .               ",
"              ... . .        .                 ",
"              ... . .        .                 ",
"              ... . .                          ",
"              ...   .                          ",
"              ...   .                          ",
"              ...   .                          ",
"              ...   .                          ",
"              . .   .                          ",
"              . .   .                          ",
"              . .   .                          ",
"              . .   .                          ",
"              .     .                          ",
"              .     .                          ",
"              .     .                          ",
"                    .                          ",
"                    .                          ",
"                    .                          ",
"                    .                          ",
"                    X                          ",
"                                               "
};
