/* XPM */
static char *_9a7066ef4b34499ac4739d4317bd638H9hEdE63qoyrAhpi[] = {
/* columns rows colors chars-per-pixel */
"47 47 16 1 ",
"  c None",
". c black",
"X c #3E3E3E",
"o c #504032",
"O c #607273",
"+ c #AC2023",
"@ c #E63C40",
"# c #B14157",
"$ c #826548",
"% c #E8A21E",
"& c #FFDB63",
"* c #A5B5B6",
"= c #E68C88",
"- c #FCD1D6",
"; c #F7F9F9",
": c white",
/* pixels */
"                                               ",
"                                               ",
"                                               ",
"                                               ",
"                                               ",
"                                               ",
"                                               ",
"                     ..                        ",
"                     .$.                       ",
"                     .o$.                      ",
"                     .oo$.                     ",
"                     ..o$&..                   ",
"               ........o$$&X.....              ",
"             ..=-----..o$$&XXX&;;..            ",
"            .=--=#...-=..$&XXX&;;;*.           ",
"           .----.    .-=...XXX&;;;OO.          ",
"          .=---..    .==.O*.&&;;;O**;.         ",
"          .---#==..   ..***O.;;*O**;;.         ",
"         .=--======.   .**OO.;;**;;;;*.        ",
"         .---=====#=.   ..OO.;;;;;**;;.        ",
"        .=---#==#===.     .*.*;;;;**;;.        ",
"        .------======.    .**.;;*O*;;;*.       ",
"        .--=----=====.     .*..*O;;;;;;.       ",
"        .==---=#==##=.      ...O*;;;;;;.       ",
"        .#---..#==--#.      ..OO;;;;;;;.       ",
"       .=---...==-##=. ..  ...***;;;;;*.       ",
"       .--=...===-##=..=-. ..;;;;*;;;;.        ",
"        .=+@.=====--..---....;;;;;;;;;.        ",
"         .-----===...=--=...;;;;;;;;;*.        ",
"         .=----===.&=---.:.;;;;*;;;;;.         ",
"         ..----==.XX&--....XX***;;;;*.         ",
"         .%.--=..XXXX&.....=XX*;;;;*.          ",
"        .===...-&XXXXX.=-==--XX;;;**.          ",
"        .====.--&XXXX.#=------XX;**.           ",
"        .=##=.-=-&&&.-#=-----=&&X*O.           ",
"         ..==..=---.--=#==---=-&&..            ",
"           ..  .--#.-=====-==--&%.             ",
"                ....-===------=..              ",
"                    ...-----=..                ",
"                       ......                  ",
"                                               ",
"                                               ",
"                                               ",
"                                               ",
"                                               ",
"                                               ",
"                                               "
};
