/* XPM */
static char *result[] = {
/* columns rows colors chars-per-pixel */
"47 47 180 2 ",
"   c #24140B",
".  c #241614",
"X  c #2B1C14",
"o  c #2C1E1A",
"O  c #2D211D",
"+  c #302017",
"@  c #2F2220",
"#  c #342922",
"$  c #342826",
"%  c #3D312E",
"&  c #2B283B",
"*  c #342E3B",
"=  c #3B3133",
"-  c #3C333B",
";  c #423634",
":  c #473D3B",
">  c #483C3A",
",  c #5F3A37",
"<  c #4F4537",
"1  c #50463B",
"2  c #53493D",
"3  c #5B443F",
"4  c #6F413B",
"5  c #76463E",
"6  c #7A473E",
"7  c #1F2E57",
"8  c #242C4E",
"9  c #393648",
"0  c #202D55",
"q  c #25335C",
"w  c #33396B",
"e  c #493A59",
"r  c #453C48",
"t  c #3E4156",
"y  c #394375",
"u  c #364A79",
"i  c #43404F",
"p  c #544947",
"a  c #5A4A49",
"s  c #484254",
"d  c #544C5D",
"f  c #5D5251",
"g  c #674640",
"h  c #7D4B43",
"j  c #754B41",
"k  c #77524A",
"l  c #635655",
"z  c #7B5B55",
"x  c #6A605E",
"c  c #7E625C",
"v  c #414A69",
"b  c #525562",
"n  c #414E79",
"m  c #484C76",
"M  c #6B6262",
"N  c #786865",
"B  c #68647A",
"V  c #7C6D74",
"C  c #834D44",
"Z  c #8A544B",
"A  c #89584F",
"S  c #94564D",
"D  c #8F5A51",
"F  c #805850",
"G  c #965F56",
"H  c #8E6253",
"J  c #92655B",
"K  c #A4665D",
"L  c #A4685F",
"P  c #8D6963",
"I  c #946C63",
"U  c #9B6D65",
"Y  c #9A7269",
"T  c #987965",
"R  c #8B7B78",
"E  c #9D7D78",
"W  c #AA6A60",
"Q  c #A37667",
"!  c #B27E77",
"~  c #A97871",
"^  c #938B6D",
"/  c #958676",
"(  c #A98579",
")  c #B3837C",
"_  c #B8827A",
"`  c #A89477",
"'  c #A8967B",
"]  c #1B4792",
"[  c #1B4A9A",
"{  c #1E488B",
"}  c #335598",
"|  c #1854B4",
" . c #1A59B6",
".. c #2356A7",
"X. c #3359A1",
"o. c #2B5CB3",
"O. c #2459B6",
"+. c #335EB5",
"@. c #2460BD",
"#. c #3B69B4",
"$. c #435584",
"%. c #5E5F80",
"&. c #415D96",
"*. c #4162A6",
"=. c #6C78A4",
"-. c #135FCC",
";. c #175CC6",
":. c #295FC0",
">. c #1960CD",
",. c #1361D1",
"<. c #1366DC",
"1. c #2C61C4",
"2. c #2560C4",
"3. c #1269E6",
"4. c #126CEB",
"5. c #186BE0",
"6. c #1072FB",
"7. c #1876FC",
"8. c #4B7FDE",
"9. c #4D77CB",
"0. c #3281EF",
"q. c #3787FA",
"w. c #8F929F",
"e. c #949293",
"r. c #94939A",
"t. c #9C8B88",
"y. c #A08683",
"u. c #B38B81",
"i. c #B58F8A",
"p. c #BD8D86",
"a. c #AF9C81",
"s. c #B39D83",
"d. c #BD938D",
"f. c #B49182",
"g. c #A79E9D",
"h. c #B49993",
"j. c #BB9F99",
"k. c #AEA582",
"l. c #BAA987",
"z. c #B4A289",
"x. c #BAA88B",
"c. c #B6A687",
"v. c #B7A69C",
"b. c #BEB196",
"n. c #8286A3",
"m. c #8D90A5",
"M. c #9294A4",
"N. c #AFA9A4",
"B. c #ACAAAA",
"V. c #BBAEAA",
"C. c #C49B95",
"Z. c #C0B18D",
"A. c #C3A49D",
"S. c #CAA09A",
"D. c #C4B593",
"F. c #CABC96",
"G. c #CABC98",
"H. c #C7ABA6",
"J. c #D1AEA9",
"K. c #CDB3AF",
"L. c #CCB6B2",
"P. c #CBB9B6",
"I. c #CEBCBA",
"U. c #C4B7B5",
"Y. c #D9BBB7",
"T. c #D2B6B1",
"R. c #CEC19D",
"E. c #CEC1B7",
"W. c #D6CBBF",
"Q. c #D2C9C6",
"!. c #DDCAC5",
"~. c #D7C8C6",
"^. c #DFD5D2",
"/. c #E1CECC",
"(. c #E5D1CE",
"). c #E8DCDA",
"_. c #E3D6D4",
"`. c #EEE1DF",
"'. c #EFE3E1",
"]. c None",
/* pixels */
"].].].].].].].].].].].].].].].].].].].].].].].].].].].].].].].].].].].].].].].].].].].].].].].",
"].].].].].].].].].].].].].].].].].].].].].].].].].].].].].].].].].].].].].].].].].].].].].].].",
"].].].].].].].].].].].].].].].].].].].].].].].].].].].].].].].].].].].].].].].].].].].].].].].",
"].].].].].].].].].].].].].].].].].].].].].].].].].].].].].].].].].].].].].].].].].].].].].].].",
"].].].].].].].].].].].].].].].].].].].].].].].].].].].].].].].].].].].].].].].].].].].].].].].",
"].].].].].].].].].].].].].].].].].].].].].].].].].].].].].].].].].].].].].].].].].].].].].].].",
"].].].].].].].].].].].].].].].].].].].].].].].].].].].].].].].].].].].].].].].].].].].].].].].",
"].].].].].].].].].].].].].].].].].].].].].].].].].].].].].].].].].].].].].].].].].].].].].].].",
"].].].].].].].].].].].].].].].].].].].].].].].].].].].].].].].].].D.s.D.].].].].].].].].].].].",
"].].].].].].].].].].].].].].].].].].].].].].].].].].].].].].].].D.~ J.(.E.R.].].].].].].].].].",
"].].].].].].].].].].].].].].].].].].].].].].].].].].].].].].].G./ R g.Q.Y.f.].].].].].].].].].",
"].].].].].].].].].].].].].].].].].].].].].].].].].].].].].].].b.a g N y.i.K ' ].].].].].].].].",
"].].].].].].].].].].].].].].].].].].].].].].].].].].].].].].].x.c v.j.k P A ^ ].].].].].].].].",
"].].].].].].].].].].].].].].].].].].].].].].].].].Z.( u.A.!.W.h.P.L.U g z J s.].].].].].].].].",
"].].].].].].].].].].].].].].].].].].].].].].].].l.Q p.H.E.Q.).!.K.) F A I s.].].].].].].].].].",
"].].].].].].].].].].].].].].].].].].].].].].].v.%.V E P.).^.P.T.C.J ` s.x.].].].].].].].].].].",
"].].].].].].].].].].].].].].].].].].].].].].B.8.0.5...B V.!.K.f.! Q ].].].].].].].].].].].].].",
"].].].].].].].].].].].].].].].].].].].].].c.b $...4.6.<.n y.C.) J H F.].].].].].].].].].].].].",
"].].].].].].].].].].].].].].].].].].].].' 2 ; X   7 >.6.3.y J K Z 6 D.].].].].].].].].].].].].",
"].].].].].].].].].].].].].].].].].].].k.2 ; ; 9 t % & | 6.<.e C 6 k D.].].].].].].].].].].].].",
"].].].].].].].].].].].].].].].].].].k.2 : r X.2.1.o.v & ;.6. ., h T ].].].].].].].].].].].].].",
"].].].].].].].].].].].].].].].].].k.< ; - X.+.w.r.=.@.t 8 3.<.e U x.].].].].].].].].].].].].].",
"].].].].].].].].].].].].].].].].k.2 ; o r  .n.N.V N.*.} + ] -.m z.].].].].].].].].].].].].].].",
"].].].].].].].].].].].].].].].k.1 > ; % - o.=.N.i / &.} + 0 O.e.].].].].].].].].].].].].].].].",
"].].].].].].].].].].].].].].k.< ; O p M f n  .m.r.; { u . 9 w.].].].].].].].].].].].].].].].].",
"].].].].].].].].].].].].].B.9.#.q . O f x x &. .1...9 - O ^ ].].].].].].].].].].].].].].].].].",
"].].].].].].].].].].].].N.8.q.7.4.] * f f N f s n t - # ^ ].].].].].].].].].].].].].].].].].].",
"].].].].].].].].].].].l.c %.O.3.6.7. .t N f l = + + # ^ ].].].].].].].].].].].].].].].].].].].",
"].].].].].].].].].].c.J u.j.t.y ,.6.6. .* $ p f . O ^ ].].].].].].].].].].].].].].].].].].].].",
"].].].].].].].].].Z.Q C.A.P.(.U.d >.6.6.[ . @ @ # ^ ].].].].].].].].].].].].].].].].].].].].].",
"].].].].].].].].].Q p.J./._.Q.~.h.s ,.6.4.q   # ^ ].].].].].].].].].].].].].].].].].].].].].].",
"].].].].].].].].l.! J.(.'.'./.H.d.U w 4.4.[ O ^ ].].].].].].].].].].].].].].].].].].].].].].].",
"].].].].].].].].a.A.(.`.`.(.Y.C.~ K 4 [ -.o.^ ].].].].].].].].].].].].].].].].].].].].].].].].",
"].].].].].].].].z.P.`.`.(.Y.S._ K Z 6 9 :.M.].].].].].].].].].].].].].].].].].].].].].].].].].",
"].].].].].].].].b.U.~./.Y.C._ W S C 6 a r.].].].].].].].].].].].].].].].].].].].].].].].].].].",
"].].].].].].].].].V.U.v.C.! W S 6 h P a.].].].].].].].].].].].].].].].].].].].].].].].].].].].",
"].].].].].].].].].b.h.( U D C 5 h I z.].].].].].].].].].].].].].].].].].].].].].].].].].].].].",
"].].].].].].].].].].x.Y D C 5 C I z.].].].].].].].].].].].].].].].].].].].].].].].].].].].].].",
"].].].].].].].].].].].F.` T T ` F.].].].].].].].].].].].].].].].].].].].].].].].].].].].].].].",
"].].].].].].].].].].].].].].].].].].].].].].].].].].].].].].].].].].].].].].].].].].].].].].].",
"].].].].].].].].].].].].].].].].].].].].].].].].].].].].].].].].].].].].].].].].].].].].].].].",
"].].].].].].].].].].].].].].].].].].].].].].].].].].].].].].].].].].].].].].].].].].].].].].].",
"].].].].].].].].].].].].].].].].].].].].].].].].].].].].].].].].].].].].].].].].].].].].].].].",
"].].].].].].].].].].].].].].].].].].].].].].].].].].].].].].].].].].].].].].].].].].].].].].].",
"].].].].].].].].].].].].].].].].].].].].].].].].].].].].].].].].].].].].].].].].].].].].].].].",
"].].].].].].].].].].].].].].].].].].].].].].].].].].].].].].].].].].].].].].].].].].].].].].].",
"].].].].].].].].].].].].].].].].].].].].].].].].].].].].].].].].].].].].].].].].].].].].].].]."
};
