/* XPM */
static char *_612213b06054e18afd56ebb1b66f320uA3tskXSebF4ydHH[] = {
/* columns rows colors chars-per-pixel */
"47 47 204 2 ",
"   c #1E0F0D",
".  c #23130F",
"X  c #241512",
"o  c #271817",
"O  c #291916",
"+  c #241A1D",
"@  c #2B1C19",
"#  c #2E211F",
"$  c #31211E",
"%  c #231D26",
"&  c #1F253D",
"*  c #29222A",
"=  c #342623",
"-  c #392E26",
";  c #3A2D2A",
":  c #3D302E",
">  c #212233",
",  c #282839",
"<  c #342D38",
"1  c #393232",
"2  c #472A25",
"3  c #512F2A",
"4  c #4B312D",
"5  c #433635",
"6  c #473938",
"7  c #4B3E3C",
"8  c #593D38",
"9  c #683C34",
"0  c #4C403F",
"q  c #5E413B",
"w  c #694039",
"e  c #75453E",
"r  c #79473F",
"t  c #7A483F",
"y  c #1F2947",
"u  c #1F2C4D",
"i  c #1E335B",
"p  c #242B45",
"a  c #383643",
"s  c #363E56",
"d  c #1B3666",
"f  c #1B3D77",
"g  c #463E44",
"h  c #3A4259",
"j  c #1B407D",
"k  c #3C4E71",
"l  c #524644",
"z  c #554947",
"x  c #524A4B",
"c  c #594D4B",
"v  c #474859",
"b  c #494B59",
"n  c #5E5351",
"m  c #5C585B",
"M  c #684C47",
"N  c #744840",
"B  c #7A4840",
"V  c #625946",
"C  c #615C4E",
"Z  c #7B584D",
"A  c #695753",
"S  c #655A56",
"D  c #695D5C",
"F  c #785751",
"G  c #6F6153",
"H  c #444F68",
"J  c #4A526B",
"K  c #415174",
"L  c #57627C",
"P  c #786966",
"I  c #7B716F",
"U  c #757074",
"Y  c #834D44",
"T  c #884F46",
"R  c #835449",
"E  c #8D544B",
"W  c #8F584F",
"Q  c #97584E",
"!  c #8B5B53",
"~  c #915C54",
"^  c #9C5C52",
"/  c #876856",
"(  c #936D5D",
")  c #A8685D",
"_  c #826965",
"`  c #956D66",
"'  c #9B6B63",
"]  c #937A65",
"[  c #98766A",
"{  c #837877",
"}  c #9B7C73",
"|  c #997E79",
" . c #A16E66",
".. c #AC756C",
"X. c #B0776F",
"o. c #A27C75",
"O. c #A97B73",
"+. c #B47B73",
"@. c #9D876D",
"#. c #9D8A75",
"$. c #A48776",
"%. c #A7957B",
"&. c #AB957A",
"*. c #A59C7B",
"=. c #18458B",
"-. c #184B99",
";. c #1F519C",
":. c #214683",
">. c #35578F",
",. c #295496",
"<. c #355A95",
"1. c #184EA0",
"2. c #1652AB",
"3. c #1954A9",
"4. c #1558B8",
"5. c #2C5CA4",
"6. c #3259A9",
"7. c #255FB3",
"8. c #325EB5",
"9. c #2262BC",
"0. c #3162BF",
"q. c #586683",
"w. c #4169A5",
"e. c #5F77B5",
"r. c #145BC2",
"t. c #115ECB",
"y. c #1861C9",
"u. c #0F64DB",
"i. c #1463D3",
"p. c #1668DD",
"a. c #2063C0",
"s. c #3874C9",
"d. c #1167E0",
"f. c #1269E4",
"g. c #126BE9",
"h. c #0F6DF0",
"j. c #116FF1",
"k. c #1474F9",
"l. c #1173FE",
"z. c #2D7DEF",
"x. c #5D7AC4",
"c. c #3F83E3",
"v. c #2D83FA",
"b. c #3C8EFF",
"n. c #888388",
"m. c #9B9290",
"M. c #AC8983",
"N. c #B38881",
"B. c #BB8C85",
"V. c #AA9C83",
"C. c #A99F8C",
"Z. c #B5978C",
"A. c #B79994",
"S. c #B5A687",
"D. c #B3A68B",
"F. c #BAAC8C",
"G. c #A4A199",
"H. c #B4A496",
"J. c #BAAC94",
"K. c #AEA8A7",
"L. c #B9A9A6",
"P. c #BCB6B5",
"I. c #C2938C",
"U. c #C19C96",
"Y. c #C69E97",
"T. c #C1B38F",
"R. c #C2A697",
"E. c #CBA39D",
"W. c #C5BA94",
"Q. c #C7BC96",
"!. c #C4BB9B",
"~. c #CEA7A1",
"^. c #C4AAA7",
"/. c #D3AEA8",
"(. c #C9B5AA",
"). c #CCB2AD",
"_. c #C2B4B2",
"`. c #D2B6B2",
"'. c #D9BBB7",
"]. c #D6BCB8",
"[. c #CDC199",
"{. c #D1C69D",
"}. c #D3C89E",
"|. c #D6CAA0",
" X c #D9CEA3",
".X c #DDD1A6",
"XX c #CBC3B5",
"oX c #D3C1BE",
"OX c #DCC1BD",
"+X c #E0D4A8",
"@X c #CDC6C3",
"#X c #D2C5C2",
"$X c #D1C9C7",
"%X c #D6C9C7",
"&X c #DCC9C6",
"*X c #DFD1CE",
"=X c #DED6D3",
"-X c #E2CDCA",
";X c #E4D5D3",
":X c #EAD9D6",
">X c #E5DBD9",
",X c #EBDDDB",
"<X c #EEE3E1",
"1X c #F0E5E3",
/* pixels */
"+X+X+X+X+X+X+X+X+X+X+X+X+X+X+X+X+X+X+X+X+X+X+X+X+X+X+X+X+X+X+X+X+X+X+X+X+X+X+X+X+X+X+X+X+X+X+X",
"+X+X+X+X+X+X+X+X+X+X+X+X+X+X+X+X+X+X+X+X+X+X+X+X+X+X+X+X+X+X+X+X+X+X+X+X+X+X+X+X+X+X+X+X+X+X+X",
"+X+X+X+X+X+X+X+X+X+X+X+X+X+X+X+X+X+X+X+X+X+X+X+X+X+X+X+X+X+X+X+X+X+X+X+X+X X X+X+X+X+X+X+X+X+X",
"+X+X+X+X+X+X+X+X+X+X+X+X+X+X+X+X+X+X+X+X+X+X+X+X+X+X+X+X+X+X+X+X+X+X+X+X[.&.&.H.Q..X+X+X+X+X+X",
"+X+X+X+X+X+X+X+X+X+X+X+X+X+X+X+X+X+X+X+X+X+X+X+X+X+X+X+X+X+X+X+X+X+X+X[.[ X./.:X&XJ. X+X+X+X+X",
"+X+X+X+X+X+X+X+X+X+X+X+X+X+X+X+X+X+X+X+X+X+X+X+X+X+X+X+X+X+X+X+X+X+X{.Z.Z.L.#X,X:X`.S..X+X+X+X",
"+X+X+X+X+X+X+X+X+X+X+X+X+X+X+X+X+X+X+X+X+X+X+X+X+X+X+X+X+X+X+X+X+X+XJ.P 8 M n._.`.Y...F.+X+X+X",
"+X+X+X+X+X+X+X+X+X+X+X+X+X+X+X+X+X+X+X+X+X+X+X+X+X+X+X+X+X+X+X+X.X.XC.4 2 F I _ Z.X.^ ] .X.X+X",
"+X+X+X+X+X+X+X+X+X+X+X+X+X+X+X+X+X+X+X+X+X+X+X+X+X+X+X+X+X}.+X+X+X+XS.8 ` ).A.M _ ` Y Z }.+X+X",
"+X+X+X+X+X+X+X+X+X+X+X+X+X+X+X+X+X+X+X+X+X+X+X+X+X+X}.S.&.Z.R.(.XXS.[ $.oX].` N 8 [ R ] }.+X+X",
"+X+X+X+X+X+X+X+X+X+X+X+X+X+X+X+X+X+X+X+X+X+X+X+X+XQ.]  .M.Z./.:X<X#XU.;X#XO.R N 8 } ] F.+X+X+X",
"+X+X+X+X+X+X+X+X+X+X+X+X+X+X+X+X+X+X+X+X+X+X+X+XQ.( X.I.E.].oXXX>X<X&X_.I.~ F E Q } F..X+X+X+X",
"+X+X+X+X+X+X+X+X+X+X+X+X+X+X+X+X+X+X+X+X+X+X+XW.G Z ` M.`.*X<X=X_.].].~.' Z #.$.$.F..X+X+X+X+X",
"+X+X+X+X+X+X+X+X+X+X+X+X+X+X+X+X+X+X+X+X+X+X!.e.s.s.=.a P #X;X;X&XA.U.I.' @.|.|.|.+X+X+X+X+X+X",
"+X+X+X+X+X+X+X+X+X+X+X+X+X+X+X+X+X+X+X+X.X!.e.z.b.l.l.d.=.a A.%X`.E.o.X.^ &.+X+X+X+X+X+X+X+X+X",
"+X+X+X+X+X+X+X+X+X+X+X+X+X+X+X+X+X+X+X+XW.S h J :.t.k.l.k.2.a | R.B.X.~ E `  X+X+X+X+X+X+X+X+X",
"+X+X+X+X+X+X+X+X+X+X+X+X+X+X+X+X+X+X+XW.V : 7 O . % j g.l.l.r., ' ..) W e R {..X+X+X+X+X+X+X+X",
"+X+X+X+X+X+X+X+X+X+X+X+X+X+X+X+X+X+XW.V : 7 O o O X X u i.l.l.4.< ~ Q T w ! }.+X+X+X+X+X+X+X+X",
"+X+X+X+X+X+X+X+X+X+X+X+X+X+X+X+X+XW.V : 0 - 6 v H v 5 @ & i.l.l.=.3 T B w ` }.+X+X+X+X+X+X+X+X",
"+X+X+X+X+X+X+X+X+X+X+X+X+X+X+X.XW.V : 0 5 H y.i.y.i.7.b $ y f.l.g.p 9 B ! *..X.X+X+X+X+X+X+X+X",
"+X+X+X+X+X+X+X+X+X+X+X+X+X+X+XW.V : 0 - H i.4.L n.q.4.y.b O f j.l.=.3 ~ #.[.+X+X+X+X+X+X+X+X+X",
"+X+X+X+X+X+X+X+X+X+X+X+X+X+XW.V : 0 o 6 ,.t.U =XK.$Xn.4.<.- + 4.h.2.6 o.F..X+X+X+X+X+X+X+X+X+X",
"+X+X+X+X+X+X+X+X+X+X+X+X+XW.V : 0 o X 7 9.3.K.m.  n @X<.9.5 . d i.4.m F..X.X+X+X+X+X+X+X+X+X+X",
"+X+X+X+X+X+X+X+X+X+X+X+XW.V : 7 ; 6 o : <.r.n.P.; # m.>.a.5 X * 4.8.V..X+X+X+X+X+X+X+X+X+X+X+X",
"+X+X+X+X+X+X+X+X+X+X+XW.V : g O C c S : b i.,.K.$XD # 1.5.: . % 6.G..X+X+X+X+X+X+X+X+X+X+X+X+X",
"+X+X+X+X+X+X+X+X+X+X!.S a g O X $ z n.I n k i.,.q.J > i H @ . 1 G..X+X+X+X+X+X+X+X+X+X+X+X+X+X",
"+X+X+X+X+X+X+X+X+X!.x.z.c.,., X X = l n U n k y.p.d.3.1 : X - *..X+X+X+X+X+X+X+X+X+X+X+X+X+X+X",
"+X+X+X+X+X+X+X+X!.x.v.b.k.l.g.f + z D l I D 6 l K K v : o - *..X+X+X+X+X+X+X+X+X+X+X+X+X+X+X+X",
"+X+X+X+X+X+X+XW.S k w.f.l.l.l.k.-.* S { x I S o # - @ X - *..X+X+X+X+X+X+X+X+X+X+X+X+X+X+X+X+X",
"+X+X+X+X+X+XW.( ' $.A , -.j.l.l.l.2.% c 6 l x z o X X - *..X+X+X+X+X+X+X+X+X+X+X+X+X+X+X+X+X+X",
"+X+X+X+X+XQ./  .B.U.].A.g d g.l.l.l.;.% o o S D @ X - *..X+X+X+X+X+X+X+X+X+X+X+X+X+X+X+X+X+X+X",
"+X+X+X+X[.( ..I.A.^.@X,X&XA u u.l.l.k.f X X # @ X - *..X+X+X+X+X+X+X+X+X+X+X+X+X+X+X+X+X+X+X+X",
"+X+X+X X@.) I.E.OX;X$X#X*XOXF y d.l.l.g.y X X X - *..X.X+X+X+X+X+X+X+X+X+X+X+X+X+X+X+X+X+X+X+X",
"+X+X+XT.) B.E.OX:X1X1X#X_.).R.q d j.l.l.-.X X - *..X+X.X+X+X+X+X+X+X+X+X+X+X+X+X+X+X+X+X+X+X+X",
"+X+X+X&.+.E.OX:X1X1X,X-X^.Z.B. .2 =.k.g.r.> - %..X+X+X+X+X+X+X+X+X+X+X+X+X+X+X+X+X+X+X+X+X+X+X",
"+X+X+X@.I.OX:X1X1X,X-X'.~.N. .) Y * r.i.i.s %..X+X+X+X+X+X+X+X+X+X+X+X+X+X+X+X+X+X+X+X+X+X+X+X",
"+X+X.X%.^.;X1X1X:X-X'.~.I.+.^ Q E 2 d i.0.C..X+X+X+X+X+X+X+X+X+X+X+X+X+X+X+X+X+X+X+X+X+X+X+X+X",
"+X+X.XC._.*X1X:X-X'.~.I.+. .^ Y B 9 p 0.G..X+X+X+X+X+X+X+X+X+X+X+X+X+X+X+X+X+X+X+X+X+X+X+X+X+X",
"+X+X+XJ._.oX%X-X'.~.I.+.) ^ E e e R g C. X+X+X+X+X+X+X+X+X+X+X+X+X+X+X+X+X+X+X+X+X+X+X+X+X+X+X",
"+X+X+X[.L._.L.L.I.I.X.) Q T r e ! } V..X+X+X+X+X+X+X+X+X+X+X+X+X+X+X+X+X+X+X+X+X+X+X+X+X+X+X+X",
"+X+X+X.XD.L.A.M.o.' ~ Y r e r ~ } D..X+X+X+X+X+X+X+X+X+X+X+X+X+X+X+X+X+X+X+X+X+X+X+X+X+X+X+X+X",
"+X+X+X+X{.C.M.o.' W Y r e r ~ o.D. X+X+X+X+X+X+X+X+X+X+X+X+X+X+X+X+X+X+X+X+X+X+X+X+X+X+X+X+X+X",
"+X+X+X+X+X{.%.( W Y B e t ~ } F..X+X+X+X+X+X+X+X+X+X+X+X+X+X+X+X+X+X+X+X+X+X+X+X+X+X+X+X+X+X+X",
"+X+X+X+X+X+X.XT.@./ Z / ] V.[..X+X+X+X+X+X+X+X+X+X+X+X+X+X+X+X+X+X+X+X+X+X+X+X+X+X+X+X+X+X+X+X",
"+X+X+X+X+X+X+X+X.X}.}.}..X+X+X+X+X+X+X+X+X+X+X+X+X+X+X+X+X+X+X+X+X+X+X+X+X+X+X+X+X+X+X+X+X+X+X",
"+X+X+X+X+X+X+X+X+X+X+X+X.X+X+X+X+X+X+X+X+X+X+X+X+X+X+X+X+X+X+X+X+X+X+X+X+X+X+X+X+X+X+X+X+X+X+X",
"+X+X+X+X+X+X+X+X+X+X+X+X+X+X+X+X+X+X+X+X+X+X+X+X+X+X+X+X+X+X+X+X+X+X+X+X+X+X+X+X+X+X+X+X+X+X+X"
};
