/* XPM */
static char *_5ab713634c8404dda57a650d99db0daFgkMFfTZ417wLHWy[] = {
/* columns rows colors chars-per-pixel */
"47 47 144 2 ",
"   c None",
".  c #AE160A",
"X  c #A9190B",
"o  c #B11305",
"O  c #B51D09",
"+  c #AE270A",
"@  c #B92D06",
"#  c #B3220C",
"$  c #BB230E",
"%  c #C13305",
"&  c #C33E0C",
"*  c #C5341A",
"=  c #B14806",
"-  c #BC5107",
";  c #B95209",
":  c #C64007",
">  c #C74609",
",  c #C05003",
"<  c #C05A04",
"1  c #CB5A04",
"2  c #DD5902",
"3  c #E65C01",
"4  c #E95E01",
"5  c #D27706",
"6  c #E36103",
"7  c #EC6201",
"8  c #EF6A01",
"9  c #F26501",
"0  c #F26C01",
"q  c #FD6C00",
"w  c #E67404",
"e  c #EE7001",
"r  c #E67A03",
"t  c #EF7D02",
"y  c #F47301",
"u  c #FE7201",
"i  c #F47A01",
"p  c #FD7B01",
"a  c #DC7522",
"s  c #D38305",
"d  c #DC8307",
"f  c #E48606",
"g  c #EC8103",
"h  c #EC8C06",
"j  c #EB8D08",
"k  c #F38003",
"l  c #FD8401",
"z  c #F48903",
"x  c #FE8C02",
"c  c #EC9607",
"v  c #EB9907",
"b  c #FE9201",
"n  c #F19C07",
"m  c #FE9C04",
"M  c #F4A007",
"N  c #FEA506",
"B  c #FEAB07",
"V  c #F5A608",
"C  c #FEA609",
"Z  c #FCAB09",
"A  c #FEB008",
"S  c #F2A516",
"D  c #FDA717",
"F  c #F1A814",
"G  c #FEB312",
"H  c #FEB919",
"J  c #FDA927",
"K  c #FEBF2C",
"L  c #FDAB35",
"P  c #FDAC3B",
"I  c #FDB438",
"U  c #FDC02D",
"Y  c #FDB544",
"T  c #FDB14B",
"R  c #FBB464",
"E  c #FDBF62",
"W  c #FCB669",
"Q  c #FCB86C",
"!  c #FDBD75",
"~  c #FBBD7C",
"^  c #FEC749",
"/  c #FEC84B",
"(  c #FDCC5C",
")  c #FBC366",
"_  c #FECA7D",
"`  c #FCC486",
"'  c #FCC68C",
"]  c #FDCC8E",
"[  c #FEDA8F",
"{  c #FBC695",
"}  c #FEC991",
"|  c #FDD297",
" . c #FEDC95",
".. c #FFD49E",
"X. c #FEDE9D",
"o. c #F9CBA5",
"O. c #F9CCA8",
"+. c #FED6A3",
"@. c #FDDEA7",
"#. c #FAD0AE",
"$. c #FEDAAB",
"%. c #FBD6B6",
"&. c #FCD9B2",
"*. c #FBDCBD",
"=. c #FEE1A8",
"-. c #FEE2BB",
";. c #FEE9BF",
":. c #F9DBC3",
">. c #F9DECA",
",. c #FEE4C0",
"<. c #FEE9C1",
"1. c #FAE4CD",
"2. c #FEEAC9",
"3. c #F7E5D4",
"4. c #F9E3D0",
"5. c #FEEED7",
"6. c #FEEFD7",
"7. c #FBEAD5",
"8. c #F7E9DE",
"9. c #FCEED9",
"0. c #F8E9DD",
"q. c #F8E8DB",
"w. c #FEF0D8",
"e. c #FFF0D9",
"r. c #FEF0DA",
"t. c #FFF0DA",
"y. c #FEF1DA",
"u. c #FEF0DB",
"i. c #FEF1DB",
"p. c #FEF1DC",
"a. c #FEF1DD",
"s. c #FEF2DE",
"d. c #F7ECE3",
"f. c #F7ECE3",
"g. c #FCF2E1",
"h. c #FEF2E0",
"j. c #FCF2E2",
"k. c #FEF3E2",
"l. c #FDF4E4",
"z. c #FDF4E5",
"x. c #FEF4E6",
"c. c #FEF5E9",
"v. c #FEF6EC",
"b. c #FEF8ED",
/* pixels */
"                                                                                              ",
"                                                                                              ",
"                                                                                              ",
"                                                                                              ",
"                                                                                              ",
"                                                                                              ",
"                                                                                              ",
"                                                                                              ",
"                                                                                              ",
"                                                                                              ",
"                                  k.6.-.+.] _ _ ] +.,.j.                                      ",
"                              g.t.t.$.m m b b b m m B Y ..9.                                  ",
"                            a.t.t.t.-.b b b b b b b x m B I $.                                ",
"                          t.t.a.s.k.] m b b b b b b B A A B B `                               ",
"                        t.t.a.z.c.a.( K G B m b N B A N b x x N !                             ",
"                      a.6.a.k.v.b.,. ./ H A A B A B m b b b x l N ]                           ",
"                      &.t.a.l.k.2.<. .^ H A A A A A m b x b z p x N :.                        ",
"                    6.I -.2.=.[ =.X.) U G A A A A v A b b b x 8 q m T                         ",
"                    $.m b G U ^ ( / a F A A B V j - V m b b b e q x N *.                      ",
"                  k.) b b | ) H S > * . 5 A A d O # ; V b b b i 9 q N !                       ",
"                  2.B b m ] A A A j # = A A A A : & d A m b b i 3 q m D                       ",
"                  -.N b m A A A A j V f Z A Z Z v Z g B m b b i 3 q b C f.                    ",
"                  $.N x m A A B A A A A A A A A A A N N m b x y 3 q x N 7.                    ",
"                  ..m b b B A A A A A A A A A A A A b V m b x 7 3 q b N 7.                    ",
"                  $.m x b m A A A A B C V B A A A B k N b x p 3 4 q b C f.                    ",
"                  &.N l x b B A A A A g s A A A B z % z x x 8 3 4 q m C                       ",
"                  4.N l x b b N A Z 1 % X - V B g @ $ + w p 3 3 9 q N R                       ",
"                    Y x p i x b m N V o # n m b b 6 @ - p 6 3 3 q x N #.                      ",
"                    } m u y y x x b i r t r b b b w l 2 3 3 3 9 q N N f.                      ",
"                    7.N x q 8 8 k x b b b b x x x p 0 3 3 3 7 q x N {                         ",
"                      } N p q 9 9 0 y p p p p y 9 4 3 3 3 4 q p N P                           ",
"                        T N p q 9 3 3 3 3 3 3 3 3 3 3 3 9 q p N N >.                          ",
"                        3.J N l q q 9 3 3 3 4 4 3 3 7 q q p N N %.                            ",
"                          4.L N m p q q q 9 9 9 q q q u m N D :.                              ",
"                            f.~ C N m x p u q u p x m C N W 7.                                ",
"                                >.~ N N C N N C N N N ! >.                                    ",
"                                      :.O.' ~ ` O.:.                                          ",
"                                                                                              ",
"                                                                                              ",
"                                                                                              ",
"                                                                                              ",
"                                                                                              ",
"                                                                                              ",
"                                                                                              ",
"                                                                                              ",
"                                                                                              ",
"                                                                                              "
};
