/* XPM */
static char *b254e4a6ce8648f9b88fa5e36ac7b0e2G2z3tESvb2eu9fG2[] = {
/* columns rows colors chars-per-pixel */
"47 47 182 2 ",
"   c None",
".  c #050304",
"X  c #071004",
"o  c #192C0C",
"O  c #0D3D0F",
"+  c #09380D",
"@  c #133E0C",
"#  c #1B2E1D",
"$  c #0A3C10",
"%  c #1F3C13",
"&  c #113312",
"*  c #22340F",
"=  c #273914",
"-  c #243C23",
";  c #213622",
":  c #074008",
">  c #0B450C",
",  c #0B4D0E",
"<  c #095A0D",
"1  c #0B4A13",
"2  c #0B4715",
"3  c #0B5514",
"4  c #0B5D14",
"5  c #075A13",
"6  c #274214",
"7  c #2B431A",
"8  c #264219",
"9  c #324A16",
"0  c #09660E",
"q  c #0A6514",
"w  c #0A6C13",
"e  c #066C11",
"r  c #106817",
"t  c #0B7314",
"y  c #067E14",
"u  c #0A7B15",
"i  c #0E741B",
"p  c #0D7A19",
"a  c #077C1B",
"s  c #137015",
"d  c #3E4E23",
"f  c #374523",
"g  c #275028",
"h  c #2A642F",
"j  c #2A6C32",
"k  c #495724",
"l  c #414D35",
"z  c #495537",
"x  c #596A24",
"c  c #5E702B",
"v  c #5E693D",
"b  c #687C2E",
"n  c #3E4640",
"m  c #494C49",
"M  c #445E42",
"N  c #515C44",
"B  c #555855",
"V  c #436C46",
"C  c #5C6847",
"Z  c #58665B",
"A  c #616D48",
"S  c #676767",
"D  c #727372",
"F  c #717872",
"G  c #068412",
"H  c #0B8415",
"J  c #068B15",
"K  c #0B8C16",
"L  c #0B8C19",
"P  c #078819",
"I  c #19821F",
"U  c #099416",
"Y  c #059D16",
"T  c #099C15",
"R  c #079619",
"E  c #0C9219",
"W  c #069B19",
"Q  c #0A9B19",
"!  c #079416",
"~  c #00A113",
"^  c #00A018",
"/  c #0AA21A",
"(  c #09A315",
")  c #189D21",
"_  c #299030",
"`  c #27A42F",
"'  c #30A536",
"]  c #6C802D",
"[  c #778E2D",
"{  c #6E8333",
"}  c #729035",
"|  c #479C4E",
" . c #4C8C53",
".. c #7E8C5F",
"X. c #44AF49",
"o. c #56AA57",
"O. c #7D8967",
"+. c #5AB060",
"@. c #6CB372",
"#. c #75B878",
"$. c #859D38",
"%. c #8CAB36",
"&. c #91AE39",
"*. c #95B834",
"=. c #9EC43B",
"-. c #808A62",
";. c #8C9778",
":. c #93AB61",
">. c #97A576",
",. c #AECF4D",
"<. c #ACD543",
"1. c #B2D648",
"2. c #B5D35C",
"3. c #BBDB64",
"4. c #C0EE47",
"5. c #C8F647",
"6. c #CEF85B",
"7. c #D0FD5D",
"8. c #CDF662",
"9. c #D2FD66",
"0. c #CAE77D",
"q. c #D5FD78",
"w. c #7FBA85",
"e. c #8B8A8A",
"r. c #838283",
"t. c #949D82",
"y. c #919191",
"u. c #989C99",
"i. c #9DA48E",
"p. c #9AA483",
"a. c #89BF8E",
"s. c #8FB091",
"d. c #A1AC8B",
"f. c #A7B78C",
"g. c #A7AE99",
"h. c #ABB597",
"j. c #9DA4A5",
"k. c #A5A5A5",
"l. c #AAAAAA",
"z. c #A1AEA7",
"x. c #B4B4B4",
"c. c #B8B7B7",
"v. c #BBBBBB",
"b. c #96C69B",
"n. c #B0C290",
"m. c #98C7A0",
"M. c #A4CCAC",
"N. c #BAC6A1",
"B. c #BFC8B0",
"V. c #CFF081",
"C. c #DEFD8E",
"Z. c #DCFC93",
"A. c #DDFC9B",
"S. c #C4D1AD",
"D. c #C7CEBB",
"F. c #CED7BB",
"G. c #D2E0B9",
"H. c #E3FBA5",
"J. c #E5FCB5",
"K. c #E7FABD",
"L. c #BACAC0",
"P. c #B9D4C0",
"I. c #C6C7C7",
"U. c #C0DCC6",
"Y. c #D2DAC3",
"T. c #CBCDD2",
"R. c #CBDCD1",
"E. c #DAE9C2",
"W. c #D4E7DC",
"Q. c #DCE5DE",
"!. c #E4EECA",
"~. c #EAFAC5",
"^. c #E8F5CC",
"/. c #F4FEDE",
"(. c #DCECE2",
"). c #DCE0E4",
"_. c #E0E1E5",
"`. c #F6FEE4",
"'. c #F9FFEC",
"]. c #EAEFF0",
"[. c #EDF3F2",
"{. c #F6F7FD",
/* pixels */
"                                                                        v.y.e.I.              ",
"                                                                    x.- w G G q m             ",
"                                                                  e.< Y / X.X.( R 2 c.        ",
"                                                                -.e ~ b.(.[._.W.#.Y ,         ",
"                                                              h.4 ~ b.[.g.g 0 j z.#.E n       ",
"                                                              @ Y @.Q.Z H ~ ~ ~ Q | ( t k.    ",
"                                                            A L ` R.Z J ~ ~ ~ ~ ~ ~ ~ T -     ",
"                                                          n.4 ( M.F K ~ ~ ~ ~ ~ ~ ~ ~ ~ w     ",
"                                                          d U o.u.G ~ ~ ~ ~ ~ ~ ~ ~ ~ ~ J r.  ",
"                                                        h.w ( s.0 ~ ~ ~ ~ ~ ~ ~ ~ ~ ~ ~ ^ #   ",
"                                                        7 Q o.M T ~ ~ ~ ~ ~ ~ ~ ~ ~ ~ ~ ~ 5   ",
"              h.i.p.g.                                z.s / V L ~ ~ ~ ~ ~ ~ ~ ~ ~ ~ ~ ~ ~ w   ",
"          -.> e H G u , A F.                          6 T I t ~ ~ ~ ~ ~ ~ ~ ~ ~ ~ ~ ~ ~ ~ y x.",
"        z a ( ~ ~ Y ~ ~ K O :.                      >.t Q 4 Y ~ ~ ~ ~ ~ ~ ~ ~ ~ ~ ~ ~ ~ ~ G l.",
"      N K ~ ~ ~ ~ ~ ~ ~ o./ < O.                    % / r T ~ ~ ~ ~ ~ ~ ~ ~ ~ ~ ~ ~ ~ ~ ~ G k.",
"    t.t ( ~ ~ ~ ~ ~ ~ ~ B.U.' t C E.              ;.u _ ) ~ ~ ~ ~ ~ ~ ~ ~ ~ ~ ~ ~ ~ ~ ~ ~ H k.",
"    @ ^ ~ ~ ~ ~ ~ ~ Y (  .[.(.+.H f S.          Y.> Y ( ~ ~ ~ ~ ~ ~ ~ ~ ~ ~ ~ ~ ~ ~ ~ ~ ~ G l.",
"  d.p ~ ~ ~ ~ ~ ~ ~ ~ ~ P L.{.[.b.E , ;.E.      k E ~ ~ ~ ~ ~ ~ ~ ~ ~ ~ ~ ~ ~ ~ ~ ~ ~ ~ ~ u c.",
"  z Y ~ ~ ~ ~ ~ ~ ~ ~ ~ ( V ).{.{.W.a.t + k ;.l H ~ ~ ~ ~ ~ ~ ~ ~ ~ ~ ~ ~ ~ ~ ~ ~ ~ ~ ~ Y e   ",
"  1 ~ ~ ~ ~ ~ ~ ~ ~ ~ ~ ~ Q h j.T.I.a.! 3 . + L Y Y ~ ~ ~ ~ ~ ~ ~ ~ ~ ~ ~ ~ ~ ~ ~ ~ ~ ~ ~ 4   ",
"D.e ~ ~ ~ ~ ~ ~ ~ ~ ~ ~ ~ ( Y E H a 5 X > t Y ~ ~ ~ ~ ~ ~ ~ ^ ^ ~ ~ ~ ~ ~ ~ ~ ~ ~ ~ ~ ~ ~ +   ",
"h.y ~ ~ ~ ~ ~ ~ ~ ~ ~ ~ ~ ~ R P y H H Q ( ~ ~ ~ ~ ~ ~ ~ ~ ~ ^ ^ ^ ^ ~ ~ ~ ~ ~ ~ ~ ~ ~ ~ T B   ",
"i.H ( ~ ~ ~ ~ ^ ~ ^ ~ ~ ~ ~ ^ ~ ~ ~ ~ ~ ~ ~ ~ ~ ~ ~ ~ ~ ^ ^ ^ ^ ^ ^ ^ ^ ~ ~ ~ ~ ~ ~ ~ ~ G u.  ",
"t.K Y ~ ~ ~ ^ ^ Y ^ ^ ~ ~ ^ ^ ~ Y ~ ~ ~ ~ ^ ~ ^ ^ ~ ^ / ^ ^ ^ ~ ^ ^ ^ ^ ^ ^ ^ ~ ~ ~ ~ ~ e     ",
";.E ( ~ ~ ^ ^ ^ ^ ^ ^ ^ ^ ^ ^ ^ ^ ^ ^ ^ ^ ^ ^ ^ ^ ^ ^ ^ ^ ^ ^ ^ ^ ^ ^ ^ ^ ^ ^ ^ ~ ~ ~ ~ &     ",
"t.L ^ ~ ~ ~ ^ ^ ^ ^ ^ ^ ^ ^ ^ ^ ^ ^ ^ ^ ^ ^ ^ ^ ^ ^ ^ ^ ^ ^ ^ ^ ^ ^ ^ ^ ^ ^ ^ ^ ^ ~ ~ K e.    ",
"d.y ^ ~ ~ ^ ^ ^ ^ ^ ^ ^ ^ ^ ^ ^ ^ ^ ^ ^ ^ ^ ^ ^ ^ ^ ^ ^ ^ Y ^ ^ ^ ^ ^ ^ ^ ^ ^ ^ / ^ Y <       ",
"S.w ~ ~ ~ ~ ~ ^ ^ ^ ^ ^ ^ ^ ^ ^ ^ ^ ^ ^ ^ ^ ^ ^ ^ ^ ^ ^ ^ ~ ^ ^ ^ ^ ^ ^ ^ ^ ^ ^ W ~ T B       ",
"G.4 ~ ~ ~ ~ ~ ~ ~ ~ ~ ~ ^ ~ ~ ~ ~ ~ ~ ~ ~ ~ ~ ~ ~ ~ ~ ~ ~ ~ ~ ~ ~ Y ^ ^ ^ ^ ^ ~ ~ ~ r v.      ",
"~.* ( ~ ~ ~ ~ ~ ~ ~ ~ ~ ~ ~ ~ ~ ~ ~ ~ ~ ~ ~ ~ ~ ~ ~ ~ ~ ~ ~ ~ ~ ~ ~ ~ ~ ~ ~ ~ ~ ~ W m         ",
"`.O.U Y ~ ~ ~ ~ ~ ~ ~ ~ ~ ~ ~ ~ ~ ~ ~ ~ ~ ~ ~ ~ ~ ~ ~ ~ ~ ~ ~ ~ ~ ~ ~ ~ ~ ~ ~ ~ ~ q           ",
"  N.e ~ ~ ~ ~ ~ ~ ~ ~ ~ ~ ~ ~ ~ ~ ~ ~ ~ ~ ~ ~ ~ ~ ~ ~ ~ ~ ~ ~ ~ ~ ~ ~ ~ ~ ~ Y ( P D           ",
"  ^.8 Y ( ~ ~ ~ ~ ~ ~ ~ ~ ~ ~ ~ ~ ~ ~ ~ ~ ~ ~ ~ ~ ~ ~ ~ ~ ~ ~ ~ ~ ~ ~ ~ ~ ~ ~ T -             ",
"  '.p.a ~ ~ ~ ~ ~ ~ ~ ~ ~ ~ ~ ~ ~ ~ ~ ~ ~ ~ ~ ~ ~ ~ ~ ~ ~ ~ ~ ~ ~ ~ ~ ~ ~ ~ ( 3 v.            ",
"    !.6 W ~ ~ ~ ~ ~ ~ ~ ~ ~ ~ ~ ~ ~ ~ ~ ~ ~ ~ ~ ~ ~ ~ ~ ~ ~ ~ ~ ~ ~ ~ ~ Y ~ s y.              ",
"      f.q ( ~ ~ ~ ~ ~ ~ ~ ~ ~ ~ ~ ~ ~ ~ ~ ~ ~ ~ ~ ~ ~ ~ ~ ~ ~ ~ ~ ~ ~ ~ ( p D                 ",
"      K.x H ~ ~ ~ ~ ~ ~ ~ ~ ~ ~ ~ ~ ~ ~ ~ ~ ~ ~ ~ ~ ~ ~ ~ ~ ~ ~ ~ ~ ~ ~ p S                   ",
"        0.9 U ( ~ ~ ~ ~ ~ ~ ~ ~ ~ ~ ~ ~ ~ ~ ~ ~ ~ ~ ~ ~ ~ ~ ~ ~ ~ ~ ( s v                     ",
"          3.8 R ~ ~ ~ ~ ~ ~ ~ ~ ~ ~ ~ ~ ~ ~ ~ ~ ~ ~ ~ ~ ~ ~ ~ ~ ~ ( < { ^.                    ",
"          `.2.7 K ~ ~ ~ ~ ~ ~ ~ ~ ~ ~ ~ ~ ~ ~ ~ ~ ~ ~ ~ ~ ~ ~ ~ G : &.K.                      ",
"            `.3.k t Y ~ ~ ~ ~ ~ ~ ~ ~ ~ ~ ~ ~ ~ ~ ~ ~ ~ ~ ~ Q r k 1.~.                        ",
"                0.[ 2 L ~ ~ ~ ~ ~ ~ ~ ~ ~ ~ ~ ~ ~ ~ ~ T Q t * &.8.                            ",
"                  J.1.x 1 y ( ( ~ ~ ~ ~ ~ ~ ( ~ ~ T H r = %.4.Z.                              ",
"                    `.A.<.} * < t G K E E K G t < o b =.5.q.                                  ",
"                        `.H.6.<.*.$.b c b b $.*.1.5.5.C.                                      ",
"                              `.K.A.q.9.6.9.9.Z.J.                                            ",
"                                                                                              "
};
