/* XPM */
static char *c410365492e24c89c8916f24d90edc8eQ61nbmAtNVdSWFmw[] = {
/* columns rows colors chars-per-pixel */
"47 47 83 1 ",
"  c #354C2D",
". c #394E2F",
"X c #3E4632",
"o c #3F4933",
"O c #454236",
"+ c #4A4139",
"@ c #53453A",
"# c #57483C",
"$ c #5B493C",
"% c #654E3F",
"& c #6C523E",
"* c #73553F",
"= c #5F5042",
"- c #674F40",
"; c #665141",
": c #6A5140",
"> c #745640",
", c #755943",
"< c #795A42",
"1 c #775E49",
"2 c #7A5F49",
"3 c #76614C",
"4 c #7E644C",
"5 c #7F6750",
"6 c #7F6850",
"7 c #826147",
"8 c #82654D",
"9 c #8A6649",
"0 c #8D6A4D",
"q c #806750",
"w c #826951",
"e c #8A6D55",
"r c #916F53",
"t c #8F7155",
"y c #8E7159",
"u c #947355",
"i c #997455",
"p c #94755D",
"a c #99765A",
"s c #9C795D",
"d c #A37C5D",
"f c #AA7E5A",
"g c #977860",
"h c #997860",
"j c #A17C60",
"k c #A37D60",
"l c #A67E60",
"z c #A87F60",
"x c #AC805C",
"c c #AF825C",
"v c #AF835D",
"b c #AC855E",
"n c #B0835D",
"m c #B0845D",
"M c #B2855E",
"N c #B3855F",
"B c #A68061",
"V c #AB8160",
"C c #A88363",
"Z c #AD8260",
"A c #AD8561",
"S c #B08460",
"D c #B28560",
"F c #B38560",
"G c #B48660",
"H c #B78760",
"J c #B48B61",
"K c #B68C62",
"L c #B48B64",
"P c #B88860",
"I c #B98860",
"U c #B98E63",
"Y c #BD8C62",
"T c #BF9266",
"R c #C19164",
"E c #C39265",
"W c #C49366",
"Q c #C29467",
"! c #C59667",
"~ c #C69667",
"^ c #C79768",
"/ c #C79868",
"( c #C99968",
/* pixels */
"++$%----#++%48ummYNYIJNIIIDkhkL^(((///~RmYNYIII",
"++$%-%%$%@@%14rnNNYNHIIIIIIzhkAKUQ(/(/~QYNQNJII",
"O+$--$#@%%&*,40nYNNNIHIIIJNHnbdasm///(/^EERNIHI",
"++$--$++%**<<*9mNYNYHIIJHIIINnawwA//(/((((EYIII",
"++$%-$++$***><9fNNHIIJHIIIHINmiwwxQQQQQ^~~QJmmm",
"O+$--#++$**<<<9szmDIIIIHIJIIYmaw5pCCCCVABxBBzsp",
"++$;%$++%*<*<<8uhkDIIIIIIHJmNnawwpshhhhhhhhhhpw",
"O+#$%$@@%**<<<8phkVDSDDDDHHHNba0ephkhkhhhhhhapw",
"+++#$$%%&*<744wphhjkzkkkkzkkzdpppsxVVVVkhgggghe",
"+O+++$*****746ephhhhhhhgghhghhhphVJIIYHVhggggyw",
"+O+++%*<<**756wphhhhhhghhghhghhhhVIIIIHVjhhggyw",
"XXO++$&:**<<56ephhhhhhhhghghhhghhzHJIHHSVVkgggy",
"  O++=--*<<288eghgghhghggggggggghAIIIIIHIDzhhhh",
". XOO@%-**>146eyggphhgghggggpggghVHIIJHHIHVkhhh",
"..oO+@--:>>146wyeyphghhggggyyypghVHHIHHIIJHVzkh",
". o++=-----,46wwwephhghhgggewwpahVHIHIIIIIHHIDh",
"  OO+$%&:%&*48wwqepghhhhhppe5qyghVJIIIIIHHIJJVh",
"  OO+$&*&**444472qq0ephppyye5eyghkzVDIIJIHHfVsu",
"  .O+%**<*******<<<<7yhpeqwq5eyghhhkVIHHJHVkhpe",
"  O++$***<*7**4*<<<<7rpyeqqq5qyghhhhkDHHIHksgyw",
"  XO+%**<7*<4<<<><<*790ewww55wyghhghkVVVzVsptye",
"  XO+%*****7484*<<<**7<75555qeeggghghhhhhspewep",
"  XO+%*****74q7*>><<*7*<2wqw5wyggghghhghhgyw5eg",
" OO+$&**7<446q647<<>*>**22455eeyppghghhhhhyw5ep",
"OO@%%&**2444ww6687<>>:::>1<8wwwweyggggghggyeweh",
"++$%&&*<484w666w482<>>;>><1285ww6ygggppgggyw5ep",
"++@%&*<<24w4qqqqw4212:::>><85w5wwyyyypyyyyy66ep",
"++$%&**<446wqqw6w5854:;:>><7w4w5wwweewweeww66ep",
"++#%&>><44565ww6556w5:-:**<84qqq45665w6w6556wep",
"++#-&:>>1466w655w4432::><880uetutuewww644545wwp",
"++$&::&:,5w64w6w551:>>>2erpdxxfxxsppew64<144qww",
"++$----:1546w66554:::><7rhhVJImKDkhpyw74<<44www",
"++#---:>>278484422>->790ikkHJIIHHVkhr744**<7775",
"++#%-&>>>2<7<<<12>:-1ifffVSHIIIIHDDfi7<<<*<<276",
"++#-&>*7<<**<**<>>&&<fHIIHIIIIIIIIImi<>><<<<<<4",
"++#&&***<><**<****:*2fHIHIHIIIINIIImi7<<<*<<<34",
"++$-->*<*<<*<**%$$&*8fIIIHHIHIIJIIIniw4<<<*<*7<",
"++#-->*<<<*<<<&@+#&>7fmIHIIHIHHIIIJmie84<<<<***",
"++@-->>**<<<<*&++$&<7fSDHJIIJIIHJDDxae83<<<<*<7",
"++#--:::*<<<**&@+$&<7ikzDHIIIIHIIVBduww4<***<7r",
"++$-:--&***<<<&@+$&<7uhjVIIIIIIIIkgaywq2<<*<<7p",
"++$%---:******&@+$&*2ppsfSmHDHDDHkgpewq2<<*<79p",
"++$%:-:-&&&%$$$$$%**<989uuiuiuauueee927<<<70eya",
"++$%:---&&%%@+@%&****<<78wwewwwwwwww21<<<<9rphh",
"++@--:%:%&&$++@%;:,*<><<4884qqqwww877<><<28phhh",
"++$%:-:-%%&$@++%;:3444442244qqqqw223<<><240phhh",
"++$%-::-&%%$++@%&,4qqqq42<<48q8887<*><<28qephhh"
};
