/* XPM */
static char *result[] = {
/* columns rows colors chars-per-pixel */
"47 47 127 2 ",
"   c #372E29",
".  c #37302A",
"X  c #3D352C",
"o  c #3B382E",
"O  c #42362D",
"+  c #4C3B2F",
"@  c #443C35",
"#  c #4E3C30",
"$  c #493E38",
"%  c #3D4231",
"&  c #414434",
"*  c #4D4135",
"=  c #4C453A",
"-  c #464C38",
";  c #4C4B3C",
":  c #514236",
">  c #55463B",
",  c #5A473A",
"<  c #56493D",
"1  c #5A4A3D",
"2  c #4B5B3D",
"3  c #52503F",
"4  c #5C513F",
"5  c #654F3F",
"6  c #65503D",
"7  c #70553F",
"8  c #5B4D40",
"9  c #4F5B40",
"0  c #545641",
"q  c #565B44",
"w  c #674F40",
"e  c #655342",
"r  c #695140",
"t  c #6D5D48",
"y  c #725541",
"u  c #745944",
"i  c #7A5C44",
"p  c #755D49",
"a  c #795E49",
"s  c #516542",
"d  c #586247",
"f  c #536A45",
"g  c #5D6C4B",
"h  c #5F714D",
"j  c #646B4D",
"k  c #6B6A4D",
"l  c #76614C",
"z  c #7D644D",
"x  c #63734D",
"c  c #7F6550",
"v  c #7B6A53",
"b  c #677551",
"n  c #647A51",
"m  c #707250",
"M  c #787753",
"N  c #806147",
"B  c #82654C",
"V  c #8B6748",
"C  c #84684F",
"Z  c #8D6A4B",
"A  c #936F4C",
"S  c #96714D",
"D  c #826650",
"F  c #826951",
"G  c #8A6D55",
"H  c #916E52",
"J  c #8E7055",
"K  c #8E7159",
"L  c #957255",
"P  c #9A7251",
"I  c #9F7857",
"U  c #94755C",
"Y  c #98775C",
"T  c #977C58",
"R  c #9C795C",
"E  c #A57B57",
"W  c #A37C5C",
"Q  c #A97E5A",
"!  c #9A7960",
"~  c #A37E60",
"^  c #5F8250",
"/  c #648353",
"(  c #698656",
")  c #698857",
"_  c #6C8D5A",
"`  c #748E5B",
"'  c #6D925B",
"]  c #6D9F5D",
"[  c #71935E",
"{  c #72995E",
"}  c #6FA05F",
"|  c #759D62",
" . c #799962",
".. c #72A361",
"X. c #7AA365",
"o. c #76AB65",
"O. c #7BAB67",
"+. c #7DAC6A",
"@. c #7DB36A",
"#. c #7FB96D",
"$. c #A6805B",
"%. c #AB815E",
"&. c #B3855E",
"*. c #B4895E",
"=. c #A78162",
"-. c #AC8261",
";. c #B48660",
":. c #B68961",
">. c #B98961",
",. c #BE9065",
"<. c #80AE6B",
"1. c #81B66D",
"2. c #82BB6E",
"3. c #85BD71",
"4. c #88BF73",
"5. c #C39466",
"6. c #C79768",
"7. c #C89868",
"8. c #84C66F",
"9. c #86C172",
"0. c #89C574",
"q. c #8BCA76",
"w. c #8ECE79",
"e. c #90CF7A",
"r. c #8FD079",
"t. c #93D57D",
"y. c #95D87F",
/* pixels */
"s s s s s s s s s s s s s s s s f / } } ] ] ] ] ] ] ] } } } } } } } } ..] | ] ] ] ] ] ] } } } ",
"% % & & & & & % & & & & & & % @ - ^ o.o.o.o.o.o.o.o.o.o.o.o.o.o.o.O.o.o.o.o.o.o.o.o.} o.o...] ",
". O @ @ @ @ @ @ @ @ @ $ @ @ @ @ = _ 9.9.4.9.9.0.0.q.q.q.q.0.q.q.0.0.0.0.q.q.q.q.w.8.8.8.9.@.} ",
"O : > 1 1 1 1 1 1 1 , , , 1 1 , 8 n | | | | X.3.r.r.r.t.e.w.q.q.q.q.w.t.y.y.y.y.y.r.r.y.r.#.} ",
"+ , 5 5 w w w w w 5 5 5 5 5 5 w e < = = = = 0 ..r.q.q.w.q.3.1.3.2.2.9.t.t.t.t.t.y.y.y.y.r.#.} ",
"+ 5 5 r w w w w r r r r r r w r w 1 = = = = 0 { 8.9.q.q.q.3.#.#.2.2.9.e.y.t.y.t.r.y.r.y.r.#.} ",
"# 5 5 r w r w w r 6 5 r r w 6 r w 1 1 1 1 1 1 x ( _ O.3.9.3.#.3.0.0.q.t.t.t.t.t.y.r.y.y.r.#.} ",
"+ , 5 5 r w r w w r r r 5 r r r w w w 5 5 w w < ; d ' @.#.1.#.3.q.t.t.t.t.y.t.t.y.y.t.y.w.#.} ",
"+ , 5 5 w r w r r r w r y y r r r r r r r 6 5 , = 3 ) O.@.1.2.2.r.t.t.t.t.t.t.t.t.t.t.t.w.#.} ",
"O # , 5 r r r 5 5 r r 6 7 7 u a p p z p u y 7 5 1 4 g n ) @.0.0.q.r.r.t.t.t.q.0.0.0.0.w.q.#...",
"  O > 5 w w r w w r r y 7 7 z z c F z B a i 7 7 5 6 < = q +.w.q.q.r.w.t.t.r.9.2.#.#.#.0.q.#...",
"X $ > 5 5 w r r r w r y i 7 z F F c F D i i i 7 r r 1 > 4 { 2.8.9.q.q.w.t.q.9.2.#.3.#.0.q.#...",
"* 8 6 1 > 1 r w w r r u l z z z c F v C z z z l p p r 6 6 x / ' O.9.9.0.0.4.#.3.3.q.q.w.w.#.} ",
"5 p t < = > r r 5 r r u c B F c F z c C C z z C F B a y 7 4 ; d [ 1.#.2.#.3.#.#.4.e.t.t.w.#.} ",
"6 l p 1 = > r r r r y p F F c F v F v C C G C G G G B i u 1 * q _ O.+.#.3.3.#.3.9.e.t.t.w.#.} ",
"i S J l p p l a l l z z F z F c C z C F L W W W W I L H G l t t g h ( 3.w.q.w.w.e.t.y.t.w.#.} ",
"V E I G c z c c v D c c D c D D C v C G I ;.;.;.>.&.~ ! Y G c p 8 0 q 3.y.t.t.t.t.t.y.t.w.#.} ",
"V $.I J G F F c D v D v D G D G F F v C I ;.;.>.>.;.~ ~ ! K F c e 8 q +.4.4.w.t.t.t.y.t.e.#.} ",
"V E $.Y K G c F D D c G U K U K K G C C I ;.>.>.;.&.;.Q =.Y K G l t t b n ' 3.t.t.t.t.t.w.#.} ",
"V E %.! ! K D D c D c K ! ! ! ! T K z G E ;.*.>.>.>.;.;.;.! ! ! G c l 8 8 g +.t.y.y.t.y.w.#.} ",
"Z Q %.W ~ U D D F F G K ! ! ! ~ ! K G G W &.;.;.>.>.&.>.;.~ ! R U G a 8 $ j +.t.t.t.y.t.w.#.} ",
"S %.>.:.~ W F D G K K U ! ! ~ ~ -.%.Q Q W ~ ~ ;.&.>.~ ~ ~ ~ -.;.Q Q P r @ j +.t.t.y.t.t.w.#.} ",
"S *.,.>.;.~ D v K K ! ! ~ ! ~ >.>.:.*.;.~ ! ! -.>.;.~ ! ! -.>.>.;.;.~ e @ g +.t.t.y.y.y.w.#...",
"S *.,.>.;.~ K v K ! ! ! ~ ~ ~ Q >.>.>.*.~ Y Y ~ ;.;.~ ~ ~ ;.>.&.>.;.~ c e j  .1.4.e.t.t.w.#...",
"Z %.>.>.;.%.U U U U ! ! ~ ~ Q 5.>.&.>.;.R G G U ~ ~ ~ ;.;.;.>.>.>.Q >.I P K m b ` q.y.y.r.#.} ",
"V E *.>.;.-.! Y ! ! ! ~ 5.5.>.>.>.>.>.&.I F G U ! ! ~ >.>.>.>.;.>.5.>.>.Q I e 8 g 0.y.t.w.#.} ",
"V E %.>.&.-.! ! ! ! ! ~ Q >.Q >.;.;.>.*.R H G U ! ! ~ Q ;.;.>.;.5.Q >.>.>.I r = g 0.y.t.r.#.} ",
"i H W ;.>.=.! ! ! ! ! ~ >.>.Q ~ ~ ~ >.&.*.%.Q ~ ! ! ! ~ ~ ;.&.>.Q 5.Q ~ ~ K w = g 0.t.t.r.#.} ",
"p G ~ ;.>.;.! ! ! ! ! ~ Q 5.~ ~ W Q >.>.>.*.;.~ ! ! ! ! ~ ;.;.>.>.Q >.~ ! F 8 0 g 0.y.y.r.#.} ",
"a L Q ;.>.Q ~ ~ ~ ! ! ~ Q :.~ ~ ~ ~ >.>.>.>.&.W K U K U Y Q ;.>.:.>.>.~ ~ U l e j  .<.3.0.#.} ",
"B E Q >.;.;.-.-.~ ~ ! ! ~ ~ Q Q Q ;.>.>.;.>.;.R F G F G H Q >.>.:.>.:.,.,.-.! F v j g [ 1.1.{ ",
"V E &.>.>.>.>.>.~ ! ! ! ! ~ Q Q 5.;.>.>.>.;.&.Y c c D D G Q >.>.:.:.,.6.7.,.~ ! G 8 @ b +.1.{ ",
"V Q >.>.>.>.>.>.Q Q ! ! ! ! ~ Q >.;.>.>.>.>.Q ~ H U H D G ~ 5.>.>.>.5.5.7.5.;.~ U 8 @ n O.#.} ",
"P Q >.5.>.>.>.Q Q ~ U ! U ! ~ >.>.>.>.>.>.>.>.;.Q Q H D G ;.6.6.6.6.6.6.7.6.5.>.%.e @ n O.#.} ",
"P &.5.>.>.>.>.>.Q ~ ! ! ! ~ ~ 5.>.>.,.Q ;.>.;.;.>.>.Y D H ;.7.7.7.7.6.6.7.7.6.6.%.e * n O.@.] ",
"S Q >.>.>.>.>.>.Q ~ ! ! ~ ~ ~ ~ Q ;.5.5.>.>.>.>.>.Q ~ I E 5.7.7.7.7.6.6.7.6.6.6.:.G l M ` ' ^ ",
"Z Q >.>.>.>.>.Q ~ ~ ~ ~ Q Q ~ ~ ~ Q 7.6.>.>.>.>.>.>.>.5.>.5.7.7.7.7.7.7.7.7.7.6.,.*.%.$.k 9 2 ",
"V E &.>.>.>.>.>.~ ~ ~ ~ 5.Q ~ ~ ~ Q 7.7.5.>.>.>.>.>.5.6.6.6.7.6.7.7.7.7.7.6.7.7.7.7.7.$.e @ % ",
"V E &.>.>.>.>.&.Q ~ ~ ~ >.>.>.~ Q 5.6.6.5.>.>.>.>.>.5.6.6.6.6.7.7.7.7.7.7.7.7.7.7.7.7.$.e @ & ",
"V E &.>.&.>.>.>.6.7.6.6.Q >.5.6.6.6.7.6.6.6.5.5.>.>.5.6.6.6.6.7.7.7.7.7.7.7.7.7.7.7.7.$.e @ & ",
"V E &.>.>.>.>.>.5.6.6.5.Q 5.5.6.7.6.7.7.7.7.6.>.Q 5.6.6.6.7.7.7.7.7.7.7.7.7.7.7.7.7.7.$.e & & ",
"V E &.&.>.&.>.>.5.6.6.5.~ ~ >.5.6.6.7.7.7.7.6.6.6.6.~ 6.,.6.7.7.7.7.7.7.7.7.7.7.7.7.7.$.e & & ",
"V E &.>.>.&.>.>.5.6.5.5.~ ~ Q 6.6.6.6.6.7.7.7.6.6.5.~ ~ ~ 5.7.7.7.7.7.7.7.7.7.7.7.7.7.$.6 @ & ",
"V E &.>.>.>.>.>.>.5.5.~ ! ~ ~ 6.6.6.6.6.6.6.6.6.6.6.~ ! ! ,.7.7.7.5.7.7.7.5.7.7.7.7.7.$.r & & ",
"V P Q ;.5.>.>.>.5.6.5.5.~ ~ :.,.Q 5.5.5.5.5.5.5.5.6.>.~ Q ,.,.~ 5.6.5.5.5.5.5.5.5.,.5.$.e @ % ",
"N V ~ Q Q Q Q &.Q Q Q Q 6.5.~ ! ! E Q >.Q >.Q Q Q Q >.6.Q ~ ! ! E Q &.Q &.&.Q &.&.&.&.L 4 @ & ",
"y N V H P P P P P P P I E ~ U G V H P P P P P P P P ~ ~ ! H D D A P P P S P P P S S P N : o & "
};
