/* XPM */
static char *_bd6fc134e3044c8d00403e4861033e9QmimCviNyKw1397X[] = {
/* columns rows colors chars-per-pixel */
"47 47 102 2 ",
"   c #354C2D",
".  c #394E2F",
"X  c #3E4632",
"o  c #454236",
"O  c #494736",
"+  c #4A4139",
"@  c #53453A",
"#  c #57483C",
"$  c #5B493C",
"%  c #654E3F",
"&  c #6C523E",
"*  c #73553F",
"=  c #674F40",
"-  c #665141",
";  c #6A5140",
":  c #745640",
">  c #755943",
",  c #795A42",
"<  c #775E49",
"1  c #7A5F49",
"2  c #76614C",
"3  c #7E644C",
"4  c #7F6750",
"5  c #7F6850",
"6  c #826147",
"7  c #82654D",
"8  c #8A6649",
"9  c #8D6A4D",
"0  c #806750",
"q  c #826951",
"w  c #8A6D55",
"e  c #916F53",
"r  c #8F7155",
"t  c #8C7058",
"y  c #8F7058",
"u  c #8E7159",
"i  c #917255",
"p  c #957456",
"a  c #967456",
"s  c #987050",
"d  c #9C7353",
"f  c #9B7656",
"g  c #907159",
"h  c #917159",
"j  c #91735B",
"k  c #92725A",
"l  c #947359",
"z  c #93745C",
"x  c #94745D",
"c  c #94755D",
"v  c #95755D",
"b  c #97775F",
"n  c #997458",
"m  c #997658",
"M  c #98775A",
"N  c #98775F",
"B  c #9C7858",
"V  c #98785F",
"C  c #9C795D",
"Z  c #9D7A5E",
"A  c #A77B58",
"S  c #A67C5A",
"D  c #A07B5E",
"F  c #A37D5F",
"G  c #A97D5A",
"H  c #AA7E5A",
"J  c #977860",
"K  c #987860",
"L  c #997860",
"P  c #9A7960",
"I  c #A17C60",
"U  c #A27D60",
"Y  c #A37D60",
"T  c #A87F60",
"R  c #AA805E",
"E  c #AD825D",
"W  c #AD825E",
"Q  c #B2835D",
"!  c #B2845D",
"~  c #B1845E",
"^  c #B2855E",
"/  c #B4865F",
"(  c #B6875F",
")  c #A68162",
"_  c #A98060",
"`  c #AA8160",
"'  c #AB8260",
"]  c #AE8360",
"[  c #B08460",
"{  c #B18460",
"}  c #B38560",
"|  c #B38660",
" . c #B68760",
".. c #B78860",
"X. c #B68961",
"o. c #B88860",
"O. c #B98960",
"+. c #BF9266",
"@. c #C49466",
"#. c #C79768",
"$. c #C79868",
"%. c #C89868",
/* pixels */
"+ + $ % = = ; = = ; = % + + @ % = > 2 q 0 0 q 3 , , , 3 3 0 0 0 7 3 * , * * , 3 3 7 w j K K K ",
"+ + $ % = = = ; = ; = $ + + @ % = ; < 3 3 6 3 1 , 3 3 0 q 0 5 q 0 3 3 , 6 , , , 3 3 q m K K K ",
"o + $ = % - = ; = = % $ + + @ = ; : : , , , , 1 3 7 3 q q q 5 0 q 4 3 3 , , , , , , q v K K J ",
"+ + $ = ; = ; = = & % % @ + @ % = ; : : , , , , 7 q q q q q q q q q q 5 6 , , > , , 8 j x J K ",
"+ + $ = = ; = = * * & % % $ $ $ $ % * * , 6 7 9 e p p p f p p p p i w w 7 3 , > : , 6 9 e k J ",
"o + $ % ; = % ; * * * * * * & @ + $ * , 6 k v C H / / /  ./ / / ! F L v r 0 0 3 , : , * 6 0 x ",
"+ + $ % % ; ; = * * , , * * & + + @ & * , k L Y ] O.O.O.O.O.( (  .Y L v t 0 3 3 , , , 6 , 6 k ",
"+ + $ % ; ; ; : * * , * * * & @ + $ & , 6 C Y T { O.O.O.O.O.( (  .W ) F p q 3 3 , , : : , 6 9 ",
"o + $ = = : : : * , * * 6 * * @ + # * , 6 S {  . .O.o.o.o.o.o.o.O. .{ W m q q 3 , , , , : 6 3 ",
"+ + $ = = : : : , * * 6 * * & @ + # & : 6 G  .o.o.O.o.o.o.o.o.o. .O.o.! m w 7 3 , * , , * : : ",
"o + $ = ; * : , , * * , * , & $ # % & : 6 H o.o.o.o.o.o.o.o.o.o.O.O. .! B 8 3 , , , * , , , , ",
"+ + # = ; : : : , , , , * , * * * & & * 1 H o.o.o.o.o.o.o.o.o.o.O.O./ ! s 6 > > , , , * * 6 3 ",
"+ + $ = = ; : : , , , , : , , , * : : = 1 S o.(  .O.o.O.o.o.o.o. .O.O.Q e 3 * * * , , * > , 0 ",
"+ + $ = ; ; : : * , , , , , , , , : : = > d S S W { {  .o.o.o.o.X. .{ R s 6 6 , , , , , < 3 0 ",
"+ + @ = = ; ; : * 6 3 3 7 3 3 3 2 < ; = : 6 8 9 n I Y { o.o.o.o. .T F C w 7 3 , , * , 6 5 3 q ",
"+ + $ = ; = & = , 7 0 0 q q 7 q 0 1 : ; : : : 6 w L L ]  . . . . .` L m i q 8 6 , * 6 6 5 5 5 ",
"+ + $ % % ; ; : < 3 q 5 q 5 q 3 q 2 < ; ; > : 1 q l k S T H W W H L v t t q 5 3 , , 3 5 5 5 w ",
"o + $ % ; ; : : 1 3 5 5 5 q 5 q 0 4 3 3 2 > ; > , 6 6 w e p i i r t w w q 5 5 3 3 3 3 q 5 w t ",
"+ + $ % ; : * , , 5 q q 5 q 4 5 4 q 0 0 3 ; ; ; : : , 3 3 4 0 0 q 5 q q 5 5 q 5 5 5 q 5 5 w J ",
"+ + $ % = : * , 3 5 3 q 5 4 q 4 5 4 3 4 3 ; ; & : : , 7 q 0 0 0 q q q q w q w q q w q q 5 w t ",
"o + # = - * : , , 3 q 5 5 5 q q q 3 3 , > ; ; ; : , , 3 q 5 q 5 q w t t t k k l k t w q q w v ",
"+ + $ = ; * : , 3 3 q 5 q 4 4 5 0 3 , , , ; ; ; : , , 3 3 q q 5 q k L J L v L v L v t q 5 w J ",
"o + @ = % & > , , 3 3 3 q q 0 3 3 3 , , : ; ; ; : , , 3 q q q q w t J J L L L L L J t t 5 w J ",
"X X o @ $ % * , , , 3 3 3 q 7 3 1 , , , , : : > < 3 3 3 5 q w j t v L L J L L L L J u q 5 w J ",
"    X o + % & * , * 6 , 7 7 3 , , * : , , : , , 3 5 5 q 5 w t v L L L J L J L L L J t 5 5 w v ",
"    X o + # * * * , * 6 3 7 6 , , , * : , 6 , , 3 q 5 q q q t J L L L L L L P L ) L j r 5 w j ",
"    X o + % * * , * : , , 1 , , , * , , , 9 w q q 4 q 5 q q t v L L L P Y T ] T R R ) t j t w ",
"    X o + % * , , , , , , , , : , , , : 6 t J j w 4 3 q 5 t t L L L L L Y {  . .{ ] R L L t w ",
"    o + + % & * : , : : , , , , , , 6 , 6 j L j t q q q 5 w t v L L L L `  .o.( X.X.] Y V j w ",
"    X o + % & & : : ; , 1 1 3 1 6 6 0 9 w J L J t t t q q q t J K Y T ] {  .O.X.X.( ! ` R ) t ",
"    o o + # % & - - - > 3 0 0 0 0 w k L L L L J L J v w q q t L L ]  .o.O.o. .O. .O.X.X.X.W ) ",
"    o + + @ % % - - ; > 3 0 0 q 0 w k L J L J L J L J w 5 w j v L ]  .o.o.o.O.O.O.O.( X.! E V ",
"    O o + $ % ; ; * : , 4 4 q w t k v L J L J L J L J t t t x L L T o.o.o.o.o.o.o.o.{ ] Y Y P ",
". . . o + # % = ; : : 1 3 4 q J v v J J L J L L L J J L J x J L L ]  .o.o.o.o.o.o. .] Y L L P ",
". . o o + $ % & : * : , 4 5 w J L L L J L J L J L L J L J L L K L ] o.o.o.o.o. . . .T L J K K ",
"o . o + + $ & * : : , 6 3 q q J J L J L J L J L J J L J L L J L L T  .o.o.o. . .] T Y L J v l ",
"o o + + + $ * * * * , 3 4 5 w J L L J L L L L L L J L L L L L L L ]  .o.o.o.o.T L L L L J j q ",
"+ + + + + % * * 6 , * , 3 5 w v L L L J L L L L K K L L K L L L L ]  . .o.o.O.T L J L J v j q ",
"+ + + @ @ $ % % & * , , 1 7 4 v L L Y Y Y Y Y Y Y Y Y Y Y Y K t k D ` ] ] ] T Y L L J L L v w ",
"o + # % % # @ @ % * : , , , 7 k J I ] { {  .{ { { { {  .{ H n w q v L I L L Y L L L J J J t q ",
"+ + $ % - $ + + % * , , , , 6 s K Y {  .O.o.o.o.O.O.O.O./ ! f q q k L L P L L L L L L L L v q ",
"o + $ = % $ + + $ * * , , , 6 S Y T { O.o.o.o.o.X.O.O.O.O.W m q w L ) ) ] ` ` ` ` ` ) Y Y C v ",
"+ + $ % % $ + + $ * * , * , 8 H  . .o.o.o.o.o.o.o.o.O.O.O.! m q q R +.+.#.@.@.@.#.#.X.X.X./ ! ",
"o + $ % % $ + + $ * * , , * 8 Q  .o.o.o.o.o.o.o.o.o.O.( ( W m q w ' $.$.$.#.%.%.%.%.#.O. .O.O.",
"+ + $ = = % @ @ $ % ; ; , , e Q  .o.o.o.o.o.o.o.o.o. .{ { ` D C ) X.+.$.%.%.#.#.#.#.O.O.O.o.o.",
"+ + $ = = % % $ $ # $ - 3 7 e Q  .o.o.o.o.o.o.o.o.o. .T P Y ] X.X.+.$.$.%.%.#.@.O.O.O.O.o.o.o.",
"o + # = ; - ; % $ O + - 2 3 i !  .O.o.o.o.o.o.o.O. . .Y L Y X.@.$.$.$.$.#.#.#.@.O.O.o.o.o.o.o."
};
