/* XPM */
static char *result[] = {
/* columns rows colors chars-per-pixel */
"47 47 122 2 ",
"   c #372E29",
".  c #3D352C",
"X  c #3B382E",
"o  c #3F3630",
"O  c #3F3B32",
"+  c #42362D",
"@  c #4C3B2F",
"#  c #443C35",
"$  c #4E3C30",
"%  c #493E38",
"&  c #3D4231",
"*  c #414434",
"=  c #4D4135",
"-  c #4C453A",
";  c #4C4B3C",
":  c #514236",
">  c #55463B",
",  c #5A473A",
"<  c #56493D",
"1  c #5A4A3D",
"2  c #52503F",
"3  c #5C513F",
"4  c #654F3F",
"5  c #65503D",
"6  c #70553F",
"7  c #5B4D40",
"8  c #4F5B40",
"9  c #545641",
"0  c #565B44",
"q  c #5D5F47",
"w  c #674F40",
"e  c #655342",
"r  c #695140",
"t  c #6D5D48",
"y  c #725541",
"u  c #745944",
"i  c #7A5C44",
"p  c #755D49",
"a  c #795E49",
"s  c #516542",
"d  c #586247",
"f  c #536A45",
"g  c #5D6C4B",
"h  c #5F714D",
"j  c #646B4D",
"k  c #6B6A4D",
"l  c #76614C",
"z  c #7D644D",
"x  c #63734D",
"c  c #7F6550",
"v  c #7B6A53",
"b  c #677551",
"n  c #647A51",
"m  c #707250",
"M  c #787753",
"N  c #806147",
"B  c #8B6748",
"V  c #84684F",
"C  c #96714D",
"Z  c #826650",
"A  c #826951",
"S  c #8A6D55",
"D  c #916E52",
"F  c #8E7055",
"G  c #8E7159",
"H  c #957255",
"J  c #9A7251",
"K  c #9F7857",
"L  c #94755C",
"P  c #98775C",
"I  c #9C795C",
"U  c #A57B57",
"Y  c #A37C5C",
"T  c #A97E5A",
"R  c #9A7960",
"E  c #A37E60",
"W  c #5F8250",
"Q  c #648353",
"!  c #698857",
"~  c #6C8D5A",
"^  c #748E5B",
"/  c #6D925B",
"(  c #6D9F5D",
")  c #71935E",
"_  c #72995E",
"`  c #6FA05F",
"'  c #759D62",
"]  c #799962",
"[  c #72A361",
"{  c #7AA365",
"}  c #76AB65",
"|  c #7BAB67",
" . c #7DAC6A",
".. c #7DB36A",
"X. c #7FB96D",
"o. c #A6805B",
"O. c #AB815E",
"+. c #B3855E",
"@. c #B4895E",
"#. c #A78162",
"$. c #AC8261",
"%. c #B48660",
"&. c #B68961",
"*. c #B98961",
"=. c #BE9065",
"-. c #80AE6B",
";. c #81B66D",
":. c #82BB6E",
">. c #85BD71",
",. c #88BF73",
"<. c #C39466",
"1. c #C79768",
"2. c #C89868",
"3. c #84C66F",
"4. c #86C172",
"5. c #89C574",
"6. c #8BCA76",
"7. c #8ECE79",
"8. c #90CF7A",
"9. c #8FD079",
"0. c #93D57D",
"q. c #95D87F",
/* pixels */
"u p N B B B B B B B B J J J B B B N y u B B B J J J B B B B B N 4 1 : X   . @ @ @ @ @ +   & s ",
"a S U U U U U U U T T T *.T T U U J S D K T T T *.T T T T U U D a p 5 = # = , 1 , 4 , $ o * s ",
"Z Y E +.*.T %.+.T *.*.*.<.*.*.*.T E E E T *.*.=.<.<.T T E E J D t e 7 > : , w w 4 4 w > % & s ",
"D T *.*.<.*.*.*.*.*.*.*.*.*.*.*.*.<.T T *.*.*.=.*.T T E P D S N 7 7 , 7 w w w w r r 4 1 * & s ",
"J +.*.*.T <.T <.*.*.*.*.T <.*.*.*.*.<.T =.*.T *.%.E R R D Z Z p > % 7 w r r r r r 4 w , # * s ",
"J T *.+.<.T +.+.*.*.%.*.<.T *.*.*.T T E T E E E T I L G S Z c p , , , w 4 r 4 4 r r w 1 # * s ",
"J +.*.*.*.*.*.*.*.*.*.*.T <.*.*.T E R R E R R S A A A A A c c l r r 4 r r r r r r r 4 , # & s ",
"J T *.*.*.*.+.*.*.*.*.T <.T *.*.*.E R R R R L S A Z A c A Z c l r r r r 4 r r 4 4 r 4 , # = s ",
"J +.*.*.=.=.=.*.%.E $.E E E T E E R R R R R L G S S A A Z c c l r r r r w r r r w w w > % * s ",
"J +.<.2.<.1.1.<.E E E E R R E E R R R R R R R L L G A v c A c z r 6 r r w r r 4 w w w 7 # & s ",
"J T <.<.1.1.1.<.$.R R R L R R R R R R R R R R R R G A A A c c l e e 6 6 r r r r r w w > # & s ",
"U *.*.*.&.*.<.=.%.E E R R R R R R E E E E E E R R R G S S A V z p u u 6 6 r 4 r w r w 7 % * s ",
"U *.$.R E $.&.&.*.&.%.E R R R R R +.%.%.*.%.%.R R R R R G S v c c c l 6 y y r r r r 4 , # * s ",
"T *.$.R E $.&.=.*.&.%.E R R R R E $.*.%.%.@.%.E R R R R G A v V V c N l y y r w w r w , % * s ",
"J E %.%.&.=.=.=.%.E $.%.E E E E $.E E %.%.*.%.$.R #.R R L A V v c A z z i u r r w w w < # & f ",
"B U *.<.1.<.=.=.E R E E %.%.*.&.+.E R E %.@.&.%.%.O.R P G A V V A z V c Z a r r r w w , # & s ",
"Z P *.1.2.2.1.1.E E T T <.T <.+.%.E R E *.*.*.*.T T R R G A c A V c v c v l r r r w 4 1 9 & f ",
"D E <.1.2.1.1.1.<.*.*.T T <.T *.%.E E $.T *.*.*.<.%.G G S Z A c V v V V N l 5 4 4 , 1 n ~ W W ",
"J T <.1.2.2.2.2.1.1.<.<.<.T *.*.*.+.*.*.*.*.%.*.T T D c c c c Z v V c V V l 5 4 , - ; ' ,.} ` ",
"J T <.1.2.2.2.1.1.1.<.<.*.*.+.*.+.+.<.+.%.%.%.%.*.T D S A A S A c V c V z l 6 4 < - - ' ,.} ( ",
"J +.<.1.1.1.1.1.<.<.<.T *.*.*.*.<.T T T T Y I Y E E Y U Y Y K H A A z i a u r 5 , - - ' 4.} ( ",
"J %.<.1.1.1.1.1.<.T *.<.@.*.@.*.T <.<.T D S S R E E T +.@.@.+.Y A A z i i y r 4 , % - ' ,.} ( ",
"J +.<.<.1.1.1.<.<.*.*.T @.%.%.+.T T *.T D Z G L R E %.*.*.@.%.Y A V a y 6 6 5 4 7 9 9 { 4.} ( ",
"J +.<.1.1.<.*.=.*.*.*.*.&.+.Y H T T E E L G R E E %.@.*.*.*.@.Y S Z a y 6 4 1 2 b _ [ >.5.} ( ",
"J T <.2.1.*.T <.*.*.@.%.*.+.F V Z G R R R R E %.*.*.*.*.+.*.+.T A A l r r 1 = ; ! 4.7.9.5.} ( ",
"J +.<.2.<.<.*.*.@.&.*.@.+.T S Z S G R R R E E %.%.%.*.*.*.%.%.U V V p 5 4 3 2 d / 4.7.0.6.} ( ",
"U *.*.T T <.<.<.<.<.*.o.H H A V S G R R E E E E E E %.%.T E E H N i e 1 < j ! / } 5.7.9.5.} ` ",
"U *.T E E T <.1.2.2.=.I S A A A A R R E %.*.T E E E %.*.T E R D N 6 5 < - n | ..>.6.7.9.6.} ` ",
"R =.E R E =.1.1.2.2.=.o.S S S S S R E E %.*.T E E E %.$.T R R Z 6 6 5 3 0 ! ..:.4.5.6.9.6.} ` ",
"S E =.=.1.1.1.1.2.2.<.*.*.%.T T E T E %.%.*.*.%.$.E E R E G A c 4 1 x [ |  .X.:.X.4.4.6.6.| ` ",
"Z L &.1.2.1.1.1.2.2.2.2.2.1.<.%.*.%.*.*.%.*.*.%.*.%.R R L A c t - ; Q :.6.5.X.X.:.X.>.6.5.| [ ",
"Z R <.1.1.1.1.1.1.2.2.2.1.1.*.*.*.*.*.*.*.*.*.*.*.E R R S c l t 0 d ~ :.6.6.>.>.>.:.X.6.5.} ( ",
"D T <.1.2.2.2.2.2.2.2.2.2.1.*.*.*.*.%.*.*.%.*.%.*.T H S l e 7 g ! )  .4.6.6.7.6.5.:.:.6.5.} [ ",
"J T <.1.2.2.1.2.2.2.2.2.2.1.*.*.*.&.*.%.*.*.*.%.%.T S Z t 7 9 g | ..>.6.6.7.0.0.6.:.:.6.5.| ` ",
"K T <.<.2.2.2.2.2.2.2.2.1.1.<.*.*.&.$.%.%.%.@.T Y H z a t q d n ..X.4.6.6.0.0.0.6.3.>.6.6.} ` ",
"J T <.1.2.2.2.2.2.2.2.2.1.1.1.1.=.$.R #.%.*.U a r e 7 7 b  .,.>.X.X.5.9.0.0.0.q.0.8.8.0.6.} ` ",
"J T <.<.1.1.2.2.2.2.2.2.1.1.1.2.=.#.R R %.%.L e # # % % n ,.0.7.>.>.5.0.0.0.0.0.0.0.q.q.6.} ` ",
"J *.<.1.1.1.2.2.2.2.2.1.1.1.<.<.#.R S G P U S k g g g h ] 5.0.7.>.X.4.6.8.0.q.0.q.q.0.0.5.| ` ",
"J *.<.1.1.2.2.2.2.2.1.1.1.<.T T R l 7 e e r m ] .. . .-.>.8.0.7.>.:.>.4.4.6.0.0.0.0.0.q.6.} ` ",
"J T <.1.2.2.2.2.2.2.1.<.<.<.E E A 7 7 - - > b ;.q.0.0.0.8.0.0.7.X.X.X.X.:.5.0.0.0.q.q.q.6.} ` ",
"C +.<.2.2.2.2.2.2.2.<.&.O.O.L S v k g g g g ^ ,.0.q.q.0.0.q.0.7.4.4.>.>.X.5.9.q.0.0.0.0.6.} ` ",
"C +.<.<.2.2.2.2.2.2.*.S e e 7 1 j { 5.5.5.5.6.0.q.0.0.0.0.0.0.0.9.9.5.X.X.6.q.q.0.q.0.0.4.} ` ",
"J +.<.2.2.2.2.2.2.2.%.a # # # # g  .q.q.0.q.q.0.0.0.0.q.0.q.q.0.0.0.6.>.X.6.9.q.0.0.0.9.3.} ( ",
"N J U o.o.o.o.o.E T I M n n n n ) >.0.q.0.0.0.0.0.q.0.q.0.0.0.0.0.0.7.5.5.6.0.0.q.0.q.0.3.` ( ",
": 1 e e e e e e e e k ^  . . . .;.5.7.7.7.9.7.7.8.7.0.7.9.9.9.7.9.7.7.6.6.6.9.9.9.9.9.9.3.} ` ",
". O # # # * * # # O 8 ~ X.X.X.X.X.X.X.X.X.X.X.X.X.X.X.X.X.:.X.X.X.X.X.X.X.X.X.X.X.X.X.X...` ` ",
"* * * * * * * * & * 8 W ( ( ( ( ` ` ` ` ` ` [ ` ` ` ( ` ` ` ` ` ` ` ` [ ` ` ` ` ` ` ` ` ` ` ` "
};
