/* XPM */
static char *result[] = {
/* columns rows colors chars-per-pixel */
"47 47 58 1 ",
"  c #354C2D",
". c #394E2F",
"X c #3E4632",
"o c #454236",
"O c #494736",
"+ c #4A4139",
"@ c #53453A",
"# c #57483C",
"$ c #5B493C",
"% c #654E3F",
"& c #6C523E",
"* c #73553F",
"= c #5F5042",
"- c #674F40",
"; c #665141",
": c #6A5140",
"> c #745640",
", c #755943",
"< c #795A42",
"1 c #775E49",
"2 c #7A5F49",
"3 c #76614C",
"4 c #7E644C",
"5 c #7F6750",
"6 c #7F6850",
"7 c #826147",
"8 c #82654D",
"9 c #8A6649",
"0 c #8D6A4D",
"q c #806750",
"w c #826951",
"e c #8A6D55",
"r c #916F53",
"t c #8F7155",
"y c #8E7159",
"u c #947355",
"i c #997455",
"p c #94755D",
"a c #99765A",
"s c #9C795D",
"d c #A37C5D",
"f c #AA7E5A",
"g c #977860",
"h c #997860",
"j c #A37E60",
"k c #A87F60",
"l c #AC825D",
"z c #B3855E",
"x c #A68162",
"c c #AB8160",
"v c #B58660",
"b c #B68961",
"n c #B88860",
"m c #BF9266",
"M c #C49466",
"N c #C79768",
"B c #C79868",
"V c #C89868",
/* pixels */
"nnnnnnnNBVVBVVBBbxpxnMznnnnnnnnzu83=++$%&%-%$++",
"nnnnnnnNBVVVBMmblxxxznznnnnnnnzzr91;##$%%%;%#++",
"nnnnnMNNVVBBMbsaxlllznnnnnnnnnzz07**&&$@#$-%#++",
"nnnnMVVVVBBBMcewuzzbnnnnnznnnzzz0<<<**$++$%%=+o",
"zvvbnMMMBBMBmlewulzmzznnnnnnnzzf0*<<**%++$%%$+o",
"usjxccxxcxxxxawwalbbmznnzvnnzzjd9**<**$o+$%-$+o",
"eyhhhhhxhhhhsywwalbbznnznnnnvjhp9*<***$++$-;$++",
"wyhhhgghjhjhspewilzzzzzzvvvvkjhp9<<<<*%@#$%$#++",
"eyhhhhhjcccckdpppjjjkjjkjjjjjhhpw44<***&%$#@+++",
"wyghhhhcnnnnncphhhhhhhhghhhghghpe642<*<**%+++++",
"eygghhhcnnnnnchhhhhhhhhhhghhgghpe64<<7***$+++oO",
"yghhdcccnnnnnchhhhphhhghghghhghpew42****&$Oooo.",
"ggghcnvnnznnnkhhhhhhghhgggghgggge642<<>:%$+oo .",
"ghhdcnnnnnnnnkhhhpppggghgggggappew51>*:-%@++o  ",
"hxccvnnnnnnnnkhhpyyygghggghhgpyeqq41>*:-%#++X  ",
"hcbnnnnnnnnnnkjpyeqeghghhghhyeqqq55>--%&%#+oX  ",
"hknnnnnnnnnnnchpye5egghgghggpeqq864,;%&;%#++X  ",
"udkkcnnnnnvkkjhgyw5weypphpe08722444**:*<&$+oX  ",
"ephjcnnnnvcjhhggyw5wwwepgp77<<2<<<*<<<***$++X  ",
"wpgsjnvnvvchhhhgyeqqqqeypy2*<<*<<<<<**<**%+oX  ",
"eyypsfcvkkjhhghgywqqqwwe097<***<<4<<*<<<*$@oo  ",
"pewephhhhhhhhgggywqqw5827<*<*7<<464<<<<**%+oX  ",
"pe5wyghghhhhghhgywwq554<><*<*<<<4q8<<<*<*$++X  ",
"ge5eyphhghhhggyyyw55541>>***7<<78qq77<<**%#@oXX",
"pe66yggghghhhpewwwqq2,,>::><<28886w444<<,&%%@oo",
"pe6eyggghpgpgew6qqq2<>>::&><27qq6666ww4<*:--#++",
"pe66eyyypyypyewwqqq4<>>:::<244qq6ww4644**>-&#++",
"ge666ewewewwwww6wqq7<<>:::2q45qw6w6ww42<>>&%$++",
"pewq6666w6665555q454<<>:;:56w66w6w65q4<<>>-&$++",
"yeqq65456wweeetuutre77,>::1544666w6wqq2,>&--$++",
"wwq44<246weppsflllfdup01,,,:,4w64ww5w41:::-%$++",
"6w882<*44wyphdnnznnchpy8<>:;:44ww65wq5,:----#++",
"w4447*<<98usdlbznnvcjji097>->177482877**&:-%$++",
"64<<<<<<<70fzznnnnnvcvlffi<-:><1<2<<<<**>>:%$++",
"74<*<**<*7iznnnnnnvnnnnnnf1:&***<*<<<<*<>::&#++",
"44<*<<<*<7iznnnnnnnnnnnnzf2:&*****,<*<<<*>:%$++",
"<*<<<<*77wiznznnnnnnnnnnzf7*&%$$**<<<*<*>::-#++",
"<**<<**78wsznnnnnnnnnnnnzf9<&#+@**<*<<<*<>-%$++",
"7***<<<76wilvvnnnnnnvnnvzf7*&#+@&<**<<***&:%#++",
"e77*<<<<qwpsjvnnnnnnnnvcka7<&$++&**7<***::--#++",
"a7<,<<*4qwtpgxznnnnbbzcjgu7<&#+@&<*><*:::::%$++",
"p82<<**8qwtppxzzzznzzzfspr7*&#+@&****<:--&:%$++",
"pye09*<<47weepiiaiiiiiu0777*&%=#%$$%*::&::-%#++",
"hgpu97*<**7qwwwwwwwwww82<<*<>:-=@+@%:&-:---%$++",
"hhgpw<*<<*48446qwqw65q71<,<<>>--@++$-:---:--#++",
"gggpe47<<**744qqqq54222287282:--@++$%::-:--%$++",
"hghpt689<****46qqqq4<<27qqqq2>--@+@$---:----#++"
};
