/* XPM */
static char *_e864b9d0f1e4be2fd7c60b44cdf219flclyxYsTcN3QUvdK[] = {
/* columns rows colors chars-per-pixel */
"47 47 164 2 ",
"   c #372E29",
".  c #37302A",
"X  c #3D352C",
"o  c #3B382E",
"O  c #3F3630",
"+  c #3F3B32",
"@  c #42362D",
"#  c #4C3B2F",
"$  c #443C35",
"%  c #4E3C30",
"&  c #493E38",
"*  c #3D4231",
"=  c #414434",
"-  c #4D4135",
";  c #4C453A",
":  c #464C38",
">  c #4C4B3C",
",  c #514236",
"<  c #55463B",
"1  c #5A473A",
"2  c #56493D",
"3  c #5A4A3D",
"4  c #4B5B3D",
"5  c #52503F",
"6  c #5C513F",
"7  c #654F3F",
"8  c #65503D",
"9  c #70553F",
"0  c #5B4D40",
"q  c #4F5B40",
"w  c #545641",
"e  c #565B44",
"r  c #5D5F47",
"t  c #674F40",
"y  c #655342",
"u  c #695140",
"i  c #6D5D48",
"p  c #725541",
"a  c #745944",
"s  c #7A5C44",
"d  c #755D49",
"f  c #795E49",
"g  c #516542",
"h  c #586247",
"j  c #536A45",
"k  c #5D6C4B",
"l  c #5F714D",
"z  c #646B4D",
"x  c #6B6A4D",
"c  c #76614C",
"v  c #7D644D",
"b  c #63734D",
"n  c #7F6550",
"m  c #7B6A53",
"M  c #677551",
"N  c #647A51",
"B  c #707250",
"V  c #787753",
"C  c #806147",
"Z  c #82654C",
"A  c #8B6748",
"S  c #84684F",
"D  c #8D6A4B",
"F  c #936F4C",
"G  c #96714D",
"H  c #826650",
"J  c #826951",
"K  c #8A6D55",
"L  c #916E52",
"P  c #8E7055",
"I  c #8E7159",
"U  c #957255",
"Y  c #9A7251",
"T  c #9F7857",
"R  c #94755C",
"E  c #98775C",
"W  c #977C58",
"Q  c #9C795C",
"!  c #A57B57",
"~  c #A37C5C",
"^  c #A97E5A",
"/  c #9A7960",
"(  c #A37E60",
")  c #5F8250",
"_  c #648353",
"`  c #698656",
"'  c #698857",
"]  c #6C8D5A",
"[  c #748E5B",
"{  c #6D925B",
"}  c #6D9F5D",
"|  c #71935E",
" . c #72995E",
".. c #6FA05F",
"X. c #759D62",
"o. c #799962",
"O. c #72A361",
"+. c #7AA365",
"@. c #76AB65",
"#. c #7BAB67",
"$. c #7DAC6A",
"%. c #7DB36A",
"&. c #7FB96D",
"*. c #A6805B",
"=. c #AB815E",
"-. c #B3855E",
";. c #B4895E",
":. c #A78162",
">. c #AC8261",
",. c #B48660",
"<. c #B68961",
"1. c #B98961",
"2. c #BE9065",
"3. c #80AE6B",
"4. c #81B66D",
"5. c #82BB6E",
"6. c #85BD71",
"7. c #88BF73",
"8. c #C39466",
"9. c #C79768",
"0. c #C89868",
"q. c #84C66F",
"w. c #86C172",
"e. c #89C574",
"r. c #8AC575",
"t. c #89C675",
"y. c #8AC775",
"u. c #89C574",
"i. c #89C875",
"p. c #8AC875",
"a. c #8BC977",
"s. c #8BC976",
"d. c #8CC976",
"f. c #8CCB77",
"g. c #8BCA76",
"h. c #8DC978",
"j. c #8DCB78",
"k. c #8DCC78",
"l. c #8ECC78",
"z. c #8ECD79",
"x. c #8ECE79",
"c. c #8ECF79",
"v. c #8FCF7A",
"b. c #8DCD78",
"n. c #90CF7A",
"m. c #8FD079",
"M. c #90D07A",
"N. c #91D57B",
"B. c #91D17C",
"V. c #91D27C",
"C. c #92D27C",
"Z. c #93D47D",
"A. c #93D57D",
"S. c #92D47D",
"D. c #93D67D",
"F. c #93D57E",
"G. c #93D67E",
"H. c #94D57E",
"J. c #94D67E",
"K. c #94D77E",
"L. c #95D77E",
"P. c #95D77F",
"I. c #91D27B",
"U. c #95D87F",
/* pixels */
"} } ................O...O.........} X...........................} }  .) 4 * = = = = = = = = = ",
"..O.%.&.&.&.&.&.&.5.5.&.&.&.&.&.&.&.&.&.&.&.6.&.&.&.&.&.&.&.&.&.&.&.&.{ 4 + $ = $ $ $ = $ $ o ",
"..@.q.m.v.m.m.m.c.f.a.a.f.c.c.c.v.m.c.c.v.v.v.v.c.v.v.v.v.e.%.$.$.$.3.| x y y y y y 8 8 u 3 , ",
"} @.w.D.P.D.P.D.H.f.w.y.c.D.P.P.P.F.P.F.C.P.F.P.F.F.F.P.H.6.{ N N N b V W *.*.*.=.*.*.*.! G C ",
"..@.q.N.D.P.D.P.Z.u.5.5.f.Z.H.H.F.P.P.P.D.P.P.P.F.F.P.G.P.3.k & $ $ ; c 1.0.0.0.0.0.0.0.8.;.Y ",
"} @.q.m.P.F.P.F.H.u.5.5.u.I.I.Z.P.D.D.P.P.C.P.n.h.t.a.t.e.+.z 0 0 u u J 1.0.0.0.0.0.0.0.8.-.Y ",
"....a.D.H.H.D.P.Z.u.5.5.5.w.u.m.D.F.P.P.P.P.P.7.| k e h k z m K R *.>.<.8.9.0.0.0.0.0.0.8.-.G ",
"..@.a.U.H.H.H.H.Z.u.5.5.5.5.5.l.D.P.C.C.C.C.D.4.l 0 w & 0 y J / ( 2.8.0.9.9.0.0.0.0.0.0.2.-.G ",
"..@.g.U.D.H.H.H.D.f.w.w.5.5.5.l.F.z.7.$.$.3.3.o.M y u y 0 c R ( ^ 9.0.0.0.0.0.0.0.0.0.0.8.-.G ",
"..@.g.U.U.H.U.D.H.C.n.l.w.5.5.l.F.7.o.l k l k x K Q ~ K K / >.2.8.0.0.0.0.0.0.0.0.0.0.0.8.^ Y ",
"O.@.g.K.H.H.H.H.H.H.H.C.u.5.5.k.P.7.N & & $ & t U 1.,./ / :.2.0.0.0.0.0.0.0.0.9.0.0.0.0.8.^ Y ",
"O.@.g.m.n.I.I.H.H.D.C.I.u.5.5.5.6.$.M 0 0 y u Z ~ ,.,.( ( :.2.0.8.0.0.0.0.0.0.0.0.0.0.0.8.-.Y ",
"..@.a.g.w.w.a.D.H.I.k.f.q.5.%.` r e y c n U ! ^ -.1.1.,.,.<.<.1.8.8.8.0.9.0.0.0.0.0.0.0.8.^ Y ",
"..@.a.a.5.5.a.N.D.m.k.p.5.4.@.b 0 0 i m L ^ ^ 1.1.-.1.,.<.<.1.1.8.8.8.8.0.0.0.0.0.0.0.0.8.,.Y ",
"..@.a.a.5.5.w.a.k.k.g.w.#. .] z 0 y c K L ( ^ 8.,.1.,.1.1.1.1.1.1.8.0.0.0.0.0.0.9.9.0.8.8.^ K ",
"..@.a.a.5.5.5.w.w.u.g.q.] h e i c m K R T ^ 8.^ 8.-.1.1.,.,.1.1.8.0.0.0.0.0.0.0.0.9.9.9.1.Q Z ",
" .@.d.p.5.5.5.5.5.u.c.5.N > & i m J I / ( ,.1.1.1.1.1.^ 8.8.^ 8.8.8.9.9.9.9.0.0.0.0.0.0.2.R m ",
"..@.d.k.5.5.5.4.&.%.#.X.b 3 7 c J I / ( ( ^ ( 1.^ 1.1.<.^ ^ ^ ( ( ,.,.8.9.9.0.0.0.8.2.2.>.:.K ",
"..#.p.I.f.p.q.5.%.` w w y 9 p K R / ( ,.^ ( ( ( 1.^ 1.( / R R L L K L ( 1.0.0.0.9.2.( ( >.2.! ",
"..@.p.N.l.p.5.4.#.N ; < 8 s f U / ( ( <.,.( / ( ( 8.^ ( / I K H H H H ( 1.0.0.0.9.<.( / >.1.! ",
"..@.p.m.c.p.@.{ ` k 2 3 y f C Y ( ( ,.,.,.( ( ( ^ ( ( / / I K H L L R ( 1.8.8.8.2.<.>.:.<.2.! ",
"..@.a.N.k.w.{ h 5 6 8 8 d v J ~ ,.1.,.1.-.1.1.^ ( / ( / / R H H L ^ ^ 1.1.1.1.1.1.2.8.8.2.,.Y ",
"} @.a.m.c.w.` 5 & 3 8 u f v K ~ ,.1.1.1.8.1.1.,.( / / / / I K H L ^ 1.1.1.1.1.1.1.2.9.9.8.^ Y ",
"} @.y.w.+. .b 3 3 8 u a f S S ^ -.1.1.-.^ ,.^ ( / I I ( ( ( / R T ,.,.1.1.1.1.1.2.8.9.9.8.,.Y ",
"} @.w.+.w w 0 0 u p 9 p C S K ~ 1.1.1.1.,.( / / L H L ( 1.,.,.^ ^ 1.1.1.1.1.2.9.0.0.9.9.9.^ L ",
"} @.7.X.; ; 1 7 u p s s v H J ~ ^ ^ 1.^ ^ ( / / I K L ^ 1.1.1.1.,.1.1.1.1.1.1.9.0.9.9.9.8.^ Y ",
"} @.6.X.0 - 1 t u a f v v J J W ^ ( ( T ( ^ ( ( Q ~ ~ ,.1.1.1.1.1.1.1.1.1.1.9.9.0.0.9.9.8.-.Y ",
"} @.w.X.; - 2 t 8 f v v S v v J H L H K L ^ 1.^ ^ ,.^ 1.1.1.,.1.1.1.1.2.9.9.9.9.0.0.9.9.8.-.Y ",
"..@.w.X.; ; < t u c S n J n J J H H H H R ( 1.1.1.1.8.8.,.8.^ 8.1.1.1.8.9.0.0.0.0.0.0.0.8.^ Y ",
"_ ) ] N 0 < 0 t 8 f S S n n H m H H K I / ^ 1.1.1.1.^ ^ ( ^ 8.^ 8.^ ^ 1.<.^ 8.0.0.0.0.0.8.( L ",
"j : ; 3 7 t t t u c S m J n n J H J I / ( ( 1.1.1.1.^ ( ( ( ^ 1.1.1.8.^ ( ( ^ 0.9.9.0.8.8./ A ",
"g = $ 2 7 t t t 8 c v n n J J n n H I / ( ^ ^ 1.^ 1.^ ( ( ^ ^ ^ 8.^ ^ ( ( / ^ 8.9.8.8.8.^ T A ",
"g = = 1 7 8 u u u a C C v H v J J J R / / ( :.>.<.1.,.>.( ( ,.( ( ( ( ( ( ,.>.8.2.1.<.>.<.:.R ",
"g * $ 0 7 u t u u p p s v S n H J J I / / / / / >.1.-.1.1.( ( / ( / ( ( ^ 1.1.1.1.( ( / :.2.~ ",
"g = $ 1 7 u u t u p p s v v J n J J I E / / / / ,.;.1.1.1.,./ / / / / ( ,.1.1.1.1.( ( / >.2.^ ",
"g * & 1 7 t u u u u 9 p a d d v n m K P I I / / ~ :.( ( ( ( / / / / / ( ( ( >.2.8.2.1.<.1.;.T ",
"g = $ 1 t t u t u u u u u u u v v J J S J R / / / / / / / / / / / / / / / / :.9.0.0.8.8.8.-.Y ",
"g = $ 2 t t u t t t u 8 8 u u c S m m S J I R R / / / I / / / ( / / ( ( / / >.8.8.8.9.8.8.-.Y ",
"g = & 0 t t t u u t t u u u y v n J n J J K K I R / / / / / ( ( ( ( ^ ^ ( ( 1.1.8.1.8.8.;.-.Y ",
"g * $ 1 t t t t 8 u u t u u u f n n J n J m J K R / / / / / >.<.1.,.1.1.1.1.1.1.1.-.1.;.;.=.Y ",
"g = & 1 7 7 u 7 u u t t t 7 t f J J J J J J J K / / / ( ( ( ,.,.1.-.1.1.1.1.1.1.-.1.1.1.1.^ ! ",
"g = $ 1 7 u u u t u t 7 3 2 3 d n J K I R Q ~ ^ ( ,.( ^ ^ ^ ,.1.1.1.1.1.1.-.1.-.1.1.1.-.1.^ Y ",
"g * $ 1 7 p 7 7 u u u 7 2 ; ; d H J I / Q =.,.<.1.,.,.,.1.,.1.1.1.-.1.1.1.1.1.1.1.1.1.1.1.^ Y ",
"g = & 1 7 t 7 7 t 7 7 7 1 2 0 c K K R ( ( <.1.1.1.1.1.,.,.,.,.,.1.1.1.1.1.-.1.1.1.-.1.1.1.^ F ",
"g = $ 1 7 7 7 7 t 3 < 1 t y i L ! ! ~ ^ =.1.8.1.1.,.,.^ ( ( ,.,.1.1.8.1.1.1.^ 1.1.^ 1.^ ^ T A ",
"g * @ - 1 1 7 1 1 % $ = 0 d c U ! ! ~ ! ^ -.-.-.^ ! ~ L K L T ! ^ -.-.-.^ ^ ^ ! ^ ! ^ ( ! L f ",
"g *   @ # % % % # @ . X % 7 8 C A A A A A F Y F D A C f d f Z D A G Y F A A A A A A A A C d a "
};
