/* XPM */
static char *ddbcfde8ea954a2de71f5b6962801025YK4gxabmRTmbqJet[] = {
/* columns rows colors chars-per-pixel */
"47 47 155 2 ",
"   c #372E29",
".  c #3D352C",
"X  c #3B382E",
"o  c #3F3B32",
"O  c #42362D",
"+  c #4C3B2F",
"@  c #443C35",
"#  c #4E3C30",
"$  c #493E38",
"%  c #3D4231",
"&  c #414434",
"*  c #4D4135",
"=  c #4C453A",
"-  c #464C38",
";  c #4C4B3C",
":  c #514236",
">  c #55463B",
",  c #5A473A",
"<  c #56493D",
"1  c #5A4A3D",
"2  c #4B5B3D",
"3  c #52503F",
"4  c #5C513F",
"5  c #654F3F",
"6  c #65503D",
"7  c #70553F",
"8  c #5B4D40",
"9  c #545641",
"0  c #565B44",
"q  c #5D5F47",
"w  c #674F40",
"e  c #655342",
"r  c #695140",
"t  c #6D5D48",
"y  c #725541",
"u  c #745944",
"i  c #7A5C44",
"p  c #755D49",
"a  c #795E49",
"s  c #516542",
"d  c #586247",
"f  c #536A45",
"g  c #5D6C4B",
"h  c #5F714D",
"j  c #646B4D",
"k  c #6B6A4D",
"l  c #76614C",
"z  c #7D644D",
"x  c #63734D",
"c  c #7F6550",
"v  c #7B6A53",
"b  c #677551",
"n  c #647A51",
"m  c #707250",
"M  c #787753",
"N  c #806147",
"B  c #82654C",
"V  c #8B6748",
"C  c #84684F",
"Z  c #8D6A4B",
"A  c #936F4C",
"S  c #96714D",
"D  c #826650",
"F  c #826951",
"G  c #8A6D55",
"H  c #916E52",
"J  c #8E7055",
"K  c #8E7159",
"L  c #957255",
"P  c #9A7251",
"I  c #9F7857",
"U  c #94755C",
"Y  c #98775C",
"T  c #977C58",
"R  c #9C795C",
"E  c #A57B57",
"W  c #A37C5C",
"Q  c #A97E5A",
"!  c #9A7960",
"~  c #A37E60",
"^  c #5F8250",
"/  c #648353",
"(  c #698656",
")  c #698857",
"_  c #6C8D5A",
"`  c #748E5B",
"'  c #6D925B",
"]  c #6D9F5D",
"[  c #71935E",
"{  c #72995E",
"}  c #6FA05F",
"|  c #759D62",
" . c #799962",
".. c #72A361",
"X. c #7AA365",
"o. c #76AB65",
"O. c #7BAB67",
"+. c #7DAC6A",
"@. c #7DB36A",
"#. c #7FB96D",
"$. c #A6805B",
"%. c #AB815E",
"&. c #B3855E",
"*. c #B4895E",
"=. c #A78162",
"-. c #AC8261",
";. c #B48660",
":. c #B18864",
">. c #B38964",
",. c #B38A65",
"<. c #B58B64",
"1. c #B68B65",
"2. c #B68C65",
"3. c #B88860",
"4. c #B98960",
"5. c #B88B61",
"6. c #BA8A61",
"7. c #BB8B62",
"8. c #BA8C62",
"9. c #BC8D62",
"0. c #BE8E63",
"q. c #B88D64",
"w. c #B98E65",
"e. c #BC8F65",
"r. c #BF8F64",
"t. c #BC9064",
"y. c #BD9066",
"u. c #BD9166",
"i. c #81B66D",
"p. c #82BB6E",
"a. c #85BD71",
"s. c #88BF73",
"d. c #C19164",
"f. c #C29265",
"g. c #C39265",
"h. c #C19366",
"j. c #C29467",
"k. c #C59567",
"l. c #C59667",
"z. c #C69667",
"x. c #C79767",
"c. c #C69768",
"v. c #C89868",
"b. c #C99868",
"n. c #C99968",
"m. c #CA9969",
"M. c #84C66F",
"N. c #86C172",
"B. c #89C574",
"V. c #8BCA76",
"C. c #8ECE79",
"Z. c #90CF7A",
"A. c #8FD079",
"S. c #93D57D",
"D. c #95D87F",
/* pixels */
"& X : z S S P P P P P P P P H C D G E E E P A P P P P P P H B D U ~ W I P P P P P P P A V N y ",
"& o 4 L &.&.&.&.&.&.Q &.Q &.Q R U W 6.7.5.;.&.&.&.&.&.&.Q Q Y R ~ y.g.3.Q Q Q W Q 3.Q Q E V p ",
"& @ e E g.g.g.g.x.j.j.j.d.d.k.*.2.,.-.;.1.g.g.j.g.g.u.g.g.u.1.1.1.:.~ g.b.g.g.g.6.3.7.3.Q E N ",
"& @ e $.x.x.x.x.l.l.l.c.v.v.x.x.c.w.~ ! -.g.c.c.g.c.b.x.c.b.c.g.~ ~ ~ 1.b.b.0.Q 3.6.3.3.&.E V ",
"& @ 6 $.b.x.b.x.b.c.n.n.b.c.c.b.b.u.=.=.-.j.g.j.b.n.n.c.c.b.c.j.Q ~ ~ 1.b.g.g.7.3.6.3.3.Q Q V ",
"& & e $.b.x.b.b.n.c.b.c.b.b.b.b.c.j.w.2.2.u.g.g.c.c.b.b.c.b.b.j.h.~ ~ g.g.g.g.7.6.3.3.3.3.E V ",
"& @ e $.b.b.b.b.n.b.c.b.c.n.b.c.b.c.c.c.h.6.5.0.c.b.c.n.b.b.b.j.g.7.Q g.c.g.g.W 3.3.3.3.3.E V ",
"& & e $.b.b.b.b.c.b.n.n.c.b.b.c.c.b.b.c.h.6.3.0.l.l.b.b.c.j.j.j.g.Q g.h.c.g.g.3.3.3.3.3.3.E V ",
"& @ e $.n.n.c.c.n.n.n.c.c.b.b.b.c.b.c.c.g.3.*.6.8.j.g.z.b.1.-.-.Q h.h.Q ~ 1.Q g.6.6.6.6.&.E V ",
"& O e $.n.b.n.n.n.c.n.n.b.b.c.b.b.b.b.c.k.6.3.3.6.*.d.k.b.;.~ ! ~ 3.Q ~ ~ ~ ~ g.&.6.&.&.&.E V ",
"2 2 k T ;.*.j.c.c.n.c.n.b.c.b.c.b.j.0.8.6.6.;.6.6.3.g.k.g.,.~ ~ Q 3.Q ~ ~ ! ~ Q 6.*.6.6.&.Q V ",
"^ _ [ M l B 5.c.n.n.c.n.b.c.b.b.b.u.W R Q &.3.6.*.3.3.7.g.,.:.=.~ ~ ~ ! ! ! ~ g.&.3.&.6.e.&.A ",
"} i.O.n $ e %.x.n.c.b.c.b.b.b.b.b.,.J C L &.3.;.3.3.3.3.;.3.3.;.~ ~ ! ! ! ~ ~ 6.7.&.6.g.g.&.S ",
"} i.O.n @ e $.u.j.c.c.b.x.l.k.x.x.*.J F L %.&.;.3.3.3.3.3.3.3.;.~ ~ ! U ! ~ Q 6.7.*.&.6.g.&.S ",
"} #.O.n $ 1 U =.,.u.n.x.e.d.7.7.*.%.G v D G G W ;.3.3.3.3.3.3.;.~ ! ! ! ! ! Q g.&.3.3.6.3.Q Z ",
"} #.O.n $ 1 G U =.u.n.c.8.*.3.3.*.$.G C D D D E Q 3.3.3.3.3.3.;.~ ! U ! ! ! Q &.6.6.3.3.6.E V ",
"| #.O. .h j v F U :.w.0.6.3.3.3.t.%.H G F F G Y &.3.3.3.3.;.;.~ -.~ ~ ! ! ! ~ -.;.&.3.3.&.E N ",
"] #.B.s.+.X.k e l R =.-.;.3.3.3.*.&.U U U K U ~ &.3.3.3.3.-.~ ~ ~ &.-.~ ! ! ! ! ~ -.3.;.~ K a ",
"] #.Z.D.D.B.g = e G ! ! ;.;.3.3.*.-.R ! ! ! ! ~ ;.3.3.3.g.~ ~ ! ~ 5.6.~ ! ! ! ! ! -.3.;.~ G u ",
"] #.Z.D.D.B.g = e G ~ ~ &.6.3.3.6.&.=.! ! ! ! ! Q %.;.;.&.~ ~ ~ -.6.;.Q ! ! ! ! ! -.;.;.Q G a ",
"..#.C.S.D.B.g = e U ;.;.;.3.3.3.6.;.;.;.~ ! ! U H H Q Q &.&.&.Q ;.6.&.-.! ! ! ! ! -.3.3.&.W V ",
"] #.C.S.D.B.g = e W 6.;.3.3.3.3.3.*.6.&.-.! ! K D G W 6.g.&.3.g.3.6.;.~ ! ! ! ! ! %.;.3.&.E V ",
"..#.C.S.S.V.` n m J L W &.3.3.3.3.;.-.-.-.~ W Y G K E Q g.g.3.Q ,.-.-.! ! U ! K U %.;.6.&.Q A ",
"] #.Z.S.S.S.a.i. .k w a Q ;.3.3.3.3.~ ~ ~ ;.;.~ ! U ~ ;.Q Q 3.g.-.=.! ! ! U K F G Q ;.6.8.&.A ",
"..#.C.D.S.S.D.S.+.h $ e W -.5.;.3.;.! ! ~ ;.3.-.! ! ~ ;.3.3.6.3.! ! ! ! ! K J c D Q &.e.g.*.S ",
"] #.C.S.S.D.S.S.+.g $ e L %.%.-.;.~ ~ ~ ~ ;.3.;.~ ~ ~ Q Q ~ ;.Q =.! ! U U K J v F R -.;.*.&.S ",
"..#.C.D.S.S.S.S.+.g @ 8 c F U R ! ~ ;.;.3.3.3.;.Q Q ~ H G K ! ~ ! ! ! K F F F F F U U ~ &.E V ",
"..#.C.D.S.S.S.S.+.h $ 8 p D G U ! ~ ;.3.3.3.3.3.6.;.W G c G ! ! ! ! U G F v F c B U ! ~ %.E V ",
"..#.Z.S.D.D.S.S.s.[ n b t t l G U U Q -.;.;.6.3.6.&.E G D G K K K K K G v c F c F J K U W E V ",
"] #.Z.S.S.S.S.S.C.B.s.+.q 8 e v D K ! R ~ ;.*.3.6.&.I F c F F F G F G C B F c F c F F L W E V ",
"..#.Z.D.S.S.D.S.S.S.D.s.d 9 8 p c G U ! ~ ;.*.*.5.&.I F c F F F v B c B c v B B z v c G E E V ",
"] #.C.S.S.S.C.C.C.C.C.p.n g j t t l G H L E Q W W W U F F c F c C v F z l z l l l p t z G P i ",
"] #.C.S.S.Z.B.a.#.a.a.#.@.O._ 0 : 1 u i N C F G F F F F v C C C C v C p r r r r r 8 = 8 p a 5 ",
"..#.C.S.S.Z.B.#.a.#.#.s.#.#.' d ; 1 7 i a B B C F F C F c C c v v B c u r w r r w 1 * < t t 1 ",
"..#.C.C.C.B.s.#.#.a.B.B.N.N.O._ / x 6 6 r p p l z B z c v C F c z z z u r r w 7 r 1 1 1 4 5 : ",
"..#.B.B.#.s.#.#.s.C.C.C.V.V.a.B.p.} 0 > 1 r r u 7 7 z c c F c D z z 7 7 w w w r w w w 1 > $ . ",
"..#.B.B.#.#.#.#.N.C.S.S.C.C.V.C.A.O.0 = < 6 6 r 7 i i B c c F z 7 7 y 7 w w r w r w w 5 > @   ",
"] #.B.C.B.V.B.V.V.S.S.S.A.A.A.N.N.+.) n j 8 1 5 7 7 u a p p p p N 7 y 7 r w w w 5 w w 5 1 * O ",
"..#.C.S.S.S.S.S.S.S.S.S.S.D.C.M.p.#.@.O.( 3 * < 7 7 5 r r r r r 7 7 w r r w w w r r 5 5 5 , + ",
"] #.C.D.S.S.S.S.S.S.S.S.S.A.C.#.i.p.p.i.' s ; 1 5 5 5 5 r r r r 5 6 w w 7 w w w 7 r 7 5 5 1 + ",
"} #.A.S.S.S.S.D.S.S.S.S.V.V.B.#.#.a.N.a.o.' ) x 8 1 1 1 1 1 5 e 5 r w w w r r w w w w w 5 , # ",
"} #.A.S.S.D.S.S.S.S.S.A.s.#.#.a.#.N.B.V.B.N.N.{ 9 $ = = = 1 5 6 r w r w r r 5 r w w w w 5 5 # ",
"} #.A.D.D.S.S.S.S.S.S.S.s.p.p.p.#.B.B.A.C.V.C.X.9 = = = = 1 e 6 5 5 5 5 5 5 5 5 5 5 5 5 w , + ",
"} #.A.S.A.S.S.D.S.D.D.S.C.V.V.V.B.A.A.Z.A.S.A.N.X.| | | | n 8 < , 1 1 1 1 , 1 < 1 1 , 1 , # O ",
"} #.M.M.N.M.A.V.V.V.V.V.B.B.B.B.B.B.V.C.B.B.B.B.s.s.s.a.N.' - @ $ @ @ @ $ @ @ $ @ $ $ @ @ O   ",
"} ..o.o.} ..o.o.o.O.o.o.O.O.o.o.o.o.o.o.o.o.o.o.o.o.o.o.o.^ - % & & & & & % % & % & % % & & o ",
"} } } } } ] } } } } } } } ] ....} } } } } } ] ] ] ] ] } } ^ f 2 s s s s s s s s f s s s s s s "
};
