/* XPM */
static char *result[] = {
/* columns rows colors chars-per-pixel */
"47 47 58 1 ",
"  c #354C2D",
". c #394E2F",
"X c #3E4632",
"o c #3F4933",
"O c #454236",
"+ c #494736",
"@ c #4A4139",
"# c #53453A",
"$ c #57483C",
"% c #5B493C",
"& c #654E3F",
"* c #6C523E",
"= c #73553F",
"- c #5F5042",
"; c #674F40",
": c #665141",
"> c #6A5140",
", c #745640",
"< c #755943",
"1 c #795A42",
"2 c #775E49",
"3 c #7A5F49",
"4 c #76614C",
"5 c #7E644C",
"6 c #7F6750",
"7 c #7F6850",
"8 c #826147",
"9 c #82654D",
"0 c #8A6649",
"q c #8D6A4D",
"w c #806750",
"e c #826951",
"r c #8A6D55",
"t c #916F53",
"y c #8E7159",
"u c #947355",
"i c #997455",
"p c #94755D",
"a c #99765A",
"s c #9C795D",
"d c #A37C5D",
"f c #AA7E5A",
"g c #977860",
"h c #997860",
"j c #A37E60",
"k c #A87F60",
"l c #AC825D",
"z c #B3855E",
"x c #A68162",
"c c #AB8160",
"v c #B58660",
"b c #B68961",
"n c #B88860",
"m c #BF9266",
"M c #C49466",
"N c #C79768",
"B c #C79868",
"V c #C89868",
/* pixels */
"hhgpre93==1=18777795==8595975<:&#O@%&&;;;;>*%@@",
"hggpr3518=8159779777555555894>:&#@#%**;;>;;&%@@",
"ghhpq11==1459797e9779551=111<>&&#@@%&*&&;>;&$@@",
"gppp98=11=5999erreeeee9311=1,>&&#@#&&*&*>;;;#@@",
"hytq81=1359rryuiuuiiiiuq988==&%%%%&**=*&;;;;%@@",
"p91811139erpsdvzzzzzzzxspu8=*%@#*=*===**;>;*%@@",
"p8=1==187eyphxvnzzznznvdgp8=*%@#==1===**>>;&%@@",
"q81=11155epdkcvnzmmznnvxda8=*#@#=1=111==*>>&%@@",
"31111=189rilvvnnnnnnnnnnzf8==%@@*==111==,,>;#@@",
"111,==189esznnnnnnnnnnnnzf81*%@#=11==111,>>;$@@",
"8==1=81859iznnnnnnnnnnnnvf8,*&%%==1111=1=,>;%@@",
"818==1=1=8iznnnnnnnnnnnnzf8>**===11=1111,,;;%@@",
"3311==1==8izzznznnnvnnnnnf2>*,11==1===1<,=;&%@@",
"933111=1=8ulzznnnnnvvkfffi2;*,11131333,,,>>&%@@",
"w953811899usdcnnnnnkjjiq08,;>255555585<>>>;*$@@",
"ewe511139eypsxvvnnnkhht81=>;<2ee97e799<>>;;;$@@",
"e6e551156eyypsflfvfjptq3,,<>24667e77e5<>>>>*%@@",
"pr6e655577errrurtttr982,;,236666e57ee531=>;&$@@",
"pre6eewee777e66666951=,>;<666e667ee77551,>>&%@@",
"greeeereereree6e6e9511=>;>3666767e7e773=1,>&$@O",
"pr77rpyyypyyyre66ee51,=>>>3135e96e659581==:&%@@",
"pr7eypgggggppyeee6e511,>>*=135e7e77e6881,,*&%@O",
"ge7ryshghggggyreee6511,,*>=11555e6995511,*&&#OO",
"gy7eyghhghgggppyre65552<,,=111355e553311=&%#+Xo",
"gr7eyggghhhhhhggye66we911==1===83ew31111*%@OX  ",
"pr7rphhhhhhhhhgsyeeeee333111=8==8w511111=&@OX  ",
"yyypdxcckkjhgghgyre6wewrt01111111331==8==&@OX  ",
"7yggdvnnvvkhgggsye66e6eppt3111=111111===*&@OX  ",
"ephjcvnnnnkjhhggye6eeeyphp8118==111,,,,=*&@@X  ",
"pdxcvnnnnnvkxjhgyreerrpphhrr0888333<,,,>*%@OX  ",
"svnnnnnnnnnznchhye6rphghhgggyrewww9<;;**&#@@o. ",
"hcvvnnnnnnnnnchgyr7rpghhghggpreeww5,>;&*&#@@o. ",
"hkkcvvnnnnnnnchhpyrygghghhghppreew52,>>;&$@@O..",
"hhhjcnnnnnnnnkhhssggggghhghggggpre521==;;$@@X  ",
"pgghkvnnnznnnzhhhgggggghhhhghhhpre531=,=&$@@o..",
"pshhkkcvvnnnvchhgggggggghhhhhhhhrew11,,=*$@@Ooo",
"epggghhcnnnnnchhghgghhhhhhghhghpr6531====%@@O@O",
"eyghgghcvnnnvkhhhhhggghhhhhhghhpr69311===&@@@O@",
"eygggghkkccccspppdkkkjxdjkjkjhhpe521===*&%##@@O",
"ryghghhhhjhjsureplvcvvnnknvkkjhp9111==&##%&;$@@",
"rssggssshhhhhpeeilbnnnnznnnncjsp8111==%@@%&:%@@",
"ushxccclccxxxserizbznnnnnnnnzkka011===%@@%&&%@@",
"lznnmmMMNMMMmleralnnnnnnnnnnnvzz0=11==%@@%&;$@@",
"nnbbmBVVVVVVBleeiznnnnnnznnnnnzl01111=%@@%&&$@O",
"nnnbMMMVBVBBBbsadcvznznnnnnnnnnzq81=**%#$%;&%@@",
"nnnbzmzVBVBBBmmbcxhxnnnnnnnnnnnzi82;$$%&&&;;%@@",
"nnnznnzMBVBBBBmBbhgkvnnnnnnnnnzzue4-@@%;;;;;$@@"
};
