/* XPM */
static char *_7288b347ae6473b82bffa2bfd41b948gv42nyxnHtDvkPis[] = {
/* columns rows colors chars-per-pixel */
"47 47 127 2 ",
"   c None",
".  c gray20",
"X  c #434343",
"o  c #FF0100",
"O  c #FF0A00",
"+  c #FF1500",
"@  c #FF1B00",
"#  c #CC2900",
"$  c #FF2400",
"%  c #FF2B00",
"&  c #FF3300",
"*  c #FF3C01",
"=  c #FF370B",
"-  c #FF3A0D",
";  c #FF3A14",
":  c #FF3C19",
">  c #FF3E24",
",  c #FF4600",
"<  c #FF4B00",
"1  c #FF401B",
"2  c #FF541B",
"3  c #FF5A1D",
"4  c #FF6600",
"5  c #FF4425",
"6  c #FF4229",
"7  c #FF492E",
"8  c #FF5026",
"9  c #FF4C33",
"0  c #FF5035",
"q  c #FF5F30",
"w  c #FF543C",
"e  c #FF5939",
"r  c #FF6332",
"t  c #FF6B3E",
"y  c #FF5343",
"u  c #FE5649",
"i  c #FF6643",
"p  c #FF6E45",
"a  c #FF644B",
"s  c #FF7047",
"d  c #FF724D",
"f  c #FF6657",
"g  c #FF6B53",
"h  c #FE665A",
"j  c #FE685E",
"k  c #FF7653",
"l  c #FF7954",
"z  c #FF735B",
"x  c #FF7C5C",
"c  c #FE6E64",
"v  c #FE7565",
"b  c #FF7B63",
"n  c #FE736A",
"m  c #FF7F69",
"M  c #FFC600",
"N  c #FF8264",
"B  c #FF8967",
"V  c #FF846D",
"C  c #FF896B",
"Z  c #FF8E74",
"A  c #FE8978",
"S  c #FF9276",
"D  c #FF937A",
"F  c #FF987D",
"G  c #0050C8",
"H  c #898989",
"J  c #FD8D86",
"K  c #FE9583",
"L  c #FF9C83",
"P  c #FD9C89",
"I  c #FD9792",
"U  c #FD9C92",
"Y  c #FC9F9A",
"T  c #FFA087",
"R  c #FFA289",
"E  c #FDA293",
"W  c #FEA995",
"Q  c #FCA39D",
"!  c #FDA99B",
"~  c #FCA5A2",
"^  c #FCABA6",
"/  c #FCAEAA",
"(  c #FCB4A6",
")  c #FCB4AB",
"_  c #FBB6B2",
"`  c #FCBCB3",
"'  c #FBBEBB",
"]  c #F3C598",
"[  c #FBC3BD",
"{  c #FAC6C4",
"}  c #FBCBC4",
"|  c #FACECB",
" . c #FAD2CF",
".. c #FAD1CC",
"X. c #FAD0D0",
"o. c #FAD6D0",
"O. c #FAD7D2",
"+. c #FAD6D3",
"@. c #FAD7D2",
"#. c #FAD8D2",
"$. c #FAD9D4",
"%. c #FAD9D5",
"&. c #FADAD5",
"*. c #F9D8D6",
"=. c #F9DAD6",
"-. c #F9DBD6",
";. c #F9DBD7",
":. c #F9DBDA",
">. c #F9DCD8",
",. c #F9DDDC",
"<. c #F9DFDC",
"1. c #F9DFDE",
"2. c #F9DFDB",
"3. c #F9E0DC",
"4. c #F9E0DD",
"5. c #FFE0DC",
"6. c #F9E0DF",
"7. c #F9E4E3",
"8. c #F8E6E4",
"9. c #F9E2E2",
"0. c #F8EEED",
"q. c #F8F0EE",
"w. c gray95",
"e. c #F7F5F5",
"r. c gray97",
"t. c #F7F6F6",
"y. c #F6FFFF",
/* pixels */
"                                                                                              ",
"                    b         m       =.  H X . .     =.      V         b                     ",
"                    -       [ w       8   . . . . . . 8       w [       -                     ",
"                    o =.    h @ :.    u ( . . . . . . . .   :.@ h     =.o                     ",
"          V     U   o ,   } & & ,   } & K ! . . . . . . .   , & * }   , o   U     V           ",
"          y     o >.o $ r _ % w o 6.^ % * * : . . . . . . 1.o w . _ q $ o :.o     y           ",
"          o $.  U * & & % * $ R 7 . . . & $ m . . . . . . o 7 R $ . % & & * U   =.o           ",
"          < y   { $ & & & & $ L . . . . . o R . . . . . . . S L $ . . & & $ {   y <           ",
"          3 % 6 #.* & & & & $ . . . . . . . N . . . . . . . d L $ . . & & * $.6 % 3           ",
"            o & ~ h & + R ; . . 8.. . . . . . . . . . . . . 7.D . . . . & h ~ & o             ",
"  #.      7.O & o % & @ T . @ F =.  . . . . ] . . . . . . . >.. . . . . & % o & O 7.      =.  ",
"  Q !       J & g : & + R l S S =.    . ] ] ] ] ] ] . . . . . . . . . . & ; g & J       ! Y   ",
"  Q ;       Y & % L O & : x s Z 5.  . . . . . ] ] ] ] ] . . . . . . . . O L % & Y       ; Q   ",
"  Q & I   K ' % & o L & ; B       . ] . w.w.w.. ] ] ] ] . . . . . . . & P o & % ` K   U & Q   ",
"  O.& O % X.{ % & % Z z g D       . ] . . . . . ] ] ] ] ] . . . . . . z Z % & % { X.% O & O.  ",
"    $ & % 9 V & % & w C x         . ] . . . . . ] ] ] . . . . . . . C V w & % & m 9 % & $     ",
"    r % & & - & z 5 % b           . ] . . # # . ] ] ] ] . . . . . ..x Z % 5 z & - & & % r     ",
"      o & = - & @ L S % s `       . ] . # # . ] ] ] . . ] . . .   ` x $ S F @ & ; = & o       ",
"      o & 9 b $ $ V B S Z !       . ] . . . ] ] ] ] . ] ] .       ! S D V V % $ b 9 & o       ",
"      ! % % S b + o L ` } &         . ] ] ] ] ] ] ] ] . . .       % } ` L o + m Z % % Q       ",
"      | & & : T z + a S             . ] ] ] ] ] ] . . . . . .   Z     Z a + z P : & & |       ",
"        c & @ P P R 0 l           . . ] ] ] ] . . . . . . . . .       l 0 R P L @ & c         ",
"    :.  ( + & @ L k S V t       . . G . . . . G . . 4 4 . . . .     t V D k L $ & + (   :.    ",
"    / =.y.o & & z S k 2 S 6.    . G G G G G G . 4 4 4 . .     . . 1.S 2 k S z & & o y.=./     ",
"      o e.| o & : R K 0.t `   . . G G G G G . 4 4 4 . G G .       . t q.F P : & o | e.o       ",
"      { o q.* & % % F .   [   . . G G G G . 4 4 4 4 . G . . .     [   . F % & & * q.o {       ",
"      =.1 j Y = V $ . ] .     . 4 . G . . 4 4 . 4 4 . . ] ] .       . ] . $ V - Y j 1 =.      ",
"        ' o @ & x . . ] . . . . 4 . . 4 4 4 4 . . 4 . . ] ] ] .   . . ] . b z & @ o '         ",
"          @ & & . ] . ] ] . G . 4 4 4 4 4 . . . . . .   . ] ] G . . ] ] . . 5 & & @           ",
"          1.o & . . ] . . . G G . . . . . . . . . .       . G G G . ] . . ] . & o 1.          ",
"  [         Q & & . ] . ] . G . G G G G G G G G .           . G . ] . ] . ] . & Q         [   ",
"  { , ' } :.=.% % g . . ] . . . . . . . . . . . . .           . . ] . ] . . % $ =.1.{ [ , {   ",
"    , n > a ) i $ g Z g . . e.. 4 . . . . 4 . 4 . .               . . . Z g $ i ) a > n ,     ",
"      o & & & 1 & % a P P ` . 4 4 . . . 4 4 4 . 4 . .             [ P L a & & : % & & o       ",
"      | % & ; & & & % C k t . 4 4 . . . 4 4 4 4 . . . .           t k V % & & % : & % |       ",
"        v % m a 9 % % o Z ` . 4 4 4 . . 4 4 4 4 . . . .         E ` S o % % 9 a N % v         ",
"        $.% + b L m z + o x . 4 4 4 4 . . 4 4 4 4 . . . .       ` x o + j V F b + % O.        ",
"          X.o % m N P S S O . 4 4 4 . . . . 4 4 4 4 4 . . .   ( Z O Z F T N V & o X.          ",
"            Y & $ F k d T P . 4 4 . 4 . . . . 4 4 4 4 4 . .   ( P P T d d F $ & Y             ",
"              & & o S N d p . 4 4 4 . . . . 4 4 4 4 4 4 . . . ( L p s N D o & %               ",
"          }   } O $ v b Z R [ . 4 . . . . . . 4 4 4 4 4 . . .   [ U Z b b $ O }   }           ",
"          } 6.P } % g 0 a P 6.  . . . . .     . 4 4 4 . . . . . 6.L a 0 g % } P 9.}           ",
"            J r.~ W Z Z $ e s . . M . . .       . . . . . . . . . e $ Z Z W ~ r.J             ",
"              V X.8.h a L C K . M . . . .         . . . . . M . . . L a f 7...V               ",
"                  ~ | A & E | . . . . .                 . . . M . . . A ..~                   ",
"                    =.9.O.e ... . . .                     . . . M . . 6.:.                    ",
"                                                            . . . . .                         "
};
