/* XPM */
static char *_50e854569344a16efae648208727512qyQALyJtWePsBL5h[] = {
/* columns rows colors chars-per-pixel */
"47 47 35 1 ",
"  c None",
". c gray20",
"X c #FF6600",
"o c #FF8159",
"O c #AEAEAE",
"+ c #FFBEB1",
"@ c #FFC1B5",
"# c #C5C5C5",
"$ c #CDCDCD",
"% c gray82",
"& c gray84",
"* c gray85",
"= c #DDDDDD",
"- c #FFCEC5",
"; c #FFD8D1",
": c #FFD9D2",
"> c #FFDAD4",
", c #FFDDD7",
"< c #FFDED9",
"1 c #FFDFDA",
"2 c #FFE0DB",
"3 c #FFE4DF",
"4 c gray88",
"5 c #E2E2E2",
"6 c gray89",
"7 c gray90",
"8 c gray91",
"9 c #E9E9E9",
"0 c #EAEAEA",
"q c #FFE5E1",
"w c #FFE6E2",
"e c #FFEAE7",
"r c #FFEBE7",
"t c #FFEBE8",
"y c #FFEEEB",
/* pixels */
"                                               ",
"                                               ",
"                                               ",
"                       X                       ",
"                       .                       ",
"                       X                       ",
"                       .                       ",
"                 X     X X                     ",
"               0 .     . .                     ",
"                 X   X X X   X                 ",
"               0 . X . . . X .                 ",
"               e X . X X X . X                 ",
"               $ . X . . . X .                 ",
"               : X . X X X . X                 ",
"               % . X . . . X . 7               ",
"               , X . X X X . X 1               ",
"               5 . X . . . X . 0               ",
"               w X . X X X . X y               ",
"                 . X . . . X .                 ",
"                 X . X X X . X                 ",
"                 . X . . . X .                 ",
"               w X . X X X . X                 ",
"               6 . X . . . X .                 ",
"               > X . X X X . X                 ",
"               # . X . . . X .                 ",
"               - X . X X X . X w               ",
"               $ . X . . . X . 5               ",
"               2 X . X X X . X 1               ",
"               7 . X . . . X . &               ",
"               e X . X X X . X :               ",
"               5 . X . . . X . =               ",
"               3 X . X X X . X                 ",
"               7 . X . . . X .                 ",
"               2 X . X X X . X y               ",
"               7 . X . . . X .                 ",
"               t X . X X X . X e               ",
"               0   X . .   X . *               ",
"               w   . X X   . X @               ",
"                   X . .   X . O               ",
"                   . X X   . X +               ",
"                   o   .   X                   ",
"                       X                       ",
"                       .                       ",
"                       X                       ",
"                                               ",
"                                               ",
"                                               "
};
