/* XPM */
static char *f3113c82fc3f4914c775f07e86633e44D23pfLNSmLejD2i6[] = {
/* columns rows colors chars-per-pixel */
"47 47 151 2 ",
"   c None",
".  c #333333",
"X  c #393433",
"o  c #443534",
"O  c #4A3433",
"+  c #4D3835",
"@  c #4B3C39",
"#  c #533432",
"$  c #5A3332",
"%  c #533835",
"&  c #583B36",
"*  c #563D39",
"=  c #583F3C",
"-  c #7E2E2E",
";  c #663030",
":  c #603B35",
">  c #713A34",
",  c #57413D",
"<  c #5A433E",
"1  c #61433D",
"2  c #6C413C",
"3  c #454140",
"4  c #484343",
"5  c #574846",
"6  c #674741",
"7  c #704642",
"8  c #704942",
"9  c #7A4F45",
"0  c #8C322C",
"q  c #853730",
"w  c #FF0100",
"e  c #FF0B00",
"r  c #FF1400",
"t  c #FF1B00",
"y  c #FF1F0C",
"u  c #FF1B1B",
"i  c #FF2400",
"p  c #FF2B00",
"a  c #FF3300",
"s  c #FF3D01",
"d  c #FF370B",
"f  c #FF3A0D",
"g  c #FF2B1B",
"h  c #FF3A14",
"j  c #FF351B",
"k  c #FF3C1A",
"l  c #FF3D24",
"z  c #FF3533",
"x  c #954A3F",
"c  c OrangeRed",
"v  c #FF4B00",
"b  c #FF4515",
"n  c #FF401C",
"m  c #FF541B",
"M  c #FF5A1D",
"N  c #FF6600",
"B  c #FF4526",
"V  c #FF4229",
"C  c #FF492E",
"Z  c #FF5026",
"A  c #FF4730",
"S  c #FF4C33",
"D  c #FF4E3D",
"F  c #FF5035",
"G  c #FF5F30",
"H  c #FF543C",
"J  c #FF5938",
"K  c #FF6332",
"L  c #FF653D",
"P  c #FF6B3E",
"I  c #8D4F45",
"U  c #8F5C51",
"Y  c #AD6051",
"T  c #947D7A",
"R  c #FF5343",
"E  c #FE5649",
"W  c #FE5B4A",
"Q  c #FF6643",
"!  c #FF6E46",
"~  c #FF654B",
"^  c #FF724D",
"/  c #FE6556",
"(  c #FF6A53",
")  c #FE665A",
"_  c #FE685E",
"`  c #FF7553",
"'  c #FF7954",
"]  c #FF735B",
"[  c #FF7D5E",
"{  c #FE6161",
"}  c #FE6E64",
"|  c #FE7564",
" . c #FF7B63",
".. c #FE736A",
"X. c #FF7F69",
"o. c #FD7C77",
"O. c #FFC600",
"+. c #FF8264",
"@. c #FF8967",
"#. c #FF846C",
"$. c #FF886E",
"%. c #FF8D74",
"&. c #FD847C",
"*. c #FE8C79",
"=. c #FF9276",
"-. c #FF947B",
";. c #FF987D",
":. c #0050C8",
">. c #FD8D85",
",. c #FE9684",
"<. c #FF9C83",
"1. c #FE9D89",
"2. c #FD9792",
"3. c #FD9B92",
"4. c #FC9F9A",
"5. c #FFA087",
"6. c #FFA289",
"7. c #FDA293",
"8. c #FEA995",
"9. c #FCA39C",
"0. c #FDAA9C",
"q. c #FCA6A2",
"w. c #FCACA5",
"e. c #FCADA9",
"r. c #FDB2A5",
"t. c #FCB5AC",
"y. c #FBB7B3",
"u. c #FCBCB3",
"i. c #FBBEBB",
"p. c #F4C295",
"a. c #F3C598",
"s. c #FCC4BD",
"d. c #FAC6C4",
"f. c #FBCBC4",
"g. c #FACECB",
"h. c #FAD1CE",
"j. c #FAD5D1",
"k. c #F3D9D6",
"l. c #FAD9D5",
"z. c #F9DDDB",
"x. c #F9E1DE",
"c. c #F9E0DE",
"v. c #F9E4E3",
"b. c #F8E7E5",
"n. c #F8E3E2",
"m. c #F8EEED",
"M. c #F8F0EE",
"N. c gray95",
"B. c #F7F5F5",
"V. c #F7F6F6",
"C. c #F6FFFF",
/* pixels */
"                                                                                              ",
"                     .        X.      l.      g.    . . . . . X.         .                    ",
"                    f       s.H       Z     e.u . . . . .     H s.      f                     ",
"                    w l.    / t z.    E t.  r O . . . O     l.t /     l.w                     ",
"          $.    3.  w v   f.a a v   f.a >.0.. . . . . $ d.  v p a f.  c w   3.    $.          ",
"          R     w z.w i K y.p H w c.w.p c / . . . . . l e.z.; % . y.L p w l.w     R           ",
"          w j.  3.s a a p s i 5.A w c t k . . . . . . g b o . . . . # A a s 3.  l.w           ",
"          v R   d.i a a a a i <.-.e i *.z . . . . . . ,.$ . . . . . . o R i d.  R v           ",
"          M p V l.s a a a a i <.^ <.w ;.,.. . . . . . . . . . . . . . . . W l.V p M           ",
"            w a 9.) a r 6.h i -.v.-. .;.0.. . . . . . . . . . . . . . . . . e.a w             ",
"  l.      v.e a w p a t <.%.i ;.l.  w.. . . . . . . . . . . . . . . . O $ $ - a e v.      l.  ",
"  9.0.      >.a ( h a r 6.' %.=.l.  . . . . . . . . . . . . . . . O , z a h ( a >.      0.4.  ",
"  9.h       4.a p <.e a k ' ! ;.x.. . . . . . . . . . . . . . . : +.n a e <.p a 4.      h 9.  ",
"  9.a 2.  ,.i.a a w <.a W 1.  *.b.. . . . . . . . . . . . . . .   @.h a <.w a p u.,.  3.a q.  ",
"  j.a e p h.d.p a p *.] I % . . . . . . . . . . . . . . . . . . . , X | =.p a p d.j.p e a j.  ",
"    i a p S #.p p a H $.$.#.s.. . . . . . . . . . a.. . . . . . . . . * $ R p a o.A p a i     ",
"    K p a p f a  .&.o.r.o . . . . . . . . a.. . . a.a.a.. . . . . . . * $ q ] a f a a p K     ",
"      w a d f a i 8 2 . . . . . . . . . . . . . . a.a.a.a.. . . . 5  .p -.;.t a h d a w       ",
"      w a F  .p p #.$.9 o . . . . . a.. . a.a.. . a.a.a.a.a.. .   0.=.=.@.#.p i  .S a w       ",
"      9.p p *. .r w <.u.f.0 . . . . a.a.a.a.. N.N.. . a.a..   . . a f.u.<.w r  .*.p p 9.      ",
"      g.a a k 6.| r ~ *.    . . . . a.a.a.a.. N.N.. . a.a..     .     *.( r ] 5.h a a g.      ",
"        } a t <.<.6.F '   . :.. . N . . a.a.a.a.a.a.a.a.a..           ' S 6.5.<.t a }         ",
"    l.  r.r a i <.` -.I & . . :.. N . :.. a.a.a.. . . a.. . .       P #.=.` <.t a t r.  l.    ",
"    e.l.C.w a a ] 6.+ a.a.. a.. . N . :.:.. . a.a.a.a.. N . :..   x.=.m ` =.] a a w C.l.e.    ",
"      w V.h.w a k r.. . . . . a.. N . :.:.:.:.. . . . N N . :..   u.P m.-.5.k a w g.V.w       ",
"      d.w M.s a D # a.a.. :.. . . N N . :.:.:.:.:.. N N . :.. .   s.  z.;.p a a s m.w d.      ",
"      l.n _ 4.f %.. . . . :..   . N N . :.:.:.:.. N N . :.. a.a..     f.*.i $.f 4._ n l.      ",
"        i.w r a ] 2 a.p.T .     . . N N . :.:.. N N N . . a.a.. . . . O j  .] a t w i.        ",
"          i p a B <.Y U ^       . . . . . . . N N N N . . . . a.. a.a.a.. 6.B a a t           ",
"          z.w a t <.;.=.<.s.      . :.:.:.. . . . . .     . . a.. . a.a.. 1.i a w z.          ",
"  i.        9.a a w 5.@.` f.    . . . . . :.:.:.:.:..       . . a.a.a.a.. z a a 9.        i.  ",
"  d.v d.d.z.l.p a ( p 5.` w.k.  . . . . . . . . . . . .       . a.a.a.@ } ( p i l.x.d.s.v d.  ",
"    c ..V ~ t.Q i ( %.( -.z.  . N N N . . . . . . N N .         . , , ~ %.( i Q t.~ l ..c     ",
"      w a a a n a p ~ <.<.j.. N N N N N . . . . N N N .           s.5.<.~ p a k a a a w       ",
"      g.p a h a a a p $.' 1.. N N N N . . . . . N N N N .         P ' $.p a a a h a p g.      ",
"        | p  .~ S p p w 1.. N N N N . . . . . . N N N N .       7.u.*.w p p S ~ X.p |         ",
"        j.p r  .<.X.( r { . N N N N N N . . . . N N N N N .     u.[ w r ]  .;. .r p l.        ",
"          j.w p X.+.6.-.. N N N N N N N .     . . N N N N N . t.%.e *.;.6.+.#.p w h.          ",
"            4.a i ,.` ^ . N N N N N N .       . . N N N N N 4 =.<.<.<.^ ^ <.i a 4.            ",
"              a a w -.+.. . N N N N . .       . . . N N N N . , 1.! ^ +.-.w p a               ",
"          d.  d.e i ]  .. . . . . . . .         . . . . . . . . d.1.%. . .p e d.  f.          ",
"          f.x.1.f.p ( J >.. . . . . .             . . . . . . . x.<.~ H ( p d.1.n.d.          ",
"            >.V.q.0.*.*.O . O.. . .               . . . . O.. . ^ J i %.*.8.q.V.>.            ",
"              $.g.b./ | . . O.. . .                 . . . . O.. @ $.;.~ / v.g.$.              ",
"                  q.l.7 . O.. . . .                   . . . O.. . 8.a *.h.q.                  ",
"                    x.. . O.. . .                     . . . . O.. > j.n.z.                    ",
"                      . . . . . .                       . . . . . .                           "
};
