/* XPM */
static char *_0d3656668224ed9d3f68b20a24284f1seqmliOgtTlMDJhA[] = {
/* columns rows colors chars-per-pixel */
"47 47 144 2 ",
"   c None",
".  c gray20",
"X  c #434343",
"o  c red",
"O  c #FF0C00",
"+  c #FF1000",
"@  c #FF1F00",
"#  c #CC2900",
"$  c #FF2200",
"%  c #FF2C00",
"&  c #FF3201",
"*  c #FF3900",
"=  c #FF390B",
"-  c #FF3716",
";  c #FF3C14",
":  c #FF3F19",
">  c #FF4D00",
",  c #FF5400",
"<  c #FF5902",
"1  c #FF5B0C",
"2  c #FF4115",
"3  c #FF431B",
"4  c #FF5814",
"5  c #FF6600",
"6  c #FF6112",
"7  c #FF4422",
"8  c #FF4A26",
"9  c #FF4D2C",
"0  c #FF5427",
"q  c #FF5F23",
"w  c #FF512C",
"e  c #FF5433",
"r  c #FF553D",
"t  c #FF5C3C",
"y  c #FF6125",
"u  c #FF632A",
"i  c #FF6634",
"p  c #FF6B31",
"a  c #FF623D",
"s  c #FF6A3C",
"d  c #FF5B44",
"f  c #FF5D49",
"g  c #FF6443",
"h  c #FF6C44",
"j  c #FF614A",
"k  c #FF6C4A",
"l  c #FF7144",
"z  c #FF714C",
"x  c #FF794E",
"c  c #FF6C55",
"v  c #FF7654",
"b  c #FF7956",
"n  c #FF755D",
"m  c #FF7B5A",
"M  c #FF7C63",
"N  c #FF7C6B",
"B  c #FFC600",
"V  c #FF805F",
"C  c #FF8263",
"Z  c #FF856B",
"A  c #FF8A6C",
"S  c #FF8472",
"D  c #FE8B75",
"F  c #FE8E7A",
"G  c #FF9275",
"H  c #FF947B",
"J  c #FF997D",
"K  c #0050C8",
"L  c #898989",
"P  c #FE9481",
"I  c #FF9B84",
"U  c #FE9B8A",
"Y  c #FFA086",
"T  c #FFA28B",
"R  c #FEA693",
"E  c #FEA994",
"W  c #FEAD9B",
"Q  c #FEB19D",
"!  c #FCAEA2",
"~  c #FDB3A5",
"^  c #FCB6AA",
"/  c #FDBAAB",
"(  c #FBB6B4",
")  c #FCBCB1",
"_  c #F3C598",
"`  c #FCC1B6",
"'  c #FCC5BB",
"]  c #FCC9BE",
"[  c #FBC7C1",
"{  c #FBC8C0",
"}  c #FBCBC4",
"|  c #FBCEC5",
" . c #FACDC7",
".. c #FBCDC4",
"X. c #FACEC9",
"o. c #FACFCA",
"O. c #FBCEC8",
"+. c #FBD0C7",
"@. c #FBD1C8",
"#. c #FAD1CB",
"$. c #FAD1CC",
"%. c #FAD3CF",
"&. c #FAD4CF",
"*. c #FBD3CC",
"=. c #FAD5D1",
"-. c #FAD6D0",
";. c #FAD9D5",
":. c #FBDBD5",
">. c #FADFDA",
",. c #F9DCD9",
"<. c #FAE1DC",
"1. c #F8E1DE",
"2. c #F9E2DE",
"3. c #F9E3DF",
"4. c #F9E1DE",
"5. c #F9E5E2",
"6. c #F9E5E3",
"7. c #F9E6E2",
"8. c #F9E6E3",
"9. c #F8E7E5",
"0. c #F9E4E1",
"q. c #F9E8E5",
"w. c #F8E8E7",
"e. c #F8E9E7",
"r. c #F9EAE7",
"t. c #FAEAE7",
"y. c #F9E9E6",
"u. c #F7EEEC",
"i. c #F8EBE8",
"p. c #F8EBE9",
"a. c #F8ECEA",
"s. c #F8EDEA",
"d. c #F8EDEB",
"f. c #FFECEA",
"g. c #F8EEEC",
"h. c #F8ECEB",
"j. c gray95",
"k. c #F7F0F0",
"l. c #F7F2F1",
"z. c gray97",
"x. c #F8F2F1",
"c. c #F8F3F1",
"v. c #F6FFFF",
"b. c #F7FDFD",
/* pixels */
"                            f.                                                                ",
"                  U e.      h w.    '     s.. . X L R       ` {       ) 3.                    ",
"                  D R     %.v E     { ` . . . . . . m       s s       4 0.                    ",
"        ^     H   D M e.  G v C 9.  . . . . . . . . s /   ^ l z /   ~ i 0.  @.  >.s.          ",
"        Z     v +.G b C   i v z ;.  . . . . . . . G b Z   C v v S @.b h p.A |   X.9.          ",
"        F R   / v v b k A v . k i A . . . . . . b v b v v v e k b m b v Z m 2.  p 9.          ",
"        T Z s.  y b v v z . = n k v . . . . . . v v g . . . c h v v v v v D v.' s p.          ",
"        E z C   x v v v . . & Y e . . . . . . . : 4 . . . . . g v b b b v T %.k v s.          ",
"          i v m -.z v 9 . . & / ' . . . . . . . H . . . . . . . b e v v i u.s v ~             ",
"          s v v h b v . . . . /   . . . . . . . . . . . . . m . . - v v m i b b ~       p.    ",
"e.^       ) k v g b v . . . . .   . . . . . . . _ . . . .   M 8 n . v b v t b v 2.    e.C     ",
"e.<       w.s v r b v . . . . . . . . . . _ _ _ _ _ _ .     i h T Z b v e k b h       ) v     ",
"e.s C   E x.m b v 2 m . . . . . . . . _ _ _ _ _ . . . . .       G r v h h v v H 0.s.  h v     ",
"s.Z v h p.I ! b v 8 7 v . . . . . . . _ _ _ _ . j.j.j.. _ .     T w m $ k v i k.! W s z W     ",
"  / b v , %.h b v v r N . . . . . . _ _ _ _ _ . . . . . _ .       S T 3 v m b z ` h v y       ",
"  / b b b z m b g m g A 0.. . . . . . . _ _ _ . . . . . _ .         c k m 9 b Z h b b l       ",
"    v v v b b b g % b H W   . . . . . _ _ _ _ . # # . . _ .       E b h % v b v b v z }       ",
"    v v b : b b t J % $ T     . . . _ . . _ _ _ . # # . _ .     s.k ; c r b b v 9 v z %.      ",
"    ) h v k w v v + Q ' J ]       . _ _ . _ _ _ _ . . . _ .     C Q ' Z k v z $ m v M 0.      ",
"      h v v : t m g D c.-...      . . . _ _ _ _ _ _ _ _ .       :.u.@.a v v ; t v v I         ",
"      ] z v e & = b 7 0.        . . . . . . _ _ _ _ _ _ .           T 3 8 3 $ v v i           ",
"      :.m v b & n 9 k n       . . . . . . . . . _ _ _ _ . .       | = g J @ g v v G           ",
"  ) 0.v.P v v v j T w V e.    . . . . 5 5 . . K . . . . K . .     ) V c P & n v l s.  !       ",
"    , 0.>.s v v * H ;.P G   . .     . . 5 5 5 . K K K K K K .     y +...7 g v b I   ^ }       ",
"    2.h z.b x v v e }   0..       . K K . 5 5 5 . K K K K K . . ~ e.  U g v b v ' ) C         ",
"      C h s.l & m & ^ .         . . . K . 5 5 5 5 . K K K K . .       . h v t z >.k W         ",
"      ,.n i v m 7 m . _ .       . _ _ . . 5 5 . 5 5 . . K . 5 .     . _ . & m v s Z           ",
"        I v b b 3 t . _ . .   . _ _ _ . . 5 . . 5 5 5 5 . . 5 . . . . _ . . b v h h.          ",
"        e., v v g . . _ _ . . K _ _ .   . . . . . . 5 5 5 5 5 . K . _ _ . _ . v U             ",
"          2.h v . _ . . _ . K K K .       . . . . . . . . . . K K . . . _ . . z           ~   ",
"  x   !   g.Z v . _ . _ . _ . K .           . K K K K K K K K . K . _ . _ . z E     G ' M     ",
"  ) i ` x 0.W v g . . _ . _ . .           . . . . . . . . . . . . . _ . . v v >.] , ;.,       ",
"  s.u z v m C v v h % . . .               . . 5 . 5 . . . . 5 . z.. . = v v C h V v i ^       ",
"    p.1 v v v v b b g Z I @.            . . 5 . 5 5 5 . . . 5 5 . Y % b v v v v v v A         ",
"      %.z k g v v b v 3 T -.          . . . . 5 5 5 5 . . . 5 5 . d b b v v b & v i           ",
"      0.Z v t $ g k b m : /           . . . . 5 5 5 5 . . 5 5 5 . a v v g j % b z Q           ",
"        <.< m t d % 9 e v 0 '       . . . . 5 5 5 5 . . 5 5 5 5 . k 9 = M @ z b P             ",
"          -.i b d H G t * $ f     . . . 5 5 5 5 5 . . . . 5 5 5 . O F J j z b u               ",
"            ~ v v & T I Y I /     . . 5 5 5 5 5 . . . . 5 . 5 5 . I Y Z k v i                 ",
"        e.  %.m v v & M Y @.    . . . 5 5 5 5 5 5 . . . . 5 5 5 . J 2 w v b I                 ",
"        @.X.0.&.> t g t N *.    . . . 5 5 5 5 5 . . . . . . 5 . &.e v t b d -.  )             ",
"          @.&.U ( * k k g ~   . . . . . 5 5 5 .     . . . . . | J z 7 g o 0.X.I s.            ",
"            /   ) D 7 7 I Z . . . . . . . . .       . . . B . . 7 n v & p.Z ]                 ",
"                @.h.m k = . . . B . . . . .         . . . . B . E t & ` U                     ",
"                  '   ' . . . B . . .                 . . . . . | W ^ g.                      ",
"                        . . B . . .                     . . . . %.                            ",
"                        . . . . .                                                             "
};
