/* XPM */
static char *d5e3b747b0c64756dcc5afa7081913babFIpJ9GxKCYoFxHC[] = {
/* columns rows colors chars-per-pixel */
"47 47 8 1 ",
"  c None",
". c gray20",
"X c #FF6600",
"o c #FFC600",
"O c #0050C8",
"+ c #F3C598",
"@ c gray95",
"# c gray97",
/* pixels */
"                                               ",
"                                               ",
"                    .......                    ",
"                 ........                      ",
"               ........                        ",
"              ........                         ",
"             ........  ....                    ",
"            ..................                 ",
"          ......................               ",
"   .     ...................                   ",
"    .   .................                      ",
"    ... ................                       ",
"     ......................                    ",
"      ............+..........                  ",
"      .......++...++......                     ",
"     ..........++..++..                        ",
"    ......+..++..+++. ..                       ",
"    ......++++.@@..+.  .                       ",
"   ..  ...++++.@@..+.                          ",
"   .  .....+++++++++.                          ",
"   .  ..  ...+++..+.                           ",
"     ..  ..X...+++...      ..                  ",
"     .  .OO.X.O.....O.    .++.                 ",
"     . ..OO.XX.OOOO.O.   .+.+.                 ",
"       .+.O.XXX.OOO..+. .++....                ",
"       .++.XXXXX.O...++.+.++.+.                ",
"      .+++..X.XXX..X.++.+.++.+.                ",
"     .O.+......XXXXX..+...+...                 ",
"     ..+.. ..........#.OO...+.                 ",
"    .++..  .OOOO.........   .                  ",
"   .++.+.  .....XX...XXXX.                     ",
"   .+++++. ...XX.XX...XXXX.                    ",
"    .++++. ...XXXXX....XXX.                    ",
"     .++.   ...XXXXX...XXX.                    ",
"      ..    ....XXXX......                     ",
"             ...XXXXX....                      ",
"             ....XXXX..                        ",
"              ...XXX..                         ",
"              .........                        ",
"              .........                        ",
"               ......o.                        ",
"                 ....o..                       ",
"                  ....o.                       ",
"                   ...o..                      ",
"                    .....                      ",
"                                               ",
"                                               "
};
