/* XPM */
static char *_f0f4ca66e714f6d95ae9e553f549113UR3o0UQJoaSjwvce[] = {
/* columns rows colors chars-per-pixel */
"47 47 8 1 ",
"  c None",
". c gray20",
"X c #FF6600",
"o c #FFC600",
"O c #0050C8",
"+ c #F3C598",
"@ c gray95",
"# c gray97",
/* pixels */
"                                               ",
"                           ....                ",
"                        ......                 ",
"                    .........                  ",
"                .............                  ",
"                        .........              ",
"                           ........            ",
"                      ..............           ",
"                  ...................          ",
"          ................                     ",
"            ..................                 ",
"               .....................           ",
"                 ................              ",
"               ................                ",
"          .......................              ",
"            ...........+++..........           ",
"          .......+++....++++.........          ",
"        ...........++....++++......            ",
"          ....++++++.@@@..++++...              ",
"            ...++++.@@@@@@..++. ..             ",
"          ......++++++@@@@..++.  .             ",
"             .....++++++++++++.                ",
"        .....OOO.X..++......+.O.               ",
"           ...OO..X...++++++.OO.               ",
"          ..++..XXX.OO........O.               ",
"         .++...XXXX...OOOOO..+.......          ",
"        .++++...X..OOOOOOOO...+++.+++.         ",
"        .OO.............OO.X...++.+++.         ",
"        .O.+++.++++.XX.OO.XX.....++++.         ",
"        .O.++++.+++...........OO.++++.         ",
"         ..+++++...OOOOOOOOO.........          ",
"           .+++++.............                 ",
"        .........XXXXX....XXXX..               ",
"         .......XXXXXXX....XXXXX.              ",
"          .....XXXXXXXX.....XXXXX.             ",
"        ......XXXXXXX......XXXXXXX.            ",
"          .....XXXX......XXXXXXXXX.            ",
"            .....XXXXX.......XX.XX.            ",
"           .....XXXXXXX.....XX.XX.             ",
"         ......XXXXXXXX..........              ",
"           .....XXXXXX.##....ooo.              ",
"           ..................ooo.              ",
"          ....ooooo.........ooooo.             ",
"             ...ooo...##......oooo.            ",
"            ..oooo.................            ",
"         ...oooooo...                          ",
"        .............                          "
};
