/* XPM */
static char *f7128d2e97d04ec3d7d9ccdb0e7c191bNaoZioKyCAv4Xh3q[] = {
/* columns rows colors chars-per-pixel */
"47 47 7 1 ",
"  c None",
". c gray20",
"X c #FF6600",
"o c #FFC600",
"O c #0050C8",
"+ c #F3C598",
"@ c gray95",
/* pixels */
"                                               ",
"                .....                          ",
"                  .....                        ",
"                   .....                       ",
"                   ......                      ",
"              ...   .....                      ",
"            ......  ......                     ",
"           ........ ......                     ",
"          ................                     ",
"         .................                     ",
"        ....................                   ",
"            .................                  ",
"              ................                 ",
"               ...............                 ",
"            .......................            ",
"          ...........+..........               ",
"         ..........+++...+.........            ",
"             .....++++................         ",
"               ..+++++..++..+.......           ",
"              .. .++..@@.++++.....             ",
"              .  .++..@@.++++....              ",
"                 .+++++++++..X..O.             ",
"                ...+...+++.O.X.O....           ",
"               .O.X.++++..OO.X..+.++.          ",
"               .O.XX....OOOO.X.+.....          ",
"               ..O.XX.OOOOO.XX...O.++.         ",
"              .++.O.XX.OOOO.XX. .O....         ",
"           .....++..XXX.OO.XX..  ..++.         ",
"          .+++.+....XXXX.......    ..          ",
"          .++..+..  ......OOO.                 ",
"          .++++..   .OOOOO.....                ",
"           .+++.   ............                ",
"            ...    .XX......XXX.               ",
"                   .XXX....XXXXX.              ",
"                  .XXXX.....XXXX.              ",
"                  .XXXX......XXXX.             ",
"                 .XXXXX....XXXXXX.             ",
"                .XXXXX..  .XXXXXXX.            ",
"                .XXXXX..   .XXXXXX.            ",
"               ..XXXX...   ..XXXX..            ",
"               ........    ........            ",
"               .......      ......             ",
"               ..o....       ...o..            ",
"              ..o....        ...o..            ",
"              ..o...         ....o..           ",
"             ..o....          ...o..           ",
"             ......           ......           "
};
