/* XPM */
static char *_79069a48feb44499a077581d5b6a835GpEDzIb7Nzwvu74n[] = {
/* columns rows colors chars-per-pixel */
"47 47 3 1 ",
"  c None",
". c gray20",
"X c #FF6600",
/* pixels */
"                                               ",
"                                               ",
"                                               ",
"                                               ",
"                                               ",
"                                               ",
"                                               ",
"                                               ",
"          X.X.X.X.X.X.X.X.X.X.X.X.X.X          ",
"                                               ",
"               X.X.X.X.X.X.X.X.X.X.X           ",
"                                               ",
"    X.X.X.X.X.X.X.X.X.X.X.X.X.X.X.X.X.X.X.X    ",
"                                               ",
"        X.X.X.X.X.X.X.X.X.X.X.X.X.X.X.X.X      ",
"                                               ",
"             X.X.X.X.X.X.X.X.X.X               ",
"                                               ",
"   X.X.X.X.X.X.X.X.X.X.X.X.X.X.X.X             ",
"                                               ",
"     X.X.X.X.X.X.X.X.X.X.X.X.X.X.X.X.X.X       ",
"                                               ",
"         .X.X.X.X.X.X.X.X.X.X.X.X.X.X          ",
"                                               ",
"          X.X.X.X.X.X.X.X.X.X.X.X.X.X          ",
"                                               ",
"               X.X.X.X.X.X.X.X.X.X.X           ",
"                                               ",
"    X.X.X.X.X.X.X.X.X.X.X.X.X.X.X.X.X.X.X.X    ",
"                                               ",
"        X.X.X.X.X.X.X.X.X.X.X.X.X.X.X.X.X      ",
"                                               ",
"             X.X.X.X.X.X.X.X.X.X               ",
"                                               ",
"   X.X.X.X.X.X.X.X.X.X.X.X.X.X.X.X             ",
"                                               ",
"     X.X.X.X.X.X.X.X.X.X.X.X.X.X.X.X.X.X       ",
"                                               ",
"         .X.X.X.X.X.X.X.X.X.X.X.X.X.X          ",
"                                               ",
"                                               ",
"                                               ",
"                                               ",
"                                               ",
"                                               ",
"                                               ",
"                                               "
};
