/* XPM */
static char *d84ad2982f4f4c4e8b12ab6bff49512fxnzRGIfBxdshM4PZ[] = {
/* columns rows colors chars-per-pixel */
"47 47 7 1 ",
"  c None",
". c gray20",
"X c #FF6600",
"o c #FFC600",
"O c #0050C8",
"+ c #F3C598",
"@ c gray95",
/* pixels */
"                                               ",
"                          .....                ",
"                        .....                  ",
"                       .....                   ",
"                      ......                   ",
"                      .....   ...              ",
"                     ......  ......            ",
"                     ...... ........           ",
"                     ................          ",
"                     .................         ",
"                   ....................        ",
"                  .................            ",
"                 ................              ",
"                 ...............               ",
"            .......................            ",
"               ..........+...........          ",
"            .........+...+++..........         ",
"         ................++++.....             ",
"           .......+..++..+++++..               ",
"             .....++++.@@..++. ..              ",
"              ....++++.@@..++.  .              ",
"             .O..X..+++++++++.                 ",
"           ....O.X.O.+++...+...                ",
"          .++.+..X.OO..++++.X.O.               ",
"          .....+.X.OOOO....XX.O.               ",
"         .++.O...XX.OOOOO.XX.O..               ",
"         ....O. .XX.OOOO.XX.O.++.              ",
"         .++..  ..XX.OO.XXX..++.....           ",
"          ..    .......XXXX....+.+++.          ",
"                 .OOO......  ..+..++.          ",
"                .....OOOOO.   ..++++.          ",
"                ............   .+++.           ",
"               .XXX......XX.    ...            ",
"              .XXXXX....XXX.                   ",
"              .XXXX.....XXXX.                  ",
"             .XXXX......XXXX.                  ",
"             .XXXXXX....XXXXX.                 ",
"            .XXXXXXX.  ..XXXXX.                ",
"            .XXXXXX.   ..XXXXX.                ",
"            ..XXXX..   ...XXXX..               ",
"            ........    ........               ",
"             ......      .......               ",
"            ..o...       ....o..               ",
"            ..o...        ....o..              ",
"           ..o....         ...o..              ",
"           ..o...          ....o..             ",
"           ......           ......             "
};
