/* XPM */
static char *result[] = {
/* columns rows colors chars-per-pixel */
"47 47 8 1 ",
"  c gray20",
". c #FF6600",
"X c #FFC600",
"o c #0050C8",
"O c #F3C598",
"+ c gray95",
"@ c gray97",
"# c None",
/* pixels */
"###############################################",
"################    ###########################",
"#################      ########################",
"##################         ####################",
"##################             ################",
"##############         ########################",
"############        ###########################",
"###########              ######################",
"##########                   ##################",
"#####################                ##########",
"#################                  ############",
"###########                     ###############",
"##############                #################",
"################                ###############",
"##############                       ##########",
"###########          OOO           ############",
"##########         OOOO    OOO       ##########",
"############      OOOO    OO           ########",
"##############   OOOO  +++ OOOOOO    ##########",
"#############  # OO  ++++++ OOOO   ############",
"############# ## OO  ++++OOOOOO      ##########",
"################ OOOOOOOOOOOO     #############",
"############### o O      OO  . ooo     ########",
"############### oo OOOOOO   .  oo   ###########",
"############### o        oo ...  OO  ##########",
"##########       O  ooooo   ....   OO #########",
"######### OOO OOO   oooooooo  .   OOOO ########",
"######### OOO OO   . oo             oo ########",
"######### OOOO     .. oo .. OOOO OOO o ########",
"######### OOOO oo           OOO OOOO o ########",
"##########         ooooooooo   OOOOO  #########",
"#################             OOOOO ###########",
"###############  ....    .....         ########",
"############## .....    .......       #########",
"############# .....     ........     ##########",
"############ .......      .......      ########",
"############ .........      ....     ##########",
"############ .. ..       .....     ############",
"############# .. ..     .......     ###########",
"##############          ........      #########",
"############## XXX    @@ ......     ###########",
"############## XXX                  ###########",
"############# XXXXX         XXXXX    ##########",
"############ XXXX      @@   XXX   #############",
"############                 XXXX  ############",
"##########################   XXXXXX   #########",
"##########################             ########"
};
