/* XPM */
static char *e51f2037a63c4b888ae23271f72e20a2ZnrSbFTVn9gSkuUh[] = {
/* columns rows colors chars-per-pixel */
"47 47 143 2 ",
"   c None",
".  c gray20",
"X  c #434343",
"o  c red",
"O  c #FF0C00",
"+  c #FF1000",
"@  c #FF1F00",
"#  c #CC2900",
"$  c #FF2200",
"%  c #FF2C00",
"&  c #FF3201",
"*  c #FF3900",
"=  c #FF390B",
"-  c #FF3716",
";  c #FF3C14",
":  c #FF3F19",
">  c #FF4D00",
",  c #FF5400",
"<  c #FF5902",
"1  c #FF5B0C",
"2  c #FF4115",
"3  c #FF431B",
"4  c #FF5814",
"5  c #FF6600",
"6  c #FF6112",
"7  c #FF4422",
"8  c #FF4A26",
"9  c #FF4D2C",
"0  c #FF5427",
"q  c #FF5F23",
"w  c #FF512C",
"e  c #FF5433",
"r  c #FF553D",
"t  c #FF5C3C",
"y  c #FF6125",
"u  c #FF632A",
"i  c #FF6634",
"p  c #FF6B31",
"a  c #FF623D",
"s  c #FF6A3C",
"d  c #FF5B44",
"f  c #FF5D49",
"g  c #FF6443",
"h  c #FF6C44",
"j  c #FF614A",
"k  c #FF6C4A",
"l  c #FF7144",
"z  c #FF714C",
"x  c #FF794E",
"c  c #FF6C55",
"v  c #FF7654",
"b  c #FF7956",
"n  c #FF755D",
"m  c #FF7B5A",
"M  c #FF7C63",
"N  c #FF7C6B",
"B  c #FFC600",
"V  c #FF805F",
"C  c #FF8263",
"Z  c #FF856B",
"A  c #FF8A6C",
"S  c #FF8472",
"D  c #FE8B75",
"F  c #FE8E7A",
"G  c #FF9275",
"H  c #FF947B",
"J  c #FF997D",
"K  c #0050C8",
"L  c #898989",
"P  c #FE9481",
"I  c #FF9B84",
"U  c #FE9B8A",
"Y  c #FFA086",
"T  c #FFA28B",
"R  c #FEA693",
"E  c #FEA994",
"W  c #FEAD9B",
"Q  c #FEB19D",
"!  c #FCAEA2",
"~  c #FDB3A5",
"^  c #FCB6AA",
"/  c #FDBAAB",
"(  c #FBB6B4",
")  c #FCBCB1",
"_  c #F3C598",
"`  c #FCC1B6",
"'  c #FCC5BB",
"]  c #FCC9BE",
"[  c #FBC7C1",
"{  c #FBC8C0",
"}  c #FBCBC4",
"|  c #FBCEC5",
" . c #FACDC7",
".. c #FBCDC4",
"X. c #FACEC9",
"o. c #FACFCA",
"O. c #FBCEC8",
"+. c #FBD0C7",
"@. c #FBD1C8",
"#. c #FAD1CB",
"$. c #FAD1CC",
"%. c #FAD3CF",
"&. c #FAD4CF",
"*. c #FBD3CC",
"=. c #FAD5D1",
"-. c #FAD6D0",
";. c #FAD9D5",
":. c #FBDBD5",
">. c #FADFDA",
",. c #F9DCD9",
"<. c #FAE1DC",
"1. c #F8E1DE",
"2. c #F9E2DE",
"3. c #F9E3DF",
"4. c #F9E1DE",
"5. c #F9E5E2",
"6. c #F9E5E3",
"7. c #F9E6E2",
"8. c #F9E6E3",
"9. c #F8E7E5",
"0. c #F9E4E1",
"q. c #F9E8E5",
"w. c #F8E8E7",
"e. c #F8E9E7",
"r. c #F9EAE7",
"t. c #FAEAE7",
"y. c #F9E9E6",
"u. c #F8EBE8",
"i. c #F8EBE9",
"p. c #F8ECEA",
"a. c #F8EEEA",
"s. c #FFECEA",
"d. c #F8EDEC",
"f. c #F8EEEC",
"g. c #F8EDEB",
"h. c gray95",
"j. c #F7F0F0",
"k. c #F7F2F1",
"l. c gray97",
"z. c #F8F2F1",
"x. c #F8F3F1",
"c. c #F6FFFF",
"v. c #F7FDFD",
/* pixels */
"                                                                s.                            ",
"                    3.)       ] `       R L X . . i.    ]     i.h       e.U                   ",
"                    6.6       s s       m . . . . . . ` [     E v *.    R S                   ",
"          i.>.  o.  6.i ~   / z z ~   / s . . . . . . . .   9.C b G   y.C F   H     ^         ",
"          6.o.   .A w.h v *.S v v m   Z v H . . . . . . .   ;.z v i   C z F ..v     Z         ",
"          9.p   3.m Z v v m b k e b b b b z v . . . . . . A i k . v Z z b b b /   E F         ",
"          e.s ' c.D v v v v v k c . . . a v v . . . . . . v k n = . v v v v y   d.Z U         ",
"          i.b z %.T v v v b v h . . . . . 4 3 . . . . . . . e Y & . . b v v z   C z E         ",
"            ~ v s j.i v v e v . . . . . . . J . . . . . . . ` / % . . 9 v v -.m v i           ",
"    i.      ~ v v s v v v - . . m . . . . . . . . . . . . .   / . . . . v v h v v s           ",
"    C e.    <.v v t b v v . M 8 M   . . . . _ . . . . . . .   . . . . . v v g v z )       ^ w.",
"    v )       l v k e b v Z T g i     . _ _ _ _ _ _ . . . . . . . . . . v v t v s e.      < i.",
"    z h   i.3.H v v k g b t G       . . . . . _ _ _ _ _ . . . . . . . . b : v v b f.E   C s w.",
"    W z s W ~ j.i v k $ m w T     . _ . h.h.h.. _ _ _ _ . . . . . . . b 7 8 b v ^ U i.l v A d.",
"      u v h ' x v b b 2 T S       . _ . . . . . _ _ _ _ _ . . . . . . Z r b v v l *.< v b ^   ",
"      l v v h Z v 9 m k c         . _ . . . . . _ _ _ . . . . . . . 0.Z g m g v m z v v v /   ",
"      } z v b v v v % k v E       . _ . . # # . _ _ _ _ . . . . .   W H b % t v v v v v v     ",
"      %.z b 9 v v v t c ; k i.    . _ . # # . _ _ _ . . _ . . .     T $ % I t v b 3 b v b     ",
"      9.C v m $ v v h Z ' ~ C     . _ . . . _ _ _ _ . _ _ .       ] J ' Q O b v e k v h )     ",
"        I v v t - v v a *.i.:.      . _ _ _ _ _ _ _ _ . . .       ..;.x.D g m t : v v l       ",
"          i v v @ 3 8 3 T           . _ _ _ _ _ _ . . . . . .         6.7 v = & 9 b z }       ",
"          G v v g @ J g = |       . . _ _ _ _ . . . . . . . . .       b k 9 n & b v m ;.      ",
"      !   d.h v b & P v V /     . . K . . . . K . . 5 5 . . . .     i.m 9 T j v v v P c.0.)   ",
"      | ^   U v v g 7 } +.y     . K K K K K K . 5 5 5 . .     . .   G P ,.J * v v s >.6.,     ",
"        C ) ' v b b g U   e.~ . . K K K K K . 5 5 5 . K K .       . 6.  ..e v b b b l.h 3.    ",
"        W k <.z t z k .       . . K K K K . 5 5 5 5 . K . . .         . ^ & m & l f.s C       ",
"          Z s v b & . _ .     . 5 . K . . 5 5 . 5 5 . . _ _ .       . _ . b 8 b b i b ;.      ",
"          d.h v b . . _ . . . . 5 . . 5 5 5 5 . . 5 . . _ _ _ .   . . _ . t 3 v v v U         ",
"            U v . _ . _ _ . K . 5 5 5 5 5 . . . . . .   . _ _ K . . _ _ . . g v b , e.        ",
"  ~           z . . _ . . . K K . . . . . . . . . .       . K K K . _ . . _ . v h 3.          ",
"    M ' F     E z . _ . _ . K . K K K K K K K K .           . K . _ . _ . _ . b Z d.  !   x   ",
"      , ;.< ' >.b b . . _ . . . . . . . . . . . . .           . . _ . _ . . g v W 6.x ` i )   ",
"      ^ i v m h C v v = . . l.. 5 . . . . 5 . 5 . .               . . . % g b v M m v h u i.  ",
"        Z v v b v v v v & I . 5 5 . . . 5 5 5 . 5 . .             *.I Z g v b v b b v 1 d.    ",
"          i b = b v v v v g . 5 5 . . . 5 5 5 5 . . . .           -.T 2 b v b v g k v %.      ",
"          Q z b % g g v v g . 5 5 5 . . 5 5 5 5 . . . .           / 2 m v h k $ t v Z 3.      ",
"            P v z @ M = 9 k . 5 5 5 5 . . 5 5 5 5 . . . .       ' 0 m e w % d t b < <.        ",
"              u b z j J G O . 5 5 5 . . . . 5 5 5 5 5 . . .     f $ & t H H t b s -.          ",
"                i v k Z I I . 5 5 . 5 . . . . 5 5 5 5 5 . .     / I I I T & b v ~             ",
"                U v v w ; I . 5 5 5 . . . . 5 5 5 5 5 5 . . .     @.T M % z b b *.  e.        ",
"            )   &.g b t b e %.. 5 . . . . . . 5 5 5 5 5 . . .     -.M a h t > *.6.| *.        ",
"            i.U  .0.o g 7 z J | . . . . .     . 5 5 5 . . . . .   ~ g k g * ( U %.*.          ",
"                ] Z i.& v n 7 . . B . . .       . . . . . . . . . N I 7 7 D )   /             ",
"                    U ) & t R . B . . . .         . . . . . B . . . = k M d.*.                ",
"                      d./ W | . . . . .                 . . . B . . . '   '                   ",
"                            %.. . . .                     . . . B . .                         ",
"                                                            . . . . .                         "
};
