/* XPM */
static char *f43d2b4bf94c4625e1becbd7c4c8b7203oVwgJNkLPJQTflR[] = {
/* columns rows colors chars-per-pixel */
"47 47 8 1 ",
"  c None",
". c gray20",
"X c #FF6600",
"o c #FFC600",
"O c #0050C8",
"+ c #F3C598",
"@ c gray95",
"# c gray97",
/* pixels */
"                                               ",
"                ....                           ",
"                 ......                        ",
"                  ..... ...                    ",
"                  ..... ... ...                ",
"               ...  ...                        ",
"            .. ...                             ",
"           ... ...  ... .                      ",
"          .... ...  ... ... .                  ",
"                     .. ... ... .....          ",
"                 .  ... ... ... ...            ",
"           ... ...  ... ... ...                ",
"               ...  ... ... ..                 ",
"                ..  ... ... ...                ",
"               ...  ... ... ... ...            ",
"           ... ...  .++ ... ... ...            ",
"          .... ...  +++ ... ++. ...            ",
"            .. ...  ++. ..+ ... ...  ..        ",
"               ..+  +.. @@. +++ +..            ",
"             .  .+  .@@ @@@ +++ ...            ",
"             .  .+  .@@ @++ +++ ...            ",
"                .+  +++ +++ +.. ..             ",
"               .O.  ... .++ .X. OO.  ..        ",
"               .OO  +++ +.. X.. O..            ",
"                O.  ... .OO XXX .++            ",
"          ....  .+  OOO O.. XXX ... +.         ",
"         .+++.  +.  OOO OOO ..X ..+ ++.        ",
"         .+++.  ..  .OO ... ... ... OO.        ",
"         .++++  ..  X.O .XX +++ .++ .O.        ",
"         .++++  O.  ... ... +++ +++ .O.        ",
"          ....  ..  OOO OOO ... +++ ..         ",
"                 .  ... ... ..+ +++            ",
"                .X  X.. .XX XX. ... ...        ",
"                XX  ... XXX XXX ... ..         ",
"             .  XX  ... XXX XXX ... .          ",
"            .X  XX  ... ..X XXX X.. ...        ",
"            .X  XX  XX. ... XXX ... .          ",
"            .X  XX  ... .XX XX. ...            ",
"             .  .X  ... XXX XXX ...            ",
"                ..  ... XXX XXX ... ..         ",
"                oo  ..# .XX XXX ...            ",
"                oo  ... ... ... ....           ",
"             .  oo  ... ... ooo o....          ",
"            .o  o.  ... #.. ooo ..             ",
"            ..  ..  ... ... .oo o..            ",
"                          . .oo ooo...         ",
"                          . ... .......        "
};
