/* XPM */
static char *_cf2d0b44b0c483ec287e038bda3dc94SK7ZQQWrvgv1q0Oi[] = {
/* columns rows colors chars-per-pixel */
"47 47 11 1 ",
"  c None",
". c gray20",
"X c #434343",
"o c #CC2900",
"O c #FF6600",
"+ c #FFC600",
"@ c #0050C8",
"# c #898989",
"$ c #F3C598",
"% c gray95",
"& c gray97",
/* pixels */
"                     #X..                      ",
"                     ......                    ",
"                     ........                  ",
"                      .......                  ",
"                       ......   .              ",
"                 ...   ......    .             ",
"                .....  .......   ..            ",
"               ....... .......   ..            ",
"              .. .............  ....           ",
"             .    ....$....... .....           ",
"                   .$$$$$$..........           ",
"                  .....$$$$$........           ",
"                 .$.%%%.$$$$.......            ",
"                 .$.....$$$$$......            ",
"                 .$.....$$$.......             ",
"                 .$..oo.$$$$.....              ",
"                 .$.oo.$$$..$...               ",
"                 .$...$$$$.$$.                 ",
"                  .$$$$$$$$...                 ",
"                  .$$$$$$......                ",
"                 ..$$$$.........               ",
"                ..@....@..OO....               ",
"                .@@@@@@.OOO..  ..              ",
"               ..@@@@@.OOO.@@.   .             ",
"           .   ..@@@@.OOOO.@...    .           ",
"          .$.  .O.@..OO.OO..$$.   .$.          ",
"         ..$....O..OOOO..O..$$$. ..$.          ",
"        .$.$$.@.OOOOO...... .$$@..$$..         ",
"        ..$...@@..........   .@@@.$..$.        ",
"         .$.$.@.@@@@@@@@.     .@.$.$.$.        ",
"          ..$.............     ..$.$..         ",
"            ..&.O....O.O..       ...           ",
"              .OO...OOO.O..                    ",
"              .OO...OOOO....                   ",
"              .OOO..OOOO....                   ",
"              .OOOO..OOOO....                  ",
"              .OOO....OOOOO...                 ",
"              .OO.O....OOOOO..                 ",
"              .OOO....OOOOOO...                ",
"               .O......OOOOO...                ",
"                .....  .OOO.....               ",
"               ..+...   .........              ",
"               .+....    .....+...             ",
"               .....        ...+...            ",
"               ....          ...+..            ",
"                              .....            ",
"                                               "
};
