/* XPM */
static char *result[] = {
/* columns rows colors chars-per-pixel */
"47 47 8 1 ",
"  c gray20",
". c #FF6600",
"X c #FFC600",
"o c #0050C8",
"O c #F3C598",
"+ c gray95",
"@ c gray97",
"# c None",
/* pixels */
"###############################################",
"###############################################",
"####################       ####################",
"######################        #################",
"########################        ###############",
"#########################        ##############",
"####################    ##        #############",
"#################                  ############",
"###############                      ##########",
"###################                   ##### ###",
"######################                 ### ####",
"#######################                #   ####",
"####################                      #####",
"##################          O            ######",
"#####################      OO   OO       ######",
"########################  OO  OO          #####",
"#######################  # OOO  OO  O      ####",
"####################### ## O  ++ OOOO      ####",
"########################## O  ++ OOOO   ##  ###",
"########################## OOOOOOOOO     ## ###",
"########################### O  OOO   ##  ## ###",
"##################  ######   OOO   .  ##  #####",
"################# OO #### o     o . oo ## #####",
"################# O O ### o oooo .. oo  # #####",
"################    OO # O  ooo ... o O #######",
"################ O OO O OO   o ..... OO #######",
"################ O OO O OO .  ... .  OOO ######",
"#################   O   O  .....      O o #####",
"################# O   oo @          #  O  #####",
"################## ###         oooo ##  OO ####",
"##################### ....   ..     ## O OO ###",
"#################### ....   .. ..   # OOOOO ###",
"#################### ...    .....   # OOOO ####",
"#################### ...   .....   ### OO #####",
"#####################      ....    ####  ######",
"######################    .....   #############",
"########################  ....    #############",
"#########################  ...   ##############",
"########################         ##############",
"########################         ##############",
"######################## X      ###############",
"#######################  X    #################",
"####################### X    ##################",
"######################  X   ###################",
"######################     ####################",
"###############################################",
"###############################################"
};
