/* XPM */
static char *_6aeaf99b30a4576f1cfc1e1c10e78feRIAd8KdUS4kECNvf[] = {
/* columns rows colors chars-per-pixel */
"47 47 122 2 ",
"   c None",
".  c gray20",
"X  c #434343",
"o  c #FF0100",
"O  c #FF1100",
"+  c #FF1D00",
"@  c #CC2900",
"#  c #FF2600",
"$  c #FF2A00",
"%  c #FF3100",
"&  c #FF3E00",
"*  c #FF3E0C",
"=  c #FF3F17",
"-  c #FF4400",
";  c #FF4C00",
":  c #FF4310",
">  c #FF421B",
",  c #FF6600",
"<  c #FF4B25",
"1  c #FF432D",
"2  c #FF5025",
"3  c #FF5C25",
"4  c #FF542D",
"5  c #FF5D2F",
"6  c #FF5E34",
"7  c #FF5E38",
"8  c #FF623B",
"9  c #FF5C4B",
"0  c #FF6446",
"q  c #FF6A44",
"w  c #FF644A",
"e  c #FF6D4A",
"r  c #FF724E",
"t  c #FE6153",
"y  c #FE675C",
"u  c #FE6F5C",
"i  c #FF7654",
"p  c #FF7857",
"a  c #FF7758",
"s  c #FF7B5B",
"d  c #FE7566",
"f  c #FF7C63",
"g  c #FE716B",
"h  c #FE7B6C",
"j  c #FE7770",
"k  c #FD7C74",
"l  c #FFC600",
"z  c #FF8163",
"x  c #FF866A",
"c  c #FF8B6E",
"v  c #FF8D73",
"b  c #FE8879",
"n  c #FF9275",
"m  c #FF957B",
"M  c #FF997E",
"N  c #0050C8",
"B  c #898989",
"V  c #FD8680",
"C  c #FD8A85",
"Z  c #FF9E84",
"A  c #FD948F",
"S  c #FE9C89",
"D  c #FC9592",
"F  c #FFA087",
"G  c #FFA289",
"H  c #FFA591",
"J  c #FEA994",
"K  c #FDA19E",
"L  c #FEAD99",
"P  c #FCAAA4",
"I  c #FBADAB",
"U  c #FEB3A3",
"Y  c #FCB1AA",
"T  c #FDBBAE",
"R  c #FBB7B4",
"E  c #FCB9B7",
"W  c #FBBDBB",
"Q  c #F3C598",
"!  c #FCC0B4",
"~  c #FCC3BA",
"^  c #FCC8BD",
"/  c #FAC6C5",
"(  c #FBCAC3",
")  c #FACCCA",
"_  c #FAD1CF",
"`  c #FBD4CD",
"'  c #F9D2D1",
"]  c #FAD2D1",
"[  c #F9D4D3",
"{  c #FAD6D3",
"}  c #FAD7D4",
"|  c #F9D7D6",
" . c #F9D4D3",
".. c #FBD8D0",
"X. c #FAD9D3",
"o. c #FADAD4",
"O. c #FADBD4",
"+. c #FADBD5",
"@. c #FADED7",
"#. c #F9D9D8",
"$. c #FBDAD9",
"%. c #F9DBDA",
"&. c #FFDAD9",
"*. c #FADDD8",
"=. c #F9DAD8",
"-. c #F9E3DF",
";. c #FAE4DF",
":. c #FAE1DC",
">. c #F8E1E1",
",. c #F8E3E3",
"<. c #F9E4E1",
"1. c #F9E5E1",
"2. c #F9E5E2",
"3. c #F9E7E5",
"4. c #F8E9E9",
"5. c #F8EBEB",
"6. c #F8EDEB",
"7. c gray95",
"8. c #F7F6F6",
"9. c gray97",
"0. c #F7F6F6",
"q. c #F6FFFF",
/* pixels */
"                                                                                              ",
"                    d         h       '     B X . .   [       h         h                     ",
"                    m <.    I S <.    f     . . . . . .     1.S I     <.m                     ",
"                    v <.    G Z 1.    J D   . . . . . . . . 1.M G     1.v                     ",
"          t     !   m ;   W m G &   E m E C F . . . . . . . & G m W   - m   !     t           ",
"          H     ; ' M G : ( Z m Z 3.~ Z v n Z q . . . . . . Z m Z . : G m [ ;     H           ",
"          v X.  P r G Z G z G i Z n . . . F x 4 . . . . . . Z i F z . Z G r P   X.v           ",
"          < J   X.Z Z Z Z Z Z q e . . . . . r o . . . . . . . q F F . . Z Z X.  J <           ",
"          $ G G / m Z Z F Z F q . . . . . . .   . . . . . . . q F Z . . F m ( G G $           ",
"            M Z ^ L Z G r Z F . . j . . . . . . . . . . . . . 6 F . . . . L ^ Z M             ",
"  _       3.x Z Z Z Z G r i . 8  .  w . . . . Q . . . . . . . 6 . . . . . Z M Z x 3.      _   ",
"  T C       U Z v Z Z G r $ z 8  .    o . Q Q Q Q Q Q . . . . . . . . . . Z n Z U       C T   ",
"  ^ Z       ^ Z Z p G Z Z + O 3 &.    . . . . . Q Q Q Q Q . . . . . . . . a Z Z ^       S ^   ",
"  ! Z !   j P Z Z G a Z Z &         . Q . 7.7.7.. Q Q Q Q . . . . . . . a G Z F P g   ! Z !   ",
"  / Z Z ; 1.@.Z Z F z s n b         . Q . . . . . Q Q Q Q Q . . . . . . z F Z Z @.;.; Z Z /   ",
"    G Z G G b Z F Z M > $           . Q . . . . . Q Q Q . . . . . . . * M F Z F b G G Z G     ",
"    # G Z Z Z Z n Z F q             . Q . . @ @ . Q Q Q Q . . . . . 1 z G Z v Z M F Z G #     ",
"      n Z Z S Z F a s G o I         . Q . @ @ . Q Q Q . . Q . . . I % G s a G Z Z Z F n       ",
"      z Z M c Z Z c < 5 6 A         . Q . . . Q Q Q Q . Q Q .     A 8 5 < c F Z c Z F z       ",
"      Y Z Z z c F F 8 I W o           . Q Q Q Q Q Q Q Q . . .     o W I 8 F F c f Z Z U       ",
"      / n Z Z i v F n w               . Q Q Q Q Q Q . . . . . . y     9 n F v i Z Z n /       ",
"        L Z G i i r Z +             . . Q Q Q Q . . . . . . . . .     + M r i p G Z L         ",
"    1.  D F Z G s % i n o         . . N . . . . N . . , , . . . .   o m p % a F Z F D   1.    ",
"    ( -.q.5 G S n 7 # 7 0 %.      . N N N N N N . , , , . .     . . 0 7 # 8 n Z F 5 q.-.(     ",
"      n 9.` Z Z Z a g 6.o I     . . N N N N N . , , , . N N .     I . 4.g s Z Z Z _ 9.n       ",
"      X.m 4.a Z Z Z 8 [ . R     . . N N N N . , , , , . N . . .   E   ' . F Z Z a 4.m X.      ",
"      ) m L ^ Z x F q . Q .     . , . N . . , , . , , . . Q Q .       . Q . x Z ^ L m )       ",
"        ` Z M Z v c . . Q . . . . , . . , , , , . . , . . Q Q Q .   . . Q . v Z Z M `         ",
"          & G Z Z . Q . Q Q . N . , , , , , . . . . . .   . Q Q N . . Q Q . . Z F &           ",
"          1.m Z F . . Q . . . N N . . . . . . . . . .       . N N N . Q . . Q . m ;.          ",
"  `         ! Z F G . Q . Q . N . N N N N N N N N .           . N . Q . Q . Q . !         `   ",
"  X.4 X.X.| ( F S n Z . . Q . . . . . . . . . . . . .           . . Q . Q . . G / X.O.X.4 @.  ",
"    4 U G f ~ w S n z m w . . 9.. , . . . . , . , . .           %.%.. . . n G w ^ f G U 4     ",
"      n Z Z Z m F S n i p E   . , , . . . , , , . , . .           Y i i m F Z m Z S F c       ",
"      @.Z Z Z Z Z Z Z c % o   . , , . . . , , , , . . . .         o % c Z Z Z Z Z Z S @.      ",
"        S F c m Z Z F G z P C . , , , . . , , , , . . . .       C P z G Z Z Z m x G S         ",
"        ) 8 G v p c v G G q P . , , , , . . , , , , . . . .     P q G G n c a c G 8 )         ",
"          X.m Z c > s z z G r . , , , . . . . , , , , , . . . P e G s z s > v Z m [           ",
"            ~ Z F s $ $ i i i . , , . , . . . . , , , , , . . H i p p $ $ s G Z ^             ",
"              c F G a > $ o k . , , , . . . . , , , , , , . . . k o # > i G G c               ",
"          W   E s G v n 4 V E   . , . . . . . . , , , , , . . . E V 4 n c Z f E   W           ",
"          )   k ~ Z v Z m u %.    . . . . .     . , , , . . . . . u m M n Z ~ k   _           ",
"            T 9.^ v z z S f +   . . l . . .       . . . . . . . . . F z z b ( 9.T             ",
"              9 -.6.G v p < d V . l . . . .         . . . . . l . . . n G 6.*.9               ",
"                  ^ ( S s S /   . . . . .                 . . . l . . . ( (                   ",
"                     .  ) x ) I . . . .                     . . . l . . [                     ",
"                                                              . . . . .                       "
};
