/* XPM */
static char *_abf62402577468fe664f56599fa1701gp440g8OxHUHk6SY[] = {
/* columns rows colors chars-per-pixel */
"47 47 8 1 ",
"  c None",
". c gray20",
"X c #FF6600",
"o c #FFC600",
"O c #0050C8",
"+ c #F3C598",
"@ c gray95",
"# c gray97",
/* pixels */
"                                               ",
"                           ....                ",
"                        ......                 ",
"                    ... .....                  ",
"                ... ... .....                  ",
"                        ...  ...               ",
"                             ... ..            ",
"                      . ...  ... ...           ",
"                  . ... ...  ... ....          ",
"          ..... ... ... ..                     ",
"            ... ... ... ...  .                 ",
"                ... ... ...  ... ...           ",
"                 .. ... ...  ...               ",
"                ... ... ...  ..                ",
"            ... ... ... ...  ...               ",
"            ... ... ... ++.  ... ...           ",
"            ... .++ ... +++  ... ....          ",
"        ..  ... ... +.. .++  ... ..            ",
"            ..+ +++ .@@ ..+  +..               ",
"            ... +++ @@@ @@.  +.  .             ",
"            ... +++ ++@ @@.  +.  .             ",
"             .. ..+ +++ +++  +.                ",
"        ..  .OO .X. ++. ...  .O.               ",
"            ..O ..X ..+ +++  OO.               ",
"            ++. XXX OO. ...  .O                ",
"         .+ ... XXX ..O OOO  +.  ....          ",
"        .++ +.. X.. OOO OOO  .+  .+++.         ",
"        .OO ... ... ... OO.  ..  .+++.         ",
"        .O. ++. +++ XX. O.X  ..  ++++.         ",
"        .O. +++ +++ ... ...  .O  ++++.         ",
"         .. +++ ... OOO OOO  ..  ....          ",
"            +++ +.. ... ...  .                 ",
"        ... ... .XX XX. ..X  X.                ",
"         .. ... XXX XXX ...  XX                ",
"          . ... XXX XXX ...  XX  .             ",
"        ... ..X XXX X.. ...  XX  X.            ",
"          . ... XXX ... .XX  XX  X.            ",
"            ... .XX XX. ...  XX  X.            ",
"            ... XXX XXX ...  X.  .             ",
"         .. ... XXX XXX ...  ..                ",
"            ... XXX XX. #..  oo                ",
"           .... ... ... ...  oo                ",
"          ....o ooo ... ...  oo  .             ",
"             .. ooo ..# ...  .o  o.            ",
"            ..o oo. ... ...  ..  ..            ",
"         ...ooo oo. .                          ",
"        ....... ... .                          "
};
