/* XPM */
static char *e2a2a7dacb2145aadafdc3090d60d2d7UXvlKhAnEPHB15GZ[] = {
/* columns rows colors chars-per-pixel */
"47 47 4 1 ",
"  c None",
". c gray20",
"X c #FF6600",
"o c #FF9E85",
/* pixels */
"                                               ",
"                                               ",
"                                               ",
"                                               ",
"              X       X       X                ",
"              .       .       .                ",
"              X       X       X                ",
"              .       .       .                ",
"              X X     X X     X X              ",
"              . .     . .     . .              ",
"            X X X   X X X   X X X              ",
"            . . . X . . . X . . . X            ",
"            X X X . X X X . X X X .            ",
"            . . . X . . . X . . . X            ",
"            X X X . X X X . X X X .            ",
"            . . . X . . . X . . . X            ",
"            X X X . X X X . X X X .            ",
"            . . . X . . . X . . . X            ",
"            X X X . X X X . X X X .            ",
"            . . . X . . . X . . . X            ",
"            X X X . X X X . X X X .            ",
"            . . . X . . . X . . . X            ",
"            X X X . X X X . X X X .            ",
"            . . . X . . . X . . . X            ",
"            X X X . X X X . X X X .            ",
"            . . . X . . . X . . . X            ",
"            X X X . X X X . X X X .          o ",
"            . . . X . . . X . . . X            ",
"            X X X . X X X . X X X .            ",
"            . . . X . . . X . . . X            ",
"            X X X . X X X . X X X .            ",
"            . . . X . . . X . . . X            ",
"            X X X . X X X . X X X .            ",
"            . . . X . . . X . . . X            ",
"            X X X . X X X . X X X .            ",
"            . . . X . . . X . . . X            ",
"            X X X . X X X . X X X .            ",
"            . .   X . .   X . .   X            ",
"            X X   . X X   . X X   .            ",
"            . .   X . .   X . .   X            ",
"            X X   . X X   . X X   .            ",
"              .   X   .   X   .   X            ",
"              X       X       X                ",
"              .       .       .                ",
"              X       X       X                ",
"                                               ",
"                                               "
};
