/* XPM */
static char *_e12b4d689de445de5562ea98c3bb37fCEO52scZOC6baigH[] = {
/* columns rows colors chars-per-pixel */
"47 47 83 1 ",
"  c gray20",
". c #353534",
"X c #373735",
"o c #393936",
"O c #3B3A37",
"+ c #3D3C38",
"@ c #3F3E39",
"# c #413F3A",
"$ c #43413B",
"% c #44423C",
"& c #46443D",
"* c #47453E",
"= c #49473F",
"- c #4B4840",
"; c #4C4941",
": c #4D4B42",
"> c #4F4C43",
", c #504D44",
"< c #524F44",
"1 c #535045",
"2 c #545146",
"3 c #555247",
"4 c #575348",
"5 c #585448",
"6 c #5A574A",
"7 c #5B584B",
"8 c #5D594B",
"9 c #5E5A4C",
"0 c #5F5B4D",
"q c #605C4E",
"w c #615D4E",
"e c #635F50",
"r c #646050",
"t c #656151",
"y c #666252",
"u c #696454",
"i c #6D6856",
"p c #706B58",
"a c #746F5B",
"s c #76705C",
"d c #7C7660",
"f c #7D7661",
"g c #7F7962",
"h c #FF6600",
"j c #807A63",
"k c #837D66",
"l c #867F67",
"z c #FFC600",
"x c #989074",
"c c #0050C8",
"v c #F3C598",
"b c #F2C699",
"n c #E0D4A8",
"m c #E0D4A9",
"M c #E0D5AA",
"N c #E1D5AA",
"B c #E1D5AB",
"V c #E1D5AC",
"C c #E1D6AC",
"Z c #E1D6AD",
"A c #E1D6AE",
"S c #E2D6AE",
"D c #E2D7AF",
"F c #E2D7B0",
"G c #E2D7B1",
"H c #E2D8B1",
"J c #E3D8B3",
"K c #E3D9B4",
"L c #E3D9B5",
"P c #E3D9B6",
"I c #E4DAB8",
"U c #E4DBB9",
"Y c #E4DBBA",
"T c #E5DBBB",
"R c #E5DCBB",
"E c #E6DDBF",
"W c #E6DDC0",
"Q c #E6DEC1",
"! c #E7DEC2",
"~ c #E7E0C5",
"^ c #E8E1C9",
"/ c #EAE3CC",
"( c gray95",
/* pixels */
"nnnnnnnnnnnnnnnnnnnnnnnnnnDnnnnnnnnnnnnnnnnnnnn",
"nnnnnnnnnnnnnnnnnnnnnnnnnn   ;tnnnnnnnnnnnnnnnn",
"nnnnnnnnnnnnnnnnnnnnnnnn    0nnnnnnnnnnnnnnnnnn",
"nnnnnnnnnnnnnnnnnnnnnnn$   *nnnnnnnnnnnnnnnnnnn",
"nnnnnnnnnnnnnnnnnnnnnD     1nnnnnnnnnnnnnnnnnnn",
"nnnnnnnnnnnnnnnnnnnnnD     nnn7:.mnmnnnnnnnnnnn",
"nnnnnnnnnnnnnnnnnnnnn      nn+    ;mnnnnnnnnnnn",
"nnnnnnnnnnnnnnnnnnnnD      D4      #Dnnnnnnnnnn",
"nnnnnnnnnnnnnnnnnnnnD                Dnnnnnnnnn",
"nnnnnnnnnnnnnnnnnnnnL                .Dnnnnnnnn",
"nnnnnnnnnnnnnnnnnnL                %,2pnnnnnnnn",
"nnnnnnnnnnnnnnnnnD&              %,mnnnnnnnnnnn",
"nnnnnnnnnnnnnnnnT>              5Dnnnnnnnnnnnnn",
"nnnnnnnnnnnnDLLL/               nnnnnnnnnnnnnnn",
"nnnnnnnnnnnnk;                  2,Xmnnnnnnnnnnn",
"nnnnnnnnnnnnnJ~          b         ,,Dnnnnnnnnn",
"nnnnnnnnnRR!$        v   vvv      +,,annnnnnnnn",
"nnnnnnnnn8t.             vvvv    ,Dnnnnnnnnnnnn",
"nnnnnnnnnnnp+.    b  vv  vvvvv qnnnnnnnnnnnnnnn",
"nnnnnnnnnnnnns    vbvv ((  vv<m8=nnnnnnnnnnnnnn",
"nnnnnnnnnnnnnE.   bvvv ((  vv=mm4nnnnnnnnnnnnnn",
"nnnnnnnnnnnnD c  h  vvvvvvvvvomnnnnnnnnnnnnnnnn",
"nnnnnnnnnnnf,  c h c vvv   v  2Dnnnnnnnnnnnnnnn",
"nnnnnnnnnJ=vv v  h cc  vvvv h c4nnnnnnnnnnnnnnn",
"nnnnnnnnnT     v h cccc    hh c<nnnnnnnnnnnnnnn",
"nnnnnnnnD=vv c   hh ccccc hh c.;Dnnnnnnnnnnnnnn",
"nnnnnnnnm.   cjJohh cccc hh c vv.mnnnnnnnnnnnnn",
"nnnnnnnnnqvbliIn- hh cc hhh  vv    &mnnnnnnnnnn",
"nnnnnnnnnnxgnnnn8      hhhh,8o v vvv Znnnnnnnnn",
"nnnnnnnnnnnnnnnnneccc     tmn, v  vv Dnnnnnnnnn",
"nnnnnnnnnnnnnnmD#    ccccc2Jnn& vvbb nnnnnnnnnn",
"nnnnnnnnnnnnnnm!           ennD vvb*Lnnnnnnnnnn",
"nnnnnnnnnnnnnnF+hhh      hh7nnnn+%5nnnnnnnnnnnn",
"nnnnnnnnnnnnn^ hhhhh    hhh>Znnnnnnnnnnnnnnnnnn",
"nnnnnnnnnnnnn! hhhh     hhhh-nnnnnnnnnnnnnnnnnn",
"nnnnnnnnnnnnJ hhhh      hhhh Dnnnnnnnnnnnnnnnnn",
"nnnnnnnnnnnnJ hhhhhh    hhhhh*nnnnnnnnnnnnnnnnn",
"nnnnnnnnnnnn hhhhhhh+nn  hhhhhqnnnnnnnnnnnnnnnn",
"nnnnnnnnnnnn hhhhhhXnnn$ hhhhh%nnnnnnnnnnnnnnnn",
"nnnnnnnnnnnn  hhhh +nnn6  hhhh >nnnnnnnnnnnnnnn",
"nnnnnnnnnnnn       *nnnF$.     $nnnnnnnnnnnnnnn",
"nnnnnnnnnnnnY     >nnnnnn:     %nnnnnnnnnnnnnnn",
"nnnnnnnnnnnn% z  7nnnnnnnt   z *nnnnnnnnnnnnnnn",
"nnnnnnnnnnnD  z  8nnnnnnnJ$   z %nnnnnnnnnnnnnn",
"nnnnnnnnnnYe z   unnnnnnnnn:  z  Znnnnnnnnnnnnn",
"nnnnnnnnnn!  z   nnnnnnnnnD.   z rnnnnnnnnnnnnn",
"nnnnnnnnnnIstrrr5nnnnnnnnnnn,,,:>0nnnnnnnnnnnnn"
};
