/* XPM */
static char *_14b03b1850943ac87d046861a8f7535JSWrZs0DyAgvyND5[] = {
/* columns rows colors chars-per-pixel */
"47 47 8 1 ",
"  c None",
". c gray20",
"X c #FF6600",
"o c #FFC600",
"O c #0050C8",
"+ c #F3C598",
"@ c gray95",
"# c gray97",
/* pixels */
"                                               ",
"                                               ",
"                                               ",
"                                        .      ",
"                             ......     .      ",
"                        .............   ..     ",
"                    ..................  ..     ",
"                      ................. ...    ",
"                         .............. ...    ",
"                           .................   ",
"                            ................   ",
"                           ................    ",
"                          ................     ",
"                          ........+......      ",
"                    .............++......      ",
"                       ..........+....+..      ",
"                    .........+.++...+++...     ",
"                .............++++.@.+++...     ",
"                   ..........++++.@@.+....     ",
"                   .+++.......+++.@@.+.        ",
"                   ............++++@.+.        ",
"                   .++.O...X..+++++++++.       ",
"                   .+++...XXXX...+++++.        ",
"                    .......XXXXXX.++..         ",
"                       ..X...XXX.O..     ...   ",
"                       ...XXXXX.OOO.    .++.   ",
"                       ....XXXX.OO.+..  .+.... ",
"                       .OO..XXX.O.++++...++++. ",
"                       ...OO..XX...++++OO+++.  ",
"                       .....OO...##..++OO+++.  ",
"                      ...XX...OO....#.......   ",
"                     ...XXXX....XXXX.          ",
"                    ...XXXX....XXXXXX.         ",
"                   ...XXXX.......XXXX.         ",
"                  ...XXXX.X...XXXXXXX.         ",
"                 ...XXXXXX........XXX.         ",
"                 ...XXXXX.........XX.          ",
"                .....XXX.#..........           ",
"                ........ ...o.....             ",
"               ........  ..o.                  ",
"               ...o..    ...                   ",
"              ...o..     ..                    ",
"              ..o..                            ",
"              ...                              ",
"                                               ",
"                                               ",
"                                               "
};
