/* XPM */
static char *e46655e809d5417b85a12f5a3f74f6bcgI19Y0YZA7eU238V[] = {
/* columns rows colors chars-per-pixel */
"47 47 151 2 ",
"   c None",
".  c #333333",
"X  c #393433",
"o  c #443534",
"O  c #4A3433",
"+  c #4D3835",
"@  c #4B3C39",
"#  c #533432",
"$  c #5A3332",
"%  c #533835",
"&  c #583B36",
"*  c #563D39",
"=  c #583F3C",
"-  c #7E2E2E",
";  c #663030",
":  c #603B35",
">  c #713A34",
",  c #57413D",
"<  c #5A433E",
"1  c #61433D",
"2  c #6C413C",
"3  c #454140",
"4  c #484343",
"5  c #574846",
"6  c #674741",
"7  c #704642",
"8  c #704942",
"9  c #7A4F45",
"0  c #8C322C",
"q  c #853730",
"w  c #FF0100",
"e  c #FF0B00",
"r  c #FF1400",
"t  c #FF1B00",
"y  c #FF1F0C",
"u  c #FF1B1B",
"i  c #FF2400",
"p  c #FF2B00",
"a  c #FF3300",
"s  c #FF3D01",
"d  c #FF370B",
"f  c #FF3A0D",
"g  c #FF2B1B",
"h  c #FF3A14",
"j  c #FF351B",
"k  c #FF3C1A",
"l  c #FF3D24",
"z  c #FF3533",
"x  c #954A3F",
"c  c OrangeRed",
"v  c #FF4B00",
"b  c #FF4515",
"n  c #FF401C",
"m  c #FF541B",
"M  c #FF5A1D",
"N  c #FF6600",
"B  c #FF4526",
"V  c #FF4229",
"C  c #FF492E",
"Z  c #FF5026",
"A  c #FF4730",
"S  c #FF4C33",
"D  c #FF4E3D",
"F  c #FF5035",
"G  c #FF5F30",
"H  c #FF543C",
"J  c #FF5938",
"K  c #FF6332",
"L  c #FF653D",
"P  c #FF6B3E",
"I  c #8D4F45",
"U  c #8F5C51",
"Y  c #AD6051",
"T  c #947D7A",
"R  c #FF5343",
"E  c #FE5649",
"W  c #FE5B4A",
"Q  c #FF6643",
"!  c #FF6E46",
"~  c #FF654B",
"^  c #FF724D",
"/  c #FE6556",
"(  c #FF6A53",
")  c #FE665A",
"_  c #FE685E",
"`  c #FF7553",
"'  c #FF7954",
"]  c #FF735B",
"[  c #FF7D5E",
"{  c #FE6161",
"}  c #FE6E64",
"|  c #FE7564",
" . c #FF7B63",
".. c #FE736A",
"X. c #FF7F69",
"o. c #FD7C77",
"O. c #FFC600",
"+. c #FF8264",
"@. c #FF8967",
"#. c #FF846C",
"$. c #FF886E",
"%. c #FF8D74",
"&. c #FD847C",
"*. c #FE8C79",
"=. c #FF9276",
"-. c #FF947B",
";. c #FF987D",
":. c #0050C8",
">. c #FD8D85",
",. c #FE9684",
"<. c #FF9C83",
"1. c #FE9D89",
"2. c #FD9792",
"3. c #FD9B92",
"4. c #FC9F9A",
"5. c #FFA087",
"6. c #FFA289",
"7. c #FDA293",
"8. c #FEA995",
"9. c #FCA39C",
"0. c #FDAA9C",
"q. c #FCA6A2",
"w. c #FCACA5",
"e. c #FCADA9",
"r. c #FDB2A5",
"t. c #FCB5AC",
"y. c #FBB7B3",
"u. c #FCBCB3",
"i. c #FBBEBB",
"p. c #F4C295",
"a. c #F3C598",
"s. c #FCC4BD",
"d. c #FAC6C4",
"f. c #FBCBC4",
"g. c #FACECB",
"h. c #FAD1CE",
"j. c #FAD5D1",
"k. c #F3D9D6",
"l. c #FAD9D5",
"z. c #F9DDDB",
"x. c #F9E1DE",
"c. c #F9E0DE",
"v. c #F9E4E3",
"b. c #F8E7E5",
"n. c #F8E3E2",
"m. c #F8EEED",
"M. c #F8F0EE",
"N. c gray95",
"B. c #F7F5F5",
"V. c #F7F6F6",
"C. c #F6FFFF",
/* pixels */
"                                                                                              ",
"                     .        X.. . . . .     g.      z.      +.         .                    ",
"                    f       s.H     . . . . . u r.    Z       R s.      f                     ",
"                    w l.    ) t z.    + . . . O r   t.R     z.t /     l.w                     ",
"          $.    3.  w v   f.a a c   d.$ X . . . . q.>.s d.  v a a f.  v w   3.    $.          ",
"          R     w z.w i L y.X # ; c.w.l . . . . . / s p w.z.w H i y.K i w z.w     R           ",
"          w j.  3.s a A # . . . . o b g . . . . . . k t c w C 6.i c p a a s 3.  l.w           ",
"          v R   d.i D o . . . . . . $ ,.. . . . . . z *.i e =.<.i a a a a i d.  R v           ",
"          M p V l.W . . . . . . . . . . . . . . . . -.<.w ,.^ <.i a a a a s j.V p M           ",
"            w a w.X . . . . . . . . . . . . . . . . 0.;. .-.v.-.i h 6.r a ) q.a w             ",
"  l.      v.e a - $ $ O . . . . . . . . . . . . . . . . r.  l.;.i $.1.t a p w a e v.      l.  ",
"  9.0.      >.a ( h a z < o . . . . . . . . . . . . . . .   l.=.%.' 6.r a k ( a >.      0.4.  ",
"  9.h       4.a p <.e a k +.: . . . . . . . . . . . . . . . x.;.! ' n a e <.p a 4.      h 9.  ",
"  9.a 2.  ,.i.a a w <.a h @.  . . . . . . . . . . . . . . . b.=.  1.W a <.w a p u.,.  3.a 9.  ",
"  j.a e p h.d.p a p *. .X = . . . . . . . . . . . . . . . . . . X % I ] =.p a p d.j.p e a j.  ",
"    i a p S #.p p R # * . . . . . . . . . a.. . . . . . . . . . d.+.$.@.H p p a o.A p a i     ",
"    K p a a f a ] q $ * . . . . . . . a.a.a.. . . a.. . . . . . . . o r.o.&. .a f p a p K     ",
"      w a d f a t <.=.p  .5 . . . . a.a.a.a.. . . . . . . . . . . . . X 8 6 y a h d a w       ",
"      w a S  .p p #.+.-.=.0.  . . a.a.a.a.a.. . a.a.. . a.. . . . . o 9 @.+.p i  .F a w       ",
"      9.p p %. .r w <.u.f.a . .   . a.a.. . N.N.. a.a.a.a.. . . . 0 f.u.1.w r X.%.p p 9.      ",
"      g.a a k 5.] r ~ =.    .     . a.a.. . N.N.. a.a.a.a.. . . .     %.~ r ] 1.k a a g.      ",
"        } a t 1.1.6.F '           . a.a.a.a.a.a.a.a.a.. . N . . :..   ' F 5.5.1.t a }         ",
"    z.  r.r a i <.` =.#.P       . . . a.. . . a.a.a.. :.. N . :.. . & I -.` <.i a r t.  z.    ",
"    e.l.C.w a a ] %.` m =.c.  . :.. N . a.a.a.a.. . :.:.. N . . a.. a.a.+ 6.] a a w C.l.e.    ",
"      w B.g.w a k 6.-.m.P u.  . :.. N N . . . . :.:.:.:.. N . a.. . . . . r.k a w g.B.w       ",
"      d.w M.s a p p -.z.  s.  . . :.. N N . :.:.:.:.:.. N N . . . :.. a.a.# D a s M.w d.      ",
"      l.k _ 4.f $.i =.f.    . a.a.. :.. N N . :.:.:.:.. N N .   . :.. . . . %.f 4._ n l.      ",
"        i.w t a ] X.j + . . . . a.a.. . N N N . :.:.. N N . .     . T p.a.2 ] a t w i.        ",
"          i a a B 1.. a.a.a.. a.. . . . N N N N . . . . . . .       ^ U Y <.B a p i           ",
"          z.w a i 1.. a.a.. . a.. .     . . . . . . :.:.:..       s.<.=.-.<.i a w z.          ",
"  i.        9.a a z X a.a.a.a.. .       . :.:.:.:.:.. . . . .     f.` @.5.w a a q.        i.  ",
"  d.v s.d.c.l.i a ( _ @ a.a.a..       . . . . . . . . . . . .   k.w.` 5.p ( p i l.z.d.s.v d.  ",
"    c ..l ~ t.Q i ( %./ 1 , .         . N N . . . . . . N N N .   z.-.( %.( i Q t.~ l ..c     ",
"      w a a a n a p ~ <.1.u.          . N N N . . . . N N N N N . j.1.<.~ p a n a a a w       ",
"      g.p a h a a a p $.` P         . N N N N . . . . . N N N N . 1.` @.p a a p h a p g.      ",
"        | p X.~ F p p w =.u.7.      . N N N N . . . . . . N N N N . 1.w p p S ~ X.p |         ",
"        l.p r  .;.X.] r w  .u.    . N N N N N . . . . N N N N N N . { r _ +.<. .r p j.        ",
"          h.w p +.+.6.-.=.e =.r.. N N N N N . .     . N N N N N N N . =.6.+.+.p w j.          ",
"            4.a i ,.^ ^ 5.1.1.=.4 N N N N N . .       . N N N N N N . ` ` ,.i a 4.            ",
"              a a w =.+.^ ! ,., . N N N N . . .       . . N N N N . . +.=.w a a               ",
"          f.  d.e i  . .%.1.s.. . . . . . . .         . . . . . . . .  .| p e d.  f.          ",
"          g.c.1.f.p ( F ~ 1.c.. . . . . . .             . . . . . . >.F ( p f.1.n.f.          ",
"            >.B.q.8.*.%.i J ^ . . O.. . . .               . . . O.. O %.%.8.q.V.>.            ",
"              $.j.n./ ~ <.%.+ . O.. . . .                 . . . O.. . | / b.g.$.              ",
"                  q.g.*.a 8.. . O.. . .                   . . . . O.. 7 l.q.                  ",
"                    l.n.l.> . O.. . . .                     . . . O.. . n.                    ",
"                          . . . . . .                       . . . . . .                       "
};
