/* XPM */
static char *ce2bb8bbe3a449a8e431790affb74e21dKkzSJuX2SNvGAqn[] = {
/* columns rows colors chars-per-pixel */
"47 47 8 1 ",
"  c None",
". c gray20",
"X c #FF6600",
"o c #FFC600",
"O c #0050C8",
"+ c #F3C598",
"@ c gray95",
"# c gray97",
/* pixels */
"                                               ",
"                                               ",
"                                               ",
"      .                                        ",
"      .     ......                             ",
"     ..   .............                        ",
"     ..  ..................                    ",
"    ... .................                      ",
"    ... ..............                         ",
"   .................                           ",
"   ................                            ",
"    ................                           ",
"     ................                          ",
"      ......+........                          ",
"      ......++.............                    ",
"      ..+....+..........                       ",
"     ...+++...++.+.........                    ",
"     ...+++.@.++++.............                ",
"     ....+.@@.++++..........                   ",
"        .+.@@.+++.......+++.                   ",
"        .+.@++++............                   ",
"       .+++++++++..X...O.++.                   ",
"        .+++++...XXXX...+++.                   ",
"         ..++.XXXXXX.......                    ",
"   ...     ..O.XXX...X..                       ",
"   .++.    .OOO.XXXXX...                       ",
" ....+.  ..+.OO.XXXX....                       ",
" .++++...++++.O.XXX..OO.                       ",
"  .+++OO++++...XX..OO...                       ",
"  .+++OO++..##...OO.....                       ",
"   .......#....OO...XX...                      ",
"          .XXXX....XXXX...                     ",
"         .XXXXXX....XXXX...                    ",
"         .XXXX.......XXXX...                   ",
"         .XXXXXXX...X.XXXX...                  ",
"         .XXX........XXXXXX...                 ",
"          .XX.........XXXXX...                 ",
"           ..........#.XXX.....                ",
"             .....o... ........                ",
"                  .o..  ........               ",
"                   ...    ..o...               ",
"                    ..     ..o...              ",
"                            ..o..              ",
"                              ...              ",
"                                               ",
"                                               ",
"                                               "
};
