/* XPM */
static char *_0c4f2981f1e4bf4b478f969dce03828lDfMtVLUgE0q3AMO[] = {
/* columns rows colors chars-per-pixel */
"47 47 8 1 ",
"  c None",
". c gray20",
"X c gray40",
"o c #FF6600",
"O c #FFC600",
"+ c #FF9966",
"@ c #0050C8",
"# c #F3C598",
/* pixels */
"                  ....                         ",
"                   .....                       ",
"                    .....                      ",
"                    ......                     ",
"               ...   .X...                     ",
"             ..XXX.  .XX...                    ",
"            .XXXXXX. .XXX..                    ",
"           .XXXXXX.X..XXX..                    ",
"          .X...XXXX...XX...                    ",
"         ........XX..........                  ",
"             .................                 ",
"               .....X..XX......                ",
"                 ..XX..XX......                ",
"             ......X...X............           ",
"           ..XX...X...#..........              ",
"          ......#...###..#..........           ",
"              .....####...#............        ",
"             ..###.###.#####.........          ",
"            ..##...##....###@@##...            ",
"           .@.####.##..#####@@####.            ",
"           .@..##..####..##.....##.            ",
"            ..#.....#...#....@.###.            ",
"              ..##.@.####....@.##.             ",
"                ..@@.....@@.o.@..              ",
"                  ..o.@@@@@.oo..               ",
"                    ..@@@@.+oo.                ",
"                    .+.@@.+o+o.                ",
"                    .o+..+++...                ",
"                     ........@.                ",
"                     .@@@@@@@...               ",
"                   .............               ",
"                 ..+o.o....+....               ",
"                .++o.o....+.o...               ",
"               .++ooo......+o....              ",
"              .++oo.......+++o...              ",
"              .+oo...... .+++oo..              ",
"              .o.......  .o++oo...             ",
"               ........  ..ooo....             ",
"                ......    ........             ",
"                .O....    .......              ",
"                .O....     ......              ",
"               .O.....     ...O..              ",
"              .O.....      ...O...             ",
"              .....         ...O..             ",
"                            ...O..             ",
"                            ......             ",
"                                               "
};
