/* XPM */
static char *_be254cebeae4faae7a249c7893f916a0DYlELgFK16NFA9e[] = {
/* columns rows colors chars-per-pixel */
"47 47 11 1 ",
"  c None",
". c gray20",
"X c #434343",
"o c #CC2900",
"O c #FF6600",
"+ c #FFC600",
"@ c #0050C8",
"# c #898989",
"$ c #F3C598",
"% c gray95",
"& c gray97",
/* pixels */
"                      ..X#                     ",
"                    ......                     ",
"                  ........                     ",
"                  .......                      ",
"              .   ......                       ",
"             .    ......   ...                 ",
"            ..   .......  .....                ",
"            ..   ....... .......               ",
"           ....  ............. ..              ",
"           ..... .......$....    .             ",
"           ..........$$$$$$.                   ",
"           ........$$$$$.....                  ",
"            .......$$$$.%%%.$.                 ",
"            ......$$$$$.....$.                 ",
"             .......$$$.....$.                 ",
"              .....$$$$.oo..$.                 ",
"               ...$..$$$.oo.$.                 ",
"                 .$$.$$$$...$.                 ",
"                 ...$$$$$$$$.                  ",
"                ......$$$$$$.                  ",
"               .........$$$$..                 ",
"               ....OO..@....@..                ",
"              ..  ..OOO.@@@@@@.                ",
"             .   .@@.OOO.@@@@@..               ",
"           .    ...@.OOOO.@@@@..   .           ",
"          .$.   .$$..OO.OO..@.O.  .$.          ",
"          .$.. .$$$..O..OOOO..O....$..         ",
"         ..$$..@$$. ......OOOOO.@.$$.$.        ",
"        .$..$.@@@.   ..........@@...$..        ",
"        .$.$.$.@.     .@@@@@@@@.@.$.$.         ",
"         ..$.$..     .............$..          ",
"           ...       ..O.O....O.&..            ",
"                    ..O.OOO...OO.              ",
"                   ....OOOO...OO.              ",
"                   ....OOOO..OOO.              ",
"                  ....OOOO..OOOO.              ",
"                 ...OOOOO....OOO.              ",
"                 ..OOOOO....O.OO.              ",
"                ...OOOOOO....OOO.              ",
"                ...OOOOO......O.               ",
"               .....OOO.  .....                ",
"              .........   ...+..               ",
"             ...+.....    ....+.               ",
"            ...+...        .....               ",
"            ..+...          ....               ",
"            .....                              ",
"                                               "
};
