/* XPM */
static char *c2b6ad4817b744de9d66934c8a6dc262T6H8ruJzuJjFV9Uq[] = {
/* columns rows colors chars-per-pixel */
"47 47 127 2 ",
"   c None",
".  c gray20",
"X  c #434343",
"o  c #FF0100",
"O  c #FF0A00",
"+  c #FF1500",
"@  c #FF1B00",
"#  c #CC2900",
"$  c #FF2400",
"%  c #FF2B00",
"&  c #FF3300",
"*  c #FF3C01",
"=  c #FF370B",
"-  c #FF3A0D",
";  c #FF3A14",
":  c #FF3C19",
">  c #FF3E24",
",  c #FF4600",
"<  c #FF4B00",
"1  c #FF401B",
"2  c #FF541B",
"3  c #FF5A1D",
"4  c #FF6600",
"5  c #FF4425",
"6  c #FF4229",
"7  c #FF492E",
"8  c #FF5026",
"9  c #FF4C33",
"0  c #FF5035",
"q  c #FF5F30",
"w  c #FF543C",
"e  c #FF5939",
"r  c #FF6332",
"t  c #FF6B3E",
"y  c #FF5343",
"u  c #FE5649",
"i  c #FF6643",
"p  c #FF6E45",
"a  c #FF644B",
"s  c #FF7047",
"d  c #FF724D",
"f  c #FF6657",
"g  c #FF6B53",
"h  c #FE665A",
"j  c #FE685E",
"k  c #FF7653",
"l  c #FF7954",
"z  c #FF735B",
"x  c #FF7C5C",
"c  c #FE6E64",
"v  c #FE7565",
"b  c #FF7B63",
"n  c #FE736A",
"m  c #FF7F69",
"M  c #FFC600",
"N  c #FF8264",
"B  c #FF8967",
"V  c #FF846D",
"C  c #FF896B",
"Z  c #FF8E74",
"A  c #FE8978",
"S  c #FF9276",
"D  c #FF937A",
"F  c #FF987D",
"G  c #0050C8",
"H  c #898989",
"J  c #FD8D86",
"K  c #FE9583",
"L  c #FF9C83",
"P  c #FD9C89",
"I  c #FD9792",
"U  c #FD9C92",
"Y  c #FC9F9A",
"T  c #FFA087",
"R  c #FFA289",
"E  c #FDA293",
"W  c #FEA995",
"Q  c #FCA39D",
"!  c #FDA99B",
"~  c #FCA5A2",
"^  c #FCABA6",
"/  c #FCAEAA",
"(  c #FCB4A6",
")  c #FCB4AB",
"_  c #FBB6B2",
"`  c #FCBCB3",
"'  c #FBBEBB",
"]  c #F3C598",
"[  c #FBC3BD",
"{  c #FAC6C4",
"}  c #FBCBC4",
"|  c #FACECB",
" . c #FAD2CF",
".. c #FAD1CC",
"X. c #FAD0D0",
"o. c #FAD6D0",
"O. c #FAD7D2",
"+. c #FAD6D3",
"@. c #FAD7D2",
"#. c #FAD8D2",
"$. c #FAD9D4",
"%. c #FAD9D5",
"&. c #FADAD5",
"*. c #F9D8D6",
"=. c #F9DAD6",
"-. c #F9DBD6",
";. c #F9DBD7",
":. c #F9DBDA",
">. c #F9DCD8",
",. c #F9DDDC",
"<. c #F9DFDC",
"1. c #F9DFDE",
"2. c #F9DFDB",
"3. c #F9E0DC",
"4. c #F9E0DD",
"5. c #FFE0DC",
"6. c #F9E0DF",
"7. c #F9E4E3",
"8. c #F8E6E4",
"9. c #F9E2E2",
"0. c #F8EEED",
"q. c #F8F0EE",
"w. c gray95",
"e. c #F7F5F5",
"r. c gray97",
"t. c #F7F6F6",
"y. c #F6FFFF",
/* pixels */
"                                                                                              ",
"                    b         m       =.    . . X H   =.      N         b                     ",
"                    -       [ w       8 . . . . . .   8       y [       -                     ",
"                    o =.    h @ :.  . . . . . . . . ) u     :.@ f     =.o                     ",
"          V     U   o ,   } & & ,   . . . . . . . ! J * {   , & & }   , o   U     C           ",
"          y     o >.o $ r _ . w o 6.. . . . . . : * * % ^ <.o w $ _ r $ o :.o     y           ",
"          o $.  U * & & % . $ R 7 o . . . . . . b $ & . . . 7 R $ , % & & * U   $.o           ",
"          < y   { $ & & . . $ L D . . . . . . . R o . . . . . L $ & & & & $ {   y ,           ",
"          3 % 6 #.* & & . . $ F d . . . . . . . N . . . . . . . $ & & & & * O.6 % 3           ",
"            o & ~ h & . . . . F 7.. . . . . . . . . . . . . 8.. . ; R + & h ~ & o             ",
"  #.      7.O & o % & . . . . . =.. . . . . . . ] . . . .   :.F $ . P @ & % o & O 7.      =.  ",
"  Q !       J & g ; & . . . . . . . . . . ] ] ] ] ] ] .     =.S Z l R + & : g & J       ! Y   ",
"  Q ;       Y & % L O . . . . . . . . ] ] ] ] ] . . . . .   5.Z p l 1 & O L % & Y       ; Q   ",
"  Q & I   K ' % & o L & . . . . . . . ] ] ] ] . w.w.w.. ] .       C ; & P o & % ` K   U & Q   ",
"  O.& O % X.{ % & $ D z . . . . . . ] ] ] ] ] . . . . . ] .       K g z Z % & % { X.% O & O.  ",
"    $ & % 9 V & % & w V C . . . . . . . ] ] ] . . . . . ] .         x C w & % & m 9 % & $     ",
"    r % & & = & z 5 $ Z x ... . . . . ] ] ] ] . # # . . ] .           N % 5 z & = & & % r     ",
"      o & = ; & @ F F $ x `   . . . ] . . ] ] ] . # # . ] .       _ s % D F @ & ; = & o       ",
"      o & 9 b % % V B F Z !       . ] ] . ] ] ] ] . . . ] .       ! Z F B V $ % b 9 & o       ",
"      Q % % Z b + o L ` } %       . . . ] ] ] ] ] ] ] ] .         & } _ L o + b Z % % Q       ",
"      | & & : T z + a S     Z   . . . . . . ] ] ] ] ] ] .             S a + z P : & & |       ",
"        c & @ P P R 9 l       . . . . . . . . . ] ] ] ] . .           l 9 R R L @ & c         ",
"    :.  ) + & $ L k D N i     . . . . 4 4 . . G . . . . G . .       i m D l L $ & + )   :.    ",
"    / =.y.o & & g D l 2 S <.. .     . . 4 4 4 . G G G G G G .     6.S 2 l S z & & o y.=./     ",
"      o e.| o & : R K 0.t .       . G G . 4 4 4 . G G G G G . .   ` t q.D R : & o | e.o       ",
"      { o q.* & % % F .   [     . . . G . 4 4 4 4 . G G G G . .   [   . F % & & * q.o {       ",
"      =.1 j Y = V $ . ] .       . ] ] . . 4 4 . 4 4 . . G . 4 .     . ] . $ V = Y j 1 =.      ",
"        ' o @ & x b . ] . .   . ] ] ] . . 4 . . 4 4 4 4 . . 4 . . . . ] . . z & @ o '         ",
"          @ & & 5 . . ] ] . . G ] ] .   . . . . . . 4 4 4 4 4 . G . ] ] . ] . & & @           ",
"          <.o & . ] . . ] . G G G .       . . . . . . . . . . G G . . . ] . . & o <.          ",
"  [         Q & . ] . ] . ] . G .           . G G G G G G G G . G . ] . ] . & & Q         [   ",
"  { , [ { :.=.% % . . ] . ] . .           . . . . . . . . . . . . . ] . . g % $ =.<.{ [ , {   ",
"    , n 5 a _ i % g Z . . .               . . 4 . 4 . . . . 4 . e.. . g Z g $ i ) a > n ,     ",
"      o & & % 1 & % a P P [             . . 4 . 4 4 4 . . . 4 4 . ` T P a % & 1 & & & o       ",
"      | % & ; & & & % V l t           . . . . 4 4 4 4 . . . 4 4 . t k V % & & % ; & % |       ",
"        v % b a 9 % % o Z ` E         . . . . 4 4 4 4 . . 4 4 4 . ` S o % % 9 a m % v         ",
"        O.% + b L b z + o b `       . . . . 4 4 4 4 . . 4 4 4 4 . x o + z b L b + % O.        ",
"          X.o % N N P F Z O Z )   . . . 4 4 4 4 4 . . . . 4 4 4 . O Z F R N N % o X.          ",
"            Y & $ K d d T L L (   . . 4 4 4 4 4 . . . . 4 . 4 4 . P L d d K $ & Y             ",
"              & & o S N d p P ) . . . 4 4 4 4 4 4 . . . . 4 4 4 . p d N D o & &               ",
"          }   } O $ z b Z P {   . . . 4 4 4 4 4 . . . . . . 4 . { R Z b b % O {   }           ",
"          } 6.P } % g w a P 3.. . . . . 4 4 4 .     . . . . .   :.P a w g % { P 9.}           ",
"            J r.^ W Z Z $ e . . . . . . . . .       . . . M . . d e $ V Z W ^ e.J             ",
"              V | 7.h a L . . . M . . . . .         . . . . M . F C L a f 7...V               ",
"                  ~ | A . . . M . . .                 . . . . . | E & A ..~                   ",
"                    =.9.. . M . . .                     . . . . ..e O.9.=.                    ",
"                        . . . . .                                                             "
};
