/* XPM */
static char *_c23b49aa21a4e77e477bd9192f96ba3HPTsEhkT8QlRXrOo[] = {
/* columns rows colors chars-per-pixel */
"47 47 8 1 ",
"  c None",
". c gray20",
"X c gray40",
"o c #FF6600",
"O c #FFC600",
"+ c #FF9966",
"@ c #0050C8",
"# c #F3C598",
/* pixels */
"                         ....                  ",
"                       .....                   ",
"                      .....                    ",
"                     ......                    ",
"                     ...X.   ...               ",
"                    ...XX.  .XXX..             ",
"                    ..XXX. .XXXXXX.            ",
"                    ..XXX..X.XXXXXX.           ",
"                    ...XX...XXXX...X.          ",
"                  ..........XX........         ",
"                 .................             ",
"                ......XX..X.....               ",
"                ......XX..XX..                 ",
"           ............X...X......             ",
"              ..........#...X...XX..           ",
"           ..........#..###...#......          ",
"        ............#...####.....              ",
"          .........#####.###.###..             ",
"            ...##@@###....##...##..            ",
"            .####@@#####..##.####.@.           ",
"            .##.....##..####..##..@.           ",
"            .###.@....#...#.....#..            ",
"             .##.@....####.@.##..              ",
"              ..@.o.@@.....@@..                ",
"               ..oo.@@@@@.o..                  ",
"                .oo+.@@@@..                    ",
"                .o+o+.@@.+.                    ",
"                ...+++..+o.                    ",
"                .@........                     ",
"               ...@@@@@@@.                     ",
"               .............                   ",
"               ....+....o.o+..                 ",
"               ...o.+....o.o++.                ",
"              ....o+......ooo++.               ",
"              ...o+++.......oo++.              ",
"              ..oo+++. ......oo+.              ",
"             ...oo++o.  .......o.              ",
"             ....ooo..  ........               ",
"             ........    ......                ",
"              .......    ....O.                ",
"              ......     ....O.                ",
"              ..O...     .....O.               ",
"             ...O...      .....O.              ",
"             ..O...         .....              ",
"             ..O...                            ",
"             ......                            ",
"                                               "
};
