/* XPM */
static char *result[] = {
/* columns rows colors chars-per-pixel */
"47 47 93 2 ",
"   c gray20",
".  c #434343",
"X  c #FF0100",
"o  c #FF1100",
"O  c #FF1D00",
"+  c #CC2900",
"@  c #FF2600",
"#  c #FF2A00",
"$  c #FF3100",
"%  c #FF3E00",
"&  c #FF3E0C",
"*  c #FF3F17",
"=  c #FF4400",
"-  c #FF4C00",
";  c #FF4310",
":  c #FF421B",
">  c #FF6600",
",  c #FF4B25",
"<  c #FF432D",
"1  c #FF5025",
"2  c #FF5C25",
"3  c #FF542D",
"4  c #FF5D2F",
"5  c #FF5E34",
"6  c #FF5E38",
"7  c #FF623B",
"8  c #FF5C4B",
"9  c #FF6446",
"0  c #FF6A44",
"q  c #FF644A",
"w  c #FF6D4A",
"e  c #FF724E",
"r  c #FE6153",
"t  c #FE675C",
"y  c #FE6F5C",
"u  c #FF7654",
"i  c #FF7857",
"p  c #FF7758",
"a  c #FF7B5B",
"s  c #FE7566",
"d  c #FF7C63",
"f  c #FE716B",
"g  c #FE7B6C",
"h  c #FE7770",
"j  c #FD7C74",
"k  c #FFC600",
"l  c #FF8163",
"z  c #FF866A",
"x  c #FF8B6E",
"c  c #FF8D73",
"v  c #FE8879",
"b  c #FF9275",
"n  c #FF957B",
"m  c #FF997E",
"M  c #0050C8",
"N  c #898989",
"B  c #FD8680",
"V  c #FD8A85",
"C  c #FF9E84",
"Z  c #FD948F",
"A  c #FE9C89",
"S  c #FC9592",
"D  c #FFA087",
"F  c #FFA289",
"G  c #FFA591",
"H  c #FEA994",
"J  c #FDA19E",
"K  c #FEAD99",
"L  c #FCAAA4",
"P  c #FBADAB",
"I  c #FEB3A3",
"U  c #FCB1AA",
"Y  c #FDBBAE",
"T  c #FBB7B4",
"R  c #FCB9B7",
"E  c #FBBDBB",
"W  c #F3C598",
"Q  c #FCC0B4",
"!  c #FCC3BA",
"~  c #FCC8BD",
"^  c #FAC6C5",
"/  c #FBCAC3",
"(  c #FACCCA",
")  c #FBD3CE",
"_  c #F9D4D3",
"`  c #FADBD4",
"'  c #FADBD9",
"]  c #FAE3DE",
"[  c #F9E4E2",
"{  c #F8EBEA",
"}  c #F5F5F5",
"|  c #F6FFFF",
" . c None",
/* pixels */
" . . . . . . . . . . . . . . . . . . . . . . . . . . . . . . . . . . . . . . . . . . . . . . .",
" . . . . . . . . . .s  . . . .g  . . ._  .    . N  . ._  . . .g  . . . .s  . . . . . . . . . .",
" . . . . . . . . . .n [  . .P A [  . .             . .d  . .[ A P  . .[ C  . . . . . . . . . .",
" . . . . . . . . . .x ]  . .F C [                  .S K  . .[ m F  . .[ x  . . . . . . . . . .",
" . . . . .r  . .Q  .n -  .E n D %               D V R n R  .% D n E  .= n  .Q  . .r  . . . . .",
" . . . . .G  . .- _ n G ;   C n m             0 C b c C ! [ m m C / ; F n _ -  . .G  . . . . .",
" . . . . .x `  .L w F C   l D u C             3 z D       n C u D l D C F e L  .` x  . . . . .",
" . . . . ., H  .` C C     F D 9               X e           w 0 D D C C C D `  .G 1  . . . . .",
" . . . . .# F F ^ n C     C D 0                .              9 D C C C C n ( A F #  . . . . .",
" . . . . . .m D ~ K         D 5                           g     D C u D C K ~ C m  . . . . . .",
" .)  . . .[ z C m C           5               W         q  ._ 5   u u F C C m C z [  . . .)  .",
" .Y V  . . .I C b C                     W W W W W W   X  . ._ 7 l # w D C C b C I  . . .V Y  .",
" .~ C  . . .Q D D i                 W W W W W            . .' 2 o O C C F i C C ~  . . .C ~  .",
" .Q C Q  .h L D C F i               W W W W   } } }   W    . . . .% C C i D C D L h  .Q C Q  .",
" .^ C C - [ ' C C D l             W W W W W           W    . . . .v b a l D C C ' [ - C C ^  .",
" . .F C F F v D D C m &               W W W           W    . . . . .$ : m D D D v F D C F  . .",
" . .@ F C C C C c C D d <           W W W W   + +     W    . . . . . .0 D C c C m C C F @  . .",
" . . .b C C C C F i a F $ P       W     W W W   + +   W    . . . .P X F a i F C C D D b  . . .",
" . . .l C C x C C x , 4 7 Z  . .  W W   W W W W       W    . . . .S 5 5 , z D D x C D l  . . .",
" . . .P C C l x D F 7 P ! X  . .      W W W W W W W W    . . . . .X ! P 7 D D x d C C I  . . .",
" . . .^ n C C u c F b q  . .t             W W W W W W    . . . . . . .8 b D c u C C n ^  . . .",
" . . . .K C C u u e C O  . .                  W W W W      . . . . . .O C e u u F C K  . . . .",
" . .[  .S D C F a # u b X  .        > >     M         M      . . . .X b i $ i D C D S  .[  . .",
" . ./ ] | 4 D C n 6 @ 6 9      . .    > > >   M M M M M M    . . .' 9 6 @ 7 b C D 4 | ] /  . .",
" . . .b } ) C C C i f {   P  . .  M M   > > >   M M M M M      . .P X { f i C C C ) } b  . . .",
" . . .` n { i C C C   _  .T  .      M   > > > >   M M M M      . .T   _ 7 A D C i { n `  . . .",
" . . .( n K ~ C z   W    . . .  W W     > >   > >     M   >    . .  W   0 F z C ~ K n )  . . .",
" . . . .) C m C c   W      .  W W W     >     > > > >     >         W     x c C C m )  . . . .",
" . . . . .% F C     W W     M W W    .            > > > > >   M   W W   W   C C C %  . . . . .",
" . . . . .[ n   W     W   M M M    . . .                    M M       W     D C n [  . . . . .",
" .)  . . . .Q   W   W   W   M    . . . . .  M M M M M M M M   M   W   W   F C C Q  . . . .)  .",
" .' 3 ` ' ` ^ D     W   W      . . . . .                          W     C b D F ^ _ ` ` 3 `  .",
" . .3 I F d ~ 8 F b       ' '  . . . . .    >   >         >   }     w n l n F q ! s D I 4  . .",
" . . .x C C C n D C n u u U  . . . . .    >   > > >       > >    .R u u n D C n C C C b  . . .",
" . . .] C C C C C C C x $ X  . . . .        > > > >       > >    .X # x C C C C C C C '  . . .",
" . . . .A F z n C C C F l L V  . . .        > > > >     > > >   V L l F C C C n z F A  . . . .",
" . . . .( 7 F c i x c D F 0 P  . .        > > > >     > > > >   P 0 F F b x i x F 7 (  . . . .",
" . . . . .` n C x : a l d F 0 J       > > > > >         > > >   0 F a l a : c C n _  . . . . .",
" . . . . . .! C D a # # i i i G     > > > > >         >   > >   i u i # # a F C ~  . . . . . .",
" . . . . . . .x F F p : @ X j       > > > > > >         > > >   j X # : u F F x  . . . . . . .",
" . . . . .E  .R a F c b 3 v R       > > > > >             >    .R B 3 b c C a T  .E  . . . . .",
" . . . . .(  .j ! C c C n y           > > >    . .           . .' y n m b C E v  .(  . . . . .",
" . . . . . .Y } ~ c l l A                    . . .      k      .O s D l l v / } Y  . . . . . .",
" . . . . . . .8 ] { F b       k            . . . .        k   V s 1 i b F { ] 8  . . . . . . .",
" . . . . . . . . .~ (       k        . . . . . . . .           .^ A a C ^ ~  . . . . . . . . .",
" . . . . . . . . . ._     k        . . . . . . . . . .        P ( z (  ._  . . . . . . . . . .",
" . . . . . . . . . . .           . . . . . . . . . . . . . . . . . . . . . . . . . . . . . . ."
};
