/* XPM */
static char *_89daf6dc2cc4217b64f009577989033za99qR94Edy87Ruh[] = {
/* columns rows colors chars-per-pixel */
"47 47 144 2 ",
"   c #3C352E",
".  c #3F3C31",
"X  c #463E36",
"o  c #4A4037",
"O  c #434835",
"+  c #4B443A",
"@  c #4D483B",
"#  c #54463B",
"$  c #55493D",
"%  c #59493C",
"&  c #4D523D",
"*  c #4A5C3D",
"=  c #644E3F",
"-  c #6E533F",
";  c #71553F",
":  c #5C4E40",
">  c #595240",
",  c #5A5E44",
"<  c #674F40",
"1  c #645142",
"2  c #695140",
"3  c #6F5B48",
"4  c #745640",
"5  c #765942",
"6  c #795A42",
"7  c #735D49",
"8  c #7A5F48",
"9  c #546443",
"0  c #536944",
"q  c #5B6847",
"w  c #547747",
"e  c #5B744B",
"r  c #5E7A4E",
"t  c #77614B",
"y  c #7D634C",
"u  c #7F6750",
"i  c #7F6850",
"p  c #82664E",
"a  c #85694F",
"s  c #826951",
"d  c #8A6E55",
"f  c #8F7055",
"g  c #8D7159",
"h  c #947356",
"j  c #9A7657",
"k  c #9D7857",
"l  c #94755D",
"z  c #99775B",
"x  c #97785F",
"c  c #9B795D",
"v  c #A47D5C",
"b  c #A97F5B",
"n  c #977860",
"m  c #9A7960",
"M  c #A37E60",
"N  c #A87F60",
"B  c #57804B",
"V  c #5B834E",
"C  c #5E8350",
"Z  c #648D54",
"A  c #669156",
"S  c #A7825D",
"D  c #AD825D",
"F  c #AE825D",
"G  c #AE865F",
"H  c #AC815C",
"J  c #B0835E",
"K  c #B3865F",
"L  c #B4865F",
"P  c #B5875F",
"I  c #B4855E",
"U  c #B6885F",
"Y  c #B88A5F",
"T  c #A48062",
"R  c #A58162",
"E  c #A68061",
"W  c #A88060",
"Q  c #A98060",
"!  c #A98061",
"~  c #AB8160",
"^  c #A88363",
"/  c #AC8260",
"(  c #AD8260",
")  c #AE8360",
"_  c #AF8461",
"`  c #AD8664",
"'  c #AB8261",
"]  c #B08460",
"[  c #B18460",
"{  c #B08561",
"}  c #B38762",
"|  c #B58660",
" . c #B58760",
".. c #B48761",
"X. c #B68660",
"o. c #B68760",
"O. c #B78760",
"+. c #B48660",
"@. c #B28960",
"#. c #B78860",
"$. c #B58A64",
"%. c #B58B65",
"&. c #B68C65",
"*. c #B78C65",
"=. c #B78D65",
"-. c #B68961",
";. c #B88860",
":. c #B98961",
">. c #BA8A61",
",. c #BB8B61",
"<. c #B88A62",
"1. c #BA8A62",
"2. c #BB8F63",
"3. c #BD8D62",
"4. c #BC8D63",
"5. c #BE8E63",
"6. c #BF8F63",
"7. c #B88D65",
"8. c #BA8F66",
"9. c #BB8F66",
"0. c #BF8F64",
"q. c #B98961",
"w. c #BE9165",
"e. c #C09064",
"r. c #C29265",
"t. c #C29365",
"y. c #C29366",
"u. c #C39366",
"i. c #C29467",
"p. c #C39567",
"a. c #C49466",
"s. c #C49566",
"d. c #C59566",
"f. c #C59667",
"g. c #C69667",
"h. c #C79767",
"j. c #C49466",
"k. c #C69768",
"l. c #C79768",
"z. c #C79768",
"x. c #C89768",
"c. c #C79868",
"v. c #C89868",
"b. c #C89868",
/* pixels */
"6.6.6.6.6.6.6.6.7.o.! M M n n n m m m m n l d u u u u s u u s y p p p p p y 3 > > # o @ r A C ",
"s.s.s.s.a.s.a.a.r.5.o.{ ! n m n n n m m n l d u u s s u i s s y 6 6 ; p a y i t 3 : + @ C A V ",
"s.x.v.v.v.v.x.x.l.5.>.o.) m n n n n n n n l d s u s u u u u u y ; 6 ; y i a i s u > o @ r A V ",
"l.x.v.v.v.v.v.v.l.r.5.>.{ m n m m m n l n g d s s s d s d d s p p ; p y y y t t 3 > + + r A V ",
"s.l.v.v.v.v.v.v.v.l.s.r.%.m n n n n n d s s s s s d l l g l l d y y y y ; ; = = # + + > e C V ",
"l.x.v.v.v.v.v.v.v.v.x.l.7.M n n n n l d s s s s s d n l n n n g a p y 6 6 ; % X + X X + r A V ",
"s.v.v.v.v.v.v.v.v.v.c.l.7.^ T M m n l f f d s s s g n m m n n g p p p p ; ; X # + X X + r A V ",
"l.x.v.v.v.v.v.v.v.v.c.c.i.w.*.` M n m v N k h p s g n n n n n l p p p 6 6 ; = = % # + : r A V ",
"s.l.x.v.v.v.v.v.v.v.v.v.v.v.x.7.T n m [ o.F j s s g n n m n n l a p p 6 ; ; - - % # @ @ r A r ",
"l.x.v.v.v.v.v.v.v.v.v.v.v.s.l.*.! n M [ ;.F j s d g n n n l n d a p y ; ; p - - = % + $ r Z w ",
"s.l.v.v.v.v.v.v.v.v.v.v.i.r.5.>.{ ) ) o.;.o.b v v h d d d a p p p p a 6 6 6 ; ; - = % % = 0 o ",
"l.l.v.v.v.v.v.v.v.v.v.l.r.>.>.;.o.o.o.o.;.o.o.| ) z s s p 6 6 6 p a p 6 6 ; 6 6 ; - - = % O   ",
"s.v.v.v.v.v.v.v.v.v.v.l.r.>.;.;.#.>.o.;.;.;.;.;.J z d p 8 6 6 6 p p 6 6 6 4 ; 6 5 4 2 = % X X ",
"l.x.v.v.v.v.v.v.v.v.v.l.r.>.;.;.>.o.;.;.;.;.;.;.| v g d p p 8 8 6 6 6 6 4 6 6 6 ; ; 2 = % X X ",
"i.l.c.v.v.v.v.v.v.v.v.l.r.>.>.;.;.;.;.;.;.;.;.;.| v n l g s p p 6 6 6 4 6 4 p ; 6 2 2 = % X   ",
"i.v.v.v.v.v.v.v.v.v.v.x.r.>.P ;.;.;.;.;.;.;.;.;.o.N m n g s p 8 6 6 6 6 4 6 ; ; ; 4 2 = X X   ",
"*.*.w.i.v.v.v.x.f.w.G G D b v v H ) ) o.;.o.[ ) ) N v M x g d p ; ; 6 ; ; ; 6 ; 6 ; - = % X X ",
"M m ^ 7.l.v.v.x.w.S h f d s d g l m M { ;.[ N m m ! { { b x l d p ; ; ; - ; ; ; ; ; 2 = % X   ",
"m m T 7.l.l.l.x.p.S f s a i s d l m m { o.[ M m m ) o.o.N M x h 6 6 5 2 - < 6 6 4 2 2 = % X   ",
"` ` ` 7.r.r.r.u.w.G j f f s u d l n c ! ) ) N M N [ o.o.N M M h p 8 5 2 - = - ; 4 4 2 = X X   ",
"w.w.w.7.>.3.>.1.Y U F H k s s d l x m m m M N [ [ o.;.;.X.| b v p p 8 3 2 2 2 2 < 2 2 = % X   ",
"c.v.s.e.;.;.;.;.U U U U v s s d l m m m m M ) o.;.;.;.;.;.;.P b d p 8 2 = 2 = < 2 = < = X X   ",
"l.l.l.e.3.>.>.;.Y >.Y P b h d h x m m l l x b [ o.o.;.;.;.;.I b d s t 5 2 2 2 - 2 = 2 - = X X ",
"s.l.x.s.a.r.3.;.;.I >.U P b F F F J b z s g l M M ) ;.;.;.;.I v s s y 6 4 4 2 2 < 2 < = % X X ",
"l.l.v.v.x.s.5.>.;.;.;.;.o.P P o.o.o.F h i d l n m N ;.>.;.;.o.v d a y 6 ; ; 2 2 2 = 2 1 $ X   ",
"s.l.v.v.v.l.r.6.>.>.;.;.;.;.;.;.>.U F h d h j c M b b F F b F k s i y 8 6 6 2 2 1 = = % > & O ",
"l.x.x.v.v.s.r.r.r.6.>.;.;.;.;.;.I >.P b v v H ! N v h h h h h f s s y y p t 2 2 = % $ $ q e 0 ",
"s.x.x.v.v.v.v.l.s.e.>.;.;.;.;.;.;.;.;.P >.Y o.;.P j p s s s p s s s s i a y 5 2 = % + + r A C ",
"s.l.v.v.v.v.x.l.s.r.>.;.;.;.;.;.;.;.;.;.>.P ;.;.K j s s a i s u s y s s s y 3 2 = # o @ r A C ",
"l.l.v.v.v.l.7.` ` { >.o.;.;.;.[ N M N o.o.o.;.;.o.v l g d s s i i u s i u 8 3 2 = # o @ r A B ",
"s.l.c.v.v.s.` m M ! o.o.;.;.o.) M n M [ #.>.#.>.o.v n l g s y s u s s s u y 3 2 = $ o + r C w ",
"w.i.l.s.s.i.` M m N [ o.o.o.o.) M c M [ #.#.o.o.{ M n n g s i s s u u u y y 2 < < $ + @ e C w ",
"%.%.*.7.e.5.{ N N ! ! ! H ! ! ! N N [ | ;.| [ N N M m l g s s s i i y y 8 6 4 2 < : # % , 0 * ",
"m m M { ;.;.>.o.{ ! M m n m c M N X.;.;.;.[ N m m n m m g s s i i s p 8 6 4 2 2 < < < = % @ . ",
"m n m ` o.;.;.;.o.! m n n n n M X.e.:.:.;.[ M m n n n l g s u s i i y 6 4 4 2 < < 2 < = $ X   ",
"%.^ { >.6.7.o.) ! v m n n n n M N N b N ) N M x n l l g d s u u t 8 8 4 4 4 - 2 2 < 2 < $ o   ",
"w.u.u.l.u.u.` M m m n n n n n m m m M m m n m n n d s d i i u t 3 2 2 2 2 - = 2 2 < < - % X   ",
"l.l.l.l.l.u.` m m m n n m m m m n m n n m n m n n d s i s i u t 2 2 2 2 2 2 2 < < 2 < = % X   ",
"5.r.r.e.r.r.{ M M T v M M M M M m m n n m n l g g d u u u u u 8 2 = 2 = 2 2 2 2 2 = 2 = % X   ",
"1.7.6.3.7.>.o.{ { o.{ K { { [ N m n m m n n d d d s u u i s u t 3 = 2 2 = 2 = 2 2 2 = = % X   ",
";.;.;.;.;.;.;.;.;.;.;.;.;.;.;.) M m n m m l d s u u s s s u u 8 4 < < < < < - = < 2 2 = % X   ",
";.;.;.;.;.;.;.;.;.;.;.;.;.;.o.[ M m m m M x z d d d s s s u u 8 < = = < 2 < = = 2 = 2 = % X   ",
";.;.;.;.;.;.;.;.;.;.;.;.;.;.;.o.[ [ [ [ ) b b b v c l g d s y 7 % # # = < 2 = - 2 = 2 = % X   ",
";.;.;.;.;.;.;.;.;.;.;.;.;.;.;.;.X.;.| ;.o.;.;.;.o.v m n g s p 4 # X # = 2 < - = < 2 2 = % X   ",
";.;.;.;.;.;.;.;.I 3.3.Y >.>.I >.| [ | ;.>.>.>.>.>.) M m j f a p : : : : = = = = = - = = % X   ",
"I I I I I Y I I I Y 6.e.>.P P F b M M J K U >.6.5.{ F v b b v a 3 2 < # # % = = = = = = % X   ",
"b b b b b b I b J I Y e.Y J b v x f j b b J >.6.6.I F b b b b b u 7 1 : X X % = = = = = X X   "
};
