/* XPM */
static char *_5d9ebd3dbcf44448779389d4c29124biw2y1QeX9vUcF22f[] = {
/* columns rows colors chars-per-pixel */
"47 47 107 2 ",
"   c #3C352E",
".  c #463E36",
"X  c #4A4037",
"o  c #434835",
"O  c #4B443A",
"+  c #4D483B",
"@  c #54463B",
"#  c #55493D",
"$  c #59493C",
"%  c #4D523D",
"&  c #4A5C3D",
"*  c #644E3F",
"=  c #6E533F",
"-  c #71553F",
";  c #5C4E40",
":  c #595240",
">  c #674F40",
",  c #645142",
"<  c #695140",
"1  c #6F5B48",
"2  c #745640",
"3  c #765942",
"4  c #795A42",
"5  c #735D49",
"6  c #7A5F48",
"7  c #536944",
"8  c #5B6847",
"9  c #547747",
"0  c #5B744B",
"q  c #5E7A4E",
"w  c #77614B",
"e  c #7D634C",
"r  c #7F6750",
"t  c #7F6850",
"y  c #82664E",
"u  c #85694F",
"i  c #826951",
"p  c #8A6E55",
"a  c #8F7055",
"s  c #8D7159",
"d  c #947356",
"f  c #9A7657",
"g  c #9D7857",
"h  c #94755D",
"j  c #99775B",
"k  c #97785F",
"l  c #9B795D",
"z  c #A47D5C",
"x  c #A97F5B",
"c  c #977860",
"v  c #9A7960",
"b  c #A37E60",
"n  c #A87F60",
"m  c #57804B",
"M  c #5B834E",
"N  c #5E8350",
"B  c #648D54",
"V  c #669156",
"C  c #A7825D",
"Z  c #AC815D",
"A  c #B4865E",
"S  c #B6885F",
"D  c #B88A5F",
"F  c #A58061",
"G  c #A98060",
"H  c #AF8360",
"J  c #A98463",
"K  c #AB8563",
"L  c #AE8663",
"P  c #AD8664",
"I  c #AF8764",
"U  c #B08360",
"Y  c #B38661",
"T  c #B08662",
"R  c #B58660",
"E  c #B78760",
"W  c #B78A63",
"Q  c #B18965",
"!  c #B58B64",
"~  c #B78C65",
"^  c #B78D65",
"/  c #B98860",
"(  c #B98960",
")  c #BB8B61",
"_  c #BB8B62",
"`  c #BC8B62",
"'  c #BB8C62",
"]  c #BF8F63",
"[  c #B88D65",
"{  c #BB8E65",
"}  c #B98E66",
"|  c #BF9065",
" . c #BE9166",
".. c #BF9266",
"X. c #C09064",
"o. c #C29366",
"O. c #C19467",
"+. c #C29467",
"@. c #C39467",
"#. c #C49466",
"$. c #C59567",
"%. c #C79767",
"&. c #C79768",
"*. c #C89768",
"=. c #C79868",
"-. c #C89868",
";. c #C99868",
/* pixels */
"] #.%.#.-.#.&.#.#.#.-.#.&.#.+.+.~ F v P ..&.&.&.@.&.#.&.#.&.+.| Q b v P @.&.@.( / / E ( S A x ",
"| #.-.#.-.-.-.-.&.&.-.&.-.-.*.-.~ v v P ] *.&.&.&.&.&.*.-.-.-.+.! v c P | &.@.` / / ( E ( A x ",
"] #.-.-.-.-.-.-.-.-.-.-.-.-.-.-.| F J P X.*.#.&.*.*.*.-.-.-.=.+.! b v Y +.&...` E ( E ( / A x ",
"] #.-.-.-.-.-.-.-.-.-.-.-.-.-.-...| ! } ) } X.&.*.*.-.-.-.-.=.&.} U H ! &.&.| ` ( E ( E ( S x ",
"X.#.-.-.-.-.-.-.-.-.-.-.-.-.-.-.=.=.@.X.] ( ( &.-.-.-.=.-.&.=.#.@.E Y ( #.&.X.} E ( E ( E E x ",
"] #.-.-.-.-.-.-.-.-.-.-.-.-.-.-.=.=.&.@.( / ] X.#.#.&.-.-.&.#.+.] ( / ] X.&.X.( ( E ( E E E x ",
"] #.-.-.-.-.-.-.-.-.-.-.-.-.-.-.=.-.-.+.( ( ( } | X.&.-.&.| P P E ! ( E P T L Y E ( E ( E A x ",
"X.#.-.-.-.-.-.-.-.-.-.-.-.-.-.-.=.-.-.+.` ( E ( ( X.X.-.&.Q v v b E ( Y v v z A ( E ( E E A A ",
"] X.-.#.&.&.=.-.-.-.-.-.-.-.-.-.+.+.| | ( E ( E S ( X.-.+.P v b G / E H v v b P ( E / / D D C ",
"Y ' @.+.&.&.-.=.-.-.-.-.-.-.-.-.| Z C Z E ( E ( ( ( ] X.} / G G G n b b v v b E E ( / / ( D A ",
"n E ( X.&.&.-.-.-.-.-.-.-.-.-.-.W d a f Z ( ( ( ( ( ( ( ( ! E Y U v v v c v b Y ( E / / ) X.] ",
"b U E ( +.=.=.=.-.-.=.*.&.*.*.*.C p i d Z A A S ( ( E ( A E E E b v c c c v b Y E ( ( ( ( ] ( ",
"b G H U ! ~ } @.-.-.+.@.@.X.X.@.C p t a g z z A E / / ( ( / ( E G v v c c v b Y ( E ( E / / / ",
"v v v v b v J } -.&.X.( ) ( ( ( C a t t p i d Z A / / ( ( ( / A G v c c c v b Y E ( E ( / / A ",
"c c v c v v b ~ *.&.] ( D / / E C p u t r t p Z A ( A ( E E / Y Z v v v c v b Y E E ( E / A x ",
"v c c c c c b P ~ } W E ( / / / z a p p p p d Z E ( A ! E Y H H G b b v v v l b H H E ( / x x ",
"c c c c v v v v F F L E E ( E / C v h h h h h U ( / ( W A n b b Z H H b v v v b b b E / Y x h ",
"c c c c c v v k v v n Y ( E / E C l h c c v v Y E E ( ( S n v v F Y ( H v v c c c v H E U b h ",
"c c c c k h h l v b H E E ( E / H z l v v v v b Z Z E A ( n b b n E A G v c c c v v H / A z j ",
"c c c c p p h l H Y E E ( E / E Y Y E G v v j d a f x ! / E U U / ( ( H b c c c c v H E A A x ",
"c c v h p i a x E ( ( ( / / E / ! E E H v v h p y p z E E E W A E ( / H v c c c c b H E ! A x ",
"h h h s i i a f Z Z Y E / / / E A Y U H b l l p p d z E / E A D E Y Y n v c c c h j H E / A A ",
"p p p p i i u a d f Z E / / E E Y b b G G H b j d j x W ( E ( / Y n b b v v c s p d Z E ( ) ( ",
"i i i i t t y i r p z A / / E E H v v n Y ( Y v v l Z W E ( E E n v c c c c s i r p x E ) X.X.",
"r i i r i i i i y p z x E E E E U v v b Y / Y b v b Z Z A Y ! A G v v c c h s p i p x E D D D ",
"r r t i p s s s s s s f f z b n G G n H E / A H G x z f f z x b v v v h s s p i r i l b A A D ",
"i r r p c c c c c h s y u s c c C Y E E E E / / ! Z f i i s c c c c v s i i i t i i h v z x A ",
"r i i i h c c c c c p y u s h c b Y E E E / / / E Z d r i s h c c c c s i t t i i i s c v x x ",
"r r i p h c c c v c u y y u s s j b G H A S S / S Z d r i p s s s s s p i t t t i i p s d z x ",
"i i i i s c c c c c u 4 4 6 i i s j b b A D ( ( ( Z d i i i i i p i i t i i t t i i i i a z Z ",
"r i r i h c c c v h y 4 4 6 y r p h h b Z A S A A x f i t t i r e i i i r e r r r r r r p g Z ",
"e e 6 y s s s h s d y 6 6 6 6 y y p a d z z x z z z p i i i r i i t t r w w 6 w w 6 5 1 w a f ",
"e 4 4 6 y y i i i i y t e w - 4 4 y 4 y y y i p p u i i i r r i i r i 6 2 < < < < < ; . > 1 r ",
"e 4 - 6 e y y i i i t y t e 4 - 2 2 2 y y y i i i i r i r i i e r i t 6 < < < < , > ; . ; , 6 ",
"y 4 y - y e 4 y e e e y y 4 4 4 2 2 2 2 4 6 r 6 e e e i r r i e i e e 6 < > < < < > ; . ; ; < ",
"e y y y 6 4 4 y 4 w 4 4 4 4 4 4 2 2 < 2 2 < < 6 6 6 e i i r i r e 4 5 2 = < > * < > ; * $ ; ; ",
"y e t e 4 3 - 4 4 4 4 4 - 4 4 4 2 > > > < < < 2 - 4 e i i i i r 6 4 3 - * < < < = < > > ; $ . ",
"e t i y 3 2 - - 2 2 2 4 4 4 4 - 2 2 < = < * < 2 - 4 6 r r 6 r w 4 3 3 2 < < < * > > > > > . . ",
"1 w i w ; $ $ * - - 2 2 2 4 2 4 - - 2 2 = > * < - < 2 < < 1 2 1 < 2 < < * < * < > > > > > * * ",
": w i w # O @ $ = = 2 2 2 4 4 2 4 2 2 2 < > < > < = < > < < > < < < < < < < < < > > > > > > * ",
"; 5 w 1 # X O $ * * - - - - - 2 2 2 2 2 < * > < > > > > * * * * * < * = * = = * < > < > < * * ",
"@ ; : : + X X @ $ . * - - - - - 2 2 < < < < < = > > # @ @ @ @ # * * * * = * * * > < > < > * * ",
"O O O O X X X X . . * * * = = = < < * = < < < < < $ # O X O O O . 2 * = * * * = < < = > * * * ",
"O O + O + + + + . $ * * * * * * * * * * * * * * * * + + O + O + $ > * * = * = * * * * * * * * ",
"q q q q q q q q q 9 * @ $ . * * $ $ $ $ $ $ $ # # : 8 q N q q 0 : ; @ # . * $ $ . $ $ . $ @ . ",
"V V V V V V V V V B 7 . . . . . . . . . . . . . . % 0 V V N N N 8 O . . . . . . . . . . . . . ",
"N M N N M M M M M M o .     .                     o 7 M M M m 9 & .             . .   .     . "
};
