/* XPM */
static char *_8344a7ac8ac4f0eb9cb9267cb931bb6H0E80f8dGTDr9ts6[] = {
/* columns rows colors chars-per-pixel */
"47 47 109 2 ",
"   c #3C352E",
".  c #3F3C31",
"X  c #463E36",
"o  c #4A4037",
"O  c #434835",
"+  c #4B443A",
"@  c #4D483B",
"#  c #54463B",
"$  c #55493D",
"%  c #59493C",
"&  c #4D523D",
"*  c #4A5C3D",
"=  c #644E3F",
"-  c #6E533F",
";  c #71553F",
":  c #5C4E40",
">  c #595240",
",  c #674F40",
"<  c #645142",
"1  c #695140",
"2  c #6F5B48",
"3  c #745640",
"4  c #765942",
"5  c #795A42",
"6  c #735D49",
"7  c #7A5F48",
"8  c #546443",
"9  c #536944",
"0  c #5B6847",
"q  c #547747",
"w  c #5B744B",
"e  c #5E7A4E",
"r  c #77614B",
"t  c #7D634C",
"y  c #7F6750",
"u  c #7F6850",
"i  c #82664E",
"p  c #85694F",
"a  c #826951",
"s  c #8A6E55",
"d  c #8F7055",
"f  c #8D7159",
"g  c #947356",
"h  c #9A7657",
"j  c #9D7857",
"k  c #94755D",
"l  c #99775B",
"z  c #97785F",
"x  c #9B795D",
"c  c #A47D5C",
"v  c #A97F5B",
"b  c #977860",
"n  c #9A7960",
"m  c #A37E60",
"M  c #A87F60",
"N  c #57804B",
"B  c #5B834E",
"V  c #5E8350",
"C  c #648D54",
"Z  c #669156",
"A  c #A7825D",
"S  c #AA805C",
"D  c #AA805E",
"F  c #AD815C",
"G  c #AC815D",
"H  c #AF835F",
"J  c #B0825B",
"K  c #B1835E",
"L  c #B3855F",
"P  c #B5855E",
"I  c #B5875F",
"U  c #B6865F",
"Y  c #B6885F",
"T  c #B88A5F",
"R  c #A58061",
"E  c #AB8261",
"W  c #AD8360",
"Q  c #AE8360",
"!  c #AB8563",
"~  c #AD8563",
"^  c #AD8663",
"/  c #AF8663",
"(  c #B18460",
")  c #B08662",
"_  c #B58660",
"`  c #B58761",
"'  c #B78760",
"]  c #B78860",
"[  c #B78A63",
"{  c #B98860",
"}  c #BA8A62",
"|  c #BC8B62",
" . c #BC8E61",
".. c #BC8D63",
"X. c #BD8F62",
"o. c #BE8F63",
"O. c #BE9165",
"+. c #C09065",
"@. c #C19165",
"#. c #C29265",
"$. c #C19366",
"%. c #C29467",
"&. c #C59566",
"*. c #C49567",
"=. c #C59567",
"-. c #C79768",
";. c #C89768",
":. c #C79868",
">. c #C89868",
/* pixels */
"v F F F v v J v D ] | O.Y F v v l k k c D P { ....Y D K F v v j y r 1 # X X % % = = = = # X   ",
"P P P P P ' ' P ] | O.O.T Y P K v c v v P ' ....O.L D F c c j d 6 1 < > # % = , = = = = # X   ",
"T { { ] T Y T T { { { | T T Y T ' ' P ' ' { ..{ T ~ c n g g p t : $ % % , , , , = = = = # X   ",
"' ' { { { { P T { { { ] T T T Y ( ' ' ' ' ' ' ' L c k k f p t 6 # + $ % , , , , - - = = # X X ",
"{ { { { { { { { ] { ] { { { ' ' ( ( ( ( ( ( M v c x k k s a t 6 % # % = 1 = 1 , = 1 , = % X   ",
"{ { { { { { { { { ] { ] ] { ' F m n n n n l g s s s a a a a t r < , = , 1 1 , 1 1 , , = % X   ",
"{ { ' ' ] ] { { ] ] ] { { ] ' ~ m b b b n k s a i u a u u a a r 1 1 1 1 , 1 1 , = , 1 - % X   ",
"..{ ....{ { ' ( ' ( ) ( ( ( K E m b b n n b f a s a u u a u i r 1 1 , = 1 , , 1 1 1 = = % X   ",
"@.@.@.@.@.O.) R m m m m m m m n n n n n n k k k f s a a u u u r 1 1 1 < 1 1 1 , 1 = = - # o   ",
"-.-.;.-.:.%.~ n n n n n n n b n n n n n b b b k k s a a a u a r 1 1 1 1 , 1 , 1 1 < 1 = # o   ",
"@.@.%.-.>.@.( x n n n b b b n n n n n n n n n n k f a a a y u r 3 1 1 1 1 , , , = 1 < = $ o   ",
"~ ! ~ [ ....] ~ ~ m n b n b b m M M F ~ ~ M m n b k f f s a a u r r 7 3 3 3 1 1 , 1 - = # X   ",
"n n n ! ] ] { { ' v n n n n n m ' ' ' ' { ( c n n b b b f a a u a u t 5 5 3 3 = 1 1 1 = % X   ",
"R n m ! [ { ' ' ` R n n n n n m ( ' ' ' ' ~ R n n n b k f a u a u a t 7 5 3 1 1 = , = = % @ . ",
"~ ~ ] O.@...) ~ c E M E M M E M M M ~ ' { ' ~ v M m n b f a u a t a t t 7 7 6 = = = % % 8 9 * ",
"O.-.:.:.-.@.~ n n E ) ' ' ( ' M m l c ~ ] ' ' ] ( m n b f a a u a a i t i i 1 , = % + @ w V q ",
":.:.>.>.:.%.( x x E ] { { { { D m n m ( ] ] { ] ] A x k f a u u y a y y a r 1 1 , # X @ w V N ",
"%.:.>.>.:.:.O.~ ) / ] ] { { { ( E m v ) ] { ] { ( c k f s u u a a y y a a t 6 , , # o @ e C B ",
"-.:.>.>.>.>.>.>.:.O...] { ] { ] ' ' ' ' { ] ] { ( h a a a t u a a y i a a t 2 , , # + @ e Z B ",
"=.-.>.>.>.>.>.>.=.@.{ { ] { ] { { { ' ' ] ] ] ] ' l a a a a a a y a y a t t 6 , : # + + e Z B ",
"=.>.>.>.:.-.%.@.@...{ { ] ] { ] { { ' v c c E F v c g h h h g s a a i t i 7 3 , , % # $ 0 w 9 ",
"=.:.>.>.:.:.@.T { { { { ] Y ] { { { v h d g x n n v v D D S S j a y t 7 5 5 1 , , , = = > & O ",
"=.-.>.>.:.:.O.| { ] { { Y Y ] ] ' ' v g i a f x n ~ ' T Y T P v s i 7 5 3 3 3 , , , 1 = $ X   ",
"=.-.:.=.-.O.| { ] { ] ] Y D D F E ~ E g s d b n M K { ' T Y Y c s a i 5 3 3 1 , , , , , % X   ",
"=.>.=.O.T { { { T { ] Y c g d f x n n l k n v ( ~ ' { { { { P c i i i 3 1 1 1 , = - - = % X   ",
";.>.%.O.{ { { { T T { Y c a u s k n n n n n ~ ' { ' ' ' { { Y c i i 4 1 , 1 , , - = = = % X   ",
"O.O.O...{ ....{ T Y J A j s u s k n n n n m ~ ( ( ] ' ' P ~ L c i i i ; , 1 1 , = - - = % X   ",
"~ E ~ ..%.%.@.%.O.A h g d i i s k n n M F ~ v R m ( ' ' F m c g i i ; - , 1 3 3 3 - = = # X   ",
"R n R ] :.-.-.>.O.A d p a t i s k n n ( ' ( m n l ~ ' ' ~ n n f 5 5 5 - - - ; 5 3 ; , = % X   ",
"R n ! ..>.>.>.>.%.A g s s s s g k l m ' P ' M n n M ' ( c l k s 5 3 3 ; - ; ; ; 3 1 1 = % X   ",
"~ [ ..%.>.>.>.>.:.O.{ F ~ c c v c ~ ~ ' ' ' K ~ ~ M m m l f s p 5 5 5 ; - ; ; i 3 1 1 = % X   ",
":.:.>.>.>.>.>.>.:.:.:.>.@.P ' ' ' ' ' ' ' ' ' ' ' M n b f p a 7 5 5 3 3 5 ; ; 5 3 3 1 = % X   ",
"O.:.:.:.>.>.>.>.>.>.>.-.%.{ ] ' ] { ] { ] { ] { ' c z k s i i i 3 ; ; 5 3 5 3 5 3 ; - = X X X ",
":.:.:.:.>.>.>.>.>.>.>.-.%.{ { { { { { ] { ] { ] ( c f s i i 7 7 7 i i 5 5 5 5 5 ; ; - = % X X ",
":.:.:.:.>.>.>.>.>.>.>.-.@.| { { { { ' ' ] ] { { L x s u i 5 5 7 i i i ; 5 ; 5 ; 3 ; - = X X   ",
":.:.>.:.>.>.>.>.>.>.>.-.%.{ [ ] ' ' ' ( { ] P ( L h a a 5 i 5 7 7 i i 5 5 5 5 ; 3 ; = = % X X ",
":.:.>.>.>.>.>.>.>.>.>.>.-...O.{ ~ ~ F ' ' ' v c j h f s a p i i i i t 5 ; ; ; ; - = % = = * & ",
"-.:.>.:.>.>.>.>.>.>.>.>.;.-.;...R n M ~ ' v h s a f k b b x b f a i t 7 5 ; - - = % + @ w C V ",
"-.-.-.:.>.>.>.>.>.>.:.>.:.:.-.{ m n x ~ ' K g a a f n b n n b f a a t 5 5 ; ; = = # o @ e Z V ",
"-.-.:.:.>.>.>.>.>.>.:.:.O.O.[ ~ m n n c v j d a a f b n b b b f a a t 5 5 ; - = % @ o # e Z B ",
"-.;.>.>.>.>.>.>.>.>.:.-...! R n b b k f d s a a u f b b b x z f a i i 5 3 3 % + o o o + e Z B ",
"-.;.>.>.>.>.>.>.>.>.:.>.[ n n n b b k s p i a u u s b b k z z d a i t 5 3 3 % o + o o @ e Z B ",
"=.;.>.>.>.>.>.>.>.:.:.%.[ n n b b b b s s a a a a f k k k k k s a t t 7 5 4 < : # @ + @ e Z B ",
"=.;.>.>.>.>.>.>.:.%...[ ~ n n b b b b b k f s a u a s a s a s i 7 7 7 t t t r r 6 % + @ e Z B ",
"=.;.;.>.-.-.;.;.;.@...] ~ n n n n b b b b k f u u u a u i u u t ; 5 i i y y y a r : + @ e Z B ",
"=.=.=.=.-.-.-.#.@.[ ' ( ~ n b b b b n b b k s a u a a u u u u t t ; ; t y y r r 2 > + @ e Z B ",
"..#.....@.....@...) E m n n n b b n b b b k f u u u u a u i i i t i i i y y 2 > : # @ @ e Z B "
};
