/* XPM */
static char *d70dc2593402492fd1e413b3b663e181QkKTWyEuwQ790urm[] = {
/* columns rows colors chars-per-pixel */
"47 47 141 2 ",
"   c #795B43",
".  c #7E644C",
"X  c #7F6850",
"o  c #81664E",
"O  c #85684F",
"+  c #826951",
"@  c #8A6E55",
"#  c #8E7056",
"$  c #8E7159",
"%  c #947456",
"&  c #997657",
"*  c #96775F",
"=  c #97775F",
"-  c #96765E",
";  c #95755D",
":  c #93755C",
">  c #987658",
",  c #997758",
"<  c #987659",
"1  c #98775E",
"2  c #98775F",
"3  c #9A7759",
"4  c #97785F",
"5  c #9D7858",
"6  c #9E7958",
"7  c #9D795A",
"8  c #99785C",
"9  c #99785E",
"0  c #99785F",
"q  c #9A795F",
"w  c #9B795F",
"e  c #9D7A5D",
"r  c #9F7B5C",
"t  c #9D7A5E",
"y  c #9D7A5F",
"u  c #9E7A5E",
"i  c #9F7B5E",
"p  c #9F7B5F",
"a  c #9C795B",
"s  c #A07A59",
"d  c #A17A59",
"f  c #A17A5A",
"g  c #A27B5A",
"h  c #A37B5A",
"j  c #A27C5A",
"k  c #A37C5A",
"l  c #A47C5A",
"z  c #A57D5A",
"x  c #A47D5B",
"c  c #A57D5B",
"v  c #A07B5E",
"b  c #A27D5E",
"n  c #A67E5C",
"m  c #A77F5D",
"M  c #A47D5E",
"N  c #A77F5F",
"B  c #A37D5C",
"V  c #A87F5C",
"C  c #A87F5D",
"Z  c #977760",
"A  c #977860",
"S  c #977860",
"D  c #987860",
"F  c #997860",
"G  c #997960",
"H  c #9A7960",
"J  c #9B7960",
"K  c #9B7A60",
"L  c #9C7A60",
"P  c #9D7A60",
"I  c #9F7B60",
"U  c #997960",
"Y  c #A07B60",
"T  c #A07C60",
"R  c #A17D60",
"E  c #A27D60",
"W  c #A37D60",
"Q  c #A37E60",
"!  c #A47E60",
"~  c #A57E60",
"^  c #A57F60",
"/  c #A67F60",
"(  c #A77F60",
")  c #A47E60",
"_  c #A9805C",
"`  c #AA805C",
"'  c #AB815C",
"]  c #A9805E",
"[  c #AC815C",
"{  c #AC815D",
"}  c #AE835D",
"|  c #AC815E",
" . c #AD825E",
".. c #AC825F",
"X. c #AE825E",
"o. c #AE835E",
"O. c #AF835E",
"+. c #AF835F",
"@. c #AD825D",
"#. c #B0845E",
"$. c #B1845E",
"%. c #B1845F",
"&. c #B2855E",
"*. c #B3855E",
"=. c #B3855F",
"-. c #B4865F",
";. c #B5875F",
":. c #B6875F",
">. c #B3855F",
",. c #A78060",
"<. c #A88060",
"1. c #A98160",
"2. c #AA8160",
"3. c #AB8160",
"4. c #AC8260",
"5. c #AD8360",
"6. c #AE8360",
"7. c #AF8360",
"8. c #AF8460",
"9. c #AA8160",
"0. c #B08460",
"q. c #B18460",
"w. c #B18560",
"e. c #B28560",
"r. c #B38560",
"t. c #B38660",
"y. c #B48660",
"u. c #B58660",
"i. c #B58760",
"p. c #B68760",
"a. c #B78760",
"s. c #B48660",
"d. c #B78860",
"f. c #B78860",
"g. c #B88860",
"h. c #B98860",
"j. c #B98960",
"k. c #B98961",
"l. c #BE9165",
"z. c #C49566",
"x. c #C89868",
/* pixels */
"D D D D D D D D A A A $ + X .       + + @ [ :.:.:.:.h.h.h.d.h.d.h.h.h.h.d.d.q.g + + + o o @ - ",
"D D D D D D D A A $ $ @ + + . .       . O & s l *.:.h.a.d.h.d.h.h.a.h.u.q.9.n & + + @ @ $ $ - ",
"D D D D D D D = ; + + + + + X . + .       + @ % V a.a.a.d.d.h.d.u.a.a.u.9.Y q : + X @ $ - - 2 ",
"D D D D D D D = $ + + X + + + X X +       . . @ l :.:.u.u.d.u.u.u.:.u.*.n = = @ + X @ ; - - 2 ",
"D D D D D D D A ; @ @ @ @ @ @ + + .     . + X @ & l k ] 4.4.4.4.( V l f & @ @ + . .   O O % < ",
"D D D A D D D D Z Z Z Z Z Z : + X X o + X X X + + + @ : q D L L J $ @ O o o             o o & ",
"D D = = D D D D Z A D D Z Z : + + + X + + X X X + X + ; = D D D - @ o   o                 o # ",
"$ : = A D D D D Z $ : $ $ $ $ + X + + @ @ @ @ @ @ @ @ ; 2 D D D - @ + o o                 o O ",
"+ @ $ Z A A D = $ @ + @ + + + + X + $ ; ; ; ; ; ; ; = = = A D D Z @ X + . X .               + ",
"+ + $ = A A A = $ + X X X X + + + @ ; = A A A D A A D D 4 A A = ; @ + X X X . .           . o ",
"@ @ : = A Z ; ; @ + X + X X X @ @ $ = = A A D D A D D D D = = $ : @ X X + X X .             . ",
"; ; = Z A $ + + + X + X X X @ $ ; ; = D A A D D A A D D D = $ + + + X X X + X . .   .       X ",
"Z A A A = $ + X + X X X X + @ Z A A D D D D D D D D D D D ; @ + X X X X X + X + . X .       . ",
"A A ; ; $ @ + X + + @ + + X + ; A D I R R R R R R R R D D = $ @ + @ @ @ + o X X X . .       . ",
"A = $ @ @ + + + @ $ : @ + + @ : A R 9.q.q.8.8.q.q.q.4.R D D ; $ ; ; ; $ # + + X o X         X ",
"A = $ + X X + + $ Z Z $ + + @ Z Z R 8.d.d.d.d.d.h.u.u.~ D D D D D A A ; $ + X + X . .     . . ",
"I y < % # @ + @ @ Z : @ + + + : ; q X.:.d.h.d.h.d.h.d.,.R R L R I R I t $ + X + X X .     . . ",
"q.8.X.] V r = : $ @ + + + + + + @ & X.h.h.d.h.d.h.d.d.q.q.8.q.q.q.8.q.X.& @ o X X + X . . . X ",
"d.h.h.h.:.] L D $ + X + + + + X X % _ :.d.h.h.d.d.h.d.h.h.d.h.d.h.h.:.:., + X + X + o X X + X ",
"h.d.h.h.d.] R t : + X + X + X X o # n u.u.d.d.h.h.d.h.d.d.h.d.h.d.u.:.X.& @ o X + X X + + o @ ",
"d.h.d.h.d.q.8.4.a + + + X X + + + # 4 R ,.q.h.d.d.h.d.h.h.d.h.d.d.4.~ t : + X + X X + X + # k ",
"h.d.h.d.h.d.u.u.g + + + X X X X . @ Z K R q.d.h.h.d.h.d.d.h.d.h.u.~ D q # + X X X o X X o % X.",
"d.h.d.h.h.h.a.a.l @ + + + @ + X X @ $ $ q 9.&.u.d.d.d.h.h.d.u.q.q.~ D ; $ + X o + + X + + % } ",
"h.d.h.d.h.h.a.a.V : : : $ : @ + X + @ @ $ t R 9.q.d.h.d.h.u.4.~ R L D = $ + + X X X o X + & &.",
"d.h.h.d.h.d.h.u.8.D D D D D : + X + . + + : A I 8.d.:.:.h.t.,.D Z A A = @ + o + X X + + X % *.",
"u.u.d.h.d.h.h.d.9.I D 4 4 = : + X X + X + : = q ] &.&.&.:.} b 4 = = A = $ @ + @ @ @ + o + % X.",
"~ ,.8.u.h.d.h.u.9.D 4 : # @ @ X + X + X + @ # # % & & & & & # # $ ; D q t k g g s s % + X @ t ",
"D I 9.:.d.h.h.d.8.D 4 : @ X X X + X X + X + + + + + @ o + + + + + $ 2 D n q.&.u.*.$.5 @ + @ = ",
"D D ~ u.u.q.u.q.9.D q $ @ + X + . + X X X + X X + X + X o X + X + $ Z L C :.j.j.:.:.h @ + @ : ",
"D D R ~ ,.,.,.9.R D 4 $ + X o X + X X + o X X + X o X X + X X o + $ Z L X.:.j.:.:.:.s @ + + @ ",
"D D D D D D D D D D 4 $ + X X X o + + X X + o X X + X + + X + X + $ 2 L ( a.:.j.:.:.s @ X X X ",
"= q = 2 2 D D D D D 4 : @ + o @ + + + + + + X + X X o X X X + + + : 2 Y ( a.:.:.:.*.l @ + + + ",
"$ $ $ @ @ ; = D L 9.9.n r r & r r 5 5 5 % @ + X o X + X X + @ $ $ t ~ 4.8.u.h.d.h.d.X.k , % + ",
"+ + + + @ $ ; A R q.u.&.&.*.*.*.*.:.*.*.z @ + o X + + X X + @ ; 4 n q.u.d.d.d.h.h.d.d.q.} k @ ",
"X X + @ @ # q L 9.u.h.h.h.h.:.:.k.k.:.k.$.% O o + X + + X @ $ A D 9.u.d.d.d.u.d.d.h.h.d.:._ @ ",
"+ o # & , t n ,.4.d.h.d.h.h.:.:.:.k.k.k.*.s & & $ $ @ # $ $ ; A D R 9.9.' 9.9.q.u.h.d.h.:.l O ",
"X @ 5 &.:.:.d.u.k.k.:.:.h.d.h.d.:.k.:.:.d.:.u.} b 4 S S S S A D D D D D L D L 9.d.h.h.:.:._ @ ",
"X o r &.:.:.d.h.:.:.k.:.d.h.d.h.:.:.k.k.h.h.h.&.,.A S S A S D A D D D A D D D 9.u.h.h.:.:.l @ ",
"X + , _ X.q.u.h.z.k.z.k.k.z.k.z.z.:.k.z.l.k.k.l.t.5.5.,.,.,.,.,.9.~ ,.~ R D D R 9.9.V k s & @ ",
"X + : q R 9.u.h.z.z.z.z.z.z.z.z.x.z.z.z.z.x.z.z.z.l.l.l.8.q.q.q.u.q.u.q.~ L D D I q < @ @ # : ",
"X X # 4 G 1.h.k.k.z.x.x.x.x.x.x.x.x.x.x.x.x.x.x.x.x.x.k.k.d.h.d.h.d.h.u.9.D A = 4 = $ @ X @ Z ",
"X X @ $ ; ,.k.k.z.z.x.x.x.x.x.x.x.x.x.x.x.x.x.x.x.x.x.l.h.h.d.h.d.h.d.u.9.D A = $ $ $ @ @ $ Z ",
"X + X + @ _ l.z.z.x.x.x.x.x.x.x.x.x.x.x.x.x.x.x.x.x.x.k.k.h.h.d.h.d.d.u.] D = $ @ + $ $ ; ; Z ",
"X X X X X ,.z.x.x.x.x.x.x.x.x.x.x.x.x.x.x.x.x.x.x.x.z.l.k.d.d.h.d.h.h.u.9.L = $ X X $ ; A A A ",
"% % % % & ] k.z.z.z.z.z.z.x.x.x.x.x.x.x.x.x.x.x.z.z.z.k.h.d.h.d.h.d.h.d.9.~ b t % < , y R R ~ ",
"' ' ' ' X.:.k.l.k.k.:.z.z.x.x.x.x.x.x.x.x.x.x.z.l.k.k.:.h.d.d.h.d.h.d.d.d.q.q.} ] } } q.q.q.q.",
"d.d.d.d.a.k.a.h.h.a.k.z.z.x.x.x.x.x.x.x.x.x.z.z.z.h.k.h.d.h.d.d.h.d.d.h.d.h.h.d.d.d.d.d.h.d.h."
};
