/* XPM */
static char *_a4528a95ed14efaf935beaf329d5b76Ka1WGOJRSdPrH63S[] = {
/* columns rows colors chars-per-pixel */
"47 47 110 2 ",
"   c #3C352E",
".  c #3F3C31",
"X  c #463E36",
"o  c #4A4037",
"O  c #434835",
"+  c #4B443A",
"@  c #4D483B",
"#  c #54463B",
"$  c #55493D",
"%  c #59493C",
"&  c #4D523D",
"*  c #4A5C3D",
"=  c #644E3F",
"-  c #6E533F",
";  c #71553F",
":  c #5C4E40",
">  c #595240",
",  c #674F40",
"<  c #645142",
"1  c #695140",
"2  c #6F5B48",
"3  c #745640",
"4  c #765942",
"5  c #795A42",
"6  c #735D49",
"7  c #7A5F48",
"8  c #546443",
"9  c #536944",
"0  c #5B6847",
"q  c #547747",
"w  c #5B744B",
"e  c #5E7A4E",
"r  c #77614B",
"t  c #7D634C",
"y  c #7F6750",
"u  c #7F6850",
"i  c #806249",
"p  c #81664E",
"a  c #80674F",
"s  c #85654D",
"d  c #84674F",
"f  c #86674F",
"g  c #816850",
"h  c #826951",
"j  c #836A51",
"k  c #826A52",
"l  c #856B53",
"z  c #886C52",
"x  c #8A6D53",
"c  c #8E6E52",
"v  c #8B6C54",
"b  c #8A6E55",
"n  c #896D56",
"m  c #8C6F57",
"M  c #8F6F56",
"N  c #8F7054",
"B  c #8E7055",
"V  c #8D7159",
"C  c #8E7159",
"Z  c #937356",
"A  c #967357",
"S  c #957456",
"D  c #997657",
"F  c #9D7755",
"G  c #9D7857",
"H  c #90725A",
"J  c #90735B",
"K  c #93755D",
"L  c #94755D",
"P  c #96775F",
"I  c #99775A",
"U  c #98775F",
"Y  c #97785F",
"T  c #9E7958",
"R  c #9B795D",
"E  c #A17B59",
"W  c #A67E5B",
"Q  c #A27C5F",
"!  c #A47D5C",
"~  c #A97E5B",
"^  c #AB7F5A",
"/  c #977860",
"(  c #9A7960",
")  c #A37E60",
"_  c #A87F60",
"`  c #59814C",
"'  c #5B844D",
"]  c #5C844E",
"[  c #648D54",
"{  c #669156",
"}  c #679156",
"|  c #A7825D",
" . c #AA805C",
".. c #AD815D",
"X. c #B0835F",
"o. c #B4855E",
"O. c #B6875F",
"+. c #B6885F",
"@. c #B88A5F",
"#. c #A58061",
"$. c #AB8261",
"%. c #B48660",
"&. c #B68962",
"*. c #B98961",
"=. c #BE9165",
"-. c #C49466",
";. c #C79768",
":. c #C89768",
">. c #C79868",
",. c #C89868",
/* pixels */
"                X         . * q ` ` ' ' 9 O                     X X   X O e ` ] ' ' ' ' ' ' ' ",
"X X X X X X X X X X X X X o 8 ] [ [ } } w & X X X X X o X X o X X X X X 8 [ } } } } } } } } } ",
"o # % % % % % % % % % % % % 8 w w w e e 0 > % % % % % % % % $ $ = X X = & e e e e e e e w e e ",
"= = = = = = = = = = = = = = % @ + @ @ @ $ = = = = = = = = = = = , , 1 = = # @ @ @ @ @ @ + + > ",
"= - 1 , - 1 1 - , 1 = , , , % + + + o o $ % = 1 , , - = - , , 1 - - = = = X X X o + + + + + X ",
"= = = 1 = = , , 1 1 1 1 1 , % $ # $ # # % < 1 , , - = - - - 1 3 ; ; - - = # = % X + + : < : : ",
"= = = 1 1 = , , 1 = = 1 , 1 , , % , , , 1 , , 1 , , - ; ; ; ; 5 ; ; ; ; ; = = X + + : 2 r 6 : ",
"= = 1 , 1 1 , 1 , 1 1 , 1 , 1 1 1 1 < 1 1 1 1 , , , ; ; 5 i ; ; 5 5 5 ; ; - = = + o # 6 g r : ",
"# = = = 1 , , 1 = , 1 - - 1 3 1 1 6 1 2 3 1 1 1 1 , 1 3 3 3 3 5 ; 5 5 5 ; ; ; - % # > t u t 2 ",
"X % = - , < 1 , 1 1 , 3 ; 5 7 t u t t t r 5 3 3 1 , 1 1 1 1 3 4 i ; 5 ; 5 ; ; ; 3 3 4 t u t r ",
"X # = = , , 1 , , 1 , 3 5 5 t t g g g p t 5 5 3 - , , 1 , 1 3 4 5 ; 5 5 5 5 5 5 4 3 5 u u g p ",
"# % % = , , , 1 1 1 1 3 5 5 t u u g g g t 7 5 4 3 3 3 1 3 1 3 4 ; 5 5 5 5 5 5 5 5 5 5 t t y p ",
"1 , $ # $ , 1 1 , 1 1 r p t t g g u g u t p t t r 7 5 4 3 3 3 i 5 5 i t t t t t t t t 5 5 t t ",
"6 2 $ o # = 1 1 , 1 1 6 g g u g u g u g g f g g g g i i 3 3 5 ; 5 5 p g u g u u g g g 5 5 5 t ",
"t 6 : # $ < 1 1 1 1 6 7 g u g u u g g u g j v f v v s i 5 i 5 5 5 t t t g g k n n g g 5 5 5 t ",
"F M r 6 2 7 r r r r 7 y g g u g g u g g M G | W Q Q E A c v s i i t 5 t j C C C C C Z g t t t ",
"..T v u u t u u t y u u g u y d u g g g S ..o.+.+.O.%.) / L v g p 7 5 5 f L / / L / C l u g g ",
"..T N g k g u g g g u u l l g l g g g g A ..+.+.@.O.%._ ( U C p g t 5 5 s U / ( ( / K l u g u ",
"..W Y C v k g u g u u C V V m m V v g g A ..O.*.O.*.*.^ $._ L C n j t t M L ( / / / L n g u g ",
"..W / Z L n u u u g g V / / ( L L C g g A ..*.+.*.O.O.*.%.$.! / L N s g v / ( / / / L g u g u ",
"..W ) L L n t u g u l C ( ( ( ( / C g l S ..%.*.%.*.*.*.%.O._ ( L C j j C / / ( / / C n g u u ",
"+.o.$.! T l u g n C C / L ( ( _ #.Q G D G  .$.$.*.*.%.$.$.$._ _ _ E T I C C V C C n C u u u u ",
"*.-.*.&.Q z u y V L / / ( ( _ %.&.+.o.o.$.) ( ) %.*.%._ ( ( $.%.%.O.O...E g g g g l g y u u g ",
"=.*.*.&...M u n L / / / ( ( _ %.&.+.*.+.$.( ( ) %.*.%.#.( T $.%.*.O.O.&.! v j s g g g l g g k ",
"@.*.*.O...A v m L ( ( ) ) _ %.%.O.*.*.+.| R C L Q ~ _ _ _ _ $.*.*.*.O.O.^ D A M n g y n n C v ",
"O.*.*.O.%./ K L L / ( _ %.%.%.&.*.O.*.*.! Z n v / ) _ _ %.%.%.*.O.*.*.O.*.^ ^ E B u u V L L L ",
"..O.O.O.$.) ( / ( / Q $.&.*.*.*.*.O.@.%.E N g v L ( ( _ O.*.*.O.*.O.O.*.*.%.%.! B u n L L / / ",
"^ ..O.O.%.( / / ( ( ( $.o.*...%.%.%.%.&.^ D N H L ( ) _ %.%.%.*.*.O.*.*.%.%.%.! B n V L ( / ( ",
"L ! %.%.$.( ( ( / ( ( X.*.O.$.) ) _ *.O.O.X...W ( ( ( / ( ) ..*.+.*.+.+.$.) ( ( L L L / ( ( / ",
"L ! %.%.%.( / / / ( ( $.*.%._ ( ( ) O.*.&.*.O.%.( / / / ( ( _ *.*.*.*.%.$.( ( / / / ( L ( Y / ",
"I ^ %.*.%._ ) / ( ( ( _ X.%._ _ ) _ %.*.%.*.*...T L L L L L _ *.*.&.&.%.%.#.#.( ( / / ( Y Y U ",
"! $.%.*.%...$.$.Q ( ( ( ) ) _ _ X.%.*.O.&.*.&...C n v v v M ~ *.%.*.&.&.&.=.=.$.) ( / / U U U ",
"^ O.*.*.^ -.^ *._ ( / ( U ) _ _ *.*.*.*.*.*.^ ^ A s j g u N T +.@.@.*.*.-.;.;.&.#.( / / / / / ",
"^ *.*.O.-.^ *._ _ ( / U / ( _ *.*.%.%.*.-.^ -.^ A s j g u n | +.*.*.*.*.*.;.;.*.#.#.#.( ( ( ( ",
"O.*.*.*.^ -.*.*.) / U ( U ( _ _ *.*.*.*.^ -.^ ^ ~ ~ R M u v | -.-.-.-.-.;.;.>.-.=.&.&.$.$.#.#.",
"-.*.-.O.*.*.*.^ _ L ( / U ( _ -.%.%.*.%.-.^ *.*.%.%.^ A l v %.>.>.>.>.>.,.,.>.>.-.-.=.=.*.$.#.",
"+.-.-.O.O.O.^ *.) ( ( ( ) ) _ _ &.&.&.*.*.*.*.*.*.*.^ T M A &.>.;.;.,.,.,.,.,.,.,.,.;.*.*.%.$.",
"O.O.*.*.O.O.-.^ ) ( ( ) _ _ _ _ $.&.-.-.*.*.*.*.*.%.%.^ ..~ *.>.;.;.,.,.,.,.,.,.,.;.;.-.-.*.%.",
"^ O.O.*.*.*.*.*.) ( ) _ *._ _ ) ( $.-.:.-.*.&.*.*.%.*.*.-.-.-.>.;.,.,.,.,.,.,.,.,.,.,.;.;.-.*.",
"^ O.*.O.*.O.O.^ _ ( ) _ *.*._ ( ) $.:.:.-.*.&.&.%.*.-.-.;.>.>.>.,.,.,.,.,.,.,.,.,.,.,.>.;.;.=.",
"^ *.*.O.*.^ -.^ %.$.$.&.&.*.%.$.$.=.;.;.;.=.=.&.*.*.&.-.:.:.:.:.,.,.,.,.,.,.,.,.,.,.,.,.,.;.*.",
"^ ^ O.*.*.-.^ -.-.-.-.*.&.*.=.-.;.;.;.;.;.;.;.-.-.&.&.-.:.:.:.:.,.,.,.,.,.,.,.,.,.,.,.,.,.;.*.",
"^ *.*.*.*.*.-._ -.-.-.=.*.&.-.-.:.,.:.:.;.;.;.;._ -.&.-.:.:.:.:.,.,.,.,.,.,.,.,.,.,.,.,.,.;.-.",
"^ *.*.*.*.*._ -.-.-.-.&._ _ =.-.:.:.:.:.;.;.,.;.*.-.&.=.&.=.:.:.,.,.,.,.,.,.,.,.,.,.,.,.,.:.*.",
"^ O.*.*.&.&.*.*.;.>.=.&.) ) &.-.:.:.:.:.:.:.:.:.-.-.-._ _ _ -.:.,.,.,.,.,.,.,.,.,.,.,.,.,.-.*.",
"^ *.*.*.&.&.*.*.=.;.=.$./ ) $.-.:.:.:.;.:.-.:.:.:.:.-._ ( Q _ ;.;.;.;.;.;.:.;.;.;.;.:.:.,.-.-.",
"^ O.O.*.&.&.&.=.=.;.=.$.( ) &.=.-.-.-.;.;.;.:.-.-.:.-._ Q Q *.-.-.>.-.-.-.:.:.,.-.-.-.-.-.-.-."
};
