/* XPM */
static char *c61963438807487db0ccf1dc529cea5f6V5wjsFsNWuhpsTE[] = {
/* columns rows colors chars-per-pixel */
"47 47 144 2 ",
"   c #3C352E",
".  c #3F3C31",
"X  c #463E36",
"o  c #4A4037",
"O  c #434835",
"+  c #4B443A",
"@  c #4D483B",
"#  c #54463B",
"$  c #55493D",
"%  c #59493C",
"&  c #4D523D",
"*  c #4A5C3D",
"=  c #644E3F",
"-  c #6E533F",
";  c #71553F",
":  c #5C4E40",
">  c #595240",
",  c #5A5E44",
"<  c #674F40",
"1  c #645142",
"2  c #695140",
"3  c #6F5B48",
"4  c #745640",
"5  c #765942",
"6  c #795A42",
"7  c #735D49",
"8  c #7A5F48",
"9  c #546443",
"0  c #536944",
"q  c #5B6847",
"w  c #547747",
"e  c #5B744B",
"r  c #5E7A4E",
"t  c #77614B",
"y  c #7D634C",
"u  c #7F6750",
"i  c #7F6850",
"p  c #82664E",
"a  c #85694F",
"s  c #826951",
"d  c #8A6E55",
"f  c #8F7055",
"g  c #8D7159",
"h  c #947356",
"j  c #9A7657",
"k  c #9D7857",
"l  c #94755D",
"z  c #99775B",
"x  c #97785F",
"c  c #9B795D",
"v  c #A47D5C",
"b  c #A97F5B",
"n  c #977860",
"m  c #9A7960",
"M  c #A37E60",
"N  c #A87F60",
"B  c #57804B",
"V  c #5B834E",
"C  c #5E8350",
"Z  c #648D54",
"A  c #669156",
"S  c #A7825D",
"D  c #AD825D",
"F  c #AE825D",
"G  c #AE865F",
"H  c #AC815C",
"J  c #B0835E",
"K  c #B3865F",
"L  c #B4865F",
"P  c #B5875F",
"I  c #B4855E",
"U  c #B6885F",
"Y  c #B88A5F",
"T  c #A48062",
"R  c #A58162",
"E  c #A68061",
"W  c #A88060",
"Q  c #A98060",
"!  c #A98061",
"~  c #AB8160",
"^  c #A88363",
"/  c #AC8260",
"(  c #AD8260",
")  c #AE8360",
"_  c #AF8461",
"`  c #AD8664",
"'  c #AB8261",
"]  c #B08460",
"[  c #B18460",
"{  c #B08561",
"}  c #B38762",
"|  c #B58660",
" . c #B58760",
".. c #B48761",
"X. c #B68660",
"o. c #B68760",
"O. c #B78760",
"+. c #B48660",
"@. c #B28960",
"#. c #B78860",
"$. c #B58A64",
"%. c #B58B65",
"&. c #B68C65",
"*. c #B78C65",
"=. c #B78D65",
"-. c #B68961",
";. c #B88860",
":. c #B98961",
">. c #BA8A61",
",. c #BB8B61",
"<. c #B88A62",
"1. c #BA8A62",
"2. c #BB8F63",
"3. c #BD8D62",
"4. c #BC8D63",
"5. c #BE8E63",
"6. c #BF8F63",
"7. c #B88D65",
"8. c #BA8F66",
"9. c #BB8F66",
"0. c #BF8F64",
"q. c #B98961",
"w. c #BE9165",
"e. c #C09064",
"r. c #C29265",
"t. c #C29365",
"y. c #C29366",
"u. c #C39366",
"i. c #C29467",
"p. c #C39567",
"a. c #C49466",
"s. c #C49566",
"d. c #C59566",
"f. c #C59667",
"g. c #C69667",
"h. c #C79767",
"j. c #C49466",
"k. c #C69768",
"l. c #C79768",
"z. c #C79768",
"x. c #C89768",
"c. c #C79868",
"v. c #C89868",
"b. c #C89868",
/* pixels */
"V A r @ + @ : 1 3 t i i y y p p p p i p i i s s d l n n n n n n m m m M ~ X.0.5.5.5.5.5.5.5.5.",
"V A r @ + : 7 7 t u i y y 6 ; p p y i i s i u s d l n n n n m n m m ~ { X.7.r.d.d.d.d.d.d.d.d.",
"V A r @ @ 1 t s s s p p 6 ; 6 y i i s i i i i s d n n n n m n n m m ( X.<.r.d.v.v.v.v.v.v.v.d.",
"V A r @ + : 3 t t y y y 8 6 p p s d s d d s i s d g n g m n n m m m { <.5.r.h.v.v.v.v.v.v.z.z.",
"V A e + X + : : = 4 6 8 8 y p g l l l l g g s s s s d g n n n n m m =.i.d.d.v.v.v.v.v.v.v.z.z.",
"V A r + + X X X % - 4 6 p s s g n l x x n g s i s s s a l n n n m m =.z.v.v.v.v.v.v.v.v.v.z.d.",
"V A r > # X + : = - 4 8 8 s a l n n n m l g s s s g f g n n m M T ^ 0.z.v.v.v.v.v.v.v.v.v.z.d.",
"V A e : X X # % < 4 4 8 8 s a g x n n n n g s s d v v v n n M { =.8.i.v.v.v.v.v.v.v.v.v.v.z.z.",
"V A C > X % = 2 - - 4 6 p p p f n n m m x g s s h b ;.[ m m M *.x.x.x.v.v.v.v.v.v.v.v.v.z.z.t.",
"B C w > X % = 2 2 p 4 6 p p p d l l n l l d d a k b ;.[ M m R 7.d.h.v.v.v.v.v.v.v.v.v.v.v.z.z.",
"9 9 > : % = ; 4 4 4 4 6 p p a a p p d d g h v v b X.;.X.( ( { <.e.e.r.x.v.v.v.v.v.v.v.v.v.z.z.",
"  X : : - ; ; 4 6 6 6 6 p a p 6 6 6 8 u d j J L ;.;.;.;.#.X.X.;.<.,.r.x.v.v.v.v.v.v.v.v.v.z.z.",
"  . : < < 4 4 6 6 4 6 6 6 a p 6 6 6 p p s c L U ;.;.;.;.<.;.;.;.;.,.r.x.v.v.v.v.v.v.v.v.v.z.z.",
"  X X < < 2 ; ; 6 6 6 6 6 6 p 6 p 8 a d g v L <.;.;.;.;.;.;.;.;.U <.r.x.v.v.v.v.v.v.v.v.c.z.z.",
"  X : 1 < 2 4 ; 4 6 4 4 6 6 6 p p a g g x b X.;.;.;.;.;.;.;.;.;.U ,.r.z.v.v.v.v.v.v.v.v.v.z.i.",
"  X # 1 2 4 4 p 6 4 6 4 6 6 6 6 p s g n m M X.;.;.;.;.;.;.;.;.;.<.<.r.x.v.v.v.v.v.v.v.v.c.c.i.",
"  X % = < 4 4 6 ; ; ; ; ; ; 6 p d g l v v ~ ~ ~ [ X.;.X.( ( D b v v H G K w.s.c.v.v.c.s.8.=.=.",
"  X % < < 4 4 4 ; - - - ; ; p d n n M [ { ~ m M N { Y { M m l g d d a d h S s.c.v.v.c.2.^ M M ",
"  X % < < 4 4 4 ; 4 - - ; 6 6 f m M N X.X.~ m m M { X.( m m l d s s s p f S w.c.c.c.f.2.R m m ",
"  X % < < < 4 4 4 < - ; ; p y h M M ( ;.;.[ N M ~ ~ ( ~ m n l d i i f h j S w.s.r.t.w.=.` ^ ` ",
"  X % < 2 2 2 2 < < 2 4 t y a v b +.X.;.;.X.L [ ( M M m m n l d s d j H J +.,.,.,.,.,.5.0.w.0.",
"  X % = < 2 < 2 < < < 4 t p d S X.;.;.;.;.;.Y <.( m n n m m l s y d b K ;.;.;.;.#.#.U 5.d.c.z.",
"  X % = 2 < 2 < < 2 < 4 y p a v X.;.;.;.;.X.X.{ N x l l m m x h d h b L ;.;.;.;.<.<.5.r.z.z.z.",
"  X % = < 2 < 2 2 4 4 6 y a a v X.;.;.;.X.( M m x d d h D { ( D D b I ;.;.;.;.;.5.r.r.d.z.z.d.",
"  X $ = 2 < 2 < 2 ; 6 ; p p d S U U U <.X.~ m m h s s h H X.X.X.U U ;.;.;.;.;.1.6.h.x.x.x.x.d.",
"O @ > < = = < 2 2 6 6 p p p a c b H H D H b M m x h d j D Y U <.;.;.;.;.;.;.,.,.r.h.b.x.x.x.d.",
"0 e q $ # % = < 2 y y y y i s f j h h h h v H ~ b v v b L ;.U ;.;.;.;.;.;.4.r.r.r.h.x.x.h.x.x.",
"V Z r @ + # = 2 3 y p y p s p s p s s s s j L X.;.;.<.;.;.;.;.;.;.;.;.;.,.e.g.x.b.b.x.h.h.x.d.",
"V Z r @ + # = < 3 y p s i s i u s s p s s j { ;.U U ;.;.;.;.;.;.;.;.;.;.<.w.d.c.h.b.b.b.x.x.x.",
"B Z r @ + # < 2 7 y u u i u s s s s d g h v X.<.;.<.X.X.N N ( [ ;.U ;.;.<.@.` %.5.d.b.b.x.x.x.",
"w A e + + # < < 2 y s i s u s u i s d n m M X.;.;.;.<.J M x M ( <.U ;.;.L D m m ` d.b.b.x.x.x.",
"w C e @ + # < < 3 y y s y s i i s i g n m v { X.;.;.X.[ M m M ( X.{ X.X.{ ~ M m _ t.d.d.d.d.r.",
"* 0 9 : % = = 2 2 t 8 p p s y s s s g n m m ~ ~ ( #.<.X.~ N N ~ N ~ ~ N ~ ~ M ~ { 0.e.7.%.%.%.",
". @ $ < = < < < ; ; 6 8 y p u s s s g n m m m m M { <.X.X.;.( M m m m m m ~ L X.U <.<._ M m M ",
"  X $ = = 2 < 2 4 4 5 6 y s s u i s g n m m n m v { U ;.;.;.+.M m n m m m ~ L <.<.L ;.( m m m ",
"  X % = 2 < 2 2 2 ; ; 4 8 t t y i s d g g l n m M ~ ( ( [ N N m n n m n m M ( ( X.5.5.#.} ^ ` ",
"  X % = 2 2 2 = < 2 < 4 2 2 7 8 u s s s d g l n m m m m M m m m n m n m n m m M ` r.z.j.i.i.w.",
"  X % = < 2 < 2 2 < < = = 2 2 t u i i s i d l n m m n n m m m m n m m m m m m m ` r.z.x.z.z.z.",
"  X % = 2 2 < 2 < 2 2 2 2 = 2 t u s s i i d g g l n n m n n m M M M M M M v M M { r.r.r.r.r.e.",
"  X % = = 2 2 = 2 = 2 = 2 = 3 t u i i i i s d d d n n n m n m N ( { { K [ { { { X.<.4.,.4.,.*.",
"  X % = = 2 = 2 2 2 < < < 2 2 8 u s u s s u y s d l m m n n M [ ;.;.;.;.;.;.;.;.<.;.;.;.;.;.;.",
"  X % - 2 2 2 < 2 = < < = = 2 8 u s s s s d d d g c m m m M M N ;.;.;.;.;.;.;.;.;.;.;.;.;.;.;.",
"  X % = 2 < < < 2 = 2 = : # : 3 u s d h l c b b b [ [ [ [ [ +.X.;.;.;.;.;.;.;.;.;.;.;.;.;.;.;.",
"  X % = = 2 - = < 2 2 = # X # 3 u s d l n M X.X.;.;.;.X.;.+.X.1.;.;.;.;.;.;.;.,.;.;.;.;.;.;.;.",
"  X % = = = = - < < < : # : : t d f j c M ( <.,.;.;.;.;.N X.X.1.;.;.,.,.,.,.;.,.>.>.Y Y ;.;.;.",
"  X # = = = = = = # # % < 1 7 d k v v b b L 5.e.,.;.I [ v M N b O.O.,.3.3.,.O.b b >.b Y L L I ",
"  X # = = = = = # X X $ 2 t u j b b J b D L ,.5.;.I b b h h h v b b ,.3.r.,.b O.b b J b b b b "
};
