/* XPM */
static char *affe70dd64f845acae383d999e2a8108mOHZYlwXb4zH0vDB[] = {
/* columns rows colors chars-per-pixel */
"47 47 136 2 ",
"   c #795B43",
".  c #7E644C",
"X  c #7F6850",
"o  c #81664E",
"O  c #85684F",
"+  c #826951",
"@  c #8A6E55",
"#  c #8E7056",
"$  c #8E7159",
"%  c #947456",
"&  c #997657",
"*  c #94755D",
"=  c #99775B",
"-  c #97785F",
";  c #9C795C",
":  c #A37C5B",
">  c #A87F5D",
",  c #977760",
"<  c #977860",
"1  c #977860",
"2  c #987860",
"3  c #997860",
"4  c #997960",
"5  c #9A7960",
"6  c #9B7960",
"7  c #9A7A60",
"8  c #9B7A60",
"9  c #9C7A60",
"0  c #9D7A60",
"q  c #9D7B60",
"w  c #9F7B60",
"e  c #987860",
"r  c #A07C60",
"t  c #A17C60",
"y  c #A17D60",
"u  c #A37D60",
"i  c #A37E60",
"p  c #A47E60",
"a  c #A57E60",
"s  c #A57F60",
"d  c #A67F60",
"f  c #A77F60",
"g  c #A17D60",
"h  c #A9825D",
"j  c #A9805E",
"k  c #A8805F",
"l  c #AC815D",
"z  c #AD825C",
"x  c #AD825D",
"c  c #AF835D",
"v  c #AE825E",
"b  c #AE835E",
"n  c #AF835E",
"m  c #AE835F",
"M  c #AC815D",
"N  c #B0845E",
"B  c #B1845E",
"V  c #B0845F",
"C  c #B1845F",
"Z  c #B2855E",
"A  c #B3855E",
"S  c #B3855F",
"D  c #B3865F",
"F  c #B4855F",
"G  c #B4865F",
"H  c #B5865F",
"J  c #B5875F",
"K  c #B6875F",
"L  c #B4865F",
"P  c #A78060",
"I  c #A88060",
"U  c #A98060",
"Y  c #A98160",
"T  c #A88161",
"R  c #AA8160",
"E  c #AB8160",
"W  c #AA8260",
"Q  c #AB8260",
"!  c #AC8260",
"~  c #AD8260",
"^  c #AD8360",
"/  c #AE8360",
"(  c #AF8360",
")  c #AC8563",
"_  c #AD8663",
"`  c #AC8260",
"'  c #B08460",
"]  c #B18460",
"[  c #B18560",
"{  c #B28560",
"}  c #B38560",
"|  c #B38660",
" . c #B48660",
".. c #B58660",
"X. c #B58760",
"o. c #B68760",
"O. c #B78760",
"+. c #B38560",
"@. c #B38963",
"#. c #B78860",
"$. c #B78A62",
"%. c #B78860",
"&. c #B88860",
"*. c #B98860",
"=. c #B98960",
"-. c #B98A61",
";. c #BA8A61",
":. c #BB8B61",
">. c #B88A62",
",. c #BB8B62",
"<. c #BB8D63",
"1. c #BC8C62",
"2. c #BD8D63",
"3. c #BE8E63",
"4. c #BE8F63",
"5. c #BF8F63",
"6. c #BD8F64",
"7. c #BF8F64",
"8. c #B88860",
"9. c #BF9064",
"0. c #BE9165",
"q. c #BE9166",
"w. c #C09164",
"e. c #C09365",
"r. c #C29265",
"t. c #C09366",
"y. c #C39366",
"u. c #C29466",
"i. c #C49466",
"p. c #C49566",
"a. c #C59566",
"s. c #C59567",
"d. c #C69667",
"f. c #C79767",
"g. c #C89868",
"h. c #C99968",
/* pixels */
"#.#.O.&.#.&.&.&.O.O.O.2.y.f.g.g.g.g.g.g.g.g.g.y.w.O.O.O.O.1.O.O.&.&.&.&.&.&.O.O.O.&.&.&.#.&.&.",
"l l h h l G &.1.2.2.w.w.f.h.g.g.g.g.g.g.g.g.g.d.w.2.1.O.*.O.O.O.&.&.&.&. . .] B l l l { { { { ",
"% % % % & h 0.y.y.y.y.d.f.h.g.g.g.g.g.g.g.g.g.f.y.y.y.2.1.O.1.K &.&.&.O.^ p r = % % & t t p t ",
"X X . X + : y.h.f.h.f.f.f.f.g.g.g.g.g.g.g.g.g.g.f.f.f.2.K *.O.O.&.&.&. .f w , $ X + $ * , , 7 ",
"X X + + # P 0.p.f.f.f.h.f.f.h.h.g.g.g.g.g.g.g.g.h.h.s.2.K K *.*.&.&.&. .U 7 , $ + @ $ * * * 7 ",
"X + # $ * k J 0.r.a.h.f.f.a.h.h.g.g.h.f.g.g.h.f.g.h.s.2.1.K *.*.&.&.&. .P 7 1 , $ $ $ # @ $ , ",
"+ + $ * - P D K w.s.f.f.f.h.h.h.g.h.f.f.g.h.f.h.g.g.s.2.O.O.*.O.O.&.O. .U 7 , 1 1 , $ + + @ * ",
"X + $ - P ^ #.K 1.s.h.s.s.d.a.a.d.y.d.d.d.y.d.y.u.0.y.&. ... . .{  . .] p 7 7 7 q 7 * @ @ @ * ",
"+ + & h ^ {  .&.1.w.w.1.w.w.w.w.w.w.w.w.9.9.9.<.@._ ^ P P p P p p p p p r 7 7 t ^ l h > : & @ ",
"X + ;  .&.&.&.&.K &.&.K &.&.K K K K K &.K &.&.{ p 7 7 1 1 1 7 7 3 , 7 3 3 3 7 p  .K K K G h O ",
"o O ; A J J  .#.&.&.&.&.&.&.&.&.K *.&.&.K K J n t , * , , , , , 3 7 w 3 3 7 w P O.&.K K J > @ ",
"X o # & = ; > P ^ O.&.&.&.&.&.&.1.O.K J A : & & $ # $ @ @ $ * 1 3 p f ^ U U U { O.&.K K A > @ ",
"o X + @ + * - q U  .O.O.&.&.K K K K O.O.N # O + + + + + + @ $ , 7 f  . .O.O.K K &.&.&.&.G > @ ",
"+ + + + + $ * 7 p  .G G A A l A A B A B > @ O o o + X + X + $ * = >  . .O.*.K K &.&.G G l : O ",
"$ $ $ $ $ * * 7 r p U : : : ; : & : : & % @ + . X + X X X + @ $ $ = > ^ ] O.K w.K K l : ; % + ",
"7 1 * * * 7 7 1 3 7 - * + + o + + + + + + + + + X X + X X X X X + * 3 r f  .K K K G : @ + + X ",
"3 3 3 7 3 7 3 7 3 , 3 $ + + X X O + X + X + . X + X o X + X X o + $ , 7 f  .&.&.&.K : @ X X + ",
"3 3 r p f f f p r 7 , $ + X + + + o o X + X + X X + X + X + + X + $ , 7 U  .&.O.&.G : @ X + # ",
", 7 f {  . . . .f 7 3 $ + + X X X X X + + X X X X + o o + + X X + $ * 7 U  .&.O.K A : O X @ * ",
"3 w ^  .&.O.&.O.U w 3 $ @ + + + + + X X X + + + + + + @ + + + + + * 3 7 f A  .G G N : O X # * ",
"p p ] O.&.&.&.O.^ 7 3 * $ @ + + X o X X + @ $ # % % & & & & # # $ $ , 7 ; : : : : : & + + # ; ",
" . .O.O.&.&.&.O.^ 7 , , , * * + + X X X + $ * ; k A A A J n : * , , 1 , @ @ @ + O O + + + % n ",
"&.&.O.&.&.&.&.&.U = , 3 3 , * + X + + X @ * , t n #.&.&.#.{ P 1 3 3 = * @ + X X o + o X + % n ",
"&.&.&.&.&.&.&. .U * * $ $ $ $ + X + @ @ $ ; t U _ #.&.&.&.#.U P t w 3 * * + X + o + X + + & n ",
"&.&.&.&.&.&.&. .> @ + + + + + + X @ $ * - ^ {  .J K &.&.&.&. . .] p 7 * $ + + . X + X X O & > ",
"&.&.&.&.&.&.&.G > + + + + + X X X @ * 7 : {  .&.&.&.&.&.&.&.&.&. .p w , $ + X X + . + + O & > ",
"&.&.&.&.#. .{ l ; + + X + X + + X @ = t p  .&.&.&.&.&.&.&.&.&.&.O.^ t : * + + + X X + o + $ t ",
"&.&.&.&.#.U t w * + X + + + X X + # >  . .O.&.&.&.&.&.&.&.&.&.&.O. .{ l & + + X X + + o O O O ",
"#.#.&.K  .U 7 , $ + + X X + + + + % > G &.&.&.&.&.&.&.&.&.#.&.&.O.O.&.G = @ X + X + X + o o   ",
"{ { A z h : * * $ + @ + + + + + @ % l &.&.&.&.&.&.&.#. .{ { ^ { ] ] { ^ = + X . + . . . o o o ",
"w ; = # @ @ + @ $ $ * $ + + + * * : B O.&.&.&.&.&.&. .U r w t t r r r = $ O X + X + .   o   o ",
"3 7 $ + o + + + @ , , $ + X + * , : _ &.#.#.&.&.&. . .t 7 3 7 1 3 3 6 , $ + X + X X .     o o ",
"3 , $ @ @ X X + @ $ , @ X + @ , 1 y ) { _ { _ B ] _ l t 7 , * $ * $ * $ @ + X X + . .       + ",
", 1 * * $ @ + + X @ @ + X X @ * 1 7 w q t t t t t t w w , * $ @ @ @ + @ + + + X X +         X ",
"7 7 1 1 , $ + + X X + X X X + , 1 1 1 7 7 7 , , , , 1 7 , * $ + X + X X . + X X + X         X ",
", * * 1 , $ @ + + X X + X X @ $ $ 1 1 1 , 1 , 7 7 7 , , , * $ + + + X + + X + X . . .       X ",
"+ $ $ , 1 * * $ $ + + + + + + + @ $ * 1 7 1 1 7 , , 1 7 , , * * * @ + X X + X .             X ",
"X + $ , 7 1 , * $ + X + X X + + X @ * 1 1 1 7 - , 7 1 1 7 , 1 * , @ + X X X + +             X ",
"+ + * , 1 , , , $ @ + + + @ + + X @ $ * * * * * * * * , , , 7 7 , $ X X . X .               + ",
"* $ * , 1 7 7 , , $ * $ $ $ $ + X X X @ @ @ @ # @ @ $ $ , 3 , , * @ X X .                 o $ ",
", , , 7 , 7 7 1 , 1 , , , , * + o X o o X + o + + o + * * 3 3 3 , @ o o o                 o % ",
"7 7 , , , , , , , , , , , * $ + X o X X X X o o + + @ * w 3 7 7 6 # O O o     o           o * ",
", , 7 , 7 , 7 , * $ @ $ @ @ @ + o X     . X X O & : : h U ^ ^ ^ f > : : O # O O     @ O @ # * ",
", 7 , , 7 , 1 , $ + X + + + + X o .       X X @ : A  . . . .#. .w.> *.> > & * $     @ * = , 3 ",
", , 7 , , , 7 , * + + + X + X . o .       O @ & > &.&.&.&.&.&.&.*.*.*.> f f t $ + + @ * , , , ",
"7 , 7 , 7 , , , * $ $ @ + X . .   . . . O % ; : l K &.&.&.&.&.&.*.*.w.*.*.f f = + + + @ @ $ , ",
", 7 , , , 3 3 , 3 3 3 $ + X .       . O # > J &.&.&.&.&.&.&.&. .w.> *.*.w.> > t + + O o O @ * "
};
