/* XPM */
static char *c2fde78976514ea0e04a066d877fa6c7Ytv7dYF5LUnGtp2T[] = {
/* columns rows colors chars-per-pixel */
"47 47 81 1 ",
"  c #38332F",
". c #3B3632",
"X c #3C3734",
"o c #3D3834",
"O c #3D3835",
"+ c #3F3A36",
"@ c #3F3A37",
"# c #403B37",
"$ c #413C39",
"% c #423D3A",
"& c #443F3B",
"* c #443F3C",
"= c #45403D",
"- c #484340",
"; c #494441",
": c #4A4542",
"> c #4B4643",
", c #4C4743",
"< c #4C4744",
"1 c #4D4844",
"2 c #4E4946",
"3 c #4F4A47",
"4 c #514C49",
"5 c #534E4A",
"6 c #534E4B",
"7 c #57524E",
"8 c #585350",
"9 c #595450",
"0 c #5B5652",
"q c #5C5754",
"w c #5E5955",
"e c #5E5956",
"r c #5F5A56",
"t c #605B57",
"y c #615C59",
"u c #625D59",
"i c #625D5A",
"p c #635E5A",
"a c #66615E",
"s c #67625F",
"d c #696460",
"f c #6A6561",
"g c #6A6562",
"h c #6D6864",
"j c #6F6A67",
"k c #706B67",
"l c #716C68",
"z c #726D6A",
"x c #76716D",
"c c #78736F",
"v c #797471",
"b c #7B7673",
"n c #7C7773",
"m c #7C7774",
"M c #7E7975",
"N c #7F7A77",
"B c #807B77",
"V c #817C78",
"C c #817C79",
"Z c #837E7A",
"A c #847F7C",
"S c #85807C",
"D c #86817E",
"F c #87827E",
"G c #88837F",
"H c #888380",
"J c #898481",
"K c #8A8582",
"L c #8B8682",
"P c #8B8683",
"I c #8C8783",
"U c #8C8784",
"Y c #8D8884",
"T c #8E8986",
"R c #8F8A87",
"E c #908B87",
"W c #918C88",
"Q c #918C89",
"! c #938E8A",
"~ c #938E8B",
"^ c #948F8C",
/* pixels */
"LLLLYLFLYWIGILLLLLLLLLLLLLLLLLLLLLLLLLLLLLLLLLL",
"LLLLLYEIFFLYLLLLLLLLLLLLLLLLLLLLLLLLLLLLLLLLLLL",
"LLLLGWYburxELLLLLLLLLLLLLLLLLLLLLLLLLLLLLLLLLLL",
"LLLLGYFt. tLLLLLLLLLLLLLLLLLLLLLLLLLLLLLLLLLLLL",
"LLLLGYFro.tGLLLLLLLLLLLLLLPPLLLLLLLLLLLLLLLLLLL",
"LLLLFEIx07kLLLLLLLLLLLLPLLPPLLLLPPLLLLLLLLLLLLL",
"LLLLLLIILLLLLLLLLLLLGLLFHYYU~YAH~RALLLLLLLLLLLL",
"LLLLLLLLLLLLLLLLLLLLULYWRPLPP~RHPPPULLLLLLLLLLL",
"LLLLLLLLLLLLLLLLLLLLRPPPmaqujA~PHLRPPPLLLLLLLLL",
"LLLLLLLLLLLLLLLLLLLLPPAz0*XX<uA~PPPPPPLLLLLLLLL",
"LLLLLLLLLLLLLLLLLLPLHRAq---%%*gQWALPLLLLLLLLLLL",
"LLLLLLLLLLLLLLLLLLPPH~A6X;4-<XePPAHRLLLLLLLLLLL",
"LLLLLLLLLLLLLLLLLLLLHRb2X$-$2@rPPARRLLLLLLLLLLL",
"LLLLLLLLLLLLLLLLLLLLPPvq--<<-@dRPP~ALLLLLLLLLLL",
"LLLLLLLLLLLLLLLLLLLLPRHj<Xo%X8cPUPPYLLLLLLLLLLL",
"LLLLLLLLLLLLLLLLLLLLHRRNd822yzHRYHLULLLLLLLLLLL",
"LLLLLLLLLLLLLLLLLLLLHPPRHAvcAPR~ULHPPPLLLLLLLLL",
"LLLLLLLLLLLLLLLLLLLLPHLPRR~~PRRPPPPPPPLLLLLLLLL",
"LLLLLLLLLLLLLLLLLLLLRPPHAAHPPLHHPPURLLLLLLLLLLL",
"LLLLLLLLLLLLLLLLLLLLLPRYHHAHPHHPPRUULLLLLLLLLLL",
"LLLLLLLLLLLLLLLLLLLLHLURWRUPPPPPPPPPLLLLLLLLLLL",
"LLLLLLLLLLLLIILLLLLLRPHLPPLFPPPPPPURLLLLLLLLLLL",
"LLLLLLLLLLLLGGLILPLULLLLPPLLLPPPLLLLLLLLLLLLLLL",
"LLLLLLLLLLLLLIYIPPPHLLLLLLLLLPPPLLLLLLLLLLLLLLL",
"LLLLLLLLLLLLIWYVFWQFLLLLLLLLLLLLLLLLLLLLLLLLLLL",
"LLLLLLLLLLLLILxruVILLLLLLLLLLLLLLLLLLLLLLLLLLLL",
"LLLLLLLLLLLLLVt.ogHLLLLLLLLLLLLLLLLLLLLLLLLLLLL",
"LLLLLLLLLLLLYVuo=gLWLLLLLLLLLLLLLLLLLLLLLLLLLLL",
"LLLLLLLLLLLLWYMagVWWLLLLLLLLLLLLLLLLLLLLLLLLLLL",
"LLLLLLLLLLLLGW!IGYIFLLLLLLLLLLLLLLLLLLLLLLLLLLL",
"LLLLLLLLLLLLYLLLLLLLWFFYWPPRLLLLLLLLLLLLLLLLLLP",
"LLLLLLLLLLLLLLLLLLLLYLLYFjhxLLLLLLLLLLLLLLLLLLP",
"LLLLLLLLLLLLLLLLLLLLLFLYz1*4LLLLLLLLLLLLLLLLLLL",
"LLLLLLLLLLLLLLLLLLLLLFLIh%.1LLLLLLLLLLLLLLLLLLL",
"LLLLLLLLLLLLLLLLLLLLRLLQVpthLLLLLLLLLLLLLLLLLLL",
"LLLLLLLLLLLLLLLLLLLLYFLQWZFYLLLLLLLLLLLLLLLLLLL",
"LLLLLLLLLLLLLLLLLLLLLHHPYYYYUILLLLLLLLLLLLLLLLL",
"LLLLLLLILLLLLLLLLLLLUYUPLIHFLLLPLLLLLLLLLLLLLLL",
"LLLLGEIIWIFGLLGGLLLLLLRPLE^Lhq1uA~RHLLLLLLLLLLL",
"LLLLLIGLWIGWLYYILLHLPLPLLILz%%$=uL~PLLLLLLLLLLL",
"LLLLILFIIbkcSGWILLHLUUPLHQFu@<;@6N~HLLLLLLLLLLL",
"LLLLIGGYSw#=nZIILFFUUYUHHRAe-4<%7N~LLLLLLLLLLLL",
"LLLLIGGWV9  nSIILFLLLLRLARUz%@o*uH~YLLLLLLLLLLL",
"LLIIIIGIGktuSGEILLFLLLRPHRWVgq4gNRRPLLLLLLLLLLL",
"LLLLIIGGYGBIIIIYUPLHUHPUHPRPWLFUQRPHLLLLLLLLLLL",
"LLLLLYIGWWIWLGGLPULL~AHRHHPPGYYYHPPPLLLLLLLLLLL",
"LGGILLLLIIYYWIGGYWPAPPPPPPPPLLLIPPPPLLLLLLLLLLL"
};
