/* XPM */
static char *dd9674ce804d434ac95a4e7846449b6eurPc7RIW9Zo54TvX[] = {
/* columns rows colors chars-per-pixel */
"47 47 8 1 ",
"  c None",
". c #483636",
"X c #6F5153",
"o c #785959",
"O c #977570",
"+ c #B6A487",
"@ c #C1B28E",
"# c #E6E6E6",
/* pixels */
"                                               ",
"                     X@                        ",
"                   +oOoX+                      ",
"                  OO++++@o                     ",
"                 OO+++++++Oo                   ",
"                OO++++++++++O                  ",
"                o++++++++++Oo                  ",
"               @OOOO++++Ooo..@                 ",
"               OOOOOOO++X....O                 ",
"               OOOOOOO++.....X                 ",
"               +oOOOOOOO......                 ",
"               OoOOOOOOO......+                ",
"               oOOOOOOOO......O                ",
"               oOOOOOOOO.......                ",
"             ..XOOOOOoOOX......                ",
"           +.OOOoOOOOOooX......                ",
"          Xo++++++++OOOoX......@               ",
"         XO++++++++++OOoX....XXOo              ",
"        X+++++++++++++Ooo..XoOO++o@            ",
"       OO+++++++++++++Ooo.oO++++++Oo           ",
"       oOO++++++++++++OXoXO++++++++O+          ",
"      OoOOO+++++++++++OXooO++++++++oO          ",
"      OoOOOO++++++++++OXXoO+++++++o..          ",
"      OOOOOOO++++++++OXXXOOOO+++Oo...+         ",
"      oOOOOOO+++++++OoXXoOOOOO+OX....O         ",
"      oOOOOOOO++++OOX.XoOOOOOOOo......         ",
"     +ooOOOOOO+OOooX..XoOoOOOOOo......@        ",
"     OOoOOOOOOOOoOoX...oOOOOOOOo......+        ",
"     OOOOOOOOOoooooX...OOOOOOOOo......X        ",
"     OoOOOOOOOoooooX...OOOOOOOOo.......XO      ",
"     OoOOOOOOOooooooX..OOOOO+++OX....X++#      ",
"     OOOOOOOOOooooooX..OOOO+++++O....O+++O     ",
"     OOOOOOOOoooooooX..oOOO++++++O..XO++++     ",
"     OOOOoOOOoooooooX..oOOOO+++++O..XOO+OO     ",
"     OOOOOOOOoooooooX..XOOOOO+++OX...ooo..     ",
"     OOOooOOOooooooXXXXoOooOO++OX.....ooX.     ",
"     OOo..oOOoooooXXoOOOO..OOOOX...Xo.XoXX     ",
"      Oo...ooooXooXoO++++..oOOo....OO..Xo      ",
"      OO....oooXoo.oO+++O..oOOo....OOoO        ",
"     @OOo...oooooX.oOO+OX..XOOX....oOO+        ",
"     ooOO...XoXXooXooOOX....oO.....+XX         ",
"     XoOOX..XoXXXXXoOOO......O.....            ",
"     OoOOX....OO...oOOO..... O.O               ",
"      .XX..@  oXO  +OOO.....                   ",
"                    .......+                   ",
"                                               ",
"                                               "
};
