/* XPM */
static char *_88d24595af8461fb8b6123a9aff9022PrVS8TyXpI5MKb2r[] = {
/* columns rows colors chars-per-pixel */
"47 47 237 2 ",
"   c None",
".  c #00000D",
"X  c #191D1B",
"o  c #0D1B1E",
"O  c #2C1B1A",
"+  c #21201E",
"@  c #3C221C",
"#  c #382A1A",
"$  c #1B182E",
"%  c #2A192A",
"&  c #211730",
"*  c #2E2D27",
"=  c #352824",
"-  c #393727",
";  c #3B3A35",
":  c #2E3223",
">  c #48291A",
",  c #47371A",
"<  c #583C1B",
"1  c #523616",
"2  c #4C2F14",
"3  c #673C18",
"4  c #733B17",
"5  c #492826",
"6  c #4C3921",
"7  c #573220",
"8  c #3F442A",
"9  c #4F4915",
"0  c #5F4719",
"q  c #5A541F",
"w  c #694C1D",
"e  c #7D4D1A",
"r  c #49442A",
"t  c #584723",
"y  c #4F5135",
"u  c #554E30",
"i  c #69582A",
"p  c #785B29",
"a  c #775A38",
"s  c #644C30",
"d  c #5A663B",
"f  c #7D6426",
"g  c #6B6838",
"h  c #7D743E",
"j  c #786F36",
"k  c #5C5A4E",
"l  c #5E6049",
"z  c #646245",
"x  c #737949",
"c  c #757856",
"v  c #696C53",
"b  c #845C1A",
"n  c #9A5918",
"m  c #874B0F",
"M  c #A55B1B",
"N  c #82621C",
"B  c #A9610F",
"V  c #BB6719",
"C  c #BA7716",
"Z  c #864E25",
"A  c #965626",
"S  c #846824",
"D  c #967929",
"F  c #857638",
"G  c #BD6A24",
"H  c #AA7626",
"J  c #BB7927",
"K  c #AB6B28",
"L  c #F95304",
"P  c #F45B01",
"I  c #F75A09",
"U  c #F85509",
"Y  c #F85310",
"T  c #C9700F",
"R  c #C6681B",
"E  c #D46D1D",
"W  c #DB7319",
"Q  c #C6781B",
"!  c #F36B03",
"~  c #EE7D0B",
"^  c #EF7D07",
"/  c #F27B05",
"(  c #F37B0B",
")  c #F77807",
"_  c #EC7B13",
"`  c #E87D1B",
"'  c #F57A13",
"]  c #F47519",
"[  c #F27714",
"{  c #DD7120",
"}  c #CD7623",
"|  c #827F53",
" . c #807A4B",
".. c #837F66",
"X. c #AB841E",
"o. c #8D8022",
"O. c #9B8424",
"+. c #A88A27",
"@. c #A48933",
"#. c #B59333",
"$. c #B08E28",
"%. c #D9801E",
"&. c #DC9F1F",
"*. c #EC8809",
"=. c #F3840C",
"-. c #F58B0C",
";. c #FA8E0D",
":. c #ED950D",
">. c #E99709",
",. c #F3930D",
"<. c #F9910B",
"1. c #F4980B",
"2. c #EB8818",
"3. c #F48E13",
"4. c #F88A11",
"5. c #F4841C",
"6. c #F58417",
"7. c #ED9515",
"8. c #EC9A13",
"9. c #EC951A",
"0. c #ED9A1C",
"q. c #E3901D",
"w. c #F39213",
"e. c #F59B12",
"r. c #F3931A",
"t. c #F79C1E",
"y. c #D7A91C",
"u. c #E9A809",
"i. c #F5BD0C",
"p. c #F5BC07",
"a. c #F3A412",
"s. c #F8AC17",
"d. c #F6A916",
"f. c #F3B412",
"g. c #F0A013",
"h. c #CB9E38",
"j. c #D99130",
"k. c #D48720",
"l. c #E88E27",
"z. c #EA9524",
"x. c #F2992B",
"c. c #F09533",
"v. c #C8A52D",
"b. c #D8A728",
"n. c #DCB32E",
"m. c #EAA328",
"M. c #F0BC21",
"N. c #E8AB35",
"B. c #F2A535",
"V. c #ECBB3B",
"C. c #EDB33B",
"Z. c #ECB12E",
"A. c #F7C80A",
"S. c #F9D505",
"D. c #F3D903",
"F. c #F6D50B",
"G. c #F9D30B",
"H. c #F3D90C",
"J. c #F4D605",
"K. c #F4CC12",
"L. c #F8C812",
"P. c #F6D413",
"I. c #F9D214",
"U. c #F4D41D",
"Y. c #F6D919",
"T. c #EADF2F",
"R. c #F5DB2C",
"E. c #F4DC26",
"W. c #EEDE31",
"Q. c #F5DE35",
"!. c #F5E33A",
"~. c #F3E528",
"^. c #979B5D",
"/. c #8C8550",
"(. c #BC9D56",
"). c #9DA157",
"_. c #B2B154",
"`. c #818470",
"'. c #9B9873",
"]. c #8F906B",
"[. c #94A068",
"{. c #A1A36F",
"}. c #AFA772",
"|. c #D3AB59",
" X c #EEAF43",
".X c #EDB742",
"XX c #E9BB4A",
"oX c #F4BB47",
"OX c #EEB159",
"+X c #CCB46E",
"@X c #EFAE6C",
"#X c #F4BA68",
"$X c #EDC446",
"%X c #F4CA4D",
"&X c #EDC957",
"*X c #F3C955",
"=X c #F4D35C",
"-X c #F5D95E",
";X c #F8D859",
":X c #F6DB4D",
">X c #EFEA4E",
",X c #F6E449",
"<X c #F7E748",
"1X c #FAED54",
"2X c #FBED5B",
"3X c #F8EA58",
"4X c #FCF35D",
"5X c #EBEC5A",
"6X c #C9C76B",
"7X c #D8D065",
"8X c #F3DE6A",
"9X c #F7D964",
"0X c #F1D27B",
"qX c #DCE66D",
"wX c #F9E362",
"eX c #FCED66",
"rX c #FCED6C",
"tX c #F6E868",
"yX c #FDF462",
"uX c #FBF26C",
"iX c #F4F568",
"pX c #FDEC7B",
"aX c #F9EA77",
"sX c #FDF474",
"dX c #FDF47B",
"fX c #F5F377",
"gX c #BEC58A",
"hX c #C2C985",
"jX c #F6D08B",
"kX c #F4DC8C",
"lX c #FDF682",
"zX c #F8F785",
"xX c #FEF69B",
"cX c #FCF893",
"vX c #F0E783",
"bX c #FCF5A8",
"nX c #FAFAB6",
/* pixels */
"                                                                                              ",
"                                                                                              ",
"                                                                                              ",
"                                                                                              ",
"                                                *                                             ",
"                                                v                                             ",
"                                                ).                                            ",
"                                                6X*                                           ",
"                                                vX8                                           ",
"                                              r vXy                                           ",
"                            = S N 6           c fXg                                           ",
"                          w n.f.b.#.F         _.4Xh                                           ",
"                          b.y.i           3 e 7X1X/.                                          ",
"                        6 Z.0 % b Q k.n k.9.0.yX1XXXn     - f w                               ",
"                        # #.o K 7.e.>.g.d.,.C.eX1X&X5.Z   p D v.+.                            ",
"                          a # 8.t.s.a.f.g.,.=X>X3X=X-.B         #.0                           ",
"            : z             < r.d.>.;.,.w.m.rXT.2X=X2.[ { m     s s       ;                   ",
"              - {.^.  $ > t 2 q.e.7.3.<.7.=X2XG.1X8X3.=.*.[ A         c z                     ",
"                  ).0X_.N.r.z.4.:.w.w.N.9XuXE.K.2XtX7.,.3.( ` 5   /.{.y                       ",
"                g $ j aXlXrX9X;X;X9XwXyX3XT.L.G.2XdXC.w.3.5.5.(.hX|                           ",
"              q D X 9 x.9XrX,XR.Q.R.~.Y.S.S.s.S.<XlXsX*XoX%XaX&XA                             ",
"              w v.X # l.r.$XdX<XS.A.A.G.D.A.0.F.H.>X2X2XiXrX.X=._ G @                         ",
"            9 y.w O , C ,.3.W.dXQ.S.s.u.L.6.s.G.L.A.I.,XtXB.7.3.4.( R %                       ",
"            @.D X H l.;.w.2.3.pX,XD.G.! U I ! ! u.D.,XdXV.<.,.>.:.' [ e                       ",
"            +.t w 2.3.9.1.,..XuXR.G.e.P L L Y 1.F.K.4XzX8XB.8.w.7.*.] J c '.{.'...k           ",
"            r i t 9.8.r.Z.=XsX1XH.K.5.I L L Y *.A.F.!.yXuXdXsXrX-X:X*X|.c = .                 ",
"              - z XX%X9X8X8XsXlXY.L.~ ) L / I 5.i.A.P.!.yXsX-XoXx.` [ n                       ",
"              ; r Z z.1.<.w.$XrXH.p.L.K.! L.i.*.I.J.,XlX=X0.*.=./ / E t @                     ",
"                  6 Q d.1.7.=X,XG.I.S.I.7.F.J.L.p.F.4XpX9.,.=.( _ V 5 +.                      ",
"              @ H 0.d.a.1.V.1XR.!.1X~.I.f.I.H.G.G.S.2XaX0.7.:.] m = +.f                       ",
"              C ,.s.1.w.N.rX>XdXlXdXdX<X:XzXcXpX1XQ.Y.yXoX3.;.~ V @.S                         ",
"            5 l.w.d.<.z.tXiXpX,X$Xm. XeXfXbXnXxXdXlXiX5XrXm.;.~ E X.S                         ",
"            1 ` ,.e.7.;XuX-XB.9.-.w.,.=XpXcXnX#Xt.*XdXsXsXtX3._ R +.t                         ",
"              E ) 6.*XuXoXw.=.( ~ 2.7.N.cXnXjX@X-.4.C.rXdXdX&X~ 4 F                           ",
"              7 } N.-Xz.' ) _ / { W 4.7.bXbXjX@X^ 2.3.r.&XsXsXh.% ,                           ",
"                a +XG R T R V Z 6 M _ ~ jXnXjXOX~ ] ) ^ _ c.vXuXd                             ",
"              ; `.    > , b X.&.h.> W ^ c.cXc.l.V 4 M M n 4 - }.qXu                           ",
"              v       6 F D f 5 f @.7 G { aXj.R >               x gX8                         ",
"            ;                     r g >   6X9                     - `.*                       ",
"                                          [.8                                                 ",
"                                          z 6                                                 ",
"                                          *                                                   ",
"                                                                                              ",
"                                                                                              ",
"                                                                                              ",
"                                                                                              ",
"                                                                                              "
};
