/* XPM */
static char *_e821d52885b4c6fcb8d7aa1bd778c83ZTI2c8xQJrWSAab3[] = {
/* columns rows colors chars-per-pixel */
"47 47 217 2 ",
"   c None",
".  c #351C1B",
"X  c #2E2D1C",
"o  c #372A19",
"O  c #2E311B",
"+  c #33331C",
"@  c #3B341C",
"#  c #3A3217",
"$  c #312C23",
"%  c #352D2C",
"&  c #333425",
"*  c #491D17",
"=  c #5C1E17",
"-  c #6D1C1A",
";  c #751E17",
":  c #462B17",
">  c #54251D",
",  c #47381B",
"<  c #5D311C",
"1  c #6F270E",
"2  c #632012",
"3  c #633A1D",
"4  c #783314",
"5  c #641E20",
"6  c #4A3923",
"7  c #703C23",
"8  c #57471B",
"9  c #634F1E",
"0  c #6B5D1D",
"q  c #786A1B",
"w  c #7E751E",
"e  c #4B4B22",
"r  c #544B26",
"t  c #5C5628",
"y  c #5B5531",
"u  c #735723",
"i  c #6E6521",
"p  c #796826",
"a  c #7A7626",
"s  c #797330",
"d  c #871E12",
"f  c #991F1C",
"g  c #8C2215",
"h  c #8E201A",
"j  c #852214",
"k  c #962316",
"l  c #A52318",
"z  c #BF251C",
"x  c #D62914",
"c  c #CC3715",
"v  c #E72F0F",
"b  c #F62A09",
"n  c #EC3A0B",
"m  c #F53408",
"M  c #E82C14",
"N  c #F52F10",
"B  c #E63D10",
"V  c #97551A",
"C  c #BD491F",
"Z  c #A5521C",
"A  c #897A19",
"S  c #90701C",
"D  c #896B1B",
"F  c #A26F1B",
"G  c #B56719",
"H  c #914F22",
"J  c #945323",
"K  c #A25A22",
"L  c #8D7825",
"P  c #917228",
"I  c #B36221",
"U  c #D74816",
"Y  c #F74B0B",
"T  c #F4460B",
"R  c #EC5B09",
"E  c #F75A07",
"W  c #F5580C",
"Q  c #F6530B",
"!  c #F24812",
"~  c #EF5C11",
"^  c #F35712",
"/  c #E74311",
"(  c #C7671B",
")  c #DA7316",
"_  c #F4660B",
"`  c #ED7C0C",
"'  c #EF770E",
"]  c #F4750D",
"[  c #F37A0B",
"{  c #F27806",
"}  c #ED6A19",
"|  c #F56C13",
" . c #F46712",
".. c #EB7817",
"X. c #F77310",
"o. c #F37A11",
"O. c #F3771E",
"+. c #EC6E09",
"@. c #8E811A",
"#. c #988819",
"$. c #AA9119",
"%. c #B79B19",
"&. c #BCAB1F",
"*. c #B2A914",
"=. c #8D8429",
"-. c #998B24",
";. c #918735",
":. c #958D37",
">. c #A48925",
",. c #A49624",
"<. c #B59521",
"1. c #B7A628",
"2. c #D5891C",
"3. c #CF8E1A",
"4. c #F1830C",
"5. c #F38D0C",
"6. c #F78206",
"7. c #EE9B07",
"8. c #EF940D",
"9. c #EC9E0E",
"0. c #F3940D",
"q. c #F49B0C",
"w. c #F79A09",
"e. c #F28215",
"r. c #F58C12",
"t. c #F28B18",
"y. c #EE9617",
"u. c #F39212",
"i. c #F49A12",
"p. c #F59816",
"a. c #EA8E14",
"s. c #C5A51A",
"d. c #D1BA18",
"f. c #CAB615",
"g. c #F3A40C",
"h. c #F9A50D",
"j. c #F2AC0B",
"k. c #FAAB0B",
"l. c #F9AB06",
"z. c #F4B30C",
"x. c #F5BD0C",
"c. c #F8BD0D",
"v. c #F8B20C",
"b. c #F4A411",
"n. c #F8A516",
"m. c #ECB71A",
"M. c #F3B212",
"N. c #F6B817",
"B. c #EBA311",
"V. c #D18A21",
"C. c #C29B25",
"Z. c #D39F26",
"A. c #EA9624",
"S. c #CCB728",
"D. c #D3B726",
"F. c #E2BF20",
"G. c #EDAC2F",
"H. c #D7C91F",
"J. c #F7C20D",
"K. c #F9C90A",
"L. c #FDD606",
"P. c #FBD905",
"I. c #FCD50B",
"U. c #F6D70B",
"Y. c #E0C61A",
"T. c #EBCE1F",
"R. c #FBCC12",
"E. c #FAC515",
"W. c #EBD718",
"Q. c #FBD612",
"!. c #FADA14",
"~. c #F3D41A",
"^. c #FBD51D",
"/. c #FADB1C",
"(. c #F6D817",
"). c #F7DD24",
"_. c #FBDB25",
"`. c #FBDD2C",
"'. c #F3D828",
"]. c #FBDE38",
"[. c #F7CF24",
"{. c #F9E12C",
"}. c #F9E33B",
"|. c #F9E036",
" X c #FABE75",
".X c #F2BA6E",
"XX c #FCC650",
"oX c #FAD55D",
"OX c #FAE443",
"+X c #FAE64A",
"@X c #FAEB48",
"#X c #FBE958",
"$X c #FCDE62",
"%X c #F8C877",
"&X c #FAEE63",
"*X c #FCED69",
"=X c #F9E367",
"-X c #FAF36B",
";X c #FDF465",
":X c #FDF575",
">X c #FCF975",
",X c #FDF67C",
"<X c #FDF97A",
"1X c #FBEA77",
"2X c #FDF483",
"3X c #FBF984",
"4X c #FDF68C",
"5X c #FBF888",
"6X c #FCF999",
"7X c #FBF9A6",
"8X c #FAFAAD",
"9X c #FCFAB3",
"0X c #FBFBBC",
"qX c #FBFDC8",
"wX c #FDFBDA",
"eX c #FCFBD0",
"rX c #FDFCE0",
/* pixels */
"                                                                                              ",
"                                                                                              ",
"                                                                                              ",
"                                                                                              ",
"                                                                    &                         ",
"                          &                             y         s t                         ",
"                            r                           :.      0 S.                          ",
"                            a                         a *.    r m.@.                          ",
"                            :.i                     o Y.A     V.G.X                           ",
"                            t D.                    *.!.8     D.#.                            ",
"      y @                     T.$.    : 3 :       -.P.(.@                                     ",
"      $ 1.C.r                 d.W.S V.y.p.A.2.F L !.P.~.                                      ",
"          S p             * - C.K.B.w.i.i.w.r.u.u.J.L.~.:                                     ",
"                        l M  .t.0.i.l.k.h.b.i.u.u.g.c.9.a.V.J *                               ",
"      O e             g m o.t.w.w.l.k.0.u.u.0.u.u.0.0.u.y.w.t.c j l k *                       ",
"        e =.p         x | u.h.k.h.h.w.0.u.u.j.z.g.u.u.0.u.u.t.E | +.E B d                     ",
"            a 1.q     M e.u.k.w.p.0.r.q.n.R.(.I.L.j.u.p.0.0.0.0.u.[ ] ` / *   9 >.L           ",
"              , &.f.q M e.i.v.0.u.u.q.E._.]._.`.L.J.u.u.u.r.r.0.4.[ [ [ _ f u Z.P             ",
"                  >.).` | i.j.u.0.0.x.}._.+X5X5XOXK.b.M.x.j.w.0.5.r.` o.R C w L ,.:.y         ",
"                    A m.Y 5.n.0.0.q.J.).L.-XeX9X*XU.I.P.I.I.g.u.p.u.[ ` W } U.Y.#.            ",
"                      @.N. .q.q.0.0.z.!.Q.2X9X<X<X}.{.!.L.R.w.0.0.r.` o.X.X.(       : <.1.p   ",
"                        <.b.r.5.r.q.z.L.^.:X5X4X3X>X,X}.L.g.8.0.0.u.r.6.[ [ ..>       8 +     ",
"                    u 2.i.i.i.0.M._.^.^.OX:X<X0XqX0X>X+X^.I._.}.[.q.i.r.4.[ [ K               ",
"                  K u.h.l.u.u.b.OX)._.2X0X8X2X<X7XrX3X5X-X`.U.].-XU.i.0.u.] [ I               ",
"                : A.u.0.b.h.i.J.&XI.#X>XwXqX4X,X6X4X>X7X<X`.L.I.*X^.g.u.u.` o.H               ",
"                4 ` 5.5.0.k.8.J.#X~.+X:X3XeX8X,X7X7X0XwX<X).L.`.-XU.b.0.r.o.( .               ",
"                - R ' ` 0.h.u.n.{.1X*XOX`.6X0X*X:X6XwX8X<X_./.+X#XI.i.5.[ )                   ",
"                  d T e.w.h.u.u.G.$X=X$XI.;X2X}._.#X,X:X@X!.OX@X/.c.0.[ [ ` <                 ",
"                  K W 6.0.w.0.0.p. X%XoXL.^./.L.L.Q._./.I.L.J.J.v.u.r.[ ] [ 7                 ",
"              i D.N.Y [ u.p.0.u.G.%X.XoXL.L.L.L.I.z.I.L.L.I.g.0.u.u.r.{ [ [ 3                 ",
"          # &.(.!.F.B ] r.r.u.0.A.%X XXXI.I.L.L.c.0.g.x.x.j.8.u.0.u.4.[ [ ) o                 ",
"        -.H.H.$.t   l ~ [ r.u.p.r.t.r.y.N.I.I.R.q.5.r.0.u.e.r.u.0.4.o.[ ..V                   ",
"      y 0 %.@         l R | o.O.] [ 0.u.0.7.q.u.u.a.{ [ [ [ [ ] ] [ ] ] U                     ",
"      , Z.Z.%           * h k 1 G [ 5.u.p.u.u.u.i.5.[ W Q | o.[ ] W Y x =                     ",
"    + S.<.@                     V { o.u.0.u.u.u.u.6.[ Y b b m N b } Z .                       ",
"  + ;.t                         : } [ 4.5.4.u.u.6.[ [ n z k d ; S I.%.                        ",
"  $                               c  .[ [ [ o.[ [ [ _ N -         ,.W.o   C.6                 ",
"                                  1 v Q ] [ [ [ o. .m l             d.$.  >.,.                ",
"                                    G R b Y E Q ! x h               e D.    ;.&               ",
"                                    s.$.- g k j 2                     q -.    $               ",
"                                    ,.                                  =.$                   ",
"                                    &                                     y                   ",
"                                                                                              ",
"                                                                                              ",
"                                                                                              ",
"                                                                                              ",
"                                                                                              "
};
