/* XPM */
static char *result[] = {
/* columns rows colors chars-per-pixel */
"47 47 213 2 ",
"   c #000000",
".  c #020B0B",
"X  c #050808",
"o  c #0A0D13",
"O  c #130F10",
"+  c #041414",
"@  c #05191A",
"#  c #081817",
"$  c #131413",
"%  c #1A1F28",
"&  c #1E2122",
"*  c #222525",
"=  c #2C2C2C",
"-  c #27282E",
";  c #2F3038",
":  c #353535",
">  c #3B3C3C",
",  c #353438",
"<  c #2C2D33",
"1  c #242E43",
"2  c #1F2D7A",
"3  c #22306C",
"4  c #3D4C49",
"5  c #394E6C",
"6  c #385179",
"7  c #2F4565",
"8  c #434344",
"9  c #43454A",
"0  c #41514F",
"q  c #494C57",
"w  c #49565A",
"e  c #535354",
"r  c #55565C",
"t  c #535548",
"y  c #706F5A",
"u  c #545660",
"i  c #435770",
"p  c #586665",
"a  c #4D627A",
"s  c #5C687C",
"d  c #5E7A74",
"f  c #696A6A",
"g  c #666667",
"h  c #66766D",
"j  c #6B6D7C",
"k  c #646774",
"l  c #6D777B",
"z  c #737373",
"x  c #757E7D",
"c  c #7A7B7B",
"v  c #767678",
"b  c #747564",
"n  c #64827C",
"m  c #6B847E",
"M  c #86836B",
"N  c #908E7D",
"B  c #98977D",
"V  c #052399",
"C  c #1C568A",
"Z  c #3C5A8A",
"A  c #304EAF",
"S  c #3262B2",
"D  c #435889",
"F  c #4C6485",
"G  c #5D758C",
"H  c #5B7397",
"J  c #606E82",
"K  c #687588",
"L  c #7B7B86",
"P  c #777986",
"I  c #6A7895",
"U  c #7B7E9C",
"Y  c #5475A6",
"T  c #787EA5",
"R  c #096ACD",
"E  c #0A7BE1",
"W  c #557CC4",
"Q  c #6A8783",
"!  c #778683",
"~  c #6D9089",
"^  c #75928A",
"/  c #7B9492",
"(  c #7B9995",
")  c #7A9C97",
"_  c #72849A",
"`  c #7FA29E",
"'  c #5F80AF",
"]  c #788DA7",
"[  c #6E90BD",
"{  c #7A92BB",
"}  c #728CAD",
"|  c #098EF3",
" . c #0683E7",
".. c #3493ED",
"X. c #4B89CE",
"o. c #799ACB",
"O. c #73ABF0",
"+. c #838384",
"@. c #8B8C8C",
"#. c #898B84",
"$. c #909F8F",
"%. c #858D94",
"&. c #849292",
"*. c #839599",
"=. c #89999C",
"-. c #939493",
";. c #93949D",
":. c #979B9A",
">. c #9A9A9B",
",. c #81A39F",
"<. c #99A694",
"1. c #93A28E",
"2. c #A3A797",
"3. c #AAB298",
"4. c #BDBB9C",
"5. c #B7B392",
"6. c #AEAB90",
"7. c #8695A7",
"8. c #939CA2",
"9. c #9C9CA2",
"0. c #919EB6",
"q. c #A09EAB",
"w. c #8BA7A5",
"e. c #9BABAE",
"r. c #98A5A8",
"t. c #9BA4B4",
"y. c #9CAEB0",
"u. c #98A6B8",
"i. c #9AB4B3",
"p. c #A3A4A4",
"a. c #A6A9A6",
"s. c #A4A4AD",
"d. c #AAAAAA",
"f. c #BABDA5",
"g. c #A6A4B1",
"h. c #AEADB4",
"j. c #A9AAB9",
"k. c #B0AFB3",
"l. c #A4B2BA",
"z. c #AABDBE",
"x. c #A7B6B9",
"c. c #B3B3B4",
"v. c #B5B5BC",
"b. c #B4BBBC",
"n. c #BABBBB",
"m. c #B4B8B7",
"M. c #ACBBAB",
"N. c #C1BFAC",
"B. c #B0C1BA",
"V. c #C5C09E",
"C. c #C6C4A3",
"Z. c #C8CAB7",
"A. c #D5D6BA",
"S. c #D8D5B9",
"D. c #C9D0BD",
"F. c #819CC3",
"G. c #97AAC6",
"H. c #8BAFDC",
"J. c #88ABCD",
"K. c #ACBAC9",
"L. c #B7BBC2",
"P. c #ABB6DC",
"I. c #C0BFC6",
"U. c #ACC2C3",
"Y. c #B1C3C5",
"T. c #B3C6C9",
"R. c #B5CACC",
"E. c #BACBCD",
"W. c #BCC7C7",
"Q. c #BACED1",
"!. c #B7CDD0",
"~. c #BCD3D6",
"^. c #BFD6D8",
"/. c #C3C4C4",
"(. c #C7C7C8",
"). c #CACBCC",
"_. c #C7CACA",
"`. c #C9D3CA",
"'. c #D4D4C1",
"]. c #D6D9CC",
"[. c #CFCFD1",
"{. c #D0CFD3",
"}. c #C4D2D3",
"|. c #CAD5D5",
" X c #C1D6D9",
".X c #C3D8DB",
"XX c #CDDBDC",
"oX c #D2D3D4",
"OX c #D5DDDC",
"+X c #DADBDC",
"@X c #D7D7DA",
"#X c #DAE0D7",
"$X c #EBE6C5",
"%X c #E8E4CE",
"&X c #F6F5CB",
"*X c #E7E5D5",
"=X c #DEDEE1",
"-X c #D1D8E1",
";X c #CBD4E9",
":X c #D8E4E5",
">X c #E4E5E4",
",X c #E6E8E7",
"<X c #E8E9E7",
"1X c #E4EAEA",
"2X c #EBECEB",
"3X c #E6E6E8",
"4X c #EDF0EF",
"5X c #F1F1ED",
"6X c #EEF2F1",
"7X c #F5F7F6",
"8X c #F6F8F6",
"9X c #F8F8F8",
"0X c None",
/* pixels */
"0X0X0X0X0X0X0X0X0X0X0X0X0X0X0X0X0X0X0X0X0X0X0X0X0X0X0X0X0X0X0X0X0X0X0X0X0X0X0X0X0X0X0X0X0X0X0X",
"0X0X0X0X0X0X0X0X0X0X0X0X0X0X0X0X0X4.y @ + . X X   X   X . + B 0X0X0X0X0X0X0X0X0X0X0X0X0X0X0X0X",
"0X0X0X0X0X0X0X0X0X0X0X0X0X0X0Xt.5 @ @ + X                     X # 6.0X0X0X0X0X0X0X0X0X0X0X0X0X",
"0X0X0X0X0X0X0X0X0X0X0X0X0XK._ @ # + + X                           X + 5.0X0X0X0X0X0X0X0X0X0X0X",
"0X0X0X0X0X0X0X0X0X0X0XZ.J.a * f m >.p.d.N.(././.(././.I.d.p.>.N p &   . t 0X0X0X0X0X0X0X0X0X0X",
"0X0X0X0X0X0X0X0X0X0X|.-X>X2X9X9X8X8X2X<X4X7X5X3X<X,X<X2X7X5X3X>XXX^.R.B.i.( 0X0X0X0X0X0X0X0X0X",
"0X0X0X0X0X0X0X0X0X*X3X6X,X2X3X2X<X5X9X9X2X3X3X2X7X5X6X6X3X>X3X6X:XT.Q.T.Q.E.!.0X0X0X0X0X0X0X0X",
"0X0X0X0X0X0X0X0X5X9X3X4X5X<X7X<X5X5X<X5X9X9X7X9X9X8X9X9X9X9X9X9X#XT.Q.R.E.R.U.!.A.0X0X0X0X0X0X",
"0X0X0X0X0X0X0X*X2X4X9X9X9X9X9X9X8X8X>X>X9X9X9XN.m.n.n.=X9X9X7X7X:X^.^.~.~.~.~.~.Q.0X0X0X0X0X0X",
"0X0X0X0X0X0X%X9X9X@XoX6X9X9.@X<X9 @X  z 9X9X9Xz       a.9X9X7X7X6X~.~.~.~.~.~.~.^..X0X0X0X0X0X",
"0X0X0X0X0X0Xp.3X-.= - g =X  ,X[.  +X  @.7X7X8Xc   /./.=X8X7X7X7X1X~.~.!.~.~.~.~.~.!.B.0X0X0X0X",
"0X0X0X0X0XN O n.  k.v.Z.Z.= 9Xc.g oX  p.7X7X7Xc   X   d.9X7X7X7X6X~.~.~.~.~.~.!.~.~.^.0X0X0X0X",
"0X0X0X0X0X+.> 7Xd.c : >.d.z 9X@.@./.  @.m.c.2Xc X @X>X<X9X7X7X7X8X~.~.~.~.~.~.~.~.~.R.B.0X0X0X",
"0X0X0X0Xb e ].a.oX9X+.+.<.> /.: n.d.        3Xc       @.7X7X7X7X7X~.~.~.~.~.~.~.~.~.~.~.0X0X0X",
"0X0X0X0X: 7X8X8   $ $ `.oX>   c 5Xa.z c +.>.9Xm.a.k.m._.7X7X7X7X7X~.~.~.~.~.!.~.~.~.~.~.<.0X0X",
"0X0X0XV.@.9X8X<X/.(.<X8X9X7X3X9X9X9X9X9X7X9X9X9X9X9X7X7X7X7X7X7X6X!.~.!.~.~.~.~.~.~.~.~.m 0X0X",
"0X0X0X*X7X9X9X5X5X=X<X(.7X7X9X7X9X9X9X9X7X7X7X8X7X7X7X7X7X7X7X7X6X~.~.~.~.~.!.~.~.~.~.R.n 0X0X",
"0X0X0X9X5Xk.(.v.d.p.>.d.7X9X7X7X9X9X7X7X7X7X7X7X7X8X7X7X7X7X8X8X4X~.~.~.~.~.~.~.~.~.!.R.m B.0X",
"0X0X0X9X=X+Xc.2X-.2.W.+X=X9X7X7X7X7X7X7X7X7X7X7X7X7X7X7X6X8X8X8X4X~.~.~.~.~.~.~.~.^.^.U.Q <.0X",
"0X0X0X7X7Xn.3Xn.>X2X+X9X2X7X7X7X7X7X7X7X7X7X7X7X7X7X7X7X8X8X8X8X:X~.~.~.!.~.~.~.^.^.^.i.Q h 0X",
"0X0X$X9X9X9X7X7X>X(.@X3X9X9X9X7X6X7X7X7X7X7X7X7X7X7X7X7X8X8X6X7X:X~.~.~.~.~. X~.^.^.^.i.~ n 0X",
"0X0X$X9X9X9X2XL.g.L P q.=X9X7X9X7X7X7X7X7X7X7X8X7X7X7X8X8X8X8X8XOX~.~.~. X~. X~.^.^.^.` ~ n 0X",
"0X0X$X7X9X9XoXg.L u &   a.5X9X9X7X9X7X7X7X8X8X8X7X7X8X8X8X7X8X8X X~.Q. X X X X X^.^.^.) ^ n 0X",
"0X0X0X9X9X5Xg.q.k ;     c >X7X9X8X9X9X9X8X8X8X8X8X8X8X8X8X8X6X6X X X.X X X X.X.X^..X!.` ) ^ 0X",
"0X0X0X/.(.).g.s.j       e +X9X9X9X9X9X9X9X9X9X9X8X8X8X8X8X9X7XOXT.T.Y.Y.K.y.y.e.<.*.! w 4 B 0X",
"0X0X0X+ . -.9.g.j X     = >.              X   X   X                                       5.0X",
"0X0X0Xb o +.g.L.K =     X k.                u 1                 P I *           w F       0X0X",
"0X0X0XN.+ v L.j.K 9       k.            * (.F.D k             p .XT l         $ K.2     p 0X0X",
"0X0X0X'.L r L.g.P u       c.            +.;XP.V U             &...R K         5 A V X * G 0X0X",
"0X0X0X0X9.X I.9.u k       p.e           >...| R T             x .. .K         C | 3 X e 8.0X0X",
"0X0X0X0XN.. h.j.t.9 -     L >.          k O.| E T             & o.X.q         a S %   b 0X0X0X",
"0X0X0X0X0XM -.g.g.9 q     K k.            J X.Y 9               * >             *     0X0X0X0X",
"0X0X0X0X0X0X> G.g.L u     _ >.f                                                     M 0X0X0X0X",
"0X0X0X0X0X0X6.%.h.;.L +.f 0.k.k.                                          0 0 p h m 0X0X0X0X0X",
"0X0X0X*X2X9X2XW.}.).oX+XL.l.T.).a.a.a.-.@.+.+.m l v ! %.&.&.;.e.y.z.Y.E..XU.,.,.) 0X0X0X0X0X0X",
"0X`.).OX#X(.3XE.v.(.).).2Xy.U._.4X8X8X8X9X7X:X.X X.X.X.X X.X X.X X.X.X.XE.,.w.( <.0X0X0X0X0X0X",
"0Xn.Z I J 8.oXb.oX=X=X+XOXU.B.).+X,X}.W.W. X X X X X X X X X X X X X XE.&.E. X X!.i.( 3.0X0X0X",
"0Xn.Z C.&X&XoX@X=X@X).@X|.K.n.@X4X1X X!.=. X X X~.~. X~. X~.~.~. X X XK F I { r.R.~.~.i.~ 1.0X",
"0X].Z K 8.(.(.{.@X{.@X,X~.B._.@X+X}. X*.G  X X~. X X~. X X~. X X~.~.r.] ] ] { 0._ } *.e.w.1.0X",
"0X'.Z ;./.oX+X+X{.+X<XT.7.>Xm.|. XR.*.i 7 E. X X~. X~.~.~. X~.Q.E.y.X 2.l.A.x.' r.A.G.H 6 0X0X",
"0X0Xv.(.@X@X@X).@X3X}.0X0X0X'.u.] 5 X F o r. X~.~.^.~.^.~.~.~.T.y.>.7.t.7.H K f.A.u.F.H.Y 0X0X",
"S.2X).oX[.oX).+XOX_.0X0X0X0X0Xm.[ Z F F 1 q T. X X~.~.Q.~.T.B.Z.0X0X0X0X0XZ.0XZ.c.t.G.H.H 0X0X",
"0XE.|.XX|.OX|.E.0X0X0X0X0X0X0X`.o.i :.#.4.S.2.e.z.Y.x.e.*.x C.0X0X0X0X0X0X0X0X0X0X0X0XG.2.0X0X",
"0X0X0X0X0X0X0X0X0X0X0X0X0X0X0XA.[ 5 0X0X0XB.=.m / ) w.l m ^ 0X0X0X0X0X0X0X0X0X0X0X0X0XK.2.0X0X",
"0X0X0X0X0X0X0X0X0X0X0X0X0X0X0X0X{ C.0X0X0X0X0X0X0X0X0X0X0X0X0X0X0X0X0X0X0X0X0X0X0X0X`.].M.3.0X",
"0X0X0X0X0X0X0X0X0X0X0X0X0X0X0X>X-XT.'.0X0X0X0X0X0X0X0X0X0X0X0X0X0X0X0X0X0X0X0X0X0X0X0X0X0X0X0X",
"0X0X0X0X0X0X0X0X0X0X0X0X0X0X0X%X*X].0X0X0X0X0X0X0X0X0X0X0X0X0X0X0X0X0X0X0X0X0X0X0X0X0X0X0X0X0X"
};
