/* XPM */
static char *_7de0dd7ab014609dbbdec4288d54d2aoQdRwuv8U8U4ZpQG[] = {
/* columns rows colors chars-per-pixel */
"47 47 218 2 ",
"   c #000000",
".  c #020B0B",
"X  c #050808",
"o  c #0A0D13",
"O  c #130F10",
"+  c #041414",
"@  c #081817",
"#  c #05191A",
"$  c #131413",
"%  c #1A1F28",
"&  c #1E2122",
"*  c #222525",
"=  c #27282E",
"-  c #2C2C2C",
";  c #2E2F36",
":  c #353535",
">  c #353438",
",  c #3B3C3C",
"<  c #242E43",
"1  c #1F2D7A",
"2  c #22306C",
"3  c #3D4C49",
"4  c #2F4565",
"5  c #394E6C",
"6  c #385179",
"7  c #434344",
"8  c #43454A",
"9  c #41514F",
"0  c #535548",
"q  c #494C57",
"w  c #49565A",
"e  c #535354",
"r  c #55565C",
"t  c #706F5A",
"y  c #545660",
"u  c #435770",
"i  c #586665",
"p  c #5C687C",
"a  c #5E7A74",
"s  c #666667",
"d  c #696A6A",
"f  c #66766D",
"g  c #747564",
"h  c #646774",
"j  c #6B6D7C",
"k  c #6D777B",
"l  c #737373",
"z  c #767678",
"x  c #757E7D",
"c  c #7A7B7B",
"v  c #64827C",
"b  c #6B847E",
"n  c #86836B",
"m  c #908E7D",
"M  c #98977D",
"N  c #052399",
"B  c #1C568A",
"V  c #3C5A8A",
"C  c #304EAF",
"Z  c #3262B2",
"A  c #435889",
"S  c #4C6485",
"D  c #5D758C",
"F  c #5B7397",
"G  c #687588",
"H  c #6E768F",
"J  c #777986",
"K  c #7B7B86",
"L  c #6A7895",
"P  c #5475A6",
"I  c #787EA5",
"U  c #096ACD",
"Y  c #0A7BE1",
"T  c #6A8783",
"R  c #778683",
"E  c #6D9089",
"W  c #75928A",
"Q  c #72849A",
"!  c #7B9492",
"~  c #7B9995",
"^  c #7A9C97",
"/  c #7FA29E",
"(  c #5F80AF",
")  c #788DA7",
"_  c #718DB1",
"`  c #7A92BB",
"'  c #0683E7",
"]  c #098EF3",
"[  c #3493ED",
"{  c #4B89CE",
"}  c #799ACB",
"|  c #73ABF0",
" . c #838384",
".. c #898B84",
"X. c #8B8C8C",
"o. c #909F8F",
"O. c #858D94",
"+. c #849292",
"@. c #839599",
"#. c #89999C",
"$. c #939493",
"%. c #93949D",
"&. c #979B9A",
"*. c #9A9A9B",
"=. c #8AA397",
"-. c #99A694",
";. c #ABA88C",
":. c #A3A797",
">. c #B1AE92",
",. c #AAB298",
"<. c #B6B293",
"1. c #BAB594",
"2. c #BDBB9C",
"3. c #8695A7",
"4. c #939CA2",
"5. c #9C9CA2",
"6. c #919EB6",
"7. c #A09EAB",
"8. c #8BA7A5",
"9. c #98A5A8",
"0. c #9BABAE",
"q. c #9BA4B4",
"w. c #9CAEB0",
"e. c #98A6B8",
"r. c #9AB4B3",
"t. c #A3A4A4",
"y. c #A6A9A6",
"u. c #A4A4AD",
"i. c #AAAAAA",
"p. c #AEB5AF",
"a. c #BABDA5",
"s. c #A6A4B1",
"d. c #AEADB4",
"f. c #A9AAB9",
"g. c #A4B2BA",
"h. c #A7B6B9",
"j. c #AABDBE",
"k. c #B3B3B4",
"l. c #B4B8B7",
"z. c #B5B5BC",
"x. c #B4BBBC",
"c. c #BABBBB",
"v. c #C4BE9A",
"b. c #C1BFAC",
"n. c #B0C1BA",
"m. c #C5C09E",
"M. c #CAC7A3",
"N. c #D3CCA6",
"B. c #D3CEAB",
"V. c #D6D2AB",
"C. c #DDD5AC",
"Z. c #DFD9AF",
"A. c #C8CAB7",
"S. c #C9D0BD",
"D. c #D9D5B5",
"F. c #DFD9B4",
"G. c #D4D5BA",
"H. c #DCDABA",
"J. c #E0D4A8",
"K. c #E3D9AD",
"L. c #E3DBB2",
"P. c #E6DEB9",
"I. c #819CC3",
"U. c #88ABCD",
"Y. c #97AAC6",
"T. c #8BAFDC",
"R. c #ACBAC9",
"E. c #B7BBC2",
"W. c #ABB6DC",
"Q. c #C0BFC6",
"!. c #ACC2C3",
"~. c #B1C3C5",
"^. c #BCC7C7",
"/. c #B3C6C9",
"(. c #B5CACC",
"). c #BACBCD",
"_. c #B7CDD0",
"`. c #BACED1",
"'. c #BCD3D6",
"]. c #BFD6D8",
"[. c #C3C4C4",
"{. c #C7C9CA",
"}. c #CACBCC",
"|. c #C9D3CA",
" X c #D4D4C1",
".X c #D6D9CC",
"XX c #CFCFD1",
"oX c #D0CFD3",
"OX c #C4D2D3",
"+X c #CAD5D5",
"@X c #C1D6D9",
"#X c #C3D8DB",
"$X c #CDDBDC",
"%X c #D2D3D4",
"&X c #D7D7DA",
"*X c #D5DDDC",
"=X c #DADBDC",
"-X c #DAE0D7",
";X c #EBE6C5",
":X c #E8E4CE",
">X c #F6F5CB",
",X c #E7E5D5",
"<X c #CBD4E9",
"1X c #D1D8E1",
"2X c #DEDEE1",
"3X c #D8E4E5",
"4X c #E4E5E4",
"5X c #E6E8E7",
"6X c #E8E9E7",
"7X c #E6E6E8",
"8X c #E4EAEA",
"9X c #EBECEB",
"0X c #EDF0EF",
"qX c #F1F1ED",
"wX c #EEF2F1",
"eX c #F5F7F6",
"rX c #F6F8F6",
"tX c #F8F8F8",
/* pixels */
"J.J.J.C.J.J.J.J.J.J.J.J.J.J.J.J.J.J.J.K.C.M.1.1.>.1.v.N.C.K.J.J.J.J.J.J.J.J.J.J.J.J.J.J.J.J.J.",
"J.J.J.J.J.J.J.J.J.J.J.J.J.J.J.J.L.2.t # + . X     X   X + . M N.K.J.J.J.J.J.J.J.J.J.J.J.J.J.J.",
"J.J.J.J.J.J.J.J.J.J.J.J.J.C.D.w.5 # # + X                     X @ ;.J.C.J.J.J.J.J.J.J.J.J.J.J.",
"J.J.J.J.J.J.J.J.J.J.J.J.F.R.L # @ + + X                           X + <.J.J.J.J.J.J.J.J.J.J.J.",
"J.J.J.J.J.J.J.J.J.J.K.S.U.u * d c &.t.i.A.[.[.[.[.[.[.Q.i.t.*.b i &   . 0 Z.C.Z.J.J.J.J.J.J.J.",
"J.J.J.J.J.J.J.J.J.L.}.1X7X6XtXtXrXrX6X7X0XwXqX7X6X6X6X9XeXqX6X9X#X].`.n.r.W B.V.J.J.J.J.J.J.J.",
"J.J.J.J.J.J.J.J.K.,X7XwX9XqX7XwX6XeXeXtX9X7X7X9XqXqXeXqX6X2X6XeX3X(.`.(._.(._.S.J.J.J.J.J.J.J.",
"J.J.J.J.J.J.J.K.qXtX7XqXqX7XeX6XqX9X6XqXtXtXtXeXtXtXtXtXtXtXtXtX-Xn.`.(.(.(.!._.G.J.J.J.J.J.J.",
"J.J.J.J.J.J.J.,X0XqXtXtXtXtXtXrXrXtX4X4XeXtXtXb.c.c.b.2XtXtXeXeX8X'.].'.].'._.'._.L.J.J.J.J.J.",
"J.J.J.J.J.J.:XtXtX&XoXwXtX5.%X9X8 &X  l eXtXtXl       i.tXtXeXeX8X'.'.'.'.'.'.'.'.OXL.J.J.J.J.",
"C.J.J.J.J.C.7.9X$.- - s 4X  6XXX  =X  X.tXtXeXc   [.[.2XeXeXeXeX8X'.'.'.'.'.'.'.'._.n.K.J.J.J.",
"J.J.J.J.J...O b.  p.c.Q.A.- tXk.s %X  t.eXeXeXc   X   i.tXeXeXeXwX'.'.'.'.'.'.'.'.'.'.Z.J.J.J.",
"J.J.J.J.N.c , qXi.c : *.y.l tXX.$.A.  X.c.k.9Xc X =X3X8XeXeXeXeXeX'.'.'.'.'._.'.'.'._.n.C.J.J.",
"J.J.J.J.g e .Xy.XXtXK m 5., [.: c.i.        4Xc       X.eXeXeXeXwX'.'.'.'.'.'.'.'.'.'.'.C.J.J.",
"J.J.J.J.: qXtX7   O $ |.%X,   c 0Xi.l z  .*.qXc.y.p.x.}.eXeXeXeXwX'.'.'.'.'.'.'.'.'.'.'.-.J.C.",
"J.J.J.v.$.tXrX6X[.{.9XrXrXqX6XtXtXrXtXtXtXtXtXtXtXtXeXeXeXeXeXeXwX_.'.'.'.'.'.'.'.'.'.`.v C.J.",
"J.J.J.,XqXtXtXqXeX=X6X[.eXeXtXtXtXrXeXtXeXeXeXeXeXeXeXeXeXeXeXeXeX'.'.'.'.'.'.'.'.'.'.!.v N.C.",
"J.J.K.eXeXk.{.z.i.i.*.i.wXtXeXeXrXrXrXeXrXrXeXeXeXeXeXeXeXeXeXeX0X_._.'.'.'.'.'.'.'.'.(.E m.C.",
"J.J.P.tX2X&Xk.9X$.*.Q.=X4XeXeXeXeXeXeXeXrXrXeXeXeXeXeXeXeXeXeXeX9X'.'.'.'.'.'.'.'.].'.!.T -.J.",
"J.J.P.tXqXc.7Xc.4X9X2XtX9XeXeXrXeXeXeXeXrXrXrXeXeXeXeXeXeXeXeXeX8X'.'.'.'._.'.'.].].].r.T f J.",
"J.J.;XeXrXtXtXeX4X[.&X7XtXrXeXeXeXeXeXeXeXeXeXeXeXeXeXeXeXeXeXeX3X'.'.'.'.'.'.'.].].].r.E v J.",
"J.J.;XeXrXtX9XE.u.K K u.2XtXtXeXeXeXeXeXeXeXeXeXeXeXeXeXeXeXeXwX$X'.'.'.@X@X@X@X].].]./ E v J.",
"J.J.;XtXtXtXoXs.J r &   y.qXrXtXeXeXeXeXeXeXeXeXeXeXrXrXeXeXeXeX@X@X@X@X@X'.@X@X].].].^ W v C.",
"J.C.P.eXtXwXs.7.h >     c 4XtXtXtXtXtXeXeXtXeXtXrXrXrXrXeXeXeXwX'.@X@X@X@X@X@X#X].#X_./ ^ W J.",
"J.J.L.[.[.XXf.7.j       e =XtXtXtXtXtXtXeXtXtXtXrXrXrXrXrXeXeX*X/././.~.R.w.w.0.8.@.R w 3 M J.",
"J.J.K.+ . X.7.s.j X     - *.              X X X X X                                       <.J.",
"J.J.J.g . X.s.z.j ;     X d.                y <                 H H *           q p       N.J.",
"J.J.J.b.o z E.f.G 8       d.            * [.I.A h             i #XI k         O R.1     i V.J.",
"J.J.J. XK r z.s.J y X     k.             .<XW.N I             +.[ U G         5 C 1   * D D.J.",
"J.J.J.B.5.X Q.5.y h       t.e           $.[ ] U I X           x [ ' G         B ] 2   w 4.J.J.",
"J.J.J.J.c.. d.E.q.8 =     K *.          d | ] Y I             & } { q         S Z %   f K.J.J.",
"J.J.J.J.J.n X.s.s.8 q     G d.            D { P 7               * ,             *     N.J.J.J.",
"J.J.J.J.J.C., f.s.J r X   Q *.d                                                     n J.J.J.J.",
"J.J.J.J.J.K.>.O.f.4.K  .s 6.d.d.                                          9 9 i a T L.J.J.J.J.",
"J.J.P.:X9XtX9X^.`.}.%X&XE.g./.}.y.y.t.$.X. . .x k k R +.+.+.%.0.w.j.~.).#X!./ / ^ V.J.J.J.J.J.",
"K.}.}.&X=X{.7X).z.}.}.}.9Xr.~.{.wXrXtXtXrXeX3X#X@X#X@X#X#X#X#X@X#X#X#X#X_.=.8.^ -.L.K.J.J.J.J.",
"J.c.V G D 4.%Xz.oX2X2X2X*X~.x.}.2X5XOX).^.#X@X@X@X@X@X@X@X@X@X@X@X@X@X/.+.).#X#X_.r.~ ,.V.K.J.",
"J.n.V M.>X;X%X&X2X&X}.&XOX!.c.%X9X9X].(.#.@X@X'.'.@X@X'.@X'.'.@X@X@X@XG S L ) 6.(.'.'.r.E o.K.",
"J.%XV H 4.{.{.XX&X%X%X8X'.n.}.&X&X@X].@.G '.@X'.@X@X'.@X@X@X'.'.'.@X9.) ) ) ` 6.Q _ @.w.8.o.J.",
"J.H.V $.{.%X=X=X%X&X6X/.3.4Xl.+X@X(.@.u 4 _.@X@X@X'.'.'.`.@X@X`.(.w.X :.g.D.z.( 9.G.e.F 6 K.J.",
"J.K.z.{.&X=X&X}.&X8XOXK.J.K.G.e._ 5 X S o 9.@X'.'.].].'.].].'./.w.*.3.q.3.D k n.G.e.6.T.P C.J.",
"P.9X{.%XoX%X|.=X*X{.K.J.J.J.J.l._ V S S < q (.'.'.'.].'.)./.j.A.K.J.J.K.L.A.L.A.k.0.Y.T.P V.J.",
"F.).+X$X+X$X+X^.H.J.J.J.J.J.J.|.} u &...2.A.y.w.j.~.h.9.#.x m.C.C.J.J.J.J.J.J.J.J.J.P.Y.:.J.J.",
"J.J.K.F.F.K.K.J.C.C.J.J.J.J.J.G._ u K.J.Z.a.=.T ! ~ 9.v v W C.J.J.J.J.J.J.J.J.J.J.J.L.R.:.J.J.",
"J.J.J.J.J.J.J.J.J.J.J.J.J.J.J.L.` M.J.J.J.J.J.K.L.H.G.N.C.K.C.J.J.J.J.J.J.J.J.J.J.J.S..Xp.,.J.",
"J.J.J.J.J.J.J.J.J.J.J.J.J.J.K.4X1X/.|.K.J.J.J.J.J.J.C.C.J.J.J.J.J.J.J.J.J.J.J.J.J.J.C.J.C.J.J.",
"J.J.J.J.J.J.J.J.J.J.J.J.J.K.P.:X:X.XH.K.J.J.J.J.J.J.C.J.J.J.J.J.J.J.J.J.J.J.J.J.J.J.J.J.J.J.J."
};
