/* XPM */
static char *_fec032f5c0e4783bb93b8fda5089614hf2cTCKlrgW3UhPz[] = {
/* columns rows colors chars-per-pixel */
"47 47 158 2 ",
"   c #977760",
".  c #9B7A61",
"X  c #A27E62",
"o  c #B8885F",
"O  c #A68264",
"+  c #AB8463",
"@  c #AA8668",
"#  c #AD896A",
"$  c #B48660",
"%  c #B88760",
"&  c #B58A64",
"*  c #BB8B62",
"=  c #B28D6B",
"-  c #BE9166",
";  c #B6916F",
":  c #BD916A",
">  c #BB9571",
",  c #BF9974",
"<  c #C29265",
"1  c #C29365",
"2  c #C39365",
"3  c #C09166",
"4  c #C09266",
"5  c #C09366",
"6  c #C29366",
"7  c #C39366",
"8  c #C29367",
"9  c #C39367",
"0  c #C09064",
"q  c #C19467",
"w  c #C29467",
"e  c #C39567",
"r  c #C49465",
"t  c #C49466",
"y  c #C49467",
"u  c #C49567",
"i  c #C59567",
"p  c #C59667",
"a  c #C69667",
"s  c #C79767",
"d  c #C49466",
"f  c #C89767",
"g  c #C19368",
"h  c #C29368",
"j  c #C29369",
"k  c #C39569",
"l  c #C0946A",
"z  c #C0946B",
"x  c #C49568",
"c  c #C49669",
"v  c #C69668",
"b  c #C69768",
"n  c #C79768",
"m  c #C69769",
"M  c #C4966A",
"N  c #C5976A",
"B  c #C0946C",
"V  c #C1956C",
"C  c #C1956D",
"Z  c #C2966D",
"A  c #C1966E",
"S  c #C1976F",
"D  c #C2976F",
"F  c #C4966A",
"G  c #C79868",
"H  c #C79869",
"J  c #C6986A",
"K  c #C7986A",
"L  c #C7996A",
"P  c #C7986B",
"I  c #C7996B",
"U  c #C3986F",
"Y  c #C79A6D",
"T  c #C4986E",
"R  c #C5996E",
"E  c #C4986F",
"W  c #C4996F",
"Q  c #C59A6F",
"!  c #C79A6E",
"~  c #C79B6E",
"^  c #C79B6F",
"/  c #C6996D",
"(  c #C89868",
")  c #C99868",
"_  c #C89869",
"`  c #C89969",
"'  c #C8996A",
"]  c #C8996B",
"[  c #C89A6B",
"{  c #C89A6C",
"}  c #C89B6C",
"|  c #C89A6D",
" . c #C89B6D",
".. c #C89B6E",
"X. c #C89B6F",
"o. c #C89C6F",
"O. c #C89869",
"+. c #C19771",
"@. c #C29870",
"#. c #C39870",
"$. c #C39970",
"%. c #C29971",
"&. c #C39971",
"*. c #C19972",
"=. c #C49970",
"-. c #C59A70",
";. c #C49A71",
":. c #C59A71",
">. c #C69B70",
",. c #C79B70",
"<. c #C69B71",
"1. c #C49A72",
"2. c #C49B73",
"3. c #C59B73",
"4. c #C59C72",
"5. c #C69C72",
"6. c #C79C72",
"7. c #C79D72",
"8. c #C69C73",
"9. c #C29B74",
"0. c #C29B75",
"q. c #C39C75",
"w. c #C39C76",
"e. c #C59C74",
"r. c #C49C75",
"t. c #C59C75",
"y. c #C59D75",
"u. c #C69C74",
"i. c #C69D75",
"p. c #C69E75",
"a. c #C79E75",
"s. c #C59E77",
"d. c #C69E76",
"f. c #C79E76",
"g. c #C69E77",
"h. c #C79E77",
"j. c #C79F77",
"k. c #C59C74",
"l. c #C89C70",
"z. c #C89C71",
"x. c #C89D71",
"c. c #C89D72",
"v. c #C89D73",
"b. c #C89E73",
"n. c #C89D74",
"m. c #C89E74",
"M. c #C89E75",
"N. c #C89F75",
"B. c #C89F76",
"V. c #C89F77",
"C. c #C89E74",
"Z. c #C79F78",
"A. c #C8A077",
"S. c #C8A077",
"D. c #C7A078",
"F. c #C8A078",
"G. c #C9A078",
"H. c #C8A078",
/* pixels */
"D -.z.z.| ) L ) L ( ) ) o.o.o.| o.| o.o.z.F.F.F.F.F.M.z.z.o.o.) f _ f ) a 4 r x -.h.F.F.F.F.F.",
"* k Y ) ) L f L ) L Y z.M.d.M.M.M.M.M.M.M.F.F.F.F.F.F.A.M.z.o.) _ _ ) ) r < * * -.s.F.F.F.A.F.",
"* r f ) _ _ ) L ) ) | z.A.F.F.F.F.F.A.F.F.F.F.F.F.F.F.F.F.A.o.L _ _ _ _ 4 * o * -.F.F.F.A.A.A.",
"& * 4 e x L L ) | ) z.M.F.F.F.F.F.F.F.F.F.F.F.F.F.F.F.F.F.d.Y L r a a x r * * 0 =.M.M.F.A.A.M.",
"X O O @ = -.M.M.M.M.M.M.F.F.F.F.F.F.F.F.F.F.F.F.F.F.F.F.F.d.D * * * * * 0 4 r r x | o.L } ) x ",
".     . = r.F.M.M.F.A.F.F.F.F.F.F.F.F.F.F.F.F.F.F.F.F.F.F.d.D * % % * * * r x _ ) ) ) ( L L < ",
"X X O O = w.F.F.F.F.F.F.F.F.F.F.F.F.F.F.F.F.F.F.F.F.A.M.M.r.k * * * - * 3 r f a L _ f a a a < ",
"& = = ; , s.F.F.F.F.F.F.F.F.F.F.F.F.F.F.F.F.F.F.F.F.F.z.o.-.Y %.@.B +.B g 3 * 3 x _ f a - * * ",
"L -.d.d.S.S.D.F.F.F.F.F.F.F.F.F.F.F.F.F.F.F.F.F.F.F.M.l.) ) 6.d.S.d.D.d.-.- % * 4 f ( * * o o ",
"L 6.F.F.A.A.F.F.F.F.F.F.F.F.F.F.F.F.F.F.F.F.F.F.F.F.M.| ) Y z.M.F.F.F.F.@.- * * a ( a < * o * ",
") 6.z.z.6.S.z.z.A.F.F.F.F.F.F.F.F.F.F.F.A.z.6.-.-.%.D 4 4 g Y d.F.F.F.F.r.@.: g Y Y o.k < * * ",
"L ) L ) ) Y ) o.M.F.F.F.F.F.F.F.F.F.F.F.z.| ) x * * * * * * D d.F.F.F.F.s.d.d.d.M.d.z.o.a f a ",
"( ( ( ( ( ( L | A.F.F.F.F.F.d.d.D.M.F.A.z.| ) e * * * * * * D d.F.F.F.F.F.F.F.F.F.F.M.z.L ) L ",
"( ( ( ( ( ( ) | M.F.F.F.F.S.r.%.%.-.z.z.z.o.| L g * * * * : -.d.F.F.F.F.F.F.F.F.F.F.M.z.) L ( ",
"( ( ( ( ( ( ) o.A.F.F.F.F.d.D * * g Y | z.z.M.l.x x x Y -.r.d.h.F.F.F.F.F.F.F.F.F.F.A.o.L ) ( ",
"( ( ( ( ( ( L | M.F.F.F.F.d.- % * 4 a ) | M.A.M.o.) ) M.F.F.F.h.F.F.F.F.F.F.F.F.F.F.M.z.) ( ( ",
"( ( ( ( ( ( G } 6.d.6.4.w.%.- * * 4 a _ Y r.u.-.| | | z.F.F.F.F.F.F.F.F.F.F.F.F.F.F.M.z.L ) L ",
"( ( ( ( ( ( G e - : & + @ @ & e a a _ f x 3 - B =.M.M.M.F.F.F.F.F.F.F.F.F.F.F.F.F.F.M.z.) L ( ",
"( ( ( ( ( ( G 1 * & $ X . . & a f f f x g * * - =.h.F.F.F.F.F.F.F.F.F.F.F.F.F.F.F.F.A.z.L ) ( ",
"L ) L L e e - - $ o + O O O - a ) ( ( _ g * % - =.h.F.F.F.F.F.F.F.F.F.F.F.M.d.-.M.A.M.| ) ( ( ",
"z.z.o.o.: & + + O X + o & & - G ) L ) L 4 o % * -.F.F.F.F.F.F.F.F.F.F.F.d.%.D k Y o.Y | ) L L ",
"A.A.S.w.= O . .   . O & a a L G ( f ) ) 2 * * - %.F.F.F.F.F.F.F.F.F.F.F.%.* * * 4 L ) L ( ( ) ",
"D.D.S.w.= .     . . O * ( ( ( ( ( ( ( x < * o - -.h.A.F.F.F.F.F.F.F.F.A.%.* o o r f ) ) ( ) L ",
"D.6.%.: & + X O + + & - ( ( ( ( ( ( ( a < o o * - @.%.d.F.A.A.z.z.-.; ; ; - - - a x ) | | | | ",
"d.: * * % o $ & - e e L a ( ( ( _ f f f 2 * % % * * - *.h.h.z.| L - O O + * a a ) ) ) l.M.M.h.",
"d.: * * & o * * a a ) ) ( ( ( ( f _ f f < * % o % * * %.s.M.-.) a = . . @ : G G L x L z.M.F.h.",
"U - * * 0 * * < a ( ( ( ( ( ( ( _ a 2 0 0 o % * & * * - @.-.D 4 g * + @ # : o.L x 4 x D U -.-.",
"- 4 a a r r r a a ( ( ( ( ( ( ( f 4 0 * * o % % % % % * * 3 * * * - > , , 6.S.o.g * * * * - g ",
"o 4 a ( f _ f ) ( ( ( ( ) ) f f a < o o o % % % % % % % * % % % * - s.F.F.F.h.d.- % % % * o * ",
"* 4 _ ( f f ) ) ( ( ( ( ) f f f a * * * o o % % * * * * * * * * * : h.F.F.F.F.d.g * * * * * 4 ",
"* 2 _ ( ( ( L f ( ( ( ( ) a 0 * * * o o X X X @ = -.=.=.=.=.@.@.-.r.h.F.F.F.F.M.F r 4 F U %.-.",
"o 2 a ( ( ( ( ( ( ( ( L ) a 0 * o % o o o . . O > h.s.M.d.s.M.s.h.F.F.F.F.F.F.h.| _ x l.d.d.S.",
"* r f _ ) L f ( ( ( L ) Y x 4 * * & % o + X X # > Z.Z.H.F.F.F.F.F.F.F.F.A.A.M.M.o.) | z.A.F.F.",
"r r _ f ) ) ( ( ( ( ) o.z.6.D D : = O X + = = > 0.Z.H.H.F.F.F.F.F.F.F.F.A.z.z.o.o.6.z.M.A.A.F.",
"x ) f _ f ) _ _ ( ( ) z.M.A.d.A., = . . @ *.w.s.Z.H.H.H.F.F.F.F.F.F.F.F.M.| L L z.A.A.A.F.F.F.",
") ) ) f _ f _ _ ( ( Y M.F.F.F.F.w.= O   @ r.h.h.H.H.H.H.F.F.F.F.F.F.F.F.z.| L Y z.F.F.F.F.F.F.",
") ) ) x a 4 g x Y | l.M.F.s., > ; = # # ; d.F.F.H.H.H.H.H.H.F.F.F.F.F.F.r.: * : -.F.F.F.F.F.d.",
"L ) ) a r * * g d.M.M.d.F.w.= . O # , , 0.D.F.F.H.H.H.H.H.H.h.h.F.F.F.h., @ X O > s.F.F.F.A.%.",
") ) L a 4 * * - -.s.d.d.d.0.#   X = 0.F.D.D.F.F.H.H.H.H.H.H.H.h.h.s.h.s.> O . X > s.F.h.F.M.D ",
"Y | | Y x - * : > > , , @.D = + + ; d.F.F.D.F.F.H.H.H.H.H.s.s.r.-.@.> > = + O @ : 6.z.r.-.%.- ",
"M.M.M.M.d.-.-.; @ O + & - * - * - %.d.D.F.F.F.F.F.F.F.F.h.M.@.- * & @ @ # & - - U o.L g * * * ",
"F.F.M.F.F.F.s.> .   X + * * 4 L ) z.S.D.F.F.F.F.F.F.F.F.F.r.B * o +   . O * L ) ( ( a < * * * ",
"F.F.F.F.F.F.s.> O   X $ * * 4 ) | z.M.F.F.F.F.F.F.F.F.F.F.d.D * & o . X + - _ f G ( a 4 * % * ",
"F.F.F.F.F.F.s.@.& + % * 4 x -.z.z.M.A.F.F.F.F.F.F.F.M.z.| | x a 4 * - & - e f f < * * k @.@.@.",
"F.F.F.F.F.F.M.%.* o * 4 f L z.M.A.A.F.F.F.F.F.F.F.F.M.o.L ) L a G a a a a _ f a * * * B r.h.h.",
"F.F.F.F.F.A.M.%.* * * a ( ) z.A.F.F.F.F.F.F.F.A.M.A.M.| ) ( a ( G ( G G _ f _ a 4 * * D M.h.h.",
"F.F.F.A.M.z.z.| 4 * 4 x ) ) z.F.F.F.F.F.F.F.F.A.M.z.z.) L ( ) ) ( ( ( ( _ _ _ _ g B D -.h.F.F."
};
