/* XPM */
static char *_7469858e83040b8fc72cf530d1b255bwq8nrVQnDdzW9XOq[] = {
/* columns rows colors chars-per-pixel */
"47 47 19 1 ",
"  c None",
". c #323232",
"X c gray20",
"o c #343434",
"O c #F79800",
"+ c #F89800",
"@ c #FFC600",
"# c #0050C8",
"$ c #0051C8",
"% c #F6D3B2",
"& c #F6D4B2",
"* c #F7D4B2",
"= c #FFF9BC",
"- c #FFFABC",
"; c #FFFBBC",
": c #FFFBBD",
"> c #99FFCE",
", c gray95",
"< c gray97",
/* pixels */
"                                               ",
"                        X XX                   ",
"              X       XX- X    XX XX           ",
"              X       ---   X X-- X            ",
"             X-X   X  --X XX- --- X            ",
"             X--X X-  -XX --- --- X            ",
"             X--  X-  X-- --- -X-              ",
"             X--  X-  --- --XXXX-              ",
"             X--  -X  --- XX- -X-o             ",
"              X-  --- X-- --- -XXoXXX          ",
"              X-- --- --- --- X-- -X           ",
"              XX- XXX --- --- --- X            ",
"              --- --- -X- XXX -X- X            ",
"            X --X --- X-- --- X--              ",
"           X- -X- --- &XX --- ---              ",
"           X- X-- --X &&& X-- --X              ",
"           X- X-- -X& &&& X-- -XXoXX           ",
"           X- X-- X&& &XX X-X ---X             ",
"           XX X-- &&& X,X XX& X-X              ",
"           X  X-X &XX ,,X X&% XX               ",
"              XXX &>> ,,X *&%                  ",
"              X<X &&& &&& %&X XXX              ",
"               XX &XX XX& %XX $#$ XX           ",
"               X$ X&& &&& X+X #XX X            ",
"               X$ XXX XXX X+XoXX& &X           ",
"          XXX XXX XX$ ##$ X++X&&& X            ",
"         X&&X &&% XX# #XX +++ X&& %X           ",
"         X&&X &&X X+X ##X ++X XXX XXX          ",
"         X&&& XXX X+O $X+ +X& X&& X$#X         ",
"         X&&& X$X XXXXXXX XX& X&& &X#$X        ",
"          XXX XX   X$ #$$ $XX &&& &X#X         ",
"                  XXX XXX XXX &&&XXXX          ",
"               XX ++X XXX ++X XXXXXXXX         ",
"              X++ +++ XXX X++ XXX X            ",
"              +++ +++ XXX ++X XXX              ",
"            X +++ ++X XX+ +++ XXX X            ",
"            X +++ +XX XX+ +++ +XX XX           ",
"            X X++ +++ XX+ +++ XXX X            ",
"              +X+ ++X <X+ +XX X                ",
"              XXX XXX X X++++ XXX              ",
"              X@@ XXX   X++++ XXX XXX          ",
"               X@ XXX    XXXX XXX X            ",
"                X@@@XX   XXX@ XXX              ",
"               X@@@XXXX  XXXX @@X              ",
"             XXXXXXXXXXX       X@ X            ",
"                             XXXXo             ",
"                            XXXXXXXX           "
};
