/* XPM */
static char *result[] = {
/* columns rows colors chars-per-pixel */
"47 47 10 1 ",
"  c gray20",
". c #F89800",
"X c #FFC600",
"o c #0050C8",
"O c #F6D4B2",
"+ c #FFFABC",
"@ c #99FFCE",
"# c gray95",
"$ c gray97",
"% c None",
/* pixels */
"%%%%%%%%%%%%%%%%%%%%%%%%%%%%%%%%%%%%%%%%%%%%%%%",
"%%%%%%%%%%%%%%%%%%%%%%%%%%%%% %%%% %%%%%%%%%%%%",
"%%%%%%%%%%%%%%%%%%%%%%%%%% %%  %%%  %%%%%%%%%%%",
"%%%%%%%%%%%%%%%%%%%%%%%%%%  % +  % + %%%%%%%%%%",
"%%%%%%%%%%%%%%%%%%%%%%%%%% +  +++  ++ %%%%%%%%%",
"%%%%%%%%%%%%%%%%%%%%%      ++ ++++ +++ %%%%%%%%",
"%%%%%%%%%%%%%%%%%%%%%% +++ +++ +++ ++++ %%%%%%%",
"%%%%%%%%%%%%%%%%%%%%%%% ++ ++++ + + +++ %%%%%%%",
"%%%%%%%%%%%%%%%%%%%%%%%% + + ++++ ++ +++ % %%%%",
"%%%%%%%%%%%%%%%%%%%%%%%    + ++++ +++ ++   %%%%",
"%%%%%%%%%%%%%%%%%%%%%  ++++ + +++++++ ++ + %%%%",
"%%%%%%%%%%%%%%%%%%%% +++++    ++++++++  ++ %%%%",
"%%%%%%%%%%%%%%%%%%%       ++++++ ++ ++ +++ %%%%",
"%%%%%%%%%%%%%%%%%%%%%%%% +++++++ +++ + ++ %%%%%",
"%%%%%%%%%%%%%%%%%%%%%%% ++++    O ++  +++ %%%%%",
"%%%%%%%%%%%%%%%%%%%%%%% +   OOOOO ++ ++ + %%%%%",
"%%%%%%%%%%%%%%%%%%%%%%%  % OOOOOO + ++ + %%%%%%",
"%%%%%%%%%%%%%%%%%%%%%%% %% OOOOO   O  +    %%%%",
"%%%%%%%%%%%%%%%%%%%%%%%%%%% OOO  OOO O ++ %%%%%",
"%%%%%%%%%%%%%%%%%%%%%%%%%%% O  ## OOOO + %%%%%%",
"%%%%%%%%%%%%%%%%%%%%%%%%%%% O@@## OOOO  %%%%%%%",
"%%%%%%%%%%%%%%%%%%%%%%%%%%% OOOOOOOOO  %%%%%%%%",
"%%%%%%%%%%%%%%%%%%%%%%%%%%%% O  OOO   %%%%%%%%%",
"%%%%%%%%%%%%%%%%%%%  %%%%%%   OOO   .  %%%%%%%%",
"%%%%%%%%%%%%%%%%%% OO %%%% o     o . oo %%%%%%%",
"%%%%%%%%%%%%%%%%%% O O %%% o oooo .. oo  %%%%%%",
"%%%%%%%%%%%%%%%%%    OO % O  ooo ... o O %%%%%%",
"%%%%%%%%%%%%%%%%% O OO O OO . o ..... OO %%%%%%",
"%%%%%%%%%%%%%%%%% O OO O OO .  ... .  OOO %%%%%",
"%%%%%%%%%%%%%%%%%%   O   O  .....      O o %%%%",
"%%%%%%%%%%%%%%%%%% O   oo $          %  O  %%%%",
"%%%%%%%%%%%%%%%%%%% %%%         oooo %%  OO %%%",
"%%%%%%%%%%%%%%%%%%%%%% ....   ..     %% O OO %%",
"%%%%%%%%%%%%%%%%%%%%% ....   .. ..   % OOOOO %%",
"%%%%%%%%%%%%%%%%%%%%% ...    .....   % OOOO %%%",
"%%%%%%%%%%%%%%%%%%%%% ...   .....   %%% OO %%%%",
"%%%%%%%%%%%%%%%%%%%%%%      ....    %%%%  %%%%%",
"%%%%%%%%%%%%%%%%%%%%%%%    .....   %%%%%%%%%%%%",
"%%%%%%%%%%%%%%%%%%%%%%%%%  ....   %%%%%%%%%%%%%",
"%%%%%%%%%%%%%%%%%%%%%%%%%%  ...   %%%%%%%%%%%%%",
"%%%%%%%%%%%%%%%%%%%%%%%%%         %%%%%%%%%%%%%",
"%%%%%%%%%%%%%%%%%%%%%%%%%        %%%%%%%%%%%%%%",
"%%%%%%%%%%%%%%%%%%%%%%%%% X      %%%%%%%%%%%%%%",
"%%%%%%%%%%%%%%%%%%%%%%%%  X    %%%%%%%%%%%%%%%%",
"%%%%%%%%%%%%%%%%%%%%%%%% X    %%%%%%%%%%%%%%%%%",
"%%%%%%%%%%%%%%%%%%%%%%%  X   %%%%%%%%%%%%%%%%%%",
"%%%%%%%%%%%%%%%%%%%%%%%     %%%%%%%%%%%%%%%%%%%"
};
