/* XPM */
static char *c7ffc147313a43e1c111e2fce87a24bc5FebQcGLEYnqQdK5[] = {
/* columns rows colors chars-per-pixel */
"47 47 10 1 ",
"  c None",
". c gray20",
"X c #F89800",
"o c #FFC600",
"O c #0050C8",
"+ c #F6D4B2",
"@ c #FFFABC",
"# c #99FFCE",
"$ c gray95",
"% c gray97",
/* pixels */
"                                               ",
"                                               ",
"                                               ",
"                                               ",
"                                    .          ",
"                                    ..         ",
"                          ......    .@.        ",
"                           .@@@@..  .@@.       ",
"                       ......@@@@@. .@@.       ",
"                 ......@@@@@@.@@@@@.@@@@.      ",
"                   .@@@@@@@@@@.@@@@@.@@@.      ",
"                    .@@@@@@@@@@@@@@@.@@@.      ",
"                     .@@...@@@@..@@@..@.       ",
"                    ....@@@@@@.@@@@.@@.@.      ",
"                     .@@@@@@@.@@@..@.@@.@.     ",
"                      .@@@@@.@@@.@..@@@.@.     ",
"                      ..@@...@@.+.+.@@@.@.     ",
"                    ..@@..@@.@@.+++.@@..@.     ",
"                      .@@@....@.+++.@.+..      ",
"                     ...@@@@.+.......++.       ",
"                    .+...@@@.++.+.$.+++.       ",
"                    .+.++..@.++++.$$.+.        ",
"                   .+++..@@@@.++++.$#+.        ",
"                   .........@@.++++$#+.        ",
"                   .++.O...X..+++++++++.       ",
"                   .+++...XXXX...+++++.        ",
"                    .......XXXXXX.++..         ",
"                       ..X...XXX.O..     ...   ",
"                       ...XXXXX.OOO.    .++.   ",
"                       ....XXXX.OO.+..  .+.... ",
"                       .OO..XXX.O.++++...++++. ",
"                       ...OO..XX...++++OO+++.  ",
"                       .....OO...%%..++OO+++.  ",
"                      ...XX...OO....%.......   ",
"                     ...XXXX....XXXX.          ",
"                    ...XXXX....XXXXXX.         ",
"                   ...XXXX.......XXXX.         ",
"                  ...XXXX.X...XXXXXXX.         ",
"                 ...XXXXXX........XXX.         ",
"                 ...XXXXX.........XX.          ",
"                .....XXX.%..........           ",
"                ........ ...o.....             ",
"               ........  ..o.                  ",
"               ...o..    ...                   ",
"              ...o..     ..                    ",
"              ..o..                            ",
"              ...                              "
};
