/* XPM */
static char *result[] = {
/* columns rows colors chars-per-pixel */
"47 47 10 1 ",
"  c gray20",
". c #F89800",
"X c #FFC600",
"o c #0050C8",
"O c #F6D4B2",
"+ c #FFFABC",
"@ c #99FFCE",
"# c gray95",
"$ c gray97",
"% c None",
/* pixels */
"%%%%%%%%%%%%%%%%%%%%%%%%%%%%%%%%%%%%%%%%%%%%%%%",
"%%%%%%%%%%%%%%%%%%%%%%%%    %%%%%%%%%%%%%%%%%%%",
"%%%%%%%%%%%%%% %%%%%%%  ++ %%%%     %%%%%%%%%%%",
"%%%%%%%%%%%%%% %%%%%  +++ %%   +++ %%%%%%%%%%%%",
"%%%%%%%%%%%%% + %%% ++++    ++++++ %%%%%%%%%%%%",
"%%%%%%%%%%%%% ++ % ++++  +++++++++ %%%%%%%%%%%%",
"%%%%%%%%%%%%% +++  +++ ++++++++ + %%%%%%%%%%%%%",
"%%%%%%%%%%%%% ++++ ++ ++++++    + %%%%%%%%%%%%%",
"%%%%%%%%%%%%% +++++ ++++++  +++ + %%%%%%%%%%%%%",
"%%%%%%%%%%%%%% +++++++ ++ +++++      %%%%%%%%%%",
"%%%%%%%%%%%%%% ++++++ ++++++++ ++++ %%%%%%%%%%%",
"%%%%%%%%%%%%%%  ++   ++++++++ ++++ %%%%%%%%%%%%",
"%%%%%%%%%%%%% +++ +++++ ++   ++ ++ %%%%%%%%%%%%",
"%%%%%%%%%%%% +++ +++++ ++++++  ++ %%%%%%%%%%%%%",
"%%%%%%%%%%% +++ +++++ O   +++ +++ %%%%%%%%%%%%%",
"%%%%%%%%%%% ++ +++++ OOOOO ++ ++ %%%%%%%%%%%%%%",
"%%%%%%%%%%% ++ ++++ OOOOOO ++ +     %%%%%%%%%%%",
"%%%%%%%%%%% +  +++ OOOO    +  +++ %%%%%%%%%%%%%",
"%%%%%%%%%%%  % ++ OOO  # O  OO + %%%%%%%%%%%%%%",
"%%%%%%%%%%% %% + OO  @## O OOO  %%%%%%%%%%%%%%%",
"%%%%%%%%%%%%%%   OO@@@## OOOO %%%%%%%%%%%%%%%%%",
"%%%%%%%%%%%%%% $ OOOOOOOOOOO      %%%%%%%%%%%%%",
"%%%%%%%%%%%%%%%   O     OOO   oooo  %%%%%%%%%%%",
"%%%%%%%%%%%%%%% o  OOOOOO  . oo    %%%%%%%%%%%%",
"%%%%%%%%%%%%%%% oo         .    OOO %%%%%%%%%%%",
"%%%%%%%%%%          oooooo .. OOOO %%%%%%%%%%%%",
"%%%%%%%%% OO OOOO   ooo   .... OOOO %%%%%%%%%%%",
"%%%%%%%%% OO OOO O . ooo ...         %%%%%%%%%%",
"%%%%%%%%% OOO    O .. o ... OO OOO oo %%%%%%%%%",
"%%%%%%%%% OOOO o            OO OOOO oo %%%%%%%%",
"%%%%%%%%%%      %%% ooooooo   OOOOO o %%%%%%%%%",
"%%%%%%%%%%%%%%%%%            OOOO    %%%%%%%%%%",
"%%%%%%%%%%%%%%%  ...     ...          %%%%%%%%%",
"%%%%%%%%%%%%%% .......     ...     %%%%%%%%%%%%",
"%%%%%%%%%%%%% .......    ...      %%%%%%%%%%%%%",
"%%%%%%%%%%%% .......    ......     %%%%%%%%%%%%",
"%%%%%%%%%%%% ......     .......     %%%%%%%%%%%",
"%%%%%%%%%%%% . ......   .....      %%%%%%%%%%%%",
"%%%%%%%%%%%%% . ....  $ ...    %%%%%%%%%%%%%%%%",
"%%%%%%%%%%%%%%         % ....     %%%%%%%%%%%%%",
"%%%%%%%%%%%%%% XX     %% .....       %%%%%%%%%%",
"%%%%%%%%%%%%%%% X    %%%%          %%%%%%%%%%%%",
"%%%%%%%%%%%%%%%% XXX  %%%   XX    %%%%%%%%%%%%%",
"%%%%%%%%%%%%%%% XXX    %%     XX  %%%%%%%%%%%%%",
"%%%%%%%%%%%%%           %%%%%%% XX %%%%%%%%%%%%",
"%%%%%%%%%%%%%%%%%%%%%%%%%%%%%     %%%%%%%%%%%%%",
"%%%%%%%%%%%%%%%%%%%%%%%%%%%%        %%%%%%%%%%%"
};
