/* XPM */
static char *_01c4d099a7646c3dbba664839f89806Ssv7NlPe0a8RrDvX[] = {
/* columns rows colors chars-per-pixel */
"47 47 99 2 ",
"   c None",
".  c gray20",
"X  c #F89800",
"o  c #FFBE00",
"O  c #FFC400",
"+  c #FFCC00",
"@  c #FFC60B",
"#  c #FFD400",
"$  c #FFDD00",
"%  c #FFC714",
"&  c #FFC915",
"*  c #FFC71B",
"=  c #FFDF17",
"-  c #FFE000",
";  c #FFC925",
":  c #FFC628",
">  c #FFCD2C",
",  c #FFCA34",
"<  c #FFC73C",
"1  c #FFCB3C",
"2  c #FFD537",
"3  c #FFD934",
"4  c #FFD23D",
"5  c #FFE12E",
"6  c #FFE133",
"7  c #FFE13C",
"8  c #FFCB45",
"9  c #FECA4B",
"0  c #FFDC4B",
"q  c #FFCE52",
"w  c #FFD054",
"e  c #FFDD52",
"r  c #FFD35D",
"t  c #FEDB5B",
"y  c #FFE247",
"u  c #FFE24B",
"i  c #FFE453",
"p  c #FFE45A",
"a  c #FED463",
"s  c #FEDF62",
"d  c #FFD76B",
"f  c #FED277",
"g  c #FFD973",
"h  c #FFDF7E",
"j  c #FFE566",
"k  c #FFE96B",
"l  c #FEE576",
"z  c #FDE479",
"x  c #FFEB7C",
"c  c #0050C8",
"v  c #FDD385",
"b  c #FFDF84",
"n  c #FDDB95",
"m  c #FCD79E",
"M  c #FCDA9C",
"N  c #FFE085",
"B  c #FFED84",
"V  c #FFE38C",
"C  c #FDE98A",
"Z  c #FFE593",
"A  c #FEE995",
"S  c #FCE19B",
"D  c #FFEA9B",
"F  c #FFF194",
"G  c #FFF19A",
"H  c #FCDBA3",
"J  c #FCDDAC",
"K  c #F6D4B2",
"L  c #FBDDB1",
"P  c #FEEBA2",
"I  c #FBE1AF",
"U  c #FDECAB",
"Y  c #FFF2AB",
"T  c #FFF8AE",
"R  c #FBE2B6",
"E  c #FCECB1",
"W  c #FBE1BA",
"Q  c #FBEEBB",
"!  c #FFF4B2",
"~  c #FFF9B4",
"^  c #FFF7B8",
"/  c #FFFABC",
"(  c #99FFCE",
")  c #FAE4C2",
"_  c #FAEDC4",
"`  c #FAEBCD",
"'  c #FFFCC1",
"]  c #FAF1CC",
"[  c #F9EAD3",
"{  c #F9EDDD",
"}  c #FAF1D2",
"|  c #FDFCD2",
" . c #F9F2D9",
".. c #F9EFE2",
"X. c #F9F3E1",
"o. c #F8F4EC",
"O. c #F9FBED",
"+. c gray95",
"@. c #F6FAFF",
/* pixels */
"                     .         .                               .         .                    ",
"                    r         .       U . . . .       E       a         r                     ",
"                    O  .    C . .     ;   . / / . .   ;      .& .      .O                     ",
"                    O `     q . ' . . . C   . / / / . 9     [ O .     ` O                     ",
"          e     f   O #  ._ O . / / / / . . . / / / / . Q   # . / . X.# O   f     e           ",
"          &     + ! O O # Z O . / / / / / / / . / / / / . R . / / . $ O O E #     &           ",
"          o [   I O O + O O O . / . / / / / / / . / / / . . / / / . O O O O I   [ O           ",
"          $ O   _ O O O O O O . / . . / / / / / / . / / / . / / / . + O O O )   O $           ",
"          s O O ] ; O O w . O . / . / . . / / / / / / / / . / / / . w O O ; ] O O s           ",
"            O O v 9 O O ' . . . / . / / / . / / / . / / / / / / . r ' O O 9 v O O             ",
"  Q       X.# O O O O O / . / / . . / / / / / / / / . / / / / / . A / O O O O O O X.      ^   ",
"  m p       n O N 8 O O / . / / / . / / / / / / / / . . . / / . . = / O @ 4 N O n       p m   ",
"  m @       M O O ! ; O O i . / . / . / . . / . / / / / / . / / / . O O ; ! O O M       @ M   ",
"  S O f } P Q O O o ' 1 O G . / / . / . / / / / . / / / / / . / / / . 1 / O @ O Q P } f O S   ",
"    O O + R W O O O V l P 3   . / / . / / / . . K . . / / / / . / / / . V O O O W L + O O     ",
"    O O O * 0 O O O a x p B j   . / . / / . K K K K K . / / / / . / / . r O O O 0 * O O O     ",
"    p O O O O O N w * P u ` . . . . . / / . K K K K K K . / / / . . / . * w V O O O O O p     ",
"      O O , 8 O O / G a x E   . / ^ / . / . . . K K K K K . / / . E . . G / o O 1 , O O       ",
"      # O 1 A O O g F B x l     . / . K . . K K . . K K K K . / . l x . A g O O A 1 O +       ",
"      R O O P Y o O ~ _ X.$     . . . K K . K . +.+.. . K K . . . - X._ ~ O O Y P O O R       ",
"      ] O O O / Z @ r k     p . . . . K K K K . +.+.( ( K K .   .     k r @ Z / O O O ]       ",
"        a O O Y ' / d x X.  . K . . X . . K K K K K K K K K .       X.x g ~ ' Y O O a         ",
"    J   ] O @ O Y 6 D Z . . . . K . X . c . K K K . . . K . . .     - Z D 6 Y O @ O _   J     ",
"    { W @.# O O b ~ 6 . K K . K . . X . c c . . K K K K . X . c . _ ! $ 6 ~ N O O $ @.W {     ",
"      o o...O O O ^ z . . . . . K . X . c c c c . . . . X X . c . E 6 @.z ^ O O O ..o.O       ",
"      ` o  .8 O 8 o . K K . c . . . X X . c c c c c . X X . c . . _   ] ~ o 8 O 1 X.o `       ",
"      X.& 8 v & A O . . . . c .   . X X . c c c c . X X . c . K K .   E A O A & v 8 & X.      ",
"        X.O O O N Y . K K . .     . . X X . c c . X X X . . K K . . . . . Y N O O O {         ",
"          $ O O O ! ^ . .         . . . . . . . X X X X . . . . K . K K K . O O O $           ",
"            O O O U T A ^ E         . c c c . . . . . .     . . K . . K K . O O O             ",
"  J }       S O @ o Y G 5 !       . . . . . c c c c c .       . . K K K K . @ O S       } J   ",
"  X.+ W H Q O.O O D o ^ 6 } A Q   . . . . . . . . . . . .       . K K K . D O O O.Q H W + X.  ",
"    $ < % > d 7 O , / a ~ Q o.  . X X X . . . . . . X X .         . . . / , O 7 d > & < $     ",
"      O O O O O O O q ' ^ P   . X X X X X . . . . X X X .         U ^ ' q O O O O O O O       ",
"      { : O r O O O O V k p ] . X X X X . . . . . X X X X .     ] p k V O O O O r O ; {       ",
"        t O g D d O O O V Y . X X X X . . . . . . X X X X .     _ P V O O o d D g O t         ",
"          # O r / ! A O o V . X X X X X X . . . . X X X X X .   l V O o A ! ' r O #           ",
"          X.O O b p ' / / . X X X X X X X .     . . X X X X X . ^ O / / / p b O O X.          ",
"            W O O U u $ ! . X X X X X X .       . . X X X X X . Y ^ T $ i U O O W             ",
"              # O o A G $ . . X X X X . .       . . . X X X X . . $ - G Z O O #               ",
"          A   X.+ O P q ~ . . . . . . . .         . . . . . . . . P T q P O + X.  A           ",
"          { [ u O.1 r g , F . . . . . .             . . . . . . . F , g a , O.u [ {           ",
"            M o.m | P P 8 . . O . . .               . . . . O . . 2 8 P D | m o.M             ",
"              D { W H z D . . O . . .                 . . . . O . . D z H ) ..D               ",
"                  [ P Z . . O . . . .                   . . . O . . # n P [                   ",
"                        . . O . . .                     . . . . O . .                         ",
"                        . . . . . .                       . . . . . .                         "
};
