/* XPM */
static char *_d9981bcc5474b24f1d4cf9cb0bf8d873XmJe9is3KsEaZBm[] = {
/* columns rows colors chars-per-pixel */
"47 47 10 1 ",
"  c None",
". c gray20",
"X c #F89800",
"o c #FFC600",
"O c #0050C8",
"+ c #F6D4B2",
"@ c #FFFABC",
"# c #99FFCE",
"$ c gray95",
"% c gray97",
/* pixels */
"                                               ",
"            .    .                             ",
"           ..   ..  .                          ",
"          .@. ..@. ..                          ",
"         .@@..@@@..@.                          ",
"        .@@@.@@@@.@@......                     ",
"       .@@@@.@@@.@@@.@@@.                      ",
"       .@@@.@.@.@@@@.@@.                       ",
"    . .@@@.@@.@@@@.@.@.                        ",
"    ...@@.@@@.@@@@.@....                       ",
"    .@.@@.@@@@@@@.@.@@@@..                     ",
"    .@@..@@@@@@@@....@@@@@.                    ",
"    .@@@.@@.@@.@@@@@@.......                   ",
"     .@@.@.@@@.@@@@@@@.                        ",
"     .@@@..@@.+....@@@@.                       ",
"     .@.@@.@@.+++++...@.                       ",
"      .@.@@.@.++++++. ..                       ",
"    ....@..+...+++++.  .                       ",
"     .@@.+.+++..+++.                           ",
"      .@.++++.$$..+.                           ",
"       ..++++.$$##+.                           ",
"        ..+++++++++.                           ",
"         ...+++..+.                            ",
"        ..X...+++...      ..                   ",
"       .OO.X.O.....O.    .++.                  ",
"      ..OO.XX.OOOO.O.   .+.+.                  ",
"      .+.O.XXX.OOO..+. .++....                 ",
"      .++.XXXXX.O.X.++.+.++.+.                 ",
"     .+++..X.XXX..X.++.+.++.+.                 ",
"    .O.+......XXXXX..+...+...                  ",
"    ..+.. ..........%.OO...+.                  ",
"   .++..  .OOOO.........   .                   ",
"  .++.+.  .....XX...XXXX.                      ",
"  .+++++. ...XX.XX...XXXX.                     ",
"   .++++. ...XXXXX....XXX.                     ",
"    .++.   ...XXXXX...XXX.                     ",
"     ..    ....XXXX......                      ",
"            ...XXXXX....                       ",
"             ...XXXX..                         ",
"             ...XXX..                          ",
"             .........                         ",
"              ........                         ",
"              ......o.                         ",
"                ....o..                        ",
"                 ....o.                        ",
"                  ...o..                       ",
"                   .....                       "
};
