/* XPM */
static char *e40cd1a90efb4a4bc66214d40abd747d8Pzt6PeAtAr4Ds9b[] = {
/* columns rows colors chars-per-pixel */
"47 47 131 2 ",
"   c None",
".  c gray20",
"X  c #CC2900",
"o  c #F89800",
"O  c #FFBB00",
"+  c #FFC500",
"@  c #FFCA00",
"#  c #FFC609",
"$  c #FFCF0F",
"%  c #FFD400",
"&  c #FFDE00",
"*  c #FFD40F",
"=  c #FFCA13",
"-  c #FFC71C",
";  c #FFCC1B",
":  c #FFD312",
">  c #FFD81D",
",  c #FFE000",
"<  c #FFE113",
"1  c #FFE01B",
"2  c #FFCE21",
"3  c #FFD126",
"4  c #FFD32A",
"5  c #FFDB2A",
"6  c #FFCC34",
"7  c #FFD631",
"8  c #FFDC35",
"9  c #FFD43B",
"0  c #FFDD3C",
"q  c #FFE124",
"w  c #FFE02C",
"e  c #FFE134",
"r  c #FFE23C",
"t  c #FFCC42",
"y  c #FFCE4D",
"u  c #FFD544",
"i  c #FFD34B",
"p  c #FFCF53",
"a  c #FFCF58",
"s  c #FFD156",
"d  c #FFD35A",
"f  c #FFE343",
"g  c #FFE34D",
"h  c #FFE553",
"j  c #FFE45B",
"k  c #FFD463",
"l  c #FFD66E",
"z  c #FFD86A",
"x  c #FFDC73",
"c  c #FFDF7F",
"v  c #FFE562",
"b  c #FFE865",
"n  c #FFEA6D",
"m  c #FFEC74",
"M  c #FFEC7B",
"N  c #0050C8",
"B  c #FDD284",
"V  c #FED889",
"C  c #FEE484",
"Z  c #FFED84",
"A  c #FEE58C",
"S  c #FEEC8C",
"D  c #FEEC96",
"F  c #FCE69A",
"G  c #FDEB9D",
"H  c #FFF393",
"J  c #FFF49B",
"K  c #F6D4B2",
"L  c #FCE5A5",
"P  c #FDEAA3",
"I  c #FCEDAB",
"U  c #FFF4A5",
"Y  c #FFF5AB",
"T  c #FFFBAD",
"R  c #FCEBB2",
"E  c #FBEDBB",
"W  c #FEF5B5",
"Q  c #FFF9B5",
"!  c #FCF0B8",
"~  c #FFF8BA",
"^  c #FFF9B8",
"/  c #FFFABC",
"(  c #FFFABD",
")  c #FEF9BF",
"_  c #FFFBBE",
"`  c #FFFBBF",
"'  c #FFFABC",
"]  c #FAE3C5",
"[  c #FFFBC1",
"{  c #FEF8C2",
"}  c #FEFAC2",
"|  c #FFFBC2",
" . c #FFFEC1",
".. c #FEF9C4",
"X. c #FEFBC4",
"o. c #FFFFC5",
"O. c #FFFFC7",
"+. c #FCF5CE",
"@. c #FBF2CA",
"#. c #FEFBC9",
"$. c #FEFECB",
"%. c #FDFACE",
"&. c #FEFCCC",
"*. c #FCF8D1",
"=. c #FDFDD0",
"-. c #FEFFD1",
";. c #FFFFD1",
":. c #FDFCD2",
">. c #FDFAD3",
",. c #FBF9D9",
"<. c #FBFADB",
"1. c #FCFADB",
"2. c #FBF8DD",
"3. c #FBF9DF",
"4. c #FBFADE",
"5. c #FCFADC",
"6. c #FCFCDC",
"7. c #FFFEDE",
"8. c #FCFCDE",
"9. c #FBFBE2",
"0. c #FAF8E4",
"q. c #FAF9E5",
"w. c #FAFBE5",
"e. c #FCFDE7",
"r. c #FAFAE9",
"t. c #FAFBEB",
"y. c #FAFCE9",
"u. c #FCFCEC",
"i. c gray95",
"p. c gray97",
"a. c #F8F7F2",
/* pixels */
"                                                                                              ",
"                    D         D       5.      G       1.      D         D                     ",
"                    h       :.v       b     | & |     b       v -.      h                     ",
"                    ,       b e       j %.  1 f 1   %.j       e b       ,                     ",
"          Y     S   , Z     g f Z     g C | r 8 r . Z h     Z r g     Z ,   S     W           ",
"          h     M 5.< q S ! r 7 < E Y r j h f O . . j r Y E < 7 r ! S q < 5.M     h           ",
"          ,     ! v r f r j f + 8 r j . f f 6 . ' . f f j e 8 + f j r r f v E     ,           ",
"          Y &     r f f f f f k l f . . f f . _ ' . f # f f l k f f f f f r     , Y           ",
"          W e <   v f f 0 f f d -.. ' . d l . ' ' . i @ r t -.d f f 0 f f j   < e W           ",
"            < f A v f f + 5 f s   . / ' . . ' ' ' . . x u 7.  d f 5 + g f v S f <             ",
"  4.        b f r f f f - c f s t.. ( ( . . ' . . . K . .   u.s f c ; f f f r f b         4.  ",
"  P |       G r 4 r f f - o.6 d t.. ( ( ( . . K K K K K K .   d 6 o.- f f 0 4 f G       | P   ",
"  P e       I f f ; f f g W $.d . . ' ' . K K K K K . . . . . d $.~ g r f = f f I       e P   ",
"  ! r C   *.2.r f f + e f x   . ( ' ( ' . K . K K . i.i.i.. K .   x f 8 + f f r 2.*.  C f !   ",
"    f e n R E f f f 3 S @ M . ( / / ' . . . . K K . . . . . K .   Z @ S 3 f f r E R n e f     ",
"    w f f f U r f f 8 P W . ( ( / ' ' ' ( ( . K K . . . . . K . W C W P 7 f f r Y f r f w     ",
"    | q f f r f 4 0 f @ . ' ' ' / / . / _ . K K K . X X . . K . ( 0.o.@ f 0 7 f r f f 5 |     ",
"      , f f 0 f f + z . ' ' ( . / / / . . . . K K K . X X . K .   <.G % z + f f r f f ,       ",
"      n 0 f 4 f f 5 A . ' / . ' / / / . K K . K K K K . . . K .   #.A A A 4 f f 3 r r n       ",
"        e f 2 ; f g . / . . ' ' / / / . . . K K K K K K K K .     T   r.p f f ; 2 f r         ",
"        j f f + 4 f . .   . ( ( / / / / . K K . K K K K K K .   |     D 7 f 4 + f f j         ",
"        S r f ; + s . C   . ' ' / / . / / . . . . . K K K K . .       C > a + ; f r S         ",
"    R     , f f @ _ x @ . ' ' ( / . / / . o o . . N . . . . N . .   o.@ x o.@ f f ,     R     ",
"          H r f 4 y _ Y . . . . . / / / . . o o o . N N N N N N . 0.i U ( y 4 f r H           ",
"      &     q f f + -.  ' ,.    . ' ( . N N . o o o . N N N N N . . '   -.+ f f q     &       ",
"        ,   Z f f f t r.  .   . . . . . . N . o o o o . N N N N . .   r.t . 0 f Z   ,         ",
"        j j A f 3 f u +.. K . p.p.p.. K K . . o o . o o . . N . o .   +.. K . f A j j         ",
"          & r f 7 ; f u . K . . p.. K K K . . o . . o o o o . . o . . . . K . . r &           ",
"          U e f f = @ . . K K . . N K K .   . . . . . . o o o o o . N . K K . K . U           ",
"            r f f ; . K . . K . N N N .       . . . . . . . . . . N N . . . K . .             ",
"  R         ! r f g . K . K . K . N .           . N N N N N N N N . N . K . K . !         I   ",
"    m E I 9.  1 f 3 f . . K . K . .           . . . . . . . . . . . . . K . . 1   9.I E m     ",
"    Y g f M D Q 5 f + 8 y . . .               . . o . o . . . . o . p.. . f 5 Q D M f g Y     ",
"      q f f r r f f 0 + 6 9.                . . o . o o o . . . o o . + 0 f f r f r f q       ",
"        f f 0 f f f f % Y X.0.            . . . . o o o o . . . o o . % f f f f 0 f f         ",
"        U > 8 3 8 f f f : R 9.            . . . . o o o o . . o o o . f f f 8 3 8 > U         ",
"          H r 0 + + 4 f f 4 X.          . . . . o o o o . . o o o o . f 4 @ + 0 r J           ",
"            q f * W + # # f + -.      . . . o o o o o . . . . o o o . # + W * f q             ",
"              r f @ ~ $.s a s V       . . o o o o o . . . . o . o o . $.~ + g r               ",
"              Z q g 9 C o._ 9.e.    . . . o o o o o o . . . . o o o . A 9 f q Z               ",
"          *.    M f ; 5 z 6.$.      . . . o o o o o . . . . . . o . k 5 ; f M     %.          ",
"              ( ] r 8 8 0 V       . . . . . o o o .     . . . . . M u 8 0 r ] (               ",
"            P a.I B @ 3 u S Q   . . . . . . . . .       . . . @ . . 0 3 @ B I a.P             ",
"              *.  @.F % * C +.. . . + . . . . .         . . . . + . * % F @.  *.              ",
"                    >.x J P . . . + . . .                 . . . . . J x >.                    ",
"                          Z . . + . . .                     . . . .                           ",
"                            . . . . .                                                         "
};
