/* XPM */
static char *_fc302f18be94e64cefd4c6225f42df2gmONF0LLioj1NdiY[] = {
/* columns rows colors chars-per-pixel */
"47 47 10 1 ",
"  c None",
". c gray20",
"X c #F89800",
"o c #FFC600",
"O c #0050C8",
"+ c #F6D4B2",
"@ c #FFFABC",
"# c #99FFCE",
"$ c gray95",
"% c gray97",
/* pixels */
"                                               ",
"                   ....                        ",
"           .....    .@@..       .              ",
"            .@@@...  .@@@..     .              ",
"            .@@@@@@....@@@@.   .@.             ",
"            .@@@@@@@@@..@@@@. .@@.             ",
"             .@.@@@@@@@@.@@@..@@@.             ",
"             .@....@@@@@@.@@.@@@@.             ",
"             .@.@@@..@@@@@@.@@@@@.             ",
"          ......@@@@@.@@.@@@@@@@.              ",
"           .@@@@.@@@@@@@@.@@@@@@.              ",
"            .@@@@.@@@@@@@@...@@..              ",
"            .@@.@@...@@.@@@@@.@@@.             ",
"             .@@..@@@@@@.@@@@@.@@@.            ",
"             .@@@.@@@...+.@@@@@.@@@.           ",
"              .@@.@@.+++++.@@@@@.@@.           ",
"           .....@.@@.++++++.@@@@.@@.           ",
"             .@@@..@....++++.@@@..@.           ",
"              .@.++..+.$..+++.@@. ..           ",
"               ..+++.+.$$#..++.@.  .           ",
"                 .++++.$$###++...              ",
"             ......+++++++++++.%.              ",
"           ..OOOO...+++.....+...               ",
"            ....OO.X..++++++..O.               ",
"           .+++....X.........OO.               ",
"            .++++.XX.OOOOOO..........          ",
"           .++++.XXXX...OOO...++++.++.         ",
"          .........XXX.OOO.X.+.+++.++.         ",
"         .OO.+++.++.XXX.O.XX.+....+++.         ",
"        .OO.++++.++............O.++++.         ",
"         .O.+++++...OOOOOOO.   ......          ",
"          ....++++............                 ",
"         ..........XXX.....XXX..               ",
"            .....XXX.....XXXXXXX.              ",
"             ......XXX....XXXXXXX.             ",
"            .....XXXXXX....XXXXXXX.            ",
"           .....XXXXXXX.....XXXXXX.            ",
"            ......XXXXX...XXXXXX.X.            ",
"                ....XXX.%..XXXX.X.             ",
"             .....XXXX. .........              ",
"          .......XXXXX.  .....oo.              ",
"            ..........    ....o.               ",
"             ....oo...   ..ooo.                ",
"             ..oo.....  ....ooo.               ",
"            .oo.       ...........             ",
"             .....                             ",
"           ........                            "
};
