/* XPM */
static char *result[] = {
/* columns rows colors chars-per-pixel */
"47 47 9 1 ",
"  c gray20",
". c #F89800",
"X c #FFC600",
"o c #0050C8",
"O c #F6D4B2",
"+ c #FFFABC",
"@ c #99FFCE",
"# c gray95",
"$ c None",
/* pixels */
"$$$$$$$$$$$$$$$$$$$$$$$$$$$$$$$$$$$$$$$$$$$$$$$",
"$$$$$$$$$$$$$$$$$$$$$$$$    $$$$ $$$$$$$$$$$$$$",
"$$$$$$$$$$$$$$$ $$$$$$  ++ $$$$  $$$$$$$$$$$$$$",
"$$$$$$$$$$$$$$$ $$$$$ +++ $$   + $$$$$$$$$$$$$$",
"$$$$$$$$$$$$$$ + $$$ ++++   ++++ $$$$$$$$$$$$$$",
"$$$$$$$$$$$$$$ ++ $ ++++ +++++++ $$$$$$$$$$$$$$",
"$$$$$$$$$$$$$$ +++  +++ ++++++ + $$$$$$$$$$$$$$",
"$$$$$$$$$$$$$$ +++ +++ ++++++  + $$$$$$$$$$$$$$",
"$$$$$$$$$$$$$$ +++ ++++++++  + + $ $$$$$$$$$$$$",
"$$$$$$$$$$$$$$$ ++++++ +++ +++ +   $$$$$$$$$$$$",
"$$$$$$$$$$$$$$$ +++++ ++++++++  ++ $$$$$$$$$$$$",
"$$$$$$$$$$$$$$$  ++   ++++++++ +++ $$$$$$$$$$$$",
"$$$$$$$$$$$$$$ +++ +++++ +  + + + $$$$$$$$$$$$$",
"$$$$$$$$$$$$$ +++ +++++ ++++ + ++ $$$$$$$$$$$$$",
"$$$$$$$$$$$$ +++ ++++  O  +++ ++ $$$$$$$$$$$$$$",
"$$$$$$$$$$$$ ++ ++++ OOOOO ++ + $$$$$$$$$$$$$$$",
"$$$$$$$$$$$$ +  +++ OOOOOO ++     $$$$$$$$$$$$$",
"$$$$$$$$$$$$  $ ++ OOOOO   + +++ $$$$$$$$$$$$$$",
"$$$$$$$$$$$$ $$ + OOOO  OO  O + $$$$$$$$$$$$$$$",
"$$$$$$$$$$$$$$$   OO  ## O OO   $$$$$$$$$$$$$$$",
"$$$$$$$$$$$$$$$ $ OO@@## OOOO    $$$$$$$$$$$$$$",
"$$$$$$$$$$$$$$$$$ OOOOOOOOO  .  O $$$$$$$$$$$$$",
"$$$$$$$$$$$$$$$$   O   OOO o . O    $$$$$$$$$$$",
"$$$$$$$$$$$$$$$ o . OOOO  oo .  O OO $$$$$$$$$$",
"$$$$$$$$$$$$$$$ o ..    oooo . O     $$$$$$$$$$",
"$$$$$$$$$$$$$$$  o .. ooooo ..   o OO $$$$$$$$$",
"$$$$$$$$$$$$$$ OO o .. oooo .. $ o    $$$$$$$$$",
"$$$$$$$$$$$     OO  ... oo ..  $$  OO $$$$$$$$$",
"$$$$$$$$$$ OOO O    ....       $$$$  $$$$$$$$$$",
"$$$$$$$$$$ OO  O  $$      ooo $$$$$$$$$$$$$$$$$",
"$$$$$$$$$$ OOOO  $$$ ooooo     $$$$$$$$$$$$$$$$",
"$$$$$$$$$$$ OOO $$$            $$$$$$$$$$$$$$$$",
"$$$$$$$$$$$$   $$$$ ..      ... $$$$$$$$$$$$$$$",
"$$$$$$$$$$$$$$$$$$$ ...    ..... $$$$$$$$$$$$$$",
"$$$$$$$$$$$$$$$$$$ ....     .... $$$$$$$$$$$$$$",
"$$$$$$$$$$$$$$$$$$ ....      .... $$$$$$$$$$$$$",
"$$$$$$$$$$$$$$$$$ .....    ...... $$$$$$$$$$$$$",
"$$$$$$$$$$$$$$$$ .....  $$ ....... $$$$$$$$$$$$",
"$$$$$$$$$$$$$$$$ .....  $$$ ...... $$$$$$$$$$$$",
"$$$$$$$$$$$$$$$  ....   $$$  ....  $$$$$$$$$$$$",
"$$$$$$$$$$$$$$$        $$$$        $$$$$$$$$$$$",
"$$$$$$$$$$$$$$$       $$$$$$      $$$$$$$$$$$$$",
"$$$$$$$$$$$$$$$  X    $$$$$$$   X  $$$$$$$$$$$$",
"$$$$$$$$$$$$$$  X    $$$$$$$$   X  $$$$$$$$$$$$",
"$$$$$$$$$$$$$$  X   $$$$$$$$$    X  $$$$$$$$$$$",
"$$$$$$$$$$$$$  X    $$$$$$$$$$   X  $$$$$$$$$$$",
"$$$$$$$$$$$$$      $$$$$$$$$$$      $$$$$$$$$$$"
};
