/* XPM */
static char *result[] = {
/* columns rows colors chars-per-pixel */
"47 47 10 1 ",
"  c gray20",
". c #F89800",
"X c #FFC600",
"o c #0050C8",
"O c #F6D4B2",
"+ c #FFFABC",
"@ c #99FFCE",
"# c gray95",
"$ c gray97",
"% c None",
/* pixels */
"%%%%%%%%%%%%%%%%%%%%%%%%%%%%%%%%%%%%%%%%%%%%%%%",
"%%%%%%%%%%%%%%%%%%%%%%%%%%%%%%%%%%%%%%%%%%%%%%%",
"%%%%%%%%%%%%%%%%%%%%%%%%%%%%%%%%%%%%%%%%%%%%%%%",
"%%%%%%%%%%%%%%%%%%%%%%%%%%%%%%%%%%%%%%%%%%%%%%%",
"%%%%%%%%%% %%%%%%%%%%%%%%%%%%%%%%%%%%%%%%%%%%%%",
"%%%%%%%%%  %%%%%%%%%%%%%%%%%%%%%%%%%%%%%%%%%%%%",
"%%%%%%%% + %%%%      %%%%%%%%%%%%%%%%%%%%%%%%%%",
"%%%%%%% ++ %%  ++++ %%%%%%%%%%%%%%%%%%%%%%%%%%%",
"%%%%%%% ++ % +++++      %%%%%%%%%%%%%%%%%%%%%%%",
"%%%%%% ++++ +++++ ++++++      %%%%%%%%%%%%%%%%%",
"%%%%%% +++ +++++ ++++++++++ %%%%%%%%%%%%%%%%%%%",
"%%%%%% +++ +++++++++++++++ %%%%%%%%%%%%%%%%%%%%",
"%%%%%%% +  +++  ++++   ++ %%%%%%%%%%%%%%%%%%%%%",
"%%%%%% + ++ ++++ ++++++    %%%%%%%%%%%%%%%%%%%%",
"%%%%% + ++ +  +++ +++++++ %%%%%%%%%%%%%%%%%%%%%",
"%%%%% + +++  + +++ +++++ %%%%%%%%%%%%%%%%%%%%%%",
"%%%%% + +++ O O ++   ++  %%%%%%%%%%%%%%%%%%%%%%",
"%%%%% +  ++ OOO ++ ++  ++  %%%%%%%%%%%%%%%%%%%%",
"%%%%%%  O + OOO +    +++ %%%%%%%%%%%%%%%%%%%%%%",
"%%%%%%% OO       O ++++   %%%%%%%%%%%%%%%%%%%%%",
"%%%%%%% OOO # O OO +++   O %%%%%%%%%%%%%%%%%%%%",
"%%%%%%%% O ## OOOO +  OO O %%%%%%%%%%%%%%%%%%%%",
"%%%%%%%% O@# OOOO ++++  OOO %%%%%%%%%%%%%%%%%%%",
"%%%%%%%% O@#OOOO ++         %%%%%%%%%%%%%%%%%%%",
"%%%%%%% OOOOOOOOO  .   o OO %%%%%%%%%%%%%%%%%%%",
"%%%%%%%% OOOOO   ....   OOO %%%%%%%%%%%%%%%%%%%",
"%%%%%%%%%  OO ......       %%%%%%%%%%%%%%%%%%%%",
"%%%   %%%%%  o ...   .  %%%%%%%%%%%%%%%%%%%%%%%",
"%%% OO %%%% ooo .....   %%%%%%%%%%%%%%%%%%%%%%%",
"%    O %%  O oo ....    %%%%%%%%%%%%%%%%%%%%%%%",
"% OOOO   OOOO o ...  oo %%%%%%%%%%%%%%%%%%%%%%%",
"%% OOOooOOOO   ..  oo   %%%%%%%%%%%%%%%%%%%%%%%",
"%% OOOooOO  $$   oo     %%%%%%%%%%%%%%%%%%%%%%%",
"%%%       $    oo   ..   %%%%%%%%%%%%%%%%%%%%%%",
"%%%%%%%%%% ....    ....   %%%%%%%%%%%%%%%%%%%%%",
"%%%%%%%%% ......    ....   %%%%%%%%%%%%%%%%%%%%",
"%%%%%%%%% ....       ....   %%%%%%%%%%%%%%%%%%%",
"%%%%%%%%% .......   . ....   %%%%%%%%%%%%%%%%%%",
"%%%%%%%%% ...        ......   %%%%%%%%%%%%%%%%%",
"%%%%%%%%%% ..         .....   %%%%%%%%%%%%%%%%%",
"%%%%%%%%%%%          $ ...     %%%%%%%%%%%%%%%%",
"%%%%%%%%%%%%%     X   %        %%%%%%%%%%%%%%%%",
"%%%%%%%%%%%%%%%%%% X  %%        %%%%%%%%%%%%%%%",
"%%%%%%%%%%%%%%%%%%%   %%%%  X   %%%%%%%%%%%%%%%",
"%%%%%%%%%%%%%%%%%%%%  %%%%%  X   %%%%%%%%%%%%%%",
"%%%%%%%%%%%%%%%%%%%%%%%%%%%%  X  %%%%%%%%%%%%%%",
"%%%%%%%%%%%%%%%%%%%%%%%%%%%%%%   %%%%%%%%%%%%%%"
};
