/* XPM */
static char *result[] = {
/* columns rows colors chars-per-pixel */
"47 47 90 1 ",
"  c gray20",
". c #CC2900",
"X c #F89800",
"o c #FFBB00",
"O c #FFC500",
"+ c #FFCA00",
"@ c #FFC609",
"# c #FFCF0F",
"$ c #FFD400",
"% c #FFDE00",
"& c #FFD40F",
"* c #FFCA13",
"= c #FFC71C",
"- c #FFCC1B",
"; c #FFD312",
": c #FFD81D",
"> c #FFE000",
", c #FFE113",
"< c #FFE01B",
"1 c #FFCE21",
"2 c #FFD126",
"3 c #FFD32A",
"4 c #FFDB2A",
"5 c #FFCC34",
"6 c #FFD631",
"7 c #FFDC35",
"8 c #FFD43B",
"9 c #FFDD3C",
"0 c #FFE124",
"q c #FFE02C",
"w c #FFE134",
"e c #FFE23C",
"r c #FFCC42",
"t c #FFCE4D",
"y c #FFD544",
"u c #FFD34B",
"i c #FFCF53",
"p c #FFCF58",
"a c #FFD156",
"s c #FFD35A",
"d c #FFE343",
"f c #FFE34D",
"g c #FFE553",
"h c #FFE45B",
"j c #FFD463",
"k c #FFD66E",
"l c #FFD86A",
"z c #FFDC73",
"x c #FFDF7F",
"c c #FFE562",
"v c #FFE865",
"b c #FFEA6D",
"n c #FFEC74",
"m c #FFEC7B",
"M c #0050C8",
"N c #FDD284",
"B c #FED889",
"V c #FEE484",
"C c #FFED84",
"Z c #FEE58C",
"A c #FEEC8C",
"S c #FEEC96",
"D c #FCE69A",
"F c #FEEB9D",
"G c #FFF393",
"H c #FFF49B",
"J c #F6D4B2",
"K c #FCE5A5",
"L c #FDEAA3",
"P c #FCECAB",
"I c #FFF4A5",
"U c #FFF5AB",
"Y c #FFFBAD",
"T c #FCECB2",
"R c #FBEDBB",
"E c #FFF6B5",
"W c #FFF9B5",
"Q c #FCF0B9",
"! c #FFFABC",
"~ c #FAE3C5",
"^ c #FFFCC3",
"/ c #FBF3CC",
"( c #FEFCCC",
") c #FDFBD2",
"_ c #FCFADC",
"` c #FBFBE4",
"' c #FBFBEB",
"] c #F5F5F5",
"[ c #F8F7F2",
"{ c None",
/* pixels */
"{{{{{{{{{{{{{{{{{{{{{{{{{{{{{{{{{{{{{{{{{{{{{{{",
"{{{{{{{{{{S{{{{S{{{_{{{F{{{_{{{S{{{{S{{{{{{{{{{",
"{{{{{{{{{{g{{{)c{{{v{{^>^{{v{{{c){{{g{{{{{{{{{{",
"{{{{{{{{{{>{{{vw{{{h({<d<{(h{{{wv{{{>{{{{{{{{{{",
"{{{{{U{{A{>C{{fyC{{gV e7e^Vg{{Ceg{{C>{A{{E{{{{{",
"{{{{{g{{n_,qAEe6,RUeh  odgheUR,69EA0,_m{{g{{{{{",
"{{{{{>{{QvedehdO7whdd ! 5dd hw7OdheedcQ{{>{{{{{",
"{{{{{U%{{edddddjkdd@d !! dd  dkjddddde{{>U{{{{{",
"{{{{{Ew,{cdd9dds)re+u !! ls ! )sddyddc{<wE{{{{{",
"{{{{{{,dZcddO6da{_yz  !!!  !! {ad4OddcVd,{{{{{{",
"{_{{{{vdeddd=mda'{  J   !  !^ 'adm=dddedv{{{{_{",
"{L^{{{Fd3edd=^5s{ JJJJJJ  !!! 's5^=dee3dF{{{^L{",
"{Lw{{{Ldd*ddfE(s     JJJJJ !!  s(!fdd*ddP{{{wL{",
"{QeV{)_edfOwdz{ J ]]] JJ J !!!! {ze7Odde_/{VdQ{",
"{{dwbTRddd2A+m{ J     JJ    !!!! C+A3ddeRTbwd{{",
"{{qdddI9dd7FEVE J     JJ !!!!!!!! EL6ddeIdddq{{",
"{{^0dded39d+^`! J  .. JJJ !! !!!!! +d94dedd4^{{",
"{{{>dd9ddOl$L_{ J .. JJJ    !!! !!! lOfd9dd>{{{",
"{{{bey3dd4ZZV({ J   JJJJ JJ !!!! !! Z4dd2eeb{{{",
"{{{{wd1-dfi'{Y{{ JJJJJJJJ   !!!!!  ! dd=1de{{{{",
"{{{{hddO3d7S{{!{ JJJJJJ JJ !!!!!! {  d3Oddh{{{{",
"{{{{Aed-Oa:V{{{  JJJJ     !! !!!! {V aO-deA{{{{",
"{{T{{%dd+^z+^{  M    M  XX !! !!!! +z^+dd>{{T{{",
"{{{{{Ged3u!Ii` MMMMMM XXX  !!!     I!t3deG{{{{{",
"{{{>{{0ddO){W  MMMMM XXX MM !! {{_W{)Odd0{{%{{{",
"{{{{>{Ced r'{  MMMM XXXX M      { {'rd9dC{>{{{{",
"{{{{hhAd J ){ X M  XX XX  JJ ]]] J )yd3dZhh{{{{",
"{{{{{%e  J    X  XXXX  X  JJJ ]  J yd-6de%{{{{{",
"{{{{{I J JJ M XXXXX      { JJM  JJ  +*ddwI{{{{{",
"{{{{{{  J   MM          {{{ MMM J  J -dde{{{{{{",
"{T{{{{E J J M MMMMMMMM {{{{{ M J J J dddE{{{{T{",
"{{nRP`{:  J             {{{{{  J J  d2d:{`PRn{{",
"{{UfdmSW4d  ] X    X X  {{{{{{{   u7Odq!SmdfU{{",
"{{{0ddeedd9O XX   XXX X  {{{{{{{{_5O9ddweed0{{{",
"{{{{dd9dddd$ XX   XXXX    {{{{{{`^E$dddd9dd{{{{",
"{{{{I:727ddd XXX  XXXX    {{{{{{_R;ddd729:I{{{{",
"{{{{{Ge9OO3d XXXX  XXXX    {{{{{/2dd3+O9eG{{{{{",
"{{{{{{0d&EO@ XXX    XXXXX   {{{(Od@@OW&d0{{{{{{",
"{{{{{{{ed+!( XX X    XXXXX  {{{Baaa^!Ode{{{{{{{",
"{{{{{{{Cqf8Z XXX    XXXXXX   {{'_!(Z8dqC{{{{{{{",
"{{{{{){{md-4j X      XXXXX   {{{(_j4-dm{{){{{{{",
"{{{{{{{!~w979B     {{ XXX     {{{xd79e~!{{{{{{{",
"{{{{{{L]PN+29  +   {{{         {WA92+NP[L{{{{{{",
"{{{{{{{){/D$* +    {{{{     O   /V#$D/{){{{{{{{",
"{{{{{{{{{{)bH     {{{{{{{{   O   KHz){{{{{{{{{{",
"{{{{{{{{{{{{{    {{{{{{{{{{   O  C{{{{{{{{{{{{{",
"{{{{{{{{{{{{{{{{{{{{{{{{{{{{     {{{{{{{{{{{{{{"
};
