/* XPM */
static char *result[] = {
/* columns rows colors chars-per-pixel */
"47 47 107 2 ",
"   c gray20",
".  c #CC2900",
"X  c #F89800",
"o  c #FFBD00",
"O  c #FFC400",
"+  c #FFCC01",
"@  c #FFCE0E",
"#  c #FFD100",
"$  c #FFD900",
"%  c #FFD20E",
"&  c #FFC615",
"*  c #FFCA16",
"=  c #FFC719",
"-  c #FFD912",
";  c #FFDB1A",
":  c #FFCD25",
">  c #FFC72F",
",  c #FFCD2F",
"<  c #FFDB22",
"1  c #FFD52A",
"2  c #FFDC28",
"3  c #FFC734",
"4  c #FFCA30",
"5  c #FFCB3A",
"6  c #FFDC36",
"7  c #FFDD3C",
"8  c #FFE02C",
"9  c #FFE134",
"0  c #FFE13D",
"q  c #FEC94A",
"w  c #FFD446",
"e  c #FFD945",
"r  c #FFDD4E",
"t  c #FECA56",
"y  c #FECD5F",
"u  c #FFD65E",
"i  c #FFDA5F",
"p  c #FFE342",
"a  c #FFE34A",
"s  c #FFE557",
"d  c #FFE55B",
"f  c #FEC962",
"g  c #FDCC6C",
"h  c #FFDC63",
"j  c #FFD56E",
"k  c #FFDD6C",
"l  c #FDCF76",
"z  c #FED673",
"x  c #FFDF71",
"c  c #FED37C",
"v  c #FFDF79",
"b  c #FFE666",
"n  c #FFE66A",
"m  c #FFE868",
"M  c #FFE670",
"N  c #FFE973",
"B  c #FFE17E",
"V  c #FFEB7D",
"C  c #0050C8",
"Z  c #FED488",
"A  c #FEDE88",
"S  c #F5D297",
"D  c #FCD795",
"F  c #FDDA97",
"G  c #FCD99B",
"H  c #FEE483",
"J  c #FFEC82",
"K  c #FEE58B",
"L  c #FFEF8F",
"P  c #FFED94",
"I  c #FFEB9B",
"U  c #FFF096",
"Y  c #FFF299",
"T  c #FCDAA4",
"R  c #FBDCAC",
"E  c #F6D4B2",
"W  c #FBDEB1",
"Q  c #FEE9A2",
"!  c #FEECAD",
"~  c #FFF3A3",
"^  c #FFF5AD",
"/  c #FEE2B5",
"(  c #FCEAB3",
")  c #FBE1BA",
"_  c #FDEBBB",
"`  c #FFF5B3",
"'  c #FFF9B5",
"]  c #FFFABC",
"[  c #FBE4C2",
"{  c #FAE6CB",
"}  c #FAEFC9",
"|  c #FDF4C2",
" . c #FFFCC2",
".. c #FCF6CC",
"X. c #FDFACD",
"o. c #FBEBD3",
"O. c #FEEED9",
"+. c #FBF2D1",
"@. c #FCF9D2",
"#. c #FBF7DA",
"$. c #FBFADB",
"%. c #F9EFE1",
"&. c #FBFBE4",
"*. c #F8F4ED",
"=. c #F5F5F5",
"-. c #F6FBFF",
";. c None",
/* pixels */
";.;.;.;.;.;.;.;.;.;.;.;.;.;.;.;.;.;.;.;.;.;.;.;.;.;.;.;.;.;.;.;.;.;.;.;.;.;.;.;.;.;.;.;.;.;.;.",
";.;.;.;.;.;.;.;.;.;.Q ;.;.;.;.Q ;.;.;.T ;.;.;.@.;.;.;.T ;.;.;.Q ;.;.;.;.Q ;.;.;.;.;.;.;.;.;.;.",
";.;.;.;.;.;.;.;.;.;.~ ;.;.;.g ` ;.;.;.` ;.;.t  .t ;.;.^ ;.;.;.` l ;.;.;.~ ;.;.;.;.;.;.;.;.;.;.",
";.;.;.;.;.;.;.;.;.;.] ;.;.;. .] ;.;.;. .c ;.] ] ] ;.c  .;.;.;.]  .;.;.;.' ;.;.;.;.;.;.;.;.;.;.",
";.;.;.;.;.j ;.;.| ;.] k ;.;.' ] h ;.;.' X.c   ~ ] c X.' ;.;.h ] ` ;.;.k ] ;.| ;.;.z ;.;.;.;.;.",
";.;.;.;.;.' ;.;.h T ]  .B _ ] U  .#.( ] ^ ^     ] ` ^ ] ( #. .Y ] _ B  .] T h ;.;.' ;.;.;.;.;.",
";.;.;.;.;.' ;.;.+.~ ] ] ] `  .8 ^ ] ^  .]  .  ]    .]  .  ] ^ 8  .^ ] ] ] ~ +.;.;.' ;.;.;.;.;.",
";.;.;.;.;.4 ] ;.;.] ] ] ] ]  .; - ]  .a  . .  ] ]   ] a     - ;  .] ] ] ] ] ;.;.] , ;.;.;.;.;.",
";.;.;.;.;.z ] ] ;.` ] ] ^ ]  .- f < ] s d n   ] ]   n s   ]   -  .] ^ ] ] ` ;.] ] z ;.;.;.;.;.",
";.;.;.;.;.;.] ] X. .]  .8 ^ ] $ %.S d 6 G     _ ] ]     ] ]   $ ] ^ 8  .]  .X.] ] ;.;.;.;.;.;.",
";.R ;.;.;.;.P ] ] ] ]  .9 e  .$ O.;.F     E       ]     ] ]   $  .e 9  .] ] ] ] I ;.;.;.;.R ;.",
";.$.4 ;.;.;.@.] P ' ]  .6 O a < O.;.  E E E E E E     ] ] ]   < a O 9  .] ' P ] @.;.;.;.> $.;.",
";.@. .;.;.;.X.]  .d ] ] ] O t $ o.          E E E E E   ] ]     t O ] ] ] b  .] ..;.;.;. .@.;.",
";._ ] X.;.T ) ] ] X.8 ' ] # ;.c   E   =.=.*.  E E   E   ] ] ] ]   # ] ] 8  .] ] ) T ;.X.] _ ;.",
";.;.] ] P $.&.] ] ] L i J x ;.;.  E           E E         ] ] ] ]   J i L ] ] ] &.$.P ] ] ;.;.",
";.;. .] ] ] z ] ] ] ^ + + 1 5 ;.  E           E E   ] ] ] ] ] ] ] ]   + ^ ] ] ] z ] ] ]  .;.;.",
";.;.3 ] ] ]  .] U ^ ] J > { & ;.  E     . .   E E E   ] ]   ] ] ] ] ]   ] ^ P ]  .] ]  .3 ;.;.",
";.;.;.] ] ' ' ]  .a r ` @ R ;.F   E   . .   E E E         ] ] ]   ] ] ]   a  .] ' ' ] ] ;.;.;.",
";.;.;.H ] ] J  .] Y % + # g ;.;.  E       E E E E   E E   ] ] ] ]   ] ]   Y ]  .J ' ] H ;.;.;.",
";.;.;.;.] ] N b  . .$ { %.o ;.;.;.  E E E E E E E E       ] ] ] ] ]     ]    .n N ] ] ;.;.;.;.",
";.;.;.;.^ ]  .0 J ] ^ + ;.;./ ;.;.  E E E E E E   E E   ] ] ] ] ] ]   +     J 0  .] ^ ;.;.;.;.",
";.;.;.;.` ]  .n 9 $ ^ $ %.;.;.;.    E E E E           ] ]   ] ] ] ]   # ^   9 m  . .` ;.;.;.;.",
";.;.$.;.;. .]  .N O e Y O ;.;.    C         C     X X   ] ]   ] ] ] ]   e + N  .]  .;.;.$.;.;.",
";.;.;.;.;.w ] ] Y 6 O : 7 [ ;.  C C C C C C   X X X     ] ] ]           O 6 U ] ] w ;.;.;.;.;.",
";.;.;.' ;.;.] ]  .d l -.O R     C C C C C   X X X   C C   ] ]   ;.R O -.c s ] ] ] ;.;.` ;.;.;.",
";.;.;.;.` ;.I ] '  .  { ;.[     C C C C   X X X X   C             o.  { $  .` ] I ;.` ;.;.;.;.",
";.;.;.;.'  .X.] J   E   ;.;.  X   C     X X   X X     E E   =.=.=.  E   N  .J ] X. .' ;.;.;.;.",
";.;.;.;.;.] ] ]     E         X     X X X X     X     E E E   =.    E    .m P ] ] ] ;.;.;.;.;.",
";.;.;.;.;.:  .  E   E E   C   X X X X X             ;.  E E C     E E     d ] ]  .: ;.;.;.;.;.",
";.;.;.;.;.;.]     E       C C                     ;.;.;.  C C C   E     E    .] ] ;.;.;.;.;.;.",
";.$.;.;.;.;._ ]   E   E   C   C C C C C C C C   ;.;.;.;.;.  C   E   E   E   ] ] _ ;.;.;.;.$.;.",
";.;.I $.$.R ;. . .    E                           ;.;.;.;.;.    E   E     V ]  .;.R $.&.I ;.;.",
";.;.*  .] Q ! 4  .] p     =.  X         X   X     ;.;.;.;.;.;.;.      ^ p '  .4 ! Q ]  .* ;.;.",
";.;.;.] ] ] ]  .] ] ^ 9 0   X X       X X X   X     ;.;.;.;.;.;.;.T 0 9 ` ] ]  .] ] ] ] ;.;.;.",
";.;.;.;. .] ^ ] ] ] ] P +   X X       X X X X         ;.;.;.;.;.{ q + U ] ] ] ] ^ ]  .;.;.;.;.",
";.;.;.;.K  .Y J ~  . . .U   X X X     X X X X         ;.;.;.;.;.) z U  . . .~ J ~  .H ;.;.;.;.",
";.;.;.;.;.w  .^ 9 m V  . .  X X X X     X X X X         ;.;.;.;.y J  . .V n 9 ^  .w ;.;.;.;.;.",
";.;.;.;.;.;.] ] Y + p e a   X X X         X X X X X       ;.;.c d  .a p p O Y ] ] ;.;.;.;.;.;.",
";.;.;.;.;.;.;.]  .V O O 7   X X   X         X X X X X     ;.;.H 2 ; 7 O O V  .] ;.;.;.;.;.;.;.",
";.;.;.;.;.;.;.B  . .J # O   X X X         X X X X X X       ;.{ / O O + J  . .B ;.;.;.;.;.;.;.",
";.;.;.;.;.Z ;.;.B  .N ^ $ T   X             X X X X X       ;.;.c T $ ' N  .H ;.;.Z ;.;.;.;.;.",
";.;.;.;.;.;.;.= ..` ^ ~ ' # *.          ;.;.  X X X           ;.*.# ] Y ^ ` } = ;.;.;.;.;.;.;.",
";.;.;.;.;.;.@.*.$.K n V ' K     O       ;.;.;.                  o K ` V n K $.*.@.;.;.;.;.;.;.",
";.;.;.;.;.;.;.D ;.&.@.L J #   O         ;.;.;.;.          +       + V L @.&.;.D ;.;.;.;.;.;.;.",
";.;.;.;.;.;.;.;.;.;.G ] u |           ;.;.;.;.;.;.;.;.      O       h ] G ;.;.;.;.;.;.;.;.;.;.",
";.;.;.;.;.;.;.;.;.;.;.;.;.v         ;.;.;.;.;.;.;.;.;.;.      O     ;.;.;.;.;.;.;.;.;.;.;.;.;.",
";.;.;.;.;.;.;.;.;.;.;.;.;.;.;.;.;.;.;.;.;.;.;.;.;.;.;.;.;.          ;.;.;.;.;.;.;.;.;.;.;.;.;."
};
