/* XPM */
static char *result[] = {
/* columns rows colors chars-per-pixel */
"47 47 105 2 ",
"   c gray20",
".  c #CC2900",
"X  c #F89800",
"o  c #FFBE00",
"O  c #FFC400",
"+  c #FFCB00",
"@  c #FFC60B",
"#  c #FFD400",
"$  c #FFDD00",
"%  c #FFC615",
"&  c #FFC915",
"*  c #FFC71B",
"=  c #FFDF17",
"-  c #FFE000",
";  c #FFC925",
":  c #FFC628",
">  c #FFCD2C",
",  c #FFCA34",
"<  c #FFC73C",
"1  c #FFCB3C",
"2  c #FFD537",
"3  c #FFD934",
"4  c #FFD23D",
"5  c #FFE22E",
"6  c #FFE133",
"7  c #FFE13C",
"8  c #FFCB45",
"9  c #FECA4B",
"0  c #FFDC4B",
"q  c #FFCE52",
"w  c #FFD054",
"e  c #FFDD52",
"r  c #FFD35C",
"t  c #FEDB5B",
"y  c #FFE246",
"u  c #FFE24B",
"i  c #FFE453",
"p  c #FFE35A",
"a  c #FED564",
"s  c #FEDF62",
"d  c #FFD76A",
"f  c #FED277",
"g  c #FFD973",
"h  c #FDD17A",
"j  c #FFDF7E",
"k  c #FEE466",
"l  c #FFE96B",
"z  c #FFE576",
"x  c #FDE47A",
"c  c #FFEB7C",
"v  c #0050C8",
"b  c #FDD385",
"n  c #FFDF82",
"m  c #FDDC89",
"M  c #FDD792",
"N  c #FDDB94",
"B  c #FCD79E",
"V  c #FCDA9C",
"C  c #FFE184",
"Z  c #FFED84",
"A  c #FFE38C",
"S  c #FDE98A",
"D  c #FFF18E",
"F  c #FFE593",
"G  c #FFEB94",
"H  c #FCE09B",
"J  c #FFEB9B",
"K  c #FFF194",
"L  c #FFF29A",
"P  c #FCDBA3",
"I  c #FCDDAC",
"U  c #F6D4B2",
"Y  c #FBDDB1",
"T  c #FEEBA3",
"R  c #FBE1AF",
"E  c #FDEDAB",
"W  c #FFF4A4",
"Q  c #FFF2AA",
"!  c #FFF8AE",
"~  c #FBE3B5",
"^  c #FBECB1",
"/  c #FBE1BA",
"(  c #FBEDBB",
")  c #FFF5B3",
"_  c #FFF9B3",
"`  c #FFF7B8",
"'  c #FFFABC",
"]  c #FAE4C2",
"[  c #FBEDC3",
"{  c #FAEBCD",
"}  c #FEF5C1",
"|  c #FFFDC2",
" . c #FAF1CB",
".. c #F9EAD3",
"X. c #F9EDDD",
"o. c #FAF0D2",
"O. c #FEFDD2",
"+. c #FAF3DA",
"@. c #F9EEE2",
"#. c #F9F4E1",
"$. c #F8F4EC",
"%. c #F9FBED",
"&. c #F5F5F5",
"*. c #F6FAFF",
"=. c None",
/* pixels */
"=.=.=.=.=.=.=.=.=.=.+.=.=.=.=.+.=.=.=.=.=.=.=.=.=.=.=.=.=.=.=.+.=.=.=.=.+.=.=.=.=.=.=.=.=.=.=.",
"=.=.=.=.=.=.=.=.=.=.r =.=.=.=.a =.=.=.E =.=.=.M =.=.=.E =.=.=.a =.=.=.=.r =.=.=.=.=.=.=.=.=.=.",
"=.=.=.=.=.=.=.=.=.=.+ +.=.=.S & +.=.=.> =.=.k O k =.=.> =.=.+.& S =.=.+.+ =.=.=.=.=.=.=.=.=.=.",
"=.=.=.=.=.=.=.=.=.=.o { =.=.q O ..=.=.9 S =.O O O =.S 9 =.=...O q =.=...O =.=.=.=.=.=.=.=.=.=.",
"=.=.=.=.=.e =.=.f =.O + +.[ + O # =.( O h   * d * x h O ( =.# O O [ +.# O =.f =.=.e =.=.=.=.=.",
"=.=.=.=.=.& =.=.# ^ O O # N O n o ~ m O +     O.@ + + O m ~ o n O N # O O ^ # =.=.& =.=.=.=.=.",
"=.=.=.=.=.o ..=.~ + O + O + O | w O + O O   '   Q O O   + O w | O + O O O + R =...o =.=.=.=.=.",
"=.=.=.=.=.$ O =.] O O O O O O ! ! O O ` O   ' '   o O     O ! _ O O + O O O ] =.O $ =.=.=.=.=.",
"=.=.=.=.=.s O O  .> O O w O O _ p _ O ` J   ' '   } T   '   i ) O O w O O >  .O O s =.=.=.=.=.",
"=.=.=.=.=.=.O O b 9 O O | r O ! #.T S K     ' ' '     ' '   +.! O w | O O 9 b O O =.=.=.=.=.=.",
"=.( =.=.=.#.+ O O O O O ' G O ! +.=.    U       '     ' '   ..! O G ' O O O O + + #.=.=.=.` =.",
"=.B p =.=.=.N + m 1 O O ' = ) W +.  U U U U U U     ' ' '   o.W ) = ' O + 1 m O N =.=.=.p B =.",
"=.B O =.=.=.B O O ) ; O O i p W           U U U U U   ' '     W p i + O ; ) O O V =.=.=.O P =.",
"=.H O f  .E ( O O o | 1 + L =.  U   &.&.&.  U U   U   ' ' ' '   =.L O 1 | o O O ( T ..h O H =.",
"=.=.+ O + Y / + O O A z T 3 =.  U           U U         ' ' ' '   3 T x A O + O / Y # O O =.=.",
"=.=.O O O * 0 O O O a c p Z k   U           U U   ' ' ' ' ' ' ' '   p c r O O O 0 * O O O =.=.",
"=.=.p O O + O O C q * T u { y   U     . .   U U U   ' '   ' ' ' ' '   T * q C O O O + O p =.=.",
"=.=.=.O O , 1 O O ' L a c ^ =.  U   . .   U U U         ' ' '   ' ' '   J ` o O 1 , O O =.=.=.",
"=.=.=.+ + 1 J o O g K Z c z =.  U       U U U U   U U   ' ' ' '   ' '   K g O o G 1 O + =.=.=.",
"=.=.=.~ O O T Q o O _ [ #.$ =.=.  U U U U U U U U       ' ' ' ' '     '   O O ) T O O ~ =.=.=.",
"=.=.=. .+ O O ' F @ r l =.=.i =.  U U U U U U   U U   ' ' ' ' ' '   =.    & F ' O O +  .=.=.=.",
"=.=.=.=.a + o Q | ' d c #.=.=.    U U U U           ' '   ` ' ' '   #.c   _ | Q O O a =.=.=.=.",
"=.=.I =. .O O O E 7 J F - =.    v         v     X X   ' '   ' ' ' '   F L 6 E O @ O  .=.I =.=.",
"=.=.X./ *.# O O C _ 6 $ _ [   v v v v v v   X X X     ' ' '           $ 6 _ n + O # *./ X.=.=.",
"=.=.=.o $.@.O O O ) x *.5     v v v v v   X X X   v v   ' '   =.=.^ 5 *.x ' O O O @.$.O =.=.=.",
"=.=.=.{ o +.8 O 8   `  .=.    v v v v   X X X X   v             =.  =.{ _ o 8 O 4 @.o { =.=.=.",
"=.=.=.#.% 8 b &   U   E =.  X   v     X X   X X     U U   &.&.&.  U   E G O J % b 8 & #.=.=.=.",
"=.=.=.=.@.O +     U         X     X X X X     X     U U U   *.    U   G o Q n O O o X.=.=.=.=.",
"=.=.=.=.=.$   U   U U   v   X X X X X             =.  U U v     U U     ' ) O O O $ =.=.=.=.=.",
"=.=.=.=.=.=.    U       v v                     =.=.=.  v v v   U     U   Q O O O =.=.=.=.=.=.",
"=.R o.=.=.=.V   U   U   v   v v v v v v v v   =.=.=.=.=.  v   U   U   U   o @ O H =.=.=.o.I =.",
"=.@.+ / P ( %.O     U                           =.=.=.=.=.    U   U     o J O O %.( P / + #.=.",
"=.=.$ 1 & > d 7 O ,     &.  X         X   X     =.=.=.=.=.=.=.      ) a ' , O 7 d > & < $ =.=.",
"=.=.=.O O O O O O + q |   X X       X X X   X     =.=.=.=.=.=.=.=.E ` | w O O O O + O O =.=.=.",
"=.=.=.X.: O r O O O O m   X X       X X X X         =.=.=.=.=.=.o.p l A O O O O r O : X.=.=.=.",
"=.=.=.=.t O g G d O O O   X X X     X X X X         =.=.=.=.=.=.( T A O O O d J g O t =.=.=.=.",
"=.=.=.=.=.# O r ' ) J O   X X X X     X X X X         =.=.=.=.=.x F O o J ) ' r O # =.=.=.=.=.",
"=.=.=.=.=.@.O O n i | '   X X X         X X X X X       =.=.=.C ` o ' ' ' i m O O @.=.=.=.=.=.",
"=.=.=.=.=.=./ O o E i $   X X   X         X X X X X     =.=.=.| ! ` ! $ i E O O / =.=.=.=.=.=.",
"=.=.=.=.=.=.=.# O o G L   X X X         X X X X X X       =.=.[ E $ $ L F o O # =.=.=.=.=.=.=.",
"=.=.=.=.=.G =.#.+ O T q !   X             X X X X X       =.=.=.S T _ w T O + #.=.G =.=.=.=.=.",
"=.=.=.=.=.X...u %.1 a g , K           =.=.  X X X           =.=.$.K , g a , %.y ..X.=.=.=.=.=.",
"=.=.=.=.=.=.V $.B O.T J 8     O       =.=.=.                  =.$ 2 9 J T O.B $.V =.=.=.=.=.=.",
"=.=.=.=.=.=.=.J X./ P x J   +         =.=.=.=.          +       E D J x P / @.J =.=.=.=.=.=.=.",
"=.=.=.=.=.=.=.=.=...E N #           =.=.=.=.=.=.=.=.      O       ~ # N T ..=.=.=.=.=.=.=.=.=.",
"=.=.=.=.=.=.=.=.=.=.=.=.=.        =.=.=.=.=.=.=.=.=.=.      O     # =.=.=.=.=.=.=.=.=.=.=.=.=.",
"=.=.=.=.=.=.=.=.=.=.=.=.=.=.=.=.=.=.=.=.=.=.=.=.=.=.=.=.          =.=.=.=.=.=.=.=.=.=.=.=.=.=."
};
