/* XPM */
static char *_be2ffd7454c464c9e8ccd5d81ab7ba8kz4Vkpqo76ixHBT7[] = {
/* columns rows colors chars-per-pixel */
"47 47 134 2 ",
"   c None",
".  c gray20",
"X  c #CC2900",
"o  c #F89800",
"O  c #FFBE00",
"+  c #FFC400",
"@  c #FFCB00",
"#  c #FFC60B",
"$  c #FFD400",
"%  c #FFDD00",
"&  c #FFC615",
"*  c #FFC915",
"=  c #FFC71B",
"-  c #FFDF17",
";  c #FFE000",
":  c #FFC925",
">  c #FFC628",
",  c #FFCD2C",
"<  c #FFCA34",
"1  c #FFC73C",
"2  c #FFCB3C",
"3  c #FFD537",
"4  c #FFD934",
"5  c #FFD23D",
"6  c #FFE22E",
"7  c #FFE133",
"8  c #FFE13C",
"9  c #FFCB45",
"0  c #FECA4B",
"q  c #FFDC4B",
"w  c #FFCE52",
"e  c #FFD054",
"r  c #FFDD52",
"t  c #FFD35C",
"y  c #FEDB5B",
"u  c #FFE246",
"i  c #FFE24B",
"p  c #FFE453",
"a  c #FFE35A",
"s  c #FED564",
"d  c #FEDF62",
"f  c #FFD76A",
"g  c #FED277",
"h  c #FFD973",
"j  c #FDD17A",
"k  c #FFDF7E",
"l  c #FEE466",
"z  c #FFE96B",
"x  c #FFE576",
"c  c #FDE47A",
"v  c #FFEB7C",
"b  c #0050C8",
"n  c #FDD385",
"m  c #FFDF82",
"M  c #FDDC89",
"N  c #FDD792",
"B  c #FDDB94",
"V  c #FCD79E",
"C  c #FCDA9C",
"Z  c #FFE184",
"A  c #FFED84",
"S  c #FFE38C",
"D  c #FDE98A",
"F  c #FFF18E",
"G  c #FFE593",
"H  c #FFEB94",
"J  c #FCE09B",
"K  c #FFEB9B",
"L  c #FFF194",
"P  c #FFF29A",
"I  c #FCDBA3",
"U  c #FCDDAC",
"Y  c #F6D4B2",
"T  c #FBDDB1",
"R  c #FEEBA3",
"E  c #FBE1AF",
"W  c #FDEDAB",
"Q  c #FFF4A4",
"!  c #FFF2AA",
"~  c #FFF8AE",
"^  c #FBE3B5",
"/  c #FBECB1",
"(  c #FBE1BA",
")  c #FBEDBB",
"_  c #FFF5B3",
"`  c #FFF9B3",
"'  c #FFF7B8",
"]  c #FFFABC",
"[  c #FAE4C2",
"{  c #FBEDC3",
"}  c #FAEBCD",
"|  c #FEF5C1",
" . c #FFFDC2",
".. c #FAF1CD",
"X. c #FAF2CA",
"o. c #FAE9D1",
"O. c #F9ECD4",
"+. c #F9E9D4",
"@. c #F9ECD9",
"#. c #F9EDDD",
"$. c #F9EEDF",
"%. c #F9EEDE",
"&. c #FAF0D0",
"*. c #FAF1D1",
"=. c #F9F0D3",
"-. c #F9F0D4",
";. c #FFFFD1",
":. c #FDFCD2",
">. c #F9F2D8",
",. c #F9F2D9",
"<. c #F9F1DA",
"1. c #F9F3DA",
"2. c #FDF4D8",
"3. c #FDF5D9",
"4. c #F9F3DC",
"5. c #F9EEE0",
"6. c #F9EFE1",
"7. c #F8EFE4",
"8. c #F9F2E0",
"9. c #FAF3E1",
"0. c #F9F2E2",
"q. c #F8F3E2",
"w. c #F9F3E2",
"e. c #F9F4E0",
"r. c #F9F5E1",
"t. c #F9F4E3",
"y. c #F8F2EA",
"u. c #F8F5ED",
"i. c #F8F9EF",
"p. c #FAFCEA",
"a. c gray95",
"s. c gray97",
"d. c #F6F9FF",
"f. c #F6FAFF",
/* pixels */
"                    1.        1.                              1.        1.                    ",
"                    t         s       W       N       W       s         t                     ",
"                    + 1.    D * 4.    ,     l + l     ,     4.* D     1.@                     ",
"                    + }     w + o.    0 D   + + +   D 0     o.+ w     o.+                     ",
"          r     g   + @ 4.{ + + $   ) @ j c & f = . j @ )   $ + @ { 4.$ +   g     r           ",
"          *     $ / + + $ B + m O ^ M + @ + # ;.. . @ + M ^ O m + B $ + + / $     *           ",
"          O O.  E @ @ + + @ +  .t + @ . + + W . ] . + + @ + e  .+ @ + + + @ E   O.O           ",
"          % +   [ + + + @ + + ~ Q + . . + + . ] ] . + ' + + ! ` + + @ + + + [   + %           ",
"          d + + ..: + + e + + ` a . ' . R | . ] ] . K ' + ~ a ` + + w + + : ..+ + d           ",
"            + + n 0 + +  .t + ~ 1.. ] ] . . ] ] ] . . H D W 0.~ + t  .+ + 0 n + +             ",
"  )       0.@ @ + + @ + ] L + ~ =.. ] ] . . ] . . . Y . .   2.~ + H ] + + + + + @ 0.      '   ",
"  V a       B + Z 2 + O ] - ` Q =.. ] ] ] . . Y Y Y Y Y Y . 3.Q ' - ] + @ 9 Z + B       a V   ",
"  V +       C + + _ : + + p a Q . . ] ] . Y Y Y Y Y . . . . . Q a p @ + : ' + + C       + I   ",
"  J + g ..W ) + # O  .2 + P   . ] ] ] ] . Y . Y Y . a.a.a.. Y .   P + 2 ] O + + ) R O.j + J   ",
"    @ + @ T ( @ + + S x R 4 . ] ] ] ] . . . . Y Y . . . . . Y .   4 R x S + + @ ( T @ + +     ",
"    + + + = q + + + t v a . ] ] ] ] ] ] ] ' . Y Y . . . . . Y . l A a v t + + + q = + @ +     ",
"    a + @ + + + Z e = R . ] ] ] ] ] . ] ] . Y Y Y . X X . . Y . u ..u R = w Z + + + @ + a     ",
"      + + < 2 + + ' K . ] ] ] . ' ] ] . . . . Y Y Y . X X . Y .   / v s P ' O + 9 < + +       ",
"      @ + 2 G + + h L . ] ] . ] ] ] ] . Y Y . Y Y Y Y . . . Y .   x v A H k + + H 2 + @       ",
"      ^ + + W ! O + . ] . . ] ] ] ] ] . . . Y Y Y Y Y Y Y Y .     % t.{ ` + O ! R + + ^       ",
"      ..@ + + ] G # . .   . ] ] ] ] ] ] . Y Y . Y Y Y Y Y Y .   p     z t * G ] + + @ X.      ",
"        s + + !  .] . v 0.. ] ] ] ] . ] ] . . . . . Y Y Y Y . .     0.v f `  .! + + s         ",
"    U   X.+ + + ! 8 P G . ] ] ] ] . ] ] . o o . . b . . . . b . .   % G P 8 W + # + X.  U     ",
"    @.( f.$ + + Z ` 4 % . . . . . ] ] ] . . o o o . b b b b b b . { _ % 7 ` m @ + $ f.( @.    ",
"      + y.5.+ + + ' c f.6 /     . ] ] . b b . o o o . b b b b b . . 7 f.x ' + + + 5.y.O       ",
"      } O 0.5 + 9 O ` }   .   . . . . . . b . o o o o . b b b b . .   ..` . 9 + 5 0.O }       ",
"      r.& 9 n * K + H W . Y . s.s.s.. Y Y . . o o . o o . . b . o .   W . Y . & n 9 = r.      ",
"        5.+ + + Z W O H . Y . . s.. Y Y Y . . o . . o o o o . . o . . . . Y . . + + 4.        ",
"          % + + + _ ' . . Y Y . . b Y Y .   . . . . . . o o o o o . b . Y Y . Y . %           ",
"            + + + ! . Y . . Y . b b b .       . . . . . . . . . . b b . . . Y . .             ",
"  E -.      J + # O . Y . Y . Y . b .           . b b b b b b b b . b . Y . Y . J       =.U   ",
"  5.@ T U ' i.+ + K O . . Y . Y . .           . . . . . . . . . . . . . Y . . + i.) I ( @ 5.  ",
"    % 2 & , f 8 + < ' s ` . . .               . . o . o . . . . o . s.. . < + 8 f , & 1 %     ",
"      + + + + + + @ w  .' W                 . . o . o o o . . . o o .  .w + + + @ + + +       ",
"      #.> + t + + + + S z a ..            . . . . o o o o . . . o o . S + + + + t + > #.      ",
"        y + h H f + + + S ! )             . . . . o o o o . . o o o . + + + f K h + y         ",
"          $ + t ] _ K + O G x           . . . . o o o o . . o o o o . + K _  .t + $           ",
"          0.+ + m p  .] ] O ` Z       . . . o o o o o . . . . o o o . ] ] p m + + 0.          ",
"            ( + O W i % _ ` !  .      . . o o o o o . . . . o . o o . % p W + + (             ",
"              $ + + H P % % / {     . . . o o o o o o . . . . o o o . K G O + $               ",
"          H   t.@ + R e ~ R D       . . . o o o o o . . . . . . o . ` w R + @ 0.  H           ",
"          #.+.u p.1 s h < L u.    . . . . . o o o .     . . . . . L < h t 2 p.u +.#.          ",
"            C u.V :.K K 9 3 %   . . . . . . . . .       . . . + . . 9 K R ;.V u.C             ",
"              K #.[ I k K F W . . . + . . . . .         . . . . + . K Z C [ 5.K               ",
"                  +.R B $ ^ . . . @ . . .                 . . . . . % B R o.                  ",
"                          $ . . + . . .                     . . . .                           ",
"                            . . . . .                                                         "
};
