/* XPM */
static char *_f938695fe7446a287a8690e4fa5af10xdTHkB4o8JTOAZ9F[] = {
/* columns rows colors chars-per-pixel */
"47 47 10 1 ",
"  c None",
". c gray20",
"X c #F89800",
"o c #FFC600",
"O c #0050C8",
"+ c #F6D4B2",
"@ c #FFFABC",
"# c #99FFCE",
"$ c gray95",
"% c gray97",
/* pixels */
"                                               ",
"                   .. .                        ",
"           .. ..    . @..       .              ",
"            . @@. .   @@@       .              ",
"            . @@@ @.. .@@  .   .@.             ",
"            . @@@ @@@ ..@  @. .@@.             ",
"              @.@ @@@ @@.  @.  @@.             ",
"              @....@@ @@@  @.  @@.             ",
"             .@.@ @.. @@@  .@  @@.             ",
"          ......@ @@@ @@. @@@  @.              ",
"           .@ @@. @@@ @@@ @@@ @@.              ",
"            . @@@ @@@ @@@ ... @..              ",
"            . @.@ ... @.@ @@@ @@@              ",
"              @@. @@@ @@. @@@ .@@ .            ",
"              @@@ @@@ ..+ @@@ @.@ @.           ",
"              .@@ @@. +++ .@@ @@. @.           ",
"           .....@ @@. +++ +.@ @@. @.           ",
"             .@@@ .@. ..+ ++. @@. @.           ",
"              .@. +.. .$. +++ @@. ..           ",
"               .. ++. .$$ ..+ .@.  .           ",
"                  +++ .$$ ##+ ...              ",
"              ... .++ +++ +++ .%.              ",
"           .. OOO ..+ +.. ..+ ..               ",
"            . ..O .X. +++ ++. O.               ",
"           .+ +....X. ... ... O.               ",
"            . +++.XX. OOO O.. ... ...          ",
"           .+ ++. XXX ..O O.. +++ .++.         ",
"          ... ... .XX .OO .X. .++ .++.         ",
"         .OO. ++. +.X X.O XX. ... +++.         ",
"        .OO.+ ++. +.. ....... .O. +++.         ",
"         .O.+ +++ ..O OOO O.   .. ...          ",
"          ....+++ ... ... ...                  ",
"         ........ .XX ... .XX ..               ",
"            . ... XX. ... XXX XX.              ",
"              ... .XX ... XXX XXX              ",
"            . ... XXX X.. .XX XXX .            ",
"           .. ..X XXX X.. ..X XXX .            ",
"            . ... XXX X.. XXX XX. .            ",
"                . ..X X.% .XX X.X              ",
"              ... XXXX. . ... ...              ",
"          ... ... XXXX.   ... oo.              ",
"            . ... ....    ... o.               ",
"              ... o...   ..ooo.                ",
"              .oo ....  ....ooo.               ",
"            . o.       ...........             ",
"             .....                             ",
"           ........                            "
};
