/* XPM */
static char *_5acfe12723848cec5120803f241cca5Hu9elsXfEy0nz48i[] = {
/* columns rows colors chars-per-pixel */
"47 47 129 2 ",
"   c None",
".  c gray20",
"X  c #CC2900",
"o  c #F89800",
"O  c #FFBD00",
"+  c #FFC400",
"@  c #FFCC01",
"#  c #FFCE0E",
"$  c #FFD100",
"%  c #FFD900",
"&  c #FFD20E",
"*  c #FFC615",
"=  c #FFCA16",
"-  c #FFC719",
";  c #FFD912",
":  c #FFDB1A",
">  c #FFCD25",
",  c #FFC72F",
"<  c #FFCD2F",
"1  c #FFDB22",
"2  c #FFD52A",
"3  c #FFDC28",
"4  c #FFC734",
"5  c #FFCA30",
"6  c #FFCB3A",
"7  c #FFDC36",
"8  c #FFDD3C",
"9  c #FFE02C",
"0  c #FFE134",
"q  c #FFE13D",
"w  c #FEC94A",
"e  c #FFD446",
"r  c #FFD945",
"t  c #FFDD4E",
"y  c #FECA55",
"u  c #FECD5F",
"i  c #FFD65E",
"p  c #FFDA5F",
"a  c #FFE342",
"s  c #FFE34A",
"d  c #FFE557",
"f  c #FFE55B",
"g  c #FEC962",
"h  c #FDCD6C",
"j  c #FFDC63",
"k  c #FFD56E",
"l  c #FFDD6C",
"z  c #FDCF75",
"x  c #FED474",
"c  c #FFDF71",
"v  c #FED37C",
"b  c #FFDF79",
"n  c #FFE666",
"m  c #FFE66A",
"M  c #FFE868",
"N  c #FFE670",
"B  c #FFE973",
"V  c #FFE17E",
"C  c #FFEB7D",
"Z  c #0050C8",
"A  c #FDD489",
"S  c #FEDE88",
"D  c #F5D297",
"F  c #FDD996",
"G  c #FCD99B",
"H  c #FEE483",
"J  c #FFEC82",
"K  c #FEE58B",
"L  c #FFEF8F",
"P  c #FFED94",
"I  c #FFEB9B",
"U  c #FFF096",
"Y  c #FFF299",
"T  c #FCDAA4",
"R  c #FBDCAC",
"E  c #F6D4B2",
"W  c #FBDEB1",
"Q  c #FEE9A2",
"!  c #FEECAD",
"~  c #FFF3A3",
"^  c #FFF5AD",
"/  c #FEE2B5",
"(  c #FDEAB3",
")  c #FBE1B9",
"_  c #FCEBBA",
"`  c #FFF5B3",
"'  c #FFF9B5",
"]  c #FEF7BD",
"[  c #FFFABC",
"{  c #FBE4C2",
"}  c #FAE6CB",
"|  c #FAEFC9",
" . c #FDF4C2",
".. c #FFFCC1",
"X. c #FEFBC4",
"o. c #FEFCC5",
"O. c #FFFDC5",
"+. c #FFFFC5",
"@. c #FFFDC6",
"#. c #FFFBC1",
"$. c #FCF5CC",
"%. c #FDFACB",
"&. c #FDFACF",
"*. c #FDFBCF",
"=. c #FBE9D0",
"-. c #FBECD6",
";. c #FEEED9",
":. c #FBF3D1",
">. c #FCF8D0",
",. c #FDF9D0",
"<. c #FCF9D5",
"1. c #FCFBD7",
"2. c #FCF9D2",
"3. c #FBF7D9",
"4. c #FBFADB",
"5. c #FCF9D8",
"6. c #FCFBDA",
"7. c #FBFADF",
"8. c #FBFBDF",
"9. c #FCFBDC",
"0. c #F9EEE0",
"q. c #FAEFE1",
"w. c #F8EFE2",
"e. c #FBFCE3",
"r. c #FAFAE5",
"t. c #F8F3ED",
"y. c gray95",
"u. c gray97",
"i. c #F6FBFF",
/* pixels */
"                                                                                              ",
"                    Q         Q       T       ,.      T       Q         Q                     ",
"                    ~       h ^       `     y ..y     `       ` h       ~                     ",
"                    [       @.[       X.x   [ [ [   x o.      [ o.      [                     ",
"          k      .  [ l     ` ..j     ' %.v [ ~ . v %.'     j [ '     l [    .    k           ",
"          '     j T [ ..V _ [ U ..3.( [ ^ ^ [ . . ^ ` [ ( 3...Y [ _ V ..[ T j     '           ",
"          '     :.~ [ [ [ ` ..9 ^ [ . ..[ X.. [ . X.[ [ ^ [ ^ 9 ..^ [ [ [ ~ :.    '           ",
"          5 [     [ [ [ [ [ [ : ; . . s X.. [ [ . X...s X.[ ; : ..[ [ [ [ [     [ 5           ",
"          x [ [   ` [ [ ^ [ ..; . [ . d m . [ [ . n f d [ : g ; [ [ ^ [ [ `   [ [ x           ",
"            [ [ *...[ ..9 ^ ..% . [ [ . . [ [ [ . . G 7 p D q.% X.^ 9 ..[ X.%.[ [             ",
"  R         P [ [ [ [ ..0 r ..% . [ [ . . ] . . . E . . F   3.% X.r 0 ..[ [ [ [ I         R   ",
"  1.5       ,.[ P ' [ ..7 + s 1 . [ [ [ . . E E E E E E .   ;.1 s + 0 ..[ ' P [ ,.      , 1.  ",
"  1...      $.[ ..f [ [ [ + y . . [ [ . E E E E E . . . . . -.% y + X.[ [ f ..[ $.      ..1.  ",
"  _ [ %.  T ) [ [ @.9 ' [ $ . [ [ [ ] . E . E E . y.y.y.. E . v   @ [ ' 9 @.[ [ ) T   %.[ _   ",
"    [ [ P 8.e.[ [ [ P p J . [ [ [ [ . . . . E E . . . . . E .     N J p P [ [ [ e.e.P [ [     ",
"    ..[ [ [ x [ [ [ ^ @ . [ [ [ [ [ [ [ [ . E E . . . . . E .   6 2 @ @ ^ [ [ [ k [ [ [ ..    ",
"    5 ..[ [ [ [ P ^ [ . [ [ [ [ [ . [ [ . E E E . X X . . E .   * } , J [ ^ P [ ..[ [ ..4     ",
"      [ [ [ ' [ ..s . [ [ ] . [ [ [ . . . . E E E . X X . E . F   R # ' t a ..[ ' ' [ [       ",
"      H [ ' J X.[ Y . [ [ . [ [ [ ] . E E . E E E E . . . E .     h @ @ & ~ [ ..J ' [ H       ",
"        [ [ B n @.. [ . . [ [ [ [ [ . . . E E E E E E E E .       O w.} % ....M B [ [         ",
"        ^ [ o.q J . . @ . [ [ [ [ [ [ . E E . E E E E E E .     /     @ ^ [ J q @.[ ^         ",
"        ` [ X.M 0 . ^ $ . [ [ [ [ . [ [ . . . . . E E E E . .       q.% ^ % 0 M ..[ `         ",
"    5.    ..[ ..B + r . [ [ [ [ . [ [ . o o . . Z . . . . Z . .     + Y r + B ..[ ..    5.    ",
"          e [ [ U 7 + . . . . . [ [ ' . . o o o . Z Z Z Z Z Z .   { r > + 0 U [ [ e           ",
"      '     [ [ X.d x i.+ R   . [ [ . Z Z . o o o . Z Z Z Z Z . . R + i.x d [ [ [     '       ",
"        '   I [ ' @.% } . =.. . . . . . Z . o o o o . Z Z Z Z . . {   =.. %.` [ I   '         ",
"        ' X.%.[ J [ N . E . u.u.u.. E E . . o o . o o . . Z . o .     . E . J [ %.X.'         ",
"          [ [ [ P M @.. E . . u.. E E E . . o . . o o o o . . o . . . . E . . [ [ [           ",
"          > ..[ [ d . . E E . . Z E E .   . . . . . . o o o o o . Z . E E . E . ..>           ",
"            [ [ X.. E . . E . Z Z Z .       . . . . . . . . . . Z Z . . . E . . [             ",
"  4.        _ [ [ . E . E . E . Z .           . Z Z Z Z Z Z Z Z . Z . E . E . [ _         4.  ",
"    I e.5.R   ..[ C . . E . E . .           . . . . . . . . . . . . . E . . [ ..  R 5.e.I     ",
"    = @.[ Q ! 5 ..[ q ^ . . .               . . o . o . . . . o . u.. . q [ ..5 ! Q [ @.=     ",
"      [ [ [ [ ..[ [ ` 0 q T               . . o . o o o . . . o o . q 0 ` [ [ [ [ [ [ [       ",
"        ..[ ^ [ [ [ [ U @ w }           . . . . o o o o . . . o o . @ U [ [ [ ..^ [ ..        ",
"        S @.Y J ~ ..X.[ P b )           . . . . o o o o . . o o o . P ..X...~ J ~ ..H         ",
"          e ..^ 0 M C X...C u         . . . . o o o o . . o o o o . X.X.C n 0 ^ ..e           ",
"            [ [ Y + s a s @.d v     . . . o o o o o . . . . o o o . s a a + Y [ [             ",
"              [ ..C + + 8 : 3 H     . . o o o o o . . . . o . o o . 8 + @ C [ [               ",
"              V ....J @ + + W {   . . . o o o o o o . . . . o o o . + $ J X...V               ",
"          A     V ..B ' % T A     . . . o o o o o . . . . . . o . T % ' B ..V     A           ",
"              - $.' ^ Y ' $ t.  . . . . . o o o .     . . . . . t.$ [ Y ^ ' | -               ",
"            1.t.4.H B C ' K O . . . . . . . . .       . . . + . . K ' C m K 9.t.1.            ",
"              F   r.>.L C @ . . . + . . . . .         . . . . + . @ C L >.r.  F               ",
"                    G [ i . . . @ . . .                 . . . . .  .j ] G                     ",
"                          . . + . . .                     . . . . b                           ",
"                          . . . . .                                                           "
};
