/* XPM */
static char *c3457535b6e04de5a81747a1f5ddaa1eeYPl7HsqsEqY4TKN[] = {
/* columns rows colors chars-per-pixel */
"47 47 9 1 ",
"  c None",
". c gray20",
"X c #F89800",
"o c #FFC600",
"O c #0050C8",
"+ c #F6D4B2",
"@ c #FFFABC",
"# c #99FFCE",
"$ c gray95",
/* pixels */
"                                               ",
"              .    ....                        ",
"              ..    .@@..      .               ",
"              .@...  .@@@.     .               ",
"              .@@@@...@@@@.   .@.              ",
"              .@@@@@@@.@@@@. .@@.              ",
"              .@.@@@@@@.@@@..@@@.              ",
"              .@..@@@@@@.@@@.@@@.              ",
"            . .@.@..@@@@@@@@.@@@.              ",
"            ...@.@@@.@@@.@@@@@@.               ",
"            .@@..@@@@@@@@.@@@@@.               ",
"            .@@@.@@@@@@@@...@@..               ",
"             .@.@.@..@.@@@@@.@@@.              ",
"             .@@.@.@@@@.@@@@@.@@@.             ",
"              .@@.@@@..+..@@@@.@@@.            ",
"               .@.@@.+++++.@@@@.@@.            ",
"             .....@@.++++++.@@@..@.            ",
"              .@@@.@...+++++.@@. ..            ",
"               .@.+..++..++++.@.  .            ",
"               ...++.+.$$..++...               ",
"              ....++++.$$##++. .               ",
"             .+..X..+++++++++.                 ",
"           ....+.X.O.+++...+...                ",
"          .++.+..X.OO..++++.X.O.               ",
"          .....+.X.OOOO....XX.O.               ",
"         .++.O...XX.OOOOO.XX.O..               ",
"         ....O. .XX.OOOO.XX.O.++.              ",
"         .++..  ..XX.OO.XXX..++.....           ",
"          ..    .......XXXX....+.+++.          ",
"                 .OOO......  ..+..++.          ",
"                .....OOOOO.   ..++++.          ",
"                ............   .+++.           ",
"               .XXX......XX.    ...            ",
"              .XXXXX....XXX.                   ",
"              .XXXX.....XXXX.                  ",
"             .XXXX......XXXX.                  ",
"             .XXXXXX....XXXXX.                 ",
"            .XXXXXXX.  ..XXXXX.                ",
"            .XXXXXX.   ..XXXXX.                ",
"            ..XXXX..   ...XXXX..               ",
"            ........    ........               ",
"             ......      .......               ",
"            ..o...       ....o..               ",
"            ..o...        ....o..              ",
"           ..o....         ...o..              ",
"           ..o...          ....o..             ",
"           ......           ......             "
};
