/* XPM */
static char *result[] = {
/* columns rows colors chars-per-pixel */
"47 47 99 2 ",
"   c gray20",
".  c #F89800",
"X  c #FFBE00",
"o  c #FFC400",
"O  c #FFCC00",
"+  c #FFC60B",
"@  c #FFD400",
"#  c #FFDD00",
"$  c #FFC714",
"%  c #FFC915",
"&  c #FFC71B",
"*  c #FFDF17",
"=  c #FFE000",
"-  c #FFC925",
";  c #FFC628",
":  c #FFCD2C",
">  c #FFCA34",
",  c #FFC73C",
"<  c #FFCB3C",
"1  c #FFD537",
"2  c #FFD934",
"3  c #FFD23D",
"4  c #FFE12E",
"5  c #FFE133",
"6  c #FFE13C",
"7  c #FFCB45",
"8  c #FECA4B",
"9  c #FFDC4B",
"0  c #FFCE52",
"q  c #FFD054",
"w  c #FFDD52",
"e  c #FFD35D",
"r  c #FEDB5B",
"t  c #FFE247",
"y  c #FFE24B",
"u  c #FFE453",
"i  c #FFE45A",
"p  c #FED463",
"a  c #FEDF62",
"s  c #FFD76B",
"d  c #FED277",
"f  c #FFD973",
"g  c #FFDF7E",
"h  c #FFE566",
"j  c #FFE96B",
"k  c #FEE576",
"l  c #FDE479",
"z  c #FFEB7C",
"x  c #0050C8",
"c  c #FDD385",
"v  c #FFDF84",
"b  c #FDDB95",
"n  c #FCD79E",
"m  c #FCDA9C",
"M  c #FFE085",
"N  c #FFED84",
"B  c #FFE38C",
"V  c #FDE98A",
"C  c #FFE593",
"Z  c #FEE995",
"A  c #FCE19B",
"S  c #FFEA9B",
"D  c #FFF194",
"F  c #FFF19A",
"G  c #FCDBA3",
"H  c #FCDDAC",
"J  c #F6D4B2",
"K  c #FBDDB1",
"L  c #FEEBA2",
"P  c #FBE1AF",
"I  c #FDECAB",
"U  c #FFF2AB",
"Y  c #FFF8AE",
"T  c #FBE2B6",
"R  c #FCECB1",
"E  c #FBE1BA",
"W  c #FBEEBB",
"Q  c #FFF4B2",
"!  c #FFF9B4",
"~  c #FFF7B8",
"^  c #FFFABC",
"/  c #99FFCE",
"(  c #FAE4C2",
")  c #FAEDC4",
"_  c #FAEBCD",
"`  c #FFFCC1",
"'  c #FAF1CC",
"]  c #F9EAD3",
"[  c #F9EDDD",
"{  c #FAF1D2",
"}  c #FDFCD2",
"|  c #F9F2D9",
" . c #F9EEE2",
".. c #F9F4E1",
"X. c #F8F4EC",
"o. c #F9FBED",
"O. c gray95",
"+. c #F6FAFF",
"@. c None",
/* pixels */
"@.@.@.@.@.@.@.@.@.@.| @.@.@.@.| @.@.@.@.@.@.@.@.@.@.@.@.@.@.@.| @.@.@.@.| @.@.@.@.@.@.@.@.@.@.",
"@.@.@.@.@.@.@.@.@.@.e @.@.@.@.p @.@.@.U @.@.@.        I @.@.@.  @.@.@.@.e @.@.@.@.@.@.@.@.@.@.",
"@.@.@.@.@.@.@.@.@.@.o | @.@.  % | @.@.- @.    ^ ^   @.: @.@.    V @.@.| o @.@.@.@.@.@.@.@.@.@.",
"@.@.@.@.@.@.@.@.@.@.o _ @.@.  o ] @.@.8   ^ ^ ^   @.V       ^   0 @.@._ o @.@.@.@.@.@.@.@.@.@.",
"@.@.@.@.@.w @.@.d @.o O |   ^   @ @.W   ^ ^ ^ ^       ^ ^ ^ ^   o ) | @ o @.d @.@.w @.@.@.@.@.",
"@.@.@.@.@.% @.@.@ U o o @   ^ ^   T   ^ ^ ^ ^   ^ ^ ^ ^ ^ ^ ^   o b # o o R @ @.@.& @.@.@.@.@.",
"@.@.@.@.@.X ] @.T o o o o   ^ ^ ^     ^ ^ ^   ^ ^ ^ ^ ^ ^   ^   o O o o o o P @.] o @.@.@.@.@.",
"@.@.@.@.@.# o @.) o o o o   ^ ^ ^   ^ ^ ^   ^ ^ ^ ^ ^ ^     ^   o o O o o o ( @.o # @.@.@.@.@.",
"@.@.@.@.@.a o o ' - o o 0   ^ ^ ^   ^ ^ ^ ^ ^ ^ ^ ^     ^   ^   o   q o o - ' o o a @.@.@.@.@.",
"@.@.@.@.@.@.o o c 8 o o ` e   ^ ^ ^ ^ ^ ^   ^ ^ ^   ^ ^ ^   ^       ` o o 8 c o o @.@.@.@.@.@.",
"@.W @.@.@...@ o o o o o ^ D   ^ ^ ^ ^ ^   ^ ^ ^ ^ ^ ^ ^ ^     ^ ^   ^ o o o o o o ..@.@.@.~ @.",
"@.n i @.@.@.b o M 7 o o ^ *     ^ ^       ^ ^ ^ ^ ^ ^ ^ ^   ^ ^ ^   ^ o + 3 M o b @.@.@.i n @.",
"@.n + @.@.@.m o o Q - o o   ^ ^ ^   ^ ^ ^ ^ ^   ^     ^   ^   ^   u o o - Q o o m @.@.@.+ m @.",
"@.A o d { L W o o X ` <   ^ ^ ^   ^ ^ ^ ^ ^   ^ ^ ^ ^   ^   ^ ^   F o < ^ o + o W L { d o A @.",
"@.@.o o O T E o o o B   ^ ^ ^   ^ ^ ^ ^     J     ^ ^ ^   ^ ^   @.2 L k B o o o E K O o o @.@.",
"@.@.o o o & 9 o o o p   ^ ^   ^ ^ ^ ^   J J J J J   ^ ^   ^   @.j N i z e o o o 9 & o o o @.@.",
"@.@.i o o o o o M 0 &   ^     ^ ^ ^   J J J J J J   ^ ^           _ y S & q v o o o o o i @.@.",
"@.@.@.o o > 7 o o ^ F     R   ^ ^   J J J J J       ^   ^ ^ ^   @.R z p F ^ X o 7 > o o @.@.@.",
"@.@.@.@ o 3 Z o o f D   z k   ^   J J J J     J J     J   ^   @.@.k z N D f o o Z < o @ @.@.@.",
"@.@.@.T o o L U X o ! ) ..#       J J     O.O.  J   J J       @.@.# ..) ! o X Q L o o T @.@.@.",
"@.@.@.' o o o ^ A % e j @.@.  @.  J J / / O.O.  J J J J         i @.@.j e + Z ^ o o o ' @.@.@.",
"@.@.@.@.p o o U ` ! s z ..@.@.@.  J J J J J J J J J     .     J   @...z s ! ` U o o p @.@.@.@.",
"@.@.H @.' o + o U 5 D C = @.@.      J       J J J   x   .   J         C F 6 U o + o ' @.H @.@.",
"@.@.[ E +.@ o o v ! 2 # ! )   x   .   J J J J     x x   .     J   J J   5 ! M o o @ +.E [ @.@.",
"@.@.@.X X. .o o o ~ l +.4 R   x   . .         x x x x   .   J           l ~ o o o  .X.X @.@.@.",
"@.@.@._ X | 7 o 7 X ! _ @.)     x   . .   x x x x x   . .       x   J J   X 7 o 3 | X _ @.@.@.",
"@.@.@...% 7 c % S o Z I @.  J J   x   . .   x x x x   . .   @.  x         o A % c 8 & ..@.@.@.",
"@.@.@.@...o o o M U           J J     . . .   x x   . .     @.@.    J J   U M o o o | @.@.@.@.",
"@.@.@.@.@.# o o o   J J J   J         . . . .               @.@.@.@.    ~ ~ o o o # @.@.@.@.@.",
"@.@.@.@.@.@.o o o   J J     J     @.@.            x x x   @.@.@.@.R ^ D U U o o o @.@.@.@.@.@.",
"@.H { @.@.@.A o +   J J J J     @.@.@.  x x x x x           @.@.@.Q 4 F U X + o A @.@.@.{ H @.",
"@...O E G W o.o o S   J J J   @.@.@.                        @.W A { 4 ~ X S o o o.W G E O ..@.",
"@.@.# , % : s 6 o > ^       @.@.@.@.  . .             . . .   @.o.W Q p ^ > o 6 s : % , # @.@.",
"@.@.@.o o o o o o o 8 ` ^ I @.@.@.@.  . . .         . . . . .   @.I ! ` 0 o o o o o o o @.@.@.",
"@.@.@.[ ; o e o o o o B j i ' @.@.  . . . .           . . . .   ] i j B o o o o e o - [ @.@.@.",
"@.@.@.@.r o f S s o o o B U ) @.@.  . . . .             . . . .   U v o o o s S f o r @.@.@.@.",
"@.@.@.@.@.@ o e ^ Q S o X B k @.  . . . . .         . . . . . .   B o X S Q ` e o @ @.@.@.@.@.",
"@.@.@.@.@. .o o v u ` ^ ^ X ~   . . . . .     @.@.  . . . . . . .   ^ ^ ` u v o o  .@.@.@.@.@.",
"@.@.@.@.@.@.E o X I y # Y ! U   . . . . .     @.@.@.  . . . . . .   ! = y I X o E @.@.@.@.@.@.",
"@.@.@.@.@.@.@.@ o o Z F # =     . . . .       @.@.@.    . . . .     # F C o o @ @.@.@.@.@.@.@.",
"@.@.@.@.@.Z @...O o L q ! L                 @.@.@.@.                ! q L o O ..@.Z @.@.@.@.@.",
"@.@.@.@.@.[ ] t o.< e f > D               @.@.@.@.@.@.            D > f p > o.t ] [ @.@.@.@.@.",
"@.@.@.@.@.@.m O.n } L S 7 1     o         @.@.@.@.@.@.@.      o     7 S L } n X.m @.@.@.@.@.@.",
"@.@.@.@.@.@.@.S [ E G g S     o         @.@.@.@.@.@.@.@.      o     L l G E  .S @.@.@.@.@.@.@.",
"@.@.@.@.@.@.@.@.@.] L C @     o       @.@.@.@.@.@.@.@.@.        o     b L ] @.@.@.@.@.@.@.@.@.",
"@.@.@.@.@.@.@.@.@.@.@.@.    o         @.@.@.@.@.@.@.@.@.@.      o     @.@.@.@.@.@.@.@.@.@.@.@.",
"@.@.@.@.@.@.@.@.@.@.@.@.            @.@.@.@.@.@.@.@.@.@.@.            @.@.@.@.@.@.@.@.@.@.@.@."
};
